<svg xmlns="http://www.w3.org/2000/svg" xmlns:xlink="http://www.w3.org/1999/xlink" contentStyleType="text/css" data-diagram-type="DESCRIPTION" height="382px" preserveAspectRatio="none" style="width:811px;height:382px;background:#FFFFFF;" version="1.1" viewBox="0 0 811 382" width="811px" zoomAndPan="magnify"><?plantuml 1.2026.3beta4?><defs/><g><!--entity mongo--><g class="entity" data-qualified-name="mongo" data-source-line="14" id="ent0002"><path d="M18.41,17.5 C18.41,7.5 57.2762,7.5 57.2762,7.5 C57.2762,7.5 96.1424,7.5 96.1424,17.5 L96.1424,54.4375 C96.1424,64.4375 57.2762,64.4375 57.2762,64.4375 C57.2762,64.4375 18.41,64.4375 18.41,54.4375 L18.41,17.5" fill="#E8F4FD" style="stroke:#444444;stroke-width:0.5;"/><path d="M18.41,17.5 C18.41,27.5 57.2762,27.5 57.2762,27.5 C57.2762,27.5 96.1424,27.5 96.1424,17.5" fill="none" style="stroke:#444444;stroke-width:0.5;"/><text fill="#000000" font-family="'DejaVu Sans'" font-size="12" lengthAdjust="spacing" textLength="57.7324" x="28.41" y="42.6387">MongoDB</text><text fill="#000000" font-family="'DejaVu Sans'" font-size="12" lengthAdjust="spacing" textLength="42.6152" x="28.41" y="56.6074">(oplog)</text></g><!--entity debezium--><g class="entity" data-qualified-name="debezium" data-source-line="15" id="ent0003"><rect fill="#F5F5F5" height="57.9375" rx="2.5" ry="2.5" style="stroke:#444444;stroke-width:0.5;" width="100.5508" x="7" y="153.93"/><rect fill="#F5F5F5" height="10" style="stroke:#444444;stroke-width:0.5;" width="15" x="87.5508" y="158.93"/><rect fill="#F5F5F5" height="2" style="stroke:#444444;stroke-width:0.5;" width="4" x="85.5508" y="160.93"/><rect fill="#F5F5F5" height="2" style="stroke:#444444;stroke-width:0.5;" width="4" x="85.5508" y="164.93"/><text fill="#000000" font-family="'DejaVu Sans'" font-size="12" lengthAdjust="spacing" textLength="60.5508" x="22" y="185.0687">Debezium</text><text fill="#000000" font-family="'DejaVu Sans'" font-size="12" lengthAdjust="spacing" textLength="49.6172" x="22" y="199.0374">Connect</text></g><!--entity kafka--><g class="entity" data-qualified-name="kafka" data-source-line="16" id="ent0004"><path d="M285.97,163.93 L418.5833,163.93 C423.5833,163.93 423.5833,182.8988 423.5833,182.8988 C423.5833,182.8988 423.5833,201.8675 418.5833,201.8675 L285.97,201.8675 C280.97,201.8675 280.97,182.8988 280.97,182.8988 C280.97,182.8988 280.97,163.93 285.97,163.93" fill="#FFF8E1" style="stroke:#444444;stroke-width:0.5;"/><path d="M418.5833,163.93 C413.5833,163.93 413.5833,182.8988 413.5833,182.8988 C413.5833,201.8675 418.5833,201.8675 418.5833,201.8675" fill="none" style="stroke:#444444;stroke-width:0.5;"/><text fill="#000000" font-family="'DejaVu Sans'" font-size="12" lengthAdjust="spacing" textLength="77.3379" x="285.97" y="180.0687">Kafka Broker</text><text fill="#000000" font-family="'DejaVu Sans'" font-size="12" lengthAdjust="spacing" textLength="122.6133" x="285.97" y="194.0374">(topic por colecci&#243;n)</text></g><!--entity consumer--><g class="entity" data-qualified-name="consumer" data-source-line="17" id="ent0005"><rect fill="#F5F5F5" height="57.9375" rx="2.5" ry="2.5" style="stroke:#444444;stroke-width:0.5;" width="128.4473" x="548.05" y="153.93"/><rect fill="#F5F5F5" height="10" style="stroke:#444444;stroke-width:0.5;" width="15" x="656.4973" y="158.93"/><rect fill="#F5F5F5" height="2" style="stroke:#444444;stroke-width:0.5;" width="4" x="654.4973" y="160.93"/><rect fill="#F5F5F5" height="2" style="stroke:#444444;stroke-width:0.5;" width="4" x="654.4973" y="164.93"/><text fill="#000000" font-family="'DejaVu Sans'" font-size="12" lengthAdjust="spacing" textLength="88.4473" x="563.05" y="185.0687">Consumer App</text><text fill="#000000" font-family="'DejaVu Sans'" font-size="12" lengthAdjust="spacing" textLength="50.959" x="563.05" y="199.0374">(Python)</text></g><!--entity postgres--><g class="entity" data-qualified-name="postgres" data-source-line="18" id="ent0006"><path d="M479.67,310.87 C479.67,300.87 524.2784,300.87 524.2784,300.87 C524.2784,300.87 568.8868,300.87 568.8868,310.87 L568.8868,347.8075 C568.8868,357.8075 524.2784,357.8075 524.2784,357.8075 C524.2784,357.8075 479.67,357.8075 479.67,347.8075 L479.67,310.87" fill="#E8F4FD" style="stroke:#444444;stroke-width:0.5;"/><path d="M479.67,310.87 C479.67,320.87 524.2784,320.87 524.2784,320.87 C524.2784,320.87 568.8868,320.87 568.8868,310.87" fill="none" style="stroke:#444444;stroke-width:0.5;"/><text fill="#000000" font-family="'DejaVu Sans'" font-size="12" lengthAdjust="spacing" textLength="69.2168" x="489.67" y="336.0087">PostgreSQL</text><text fill="#000000" font-family="'DejaVu Sans'" font-size="12" lengthAdjust="spacing" textLength="60.3223" x="489.67" y="349.9774">(anal&#237;tico)</text></g><!--entity kafkaui--><g class="entity" data-qualified-name="kafkaui" data-source-line="19" id="ent0007"><rect fill="#F5F5F5" height="57.9375" rx="2.5" ry="2.5" style="stroke:#444444;stroke-width:0.5;" width="111.0391" x="296.76" y="7"/><rect fill="#F5F5F5" height="10" style="stroke:#444444;stroke-width:0.5;" width="15" x="387.7991" y="12"/><rect fill="#F5F5F5" height="2" style="stroke:#444444;stroke-width:0.5;" width="4" x="385.7991" y="14"/><rect fill="#F5F5F5" height="2" style="stroke:#444444;stroke-width:0.5;" width="4" x="385.7991" y="18"/><text fill="#000000" font-family="'DejaVu Sans'" font-size="12" lengthAdjust="spacing" textLength="49.8867" x="311.76" y="38.1387">Kafka UI</text><text fill="#000000" font-family="'DejaVu Sans'" font-size="12" lengthAdjust="spacing" textLength="71.0391" x="311.76" y="52.1074">(monitoreo)</text></g><g class="entity" data-qualified-name="GMN13" data-source-line="29" id="ent0014"><path d="M603.85,303.39 L603.85,355.2963 L796.6996,355.2963 L796.6996,313.39 L786.6996,303.39 L603.85,303.39" fill="#FAFAFA" style="stroke:#AAAAAA;stroke-width:0.5;"/><path d="M786.6996,303.39 L786.6996,313.39 L796.6996,313.39 L786.6996,303.39" fill="#FAFAFA" style="stroke:#AAAAAA;stroke-width:1;"/><text fill="#000000" font-family="'DejaVu Sans'" font-size="12" lengthAdjust="spacing" textLength="122.8242" x="609.85" y="319.5287">Reutiliza las mismas</text><text fill="#000000" font-family="'DejaVu Sans'" font-size="12" lengthAdjust="spacing" textLength="171.8496" x="609.85" y="333.4974">funciones de transformaci&#243;n</text><text fill="#000000" font-family="'DejaVu Sans'" font-size="12" lengthAdjust="spacing" textLength="126.252" x="609.85" y="347.4662">que el pipeline batch</text></g><!--link mongo to debezium--><g class="link" data-entity-1="ent0002" data-entity-2="ent0003" data-link-type="dependency" data-source-line="21" id="lnk8"><path d="M57.28,64.91 C57.28,90.41 57.28,121.92 57.28,147.55" fill="none" id="mongo-to-debezium" style="stroke:#444444;stroke-width:1;"/><polygon fill="#444444" points="57.28,153.55,61.28,144.55,57.28,148.55,53.28,144.55,57.28,153.55" style="stroke:#444444;stroke-width:1;"/><text fill="#000000" font-family="'DejaVu Sans'" font-size="12" lengthAdjust="spacing" textLength="93.4395" x="85.0632" y="107.0687">Change Stream</text><text fill="#000000" font-family="'DejaVu Sans'" font-size="12" lengthAdjust="spacing" textLength="147.0059" x="58.28" y="121.0374">(insert / update / delete)</text></g><!--link debezium to kafka--><g class="link" data-entity-1="ent0003" data-entity-2="ent0004" data-link-type="dependency" data-source-line="22" id="lnk9"><path d="M107.99,182.9 C155.6,182.9 221.29,182.9 274.71,182.9" fill="none" id="debezium-to-kafka" style="stroke:#444444;stroke-width:1;"/><polygon fill="#444444" points="280.71,182.9,271.71,178.9,275.71,182.9,271.71,186.9,280.71,182.9" style="stroke:#444444;stroke-width:1;"/><text fill="#000000" font-family="'DejaVu Sans'" font-size="12" lengthAdjust="spacing" textLength="75.1113" x="156.7414" y="163.0387">Evento JSON</text><text fill="#000000" font-family="'DejaVu Sans'" font-size="12" lengthAdjust="spacing" textLength="137.0742" x="125.76" y="177.0074">(documento completo)</text></g><!--link kafka to consumer--><g class="link" data-entity-1="ent0004" data-entity-2="ent0005" data-link-type="dependency" data-source-line="23" id="lnk10"><path d="M424.01,182.9 C462.79,182.9 504.29,182.9 541.88,182.9" fill="none" id="kafka-to-consumer" style="stroke:#444444;stroke-width:1;"/><polygon fill="#444444" points="547.88,182.9,538.88,178.9,542.88,182.9,538.88,186.9,547.88,182.9" style="stroke:#444444;stroke-width:1;"/><text fill="#000000" font-family="'DejaVu Sans'" font-size="12" lengthAdjust="spacing" textLength="68.8359" x="451.4206" y="163.0387">Suscripci&#243;n</text><text fill="#000000" font-family="'DejaVu Sans'" font-size="12" lengthAdjust="spacing" textLength="88.0371" x="441.82" y="177.0074">(at-least-once)</text></g><!--link consumer to postgres--><g class="link" data-entity-1="ent0005" data-entity-2="ent0006" data-link-type="dependency" data-source-line="24" id="lnk11"><path d="M595.1,212.1 C579.49,237.71 559.7319,270.1461 544.2319,295.5861" fill="none" id="consumer-to-postgres" style="stroke:#444444;stroke-width:1;"/><polygon fill="#444444" points="541.11,300.71,549.2087,295.1054,543.7115,296.4401,542.3769,290.943,541.11,300.71" style="stroke:#444444;stroke-width:1;"/><text fill="#000000" font-family="'DejaVu Sans'" font-size="12" lengthAdjust="spacing" textLength="39.6738" x="600.5066" y="254.0087">Upsert</text><text fill="#000000" font-family="'DejaVu Sans'" font-size="12" lengthAdjust="spacing" textLength="86.127" x="577.28" y="267.9774">(idempotente)</text></g><!--link kafkaui to kafka--><g class="link" data-entity-1="ent0007" data-entity-2="ent0004" data-link-type="dependency" data-source-line="26" id="lnk12"><path d="M352.28,65.26 C352.28,94.42 352.28,133.02 352.28,157.77" fill="none" id="kafkaui-to-kafka" style="stroke:#444444;stroke-width:1;stroke-dasharray:7,7;"/><polygon fill="#444444" points="352.28,163.77,356.28,154.77,352.28,158.77,348.28,154.77,352.28,163.77" style="stroke:#444444;stroke-width:1;"/><text fill="#000000" font-family="'DejaVu Sans'" font-size="12" lengthAdjust="spacing" textLength="100.6699" x="353.28" y="107.0687">Lag / throughput</text><text fill="#000000" font-family="'DejaVu Sans'" font-size="12" lengthAdjust="spacing" textLength="48.5098" x="379.3601" y="121.0374">/ estado</text></g><!--link consumer to GMN13--><g class="link" data-entity-1="ent0005" data-entity-2="ent0014" data-link-type="association" data-source-line="29" id="lnk15"><path d="M647.47,212.36 C656.54,221.06 665.6,231.18 672.28,241.87 C684.05,260.75 691.35,285.06 695.53,303.1" fill="none" id="consumer-GMN13" style="stroke:#444444;stroke-width:1;stroke-dasharray:7,7;"/></g><?plantuml-src XLF1RXCn4BtxAqRffJcaLL6HAWv8IPD8G2c5g9nwSRoJNPDTZx77HEIVEF49_J76kqcwf8ZQbzNCcpVlZMVZsZglWswWm9LEDS_9yQrk40PJ_AQ_9bXe5mSg_Wkti5k4YrUzv5ARTHaekUAQQWgmgInZBpyEWJPTwkIoFRsaeSQJGySJ2WM6bs57pKxch_FjQzMibphY_maFg6E-sTNySZxj8RydJ2-GTP1dokRpgzb53-Q8_oOQj-SOyOnddAzIUyam-4YkfEdamPsIhwaS3a17Q79G7GQLttA9MvkQ1tTDpg7X5bRiegeL3OCFUhNMC0cqnY24JDuQyDBNK8t6sCVVhkDVPs2VNrXZQZ30s7kflFl95UsmPfVgQRwZo6N0nUSRmMgdwyTVR0rrUDybOv--4tR_Jk1YpJ85f9wIP9LgBSEee8qRlJquWpTmNMbN8Ymue1R_fzP530pdaBmeGlaei4R6eJeKZO8jAnQQbbquPZz41i7xnQTROIZ8YA4So1AbbeQgGnuAzwQbTf6Y2TQtqyjsULIZZZmYPwJd0RXNlhSlbVS-AysI2vHHiBIK2hMp36TdJm9lT2b6k99TAIkVfEWSCB8kIAcyIB0aPcg0La_l0V054zlQRZNKUMbiR7IKy2evOsNoUK60W_p_AmgDRXr8MfO5i0PlFTRM2RLcKobqHRkoVm00?></g></svg>