<?xml version="1.0" encoding="us-ascii" standalone="no"?><svg xmlns="http://www.w3.org/2000/svg" xmlns:xlink="http://www.w3.org/1999/xlink" contentStyleType="text/css" height="305px" preserveAspectRatio="none" style="width:592px;height:305px;background:#FFFFFF;" version="1.1" viewBox="0 0 592 305" width="592px" zoomAndPan="magnify"><defs/><g><!--entity mongo--><g id="elem_mongo"><path d="M6,16 C6,6 47,6 47,6 C47,6 88,6 88,16 L88,52.9375 C88,62.9375 47,62.9375 47,62.9375 C47,62.9375 6,62.9375 6,52.9375 L6,16 " fill="#E8F4FD" style="stroke:#444444;stroke-width:0.5;"/><path d="M6,16 C6,26 47,26 47,26 C47,26 88,26 88,16 " fill="none" style="stroke:#444444;stroke-width:0.5;"/><text fill="#000000" font-family="DejaVu Sans" font-size="12" lengthAdjust="spacing" textLength="59" x="16" y="41.1387">MongoDB</text><text fill="#000000" font-family="DejaVu Sans" font-size="12" lengthAdjust="spacing" textLength="62" x="16" y="55.1074">(detoxDB)</text></g><!--entity extract--><g id="elem_extract"><rect fill="#F5F5F5" height="43.9688" rx="2.5" ry="2.5" style="stroke:#444444;stroke-width:0.5;" width="105" x="123.5" y="12.5"/><rect fill="#F5F5F5" height="10" style="stroke:#444444;stroke-width:0.5;" width="15" x="208.5" y="17.5"/><rect fill="#F5F5F5" height="2" style="stroke:#444444;stroke-width:0.5;" width="4" x="206.5" y="19.5"/><rect fill="#F5F5F5" height="2" style="stroke:#444444;stroke-width:0.5;" width="4" x="206.5" y="23.5"/><text fill="#000000" font-family="DejaVu Sans" font-size="12" lengthAdjust="spacing" textLength="65" x="138.5" y="43.6387">Extracci&#243;n</text></g><!--entity bson--><g id="elem_bson"><rect fill="#E8F5E9" height="33.9688" rx="35" ry="35" style="stroke:#444444;stroke-width:0.5;" width="54" x="264" y="17.5"/><text fill="#000000" font-family="DejaVu Sans" font-size="12" lengthAdjust="spacing" textLength="34" x="274" y="38.6387">BSON</text></g><!--entity transform--><g id="elem_transform"><rect fill="#F5F5F5" height="43.9688" rx="2.5" ry="2.5" style="stroke:#444444;stroke-width:0.5;" width="137" x="353.5" y="12.5"/><rect fill="#F5F5F5" height="10" style="stroke:#444444;stroke-width:0.5;" width="15" x="470.5" y="17.5"/><rect fill="#F5F5F5" height="2" style="stroke:#444444;stroke-width:0.5;" width="4" x="468.5" y="19.5"/><rect fill="#F5F5F5" height="2" style="stroke:#444444;stroke-width:0.5;" width="4" x="468.5" y="23.5"/><text fill="#000000" font-family="DejaVu Sans" font-size="12" lengthAdjust="spacing" textLength="97" x="368.5" y="43.6387">Transformaci&#243;n</text></g><!--entity csv--><g id="elem_csv"><rect fill="#E8F5E9" height="33.9688" rx="35" ry="35" style="stroke:#444444;stroke-width:0.5;" width="44" x="526" y="17.5"/><text fill="#000000" font-family="DejaVu Sans" font-size="12" lengthAdjust="spacing" textLength="24" x="536" y="38.6387">CSV</text></g><!--entity load--><g id="elem_load"><rect fill="#F5F5F5" height="43.9688" rx="2.5" ry="2.5" style="stroke:#444444;stroke-width:0.5;" width="77" x="509.5" y="130.5"/><rect fill="#F5F5F5" height="10" style="stroke:#444444;stroke-width:0.5;" width="15" x="566.5" y="135.5"/><rect fill="#F5F5F5" height="2" style="stroke:#444444;stroke-width:0.5;" width="4" x="564.5" y="137.5"/><rect fill="#F5F5F5" height="2" style="stroke:#444444;stroke-width:0.5;" width="4" x="564.5" y="141.5"/><text fill="#000000" font-family="DejaVu Sans" font-size="12" lengthAdjust="spacing" textLength="37" x="524.5" y="161.6387">Carga</text></g><!--entity postgres--><g id="elem_postgres"><path d="M329.5,134 C329.5,124 383,124 383,124 C383,124 436.5,124 436.5,134 L436.5,170.9375 C436.5,180.9375 383,180.9375 383,180.9375 C383,180.9375 329.5,180.9375 329.5,170.9375 L329.5,134 " fill="#E8F4FD" style="stroke:#444444;stroke-width:0.5;"/><path d="M329.5,134 C329.5,144 383,144 383,144 C383,144 436.5,144 436.5,134 " fill="none" style="stroke:#444444;stroke-width:0.5;"/><text fill="#000000" font-family="DejaVu Sans" font-size="12" lengthAdjust="spacing" textLength="72" x="339.5" y="159.1387">PostgreSQL</text><text fill="#000000" font-family="DejaVu Sans" font-size="12" lengthAdjust="spacing" textLength="87" x="339.5" y="173.1074">(analytics_db)</text></g><!--entity metrics--><g id="elem_metrics"><rect fill="#F5F5F5" height="43.9688" rx="2.5" ry="2.5" style="stroke:#444444;stroke-width:0.5;" width="93" x="201.5" y="130.5"/><rect fill="#F5F5F5" height="10" style="stroke:#444444;stroke-width:0.5;" width="15" x="274.5" y="135.5"/><rect fill="#F5F5F5" height="2" style="stroke:#444444;stroke-width:0.5;" width="4" x="272.5" y="137.5"/><rect fill="#F5F5F5" height="2" style="stroke:#444444;stroke-width:0.5;" width="4" x="272.5" y="141.5"/><text fill="#000000" font-family="DejaVu Sans" font-size="12" lengthAdjust="spacing" textLength="53" x="216.5" y="161.6387">M&#233;tricas</text></g><!--entity cleanup--><g id="elem_cleanup"><rect fill="#F5F5F5" height="43.9688" rx="2.5" ry="2.5" style="stroke:#444444;stroke-width:0.5;" width="92" x="74" y="130.5"/><rect fill="#F5F5F5" height="10" style="stroke:#444444;stroke-width:0.5;" width="15" x="146" y="135.5"/><rect fill="#F5F5F5" height="2" style="stroke:#444444;stroke-width:0.5;" width="4" x="144" y="137.5"/><rect fill="#F5F5F5" height="2" style="stroke:#444444;stroke-width:0.5;" width="4" x="144" y="141.5"/><text fill="#000000" font-family="DejaVu Sans" font-size="12" lengthAdjust="spacing" textLength="52" x="89" y="161.6387">Limpieza</text></g><!--entity telegram--><g id="elem_telegram"><rect fill="#F5F5F5" height="43.9688" rx="2.5" ry="2.5" style="stroke:#444444;stroke-width:0.5;" width="98" x="285" y="256"/><rect fill="#F5F5F5" height="10" style="stroke:#444444;stroke-width:0.5;" width="15" x="363" y="261"/><rect fill="#F5F5F5" height="2" style="stroke:#444444;stroke-width:0.5;" width="4" x="361" y="263"/><rect fill="#F5F5F5" height="2" style="stroke:#444444;stroke-width:0.5;" width="4" x="361" y="267"/><text fill="#000000" font-family="DejaVu Sans" font-size="12" lengthAdjust="spacing" textLength="58" x="300" y="287.1387">Telegram</text></g><!--link mongo to extract--><g id="link_mongo_extract"><path d="M88.07,34.5 C99.86,34.5 105.65,34.5 117.45,34.5 " fill="none" id="mongo-to-extract" style="stroke:#444444;stroke-width:1.0;"/><polygon fill="#444444" points="123.45,34.5,114.45,30.5,118.45,34.5,114.45,38.5,123.45,34.5" style="stroke:#444444;stroke-width:1.0;"/></g><!--link extract to bson--><g id="link_extract_bson"><path d="M228.56,34.5 C240.27,34.5 245.97,34.5 257.68,34.5 " fill="none" id="extract-to-bson" style="stroke:#444444;stroke-width:1.0;"/><polygon fill="#444444" points="263.68,34.5,254.68,30.5,258.68,34.5,254.68,38.5,263.68,34.5" style="stroke:#444444;stroke-width:1.0;"/></g><!--link bson to transform--><g id="link_bson_transform"><path d="M318.12,34.5 C329.89,34.5 335.66,34.5 347.42,34.5 " fill="none" id="bson-to-transform" style="stroke:#444444;stroke-width:1.0;"/><polygon fill="#444444" points="353.42,34.5,344.42,30.5,348.42,34.5,344.42,38.5,353.42,34.5" style="stroke:#444444;stroke-width:1.0;"/></g><!--link transform to csv--><g id="link_transform_csv"><path d="M490.91,34.5 C502.5,34.5 508.1,34.5 519.7,34.5 " fill="none" id="transform-to-csv" style="stroke:#444444;stroke-width:1.0;"/><polygon fill="#444444" points="525.7,34.5,516.7,30.5,520.7,34.5,516.7,38.5,525.7,34.5" style="stroke:#444444;stroke-width:1.0;"/></g><!--link csv to load--><g id="link_csv_load"><path d="M548,51.63 C548,72.17 548,101.72 548,124.4 " fill="none" id="csv-to-load" style="stroke:#444444;stroke-width:1.0;"/><polygon fill="#444444" points="548,130.4,552,121.4,548,125.4,544,121.4,548,130.4" style="stroke:#444444;stroke-width:1.0;"/></g><!--reverse link postgres to load--><g id="link_postgres_load"><path d="M442.57,152.5 C466.28,152.5 487.65,152.5 509.32,152.5 " fill="none" id="postgres-backto-load" style="stroke:#444444;stroke-width:1.0;"/><polygon fill="#444444" points="436.57,152.5,445.57,156.5,441.57,152.5,445.57,148.5,436.57,152.5" style="stroke:#444444;stroke-width:1.0;"/><text fill="#000000" font-family="DejaVu Sans" font-size="12" lengthAdjust="spacing" textLength="36" x="455" y="146.6387">carga</text></g><!--reverse link metrics to postgres--><g id="link_metrics_postgres"><path d="M300.67,152.5 C312.17,152.5 317.67,152.5 329.17,152.5 " fill="none" id="metrics-backto-postgres" style="stroke:#444444;stroke-width:1.0;"/><polygon fill="#444444" points="294.67,152.5,303.67,156.5,299.67,152.5,303.67,148.5,294.67,152.5" style="stroke:#444444;stroke-width:1.0;"/></g><!--reverse link cleanup to metrics--><g id="link_cleanup_metrics"><path d="M172.5,152.5 C184.07,152.5 189.63,152.5 201.2,152.5 " fill="none" id="cleanup-backto-metrics" style="stroke:#444444;stroke-width:1.0;"/><polygon fill="#444444" points="166.5,152.5,175.5,156.5,171.5,152.5,175.5,148.5,166.5,152.5" style="stroke:#444444;stroke-width:1.0;"/></g><!--link load to telegram--><g id="link_load_telegram"><path d="M511.21,174.73 C471.9,197.42 415.1265,230.1807 375.8665,252.8407 " fill="none" id="load-to-telegram" style="stroke:#444444;stroke-width:1.0;stroke-dasharray:7.0,7.0;"/><polygon fill="#444444" points="370.67,255.84,380.4644,254.8054,375.0005,253.3406,376.4653,247.8766,370.67,255.84" style="stroke:#444444;stroke-width:1.0;"/><text fill="#000000" font-family="DejaVu Sans" font-size="12" lengthAdjust="spacing" textLength="36" x="448" y="223.1387">[fallo]</text></g><!--link cleanup to telegram--><g id="link_cleanup_telegram"><path d="M156.79,174.73 C196.1,197.42 252.8735,230.1807 292.1335,252.8407 " fill="none" id="cleanup-to-telegram" style="stroke:#444444;stroke-width:1.0;stroke-dasharray:7.0,7.0;"/><polygon fill="#444444" points="297.33,255.84,291.5347,247.8766,292.9995,253.3406,287.5356,254.8054,297.33,255.84" style="stroke:#444444;stroke-width:1.0;"/><text fill="#000000" font-family="DejaVu Sans" font-size="12" lengthAdjust="spacing" textLength="40" x="240" y="223.1387">[&#233;xito]</text></g><!--SRC=[XLBBJYCn4BpxAwpXidi8qYAGW4EaF4_0WWPnOT6gu-aC1ezxP3kRm1znvXFoOumzBoUWnPRiSLUvt5KQ-onr2GOAdk4ILihDIRihA90dKto2knLFGTk4sQzugNn5_kie0XSWddD3AvrDI97XwqVfCC97nj2wXWwEmuX0GKL96hKRaydGV4_RU-nWVk9dt2iuM835_mjsh7szsUdyU3wDcDQHWVmRkPRqXTh9x2mYQdAxKgCmzXcVN8xyPAnjcoUNf7EQZl_e7nawsap7FnCEbXU-pBguU3BRE0D2oEsx3WGCPyUQZdaoJdzV1MHXISStRqtr5op95D3VTcsjlpz9xm8axB_uzWHC3W5G15dK-3LPbnjCRowgta63Ud5IsB_PeZPGrh2DjIwtRyv80RQsYFwmGxYGHIdnjNvFA0IzAdUieCAy2hVsq1mO2s7nWP7veniCksYQlGT2CdxfItqGtLSF-YXOjV11HcjT5K84pAzye73fEQrFViw5ZufrXPRH-cpshjxwg_KE3uUTeqhhVWbAqGDhI9_WxTj6Edhu0000]--></g></svg>