<?xml version="1.0" encoding="utf-8" standalone="no"?>
<!DOCTYPE svg PUBLIC "-//W3C//DTD SVG 1.1//EN"
  "http://www.w3.org/Graphics/SVG/1.1/DTD/svg11.dtd">
<svg xmlns:xlink="http://www.w3.org/1999/xlink" width="1139.284029pt" height="567.517258pt" viewBox="0 0 1139.284029 567.517258" xmlns="http://www.w3.org/2000/svg" version="1.1">
 <metadata>
  <rdf:RDF xmlns:dc="http://purl.org/dc/elements/1.1/" xmlns:cc="http://creativecommons.org/ns#" xmlns:rdf="http://www.w3.org/1999/02/22-rdf-syntax-ns#">
   <cc:Work>
    <dc:type rdf:resource="http://purl.org/dc/dcmitype/StillImage"/>
    <dc:date>2026-03-16T14:54:41.156872</dc:date>
    <dc:format>image/svg+xml</dc:format>
    <dc:creator>
     <cc:Agent>
      <dc:title>Matplotlib v3.10.3, https://matplotlib.org/</dc:title>
     </cc:Agent>
    </dc:creator>
   </cc:Work>
  </rdf:RDF>
 </metadata>
 <defs>
  <style type="text/css">*{stroke-linejoin: round; stroke-linecap: butt}</style>
 </defs>
 <g id="figure_1">
  <g id="patch_1">
   <path d="M 0 567.517258 
L 1139.284029 567.517258 
L 1139.284029 0 
L 0 0 
z
" style="fill: #ffffff"/>
  </g>
  <g id="axes_1">
   <g id="patch_2">
    <path d="M 53.328125 504.734575 
L 800.897258 504.734575 
L 800.897258 48.48 
L 53.328125 48.48 
z
" style="fill: #ffffff"/>
   </g>
   <g id="patch_3">
    <path d="M 61.634449 504.734575 
L 94.859743 504.734575 
L 94.859743 504.287786 
L 61.634449 504.287786 
z
" clip-path="url(#p6c5594b12c)" style="fill: #93c9de; opacity: 0.8"/>
   </g>
   <g id="patch_4">
    <path d="M 144.697686 504.734575 
L 177.92298 504.734575 
L 177.92298 504.239887 
L 144.697686 504.239887 
z
" clip-path="url(#p6c5594b12c)" style="fill: #93c9de; opacity: 0.8"/>
   </g>
   <g id="patch_5">
    <path d="M 227.760923 504.734575 
L 260.986217 504.734575 
L 260.986217 501.056658 
L 227.760923 501.056658 
z
" clip-path="url(#p6c5594b12c)" style="fill: #93c9de; opacity: 0.8"/>
   </g>
   <g id="patch_6">
    <path d="M 310.82416 504.734575 
L 344.049454 504.734575 
L 344.049454 498.226702 
L 310.82416 498.226702 
z
" clip-path="url(#p6c5594b12c)" style="fill: #93c9de; opacity: 0.8"/>
   </g>
   <g id="patch_7">
    <path d="M 393.887397 504.734575 
L 427.112691 504.734575 
L 427.112691 497.999316 
L 393.887397 497.999316 
z
" clip-path="url(#p6c5594b12c)" style="fill: #93c9de; opacity: 0.8"/>
   </g>
   <g id="patch_8">
    <path d="M 476.950634 504.734575 
L 510.175928 504.734575 
L 510.175928 498.083006 
L 476.950634 498.083006 
z
" clip-path="url(#p6c5594b12c)" style="fill: #93c9de; opacity: 0.8"/>
   </g>
   <g id="patch_9">
    <path d="M 560.013871 504.734575 
L 593.239165 504.734575 
L 593.239165 490.361004 
L 560.013871 490.361004 
z
" clip-path="url(#p6c5594b12c)" style="fill: #93c9de; opacity: 0.8"/>
   </g>
   <g id="patch_10">
    <path d="M 643.077108 504.734575 
L 676.302402 504.734575 
L 676.302402 414.463452 
L 643.077108 414.463452 
z
" clip-path="url(#p6c5594b12c)" style="fill: #93c9de; opacity: 0.8"/>
   </g>
   <g id="patch_11">
    <path d="M 726.140345 504.734575 
L 759.365639 504.734575 
L 759.365639 431.509423 
L 726.140345 431.509423 
z
" clip-path="url(#p6c5594b12c)" style="fill: #93c9de; opacity: 0.8"/>
   </g>
   <g id="patch_12">
    <path d="M 593.239165 504.734575 
L 626.46446 504.734575 
L 626.46446 457.836552 
L 593.239165 457.836552 
z
" clip-path="url(#p6c5594b12c)" style="fill: #df9c20; opacity: 0.8"/>
   </g>
   <g id="patch_13">
    <path d="M 676.302402 504.734575 
L 709.527697 504.734575 
L 709.527697 276.377219 
L 676.302402 276.377219 
z
" clip-path="url(#p6c5594b12c)" style="fill: #df9c20; opacity: 0.8"/>
   </g>
   <g id="patch_14">
    <path d="M 759.365639 504.734575 
L 792.590934 504.734575 
L 792.590934 70.206408 
L 759.365639 70.206408 
z
" clip-path="url(#p6c5594b12c)" style="fill: #df9c20; opacity: 0.8"/>
   </g>
   <g id="patch_15">
    <path d="M 94.859743 504.734575 
L 94.859743 504.734575 
L 94.859743 504.734575 
L 94.859743 504.734575 
z
" clip-path="url(#p6c5594b12c)" style="fill: #93c9de; opacity: 0.8"/>
   </g>
   <g id="patch_16">
    <path d="M 94.859743 504.734575 
L 94.859743 504.734575 
L 94.859743 504.734575 
L 94.859743 504.734575 
z
" clip-path="url(#p6c5594b12c)" style="fill: #df9c20; opacity: 0.8"/>
   </g>
   <g id="matplotlib.axis_1">
    <g id="xtick_1">
     <g id="line2d_1">
      <defs>
       <path id="m0f92e12ec3" d="M 0 0 
L 0 3.5 
" style="stroke: #000000; stroke-width: 0.8"/>
      </defs>
      <g>
       <use xlink:href="#m0f92e12ec3" x="94.859743" y="504.734575" style="stroke: #000000; stroke-width: 0.8"/>
      </g>
     </g>
     <g id="text_1">
      <!-- 2024Q1 -->
      <g transform="translate(82.780371 545.168572) rotate(-45) scale(0.1 -0.1)">
       <defs>
        <path id="DejaVuSans-32" d="M 1228 531 
L 3431 531 
L 3431 0 
L 469 0 
L 469 531 
Q 828 903 1448 1529 
Q 2069 2156 2228 2338 
Q 2531 2678 2651 2914 
Q 2772 3150 2772 3378 
Q 2772 3750 2511 3984 
Q 2250 4219 1831 4219 
Q 1534 4219 1204 4116 
Q 875 4013 500 3803 
L 500 4441 
Q 881 4594 1212 4672 
Q 1544 4750 1819 4750 
Q 2544 4750 2975 4387 
Q 3406 4025 3406 3419 
Q 3406 3131 3298 2873 
Q 3191 2616 2906 2266 
Q 2828 2175 2409 1742 
Q 1991 1309 1228 531 
z
" transform="scale(0.015625)"/>
        <path id="DejaVuSans-30" d="M 2034 4250 
Q 1547 4250 1301 3770 
Q 1056 3291 1056 2328 
Q 1056 1369 1301 889 
Q 1547 409 2034 409 
Q 2525 409 2770 889 
Q 3016 1369 3016 2328 
Q 3016 3291 2770 3770 
Q 2525 4250 2034 4250 
z
M 2034 4750 
Q 2819 4750 3233 4129 
Q 3647 3509 3647 2328 
Q 3647 1150 3233 529 
Q 2819 -91 2034 -91 
Q 1250 -91 836 529 
Q 422 1150 422 2328 
Q 422 3509 836 4129 
Q 1250 4750 2034 4750 
z
" transform="scale(0.015625)"/>
        <path id="DejaVuSans-34" d="M 2419 4116 
L 825 1625 
L 2419 1625 
L 2419 4116 
z
M 2253 4666 
L 3047 4666 
L 3047 1625 
L 3713 1625 
L 3713 1100 
L 3047 1100 
L 3047 0 
L 2419 0 
L 2419 1100 
L 313 1100 
L 313 1709 
L 2253 4666 
z
" transform="scale(0.015625)"/>
        <path id="DejaVuSans-51" d="M 2522 4238 
Q 1834 4238 1429 3725 
Q 1025 3213 1025 2328 
Q 1025 1447 1429 934 
Q 1834 422 2522 422 
Q 3209 422 3611 934 
Q 4013 1447 4013 2328 
Q 4013 3213 3611 3725 
Q 3209 4238 2522 4238 
z
M 3406 84 
L 4238 -825 
L 3475 -825 
L 2784 -78 
Q 2681 -84 2626 -87 
Q 2572 -91 2522 -91 
Q 1538 -91 948 567 
Q 359 1225 359 2328 
Q 359 3434 948 4092 
Q 1538 4750 2522 4750 
Q 3503 4750 4090 4092 
Q 4678 3434 4678 2328 
Q 4678 1516 4351 937 
Q 4025 359 3406 84 
z
" transform="scale(0.015625)"/>
        <path id="DejaVuSans-31" d="M 794 531 
L 1825 531 
L 1825 4091 
L 703 3866 
L 703 4441 
L 1819 4666 
L 2450 4666 
L 2450 531 
L 3481 531 
L 3481 0 
L 794 0 
L 794 531 
z
" transform="scale(0.015625)"/>
       </defs>
       <use xlink:href="#DejaVuSans-32"/>
       <use xlink:href="#DejaVuSans-30" transform="translate(63.623047 0)"/>
       <use xlink:href="#DejaVuSans-32" transform="translate(127.246094 0)"/>
       <use xlink:href="#DejaVuSans-34" transform="translate(190.869141 0)"/>
       <use xlink:href="#DejaVuSans-51" transform="translate(254.492188 0)"/>
       <use xlink:href="#DejaVuSans-31" transform="translate(333.203125 0)"/>
      </g>
     </g>
    </g>
    <g id="xtick_2">
     <g id="line2d_2">
      <g>
       <use xlink:href="#m0f92e12ec3" x="177.92298" y="504.734575" style="stroke: #000000; stroke-width: 0.8"/>
      </g>
     </g>
     <g id="text_2">
      <!-- 2024Q2 -->
      <g transform="translate(165.843608 545.168572) rotate(-45) scale(0.1 -0.1)">
       <use xlink:href="#DejaVuSans-32"/>
       <use xlink:href="#DejaVuSans-30" transform="translate(63.623047 0)"/>
       <use xlink:href="#DejaVuSans-32" transform="translate(127.246094 0)"/>
       <use xlink:href="#DejaVuSans-34" transform="translate(190.869141 0)"/>
       <use xlink:href="#DejaVuSans-51" transform="translate(254.492188 0)"/>
       <use xlink:href="#DejaVuSans-32" transform="translate(333.203125 0)"/>
      </g>
     </g>
    </g>
    <g id="xtick_3">
     <g id="line2d_3">
      <g>
       <use xlink:href="#m0f92e12ec3" x="260.986217" y="504.734575" style="stroke: #000000; stroke-width: 0.8"/>
      </g>
     </g>
     <g id="text_3">
      <!-- 2024Q3 -->
      <g transform="translate(248.906845 545.168572) rotate(-45) scale(0.1 -0.1)">
       <defs>
        <path id="DejaVuSans-33" d="M 2597 2516 
Q 3050 2419 3304 2112 
Q 3559 1806 3559 1356 
Q 3559 666 3084 287 
Q 2609 -91 1734 -91 
Q 1441 -91 1130 -33 
Q 819 25 488 141 
L 488 750 
Q 750 597 1062 519 
Q 1375 441 1716 441 
Q 2309 441 2620 675 
Q 2931 909 2931 1356 
Q 2931 1769 2642 2001 
Q 2353 2234 1838 2234 
L 1294 2234 
L 1294 2753 
L 1863 2753 
Q 2328 2753 2575 2939 
Q 2822 3125 2822 3475 
Q 2822 3834 2567 4026 
Q 2313 4219 1838 4219 
Q 1578 4219 1281 4162 
Q 984 4106 628 3988 
L 628 4550 
Q 988 4650 1302 4700 
Q 1616 4750 1894 4750 
Q 2613 4750 3031 4423 
Q 3450 4097 3450 3541 
Q 3450 3153 3228 2886 
Q 3006 2619 2597 2516 
z
" transform="scale(0.015625)"/>
       </defs>
       <use xlink:href="#DejaVuSans-32"/>
       <use xlink:href="#DejaVuSans-30" transform="translate(63.623047 0)"/>
       <use xlink:href="#DejaVuSans-32" transform="translate(127.246094 0)"/>
       <use xlink:href="#DejaVuSans-34" transform="translate(190.869141 0)"/>
       <use xlink:href="#DejaVuSans-51" transform="translate(254.492188 0)"/>
       <use xlink:href="#DejaVuSans-33" transform="translate(333.203125 0)"/>
      </g>
     </g>
    </g>
    <g id="xtick_4">
     <g id="line2d_4">
      <g>
       <use xlink:href="#m0f92e12ec3" x="344.049454" y="504.734575" style="stroke: #000000; stroke-width: 0.8"/>
      </g>
     </g>
     <g id="text_4">
      <!-- 2024Q4 -->
      <g transform="translate(331.970082 545.168572) rotate(-45) scale(0.1 -0.1)">
       <use xlink:href="#DejaVuSans-32"/>
       <use xlink:href="#DejaVuSans-30" transform="translate(63.623047 0)"/>
       <use xlink:href="#DejaVuSans-32" transform="translate(127.246094 0)"/>
       <use xlink:href="#DejaVuSans-34" transform="translate(190.869141 0)"/>
       <use xlink:href="#DejaVuSans-51" transform="translate(254.492188 0)"/>
       <use xlink:href="#DejaVuSans-34" transform="translate(333.203125 0)"/>
      </g>
     </g>
    </g>
    <g id="xtick_5">
     <g id="line2d_5">
      <g>
       <use xlink:href="#m0f92e12ec3" x="427.112691" y="504.734575" style="stroke: #000000; stroke-width: 0.8"/>
      </g>
     </g>
     <g id="text_5">
      <!-- 2025Q1 -->
      <g transform="translate(415.033319 545.168572) rotate(-45) scale(0.1 -0.1)">
       <defs>
        <path id="DejaVuSans-35" d="M 691 4666 
L 3169 4666 
L 3169 4134 
L 1269 4134 
L 1269 2991 
Q 1406 3038 1543 3061 
Q 1681 3084 1819 3084 
Q 2600 3084 3056 2656 
Q 3513 2228 3513 1497 
Q 3513 744 3044 326 
Q 2575 -91 1722 -91 
Q 1428 -91 1123 -41 
Q 819 9 494 109 
L 494 744 
Q 775 591 1075 516 
Q 1375 441 1709 441 
Q 2250 441 2565 725 
Q 2881 1009 2881 1497 
Q 2881 1984 2565 2268 
Q 2250 2553 1709 2553 
Q 1456 2553 1204 2497 
Q 953 2441 691 2322 
L 691 4666 
z
" transform="scale(0.015625)"/>
       </defs>
       <use xlink:href="#DejaVuSans-32"/>
       <use xlink:href="#DejaVuSans-30" transform="translate(63.623047 0)"/>
       <use xlink:href="#DejaVuSans-32" transform="translate(127.246094 0)"/>
       <use xlink:href="#DejaVuSans-35" transform="translate(190.869141 0)"/>
       <use xlink:href="#DejaVuSans-51" transform="translate(254.492188 0)"/>
       <use xlink:href="#DejaVuSans-31" transform="translate(333.203125 0)"/>
      </g>
     </g>
    </g>
    <g id="xtick_6">
     <g id="line2d_6">
      <g>
       <use xlink:href="#m0f92e12ec3" x="510.175928" y="504.734575" style="stroke: #000000; stroke-width: 0.8"/>
      </g>
     </g>
     <g id="text_6">
      <!-- 2025Q2 -->
      <g transform="translate(498.096556 545.168572) rotate(-45) scale(0.1 -0.1)">
       <use xlink:href="#DejaVuSans-32"/>
       <use xlink:href="#DejaVuSans-30" transform="translate(63.623047 0)"/>
       <use xlink:href="#DejaVuSans-32" transform="translate(127.246094 0)"/>
       <use xlink:href="#DejaVuSans-35" transform="translate(190.869141 0)"/>
       <use xlink:href="#DejaVuSans-51" transform="translate(254.492188 0)"/>
       <use xlink:href="#DejaVuSans-32" transform="translate(333.203125 0)"/>
      </g>
     </g>
    </g>
    <g id="xtick_7">
     <g id="line2d_7">
      <g>
       <use xlink:href="#m0f92e12ec3" x="593.239165" y="504.734575" style="stroke: #000000; stroke-width: 0.8"/>
      </g>
     </g>
     <g id="text_7">
      <!-- 2025Q3 -->
      <g transform="translate(581.159793 545.168572) rotate(-45) scale(0.1 -0.1)">
       <use xlink:href="#DejaVuSans-32"/>
       <use xlink:href="#DejaVuSans-30" transform="translate(63.623047 0)"/>
       <use xlink:href="#DejaVuSans-32" transform="translate(127.246094 0)"/>
       <use xlink:href="#DejaVuSans-35" transform="translate(190.869141 0)"/>
       <use xlink:href="#DejaVuSans-51" transform="translate(254.492188 0)"/>
       <use xlink:href="#DejaVuSans-33" transform="translate(333.203125 0)"/>
      </g>
     </g>
    </g>
    <g id="xtick_8">
     <g id="line2d_8">
      <g>
       <use xlink:href="#m0f92e12ec3" x="676.302402" y="504.734575" style="stroke: #000000; stroke-width: 0.8"/>
      </g>
     </g>
     <g id="text_8">
      <!-- 2025Q4 -->
      <g transform="translate(664.22303 545.168572) rotate(-45) scale(0.1 -0.1)">
       <use xlink:href="#DejaVuSans-32"/>
       <use xlink:href="#DejaVuSans-30" transform="translate(63.623047 0)"/>
       <use xlink:href="#DejaVuSans-32" transform="translate(127.246094 0)"/>
       <use xlink:href="#DejaVuSans-35" transform="translate(190.869141 0)"/>
       <use xlink:href="#DejaVuSans-51" transform="translate(254.492188 0)"/>
       <use xlink:href="#DejaVuSans-34" transform="translate(333.203125 0)"/>
      </g>
     </g>
    </g>
    <g id="xtick_9">
     <g id="line2d_9">
      <g>
       <use xlink:href="#m0f92e12ec3" x="759.365639" y="504.734575" style="stroke: #000000; stroke-width: 0.8"/>
      </g>
     </g>
     <g id="text_9">
      <!-- 2026Q1 -->
      <g transform="translate(747.286267 545.168572) rotate(-45) scale(0.1 -0.1)">
       <defs>
        <path id="DejaVuSans-36" d="M 2113 2584 
Q 1688 2584 1439 2293 
Q 1191 2003 1191 1497 
Q 1191 994 1439 701 
Q 1688 409 2113 409 
Q 2538 409 2786 701 
Q 3034 994 3034 1497 
Q 3034 2003 2786 2293 
Q 2538 2584 2113 2584 
z
M 3366 4563 
L 3366 3988 
Q 3128 4100 2886 4159 
Q 2644 4219 2406 4219 
Q 1781 4219 1451 3797 
Q 1122 3375 1075 2522 
Q 1259 2794 1537 2939 
Q 1816 3084 2150 3084 
Q 2853 3084 3261 2657 
Q 3669 2231 3669 1497 
Q 3669 778 3244 343 
Q 2819 -91 2113 -91 
Q 1303 -91 875 529 
Q 447 1150 447 2328 
Q 447 3434 972 4092 
Q 1497 4750 2381 4750 
Q 2619 4750 2861 4703 
Q 3103 4656 3366 4563 
z
" transform="scale(0.015625)"/>
       </defs>
       <use xlink:href="#DejaVuSans-32"/>
       <use xlink:href="#DejaVuSans-30" transform="translate(63.623047 0)"/>
       <use xlink:href="#DejaVuSans-32" transform="translate(127.246094 0)"/>
       <use xlink:href="#DejaVuSans-36" transform="translate(190.869141 0)"/>
       <use xlink:href="#DejaVuSans-51" transform="translate(254.492188 0)"/>
       <use xlink:href="#DejaVuSans-31" transform="translate(333.203125 0)"/>
      </g>
     </g>
    </g>
    <g id="text_10">
     <!-- Quarter -->
     <g transform="translate(407.796285 558.237571) scale(0.1 -0.1)">
      <defs>
       <path id="DejaVuSans-75" d="M 544 1381 
L 544 3500 
L 1119 3500 
L 1119 1403 
Q 1119 906 1312 657 
Q 1506 409 1894 409 
Q 2359 409 2629 706 
Q 2900 1003 2900 1516 
L 2900 3500 
L 3475 3500 
L 3475 0 
L 2900 0 
L 2900 538 
Q 2691 219 2414 64 
Q 2138 -91 1772 -91 
Q 1169 -91 856 284 
Q 544 659 544 1381 
z
M 1991 3584 
L 1991 3584 
z
" transform="scale(0.015625)"/>
       <path id="DejaVuSans-61" d="M 2194 1759 
Q 1497 1759 1228 1600 
Q 959 1441 959 1056 
Q 959 750 1161 570 
Q 1363 391 1709 391 
Q 2188 391 2477 730 
Q 2766 1069 2766 1631 
L 2766 1759 
L 2194 1759 
z
M 3341 1997 
L 3341 0 
L 2766 0 
L 2766 531 
Q 2569 213 2275 61 
Q 1981 -91 1556 -91 
Q 1019 -91 701 211 
Q 384 513 384 1019 
Q 384 1609 779 1909 
Q 1175 2209 1959 2209 
L 2766 2209 
L 2766 2266 
Q 2766 2663 2505 2880 
Q 2244 3097 1772 3097 
Q 1472 3097 1187 3025 
Q 903 2953 641 2809 
L 641 3341 
Q 956 3463 1253 3523 
Q 1550 3584 1831 3584 
Q 2591 3584 2966 3190 
Q 3341 2797 3341 1997 
z
" transform="scale(0.015625)"/>
       <path id="DejaVuSans-72" d="M 2631 2963 
Q 2534 3019 2420 3045 
Q 2306 3072 2169 3072 
Q 1681 3072 1420 2755 
Q 1159 2438 1159 1844 
L 1159 0 
L 581 0 
L 581 3500 
L 1159 3500 
L 1159 2956 
Q 1341 3275 1631 3429 
Q 1922 3584 2338 3584 
Q 2397 3584 2469 3576 
Q 2541 3569 2628 3553 
L 2631 2963 
z
" transform="scale(0.015625)"/>
       <path id="DejaVuSans-74" d="M 1172 4494 
L 1172 3500 
L 2356 3500 
L 2356 3053 
L 1172 3053 
L 1172 1153 
Q 1172 725 1289 603 
Q 1406 481 1766 481 
L 2356 481 
L 2356 0 
L 1766 0 
Q 1100 0 847 248 
Q 594 497 594 1153 
L 594 3053 
L 172 3053 
L 172 3500 
L 594 3500 
L 594 4494 
L 1172 4494 
z
" transform="scale(0.015625)"/>
       <path id="DejaVuSans-65" d="M 3597 1894 
L 3597 1613 
L 953 1613 
Q 991 1019 1311 708 
Q 1631 397 2203 397 
Q 2534 397 2845 478 
Q 3156 559 3463 722 
L 3463 178 
Q 3153 47 2828 -22 
Q 2503 -91 2169 -91 
Q 1331 -91 842 396 
Q 353 884 353 1716 
Q 353 2575 817 3079 
Q 1281 3584 2069 3584 
Q 2775 3584 3186 3129 
Q 3597 2675 3597 1894 
z
M 3022 2063 
Q 3016 2534 2758 2815 
Q 2500 3097 2075 3097 
Q 1594 3097 1305 2825 
Q 1016 2553 972 2059 
L 3022 2063 
z
" transform="scale(0.015625)"/>
      </defs>
      <use xlink:href="#DejaVuSans-51"/>
      <use xlink:href="#DejaVuSans-75" transform="translate(78.710938 0)"/>
      <use xlink:href="#DejaVuSans-61" transform="translate(142.089844 0)"/>
      <use xlink:href="#DejaVuSans-72" transform="translate(203.369141 0)"/>
      <use xlink:href="#DejaVuSans-74" transform="translate(244.482422 0)"/>
      <use xlink:href="#DejaVuSans-65" transform="translate(283.691406 0)"/>
      <use xlink:href="#DejaVuSans-72" transform="translate(345.214844 0)"/>
     </g>
    </g>
   </g>
   <g id="matplotlib.axis_2">
    <g id="ytick_1">
     <g id="line2d_10">
      <defs>
       <path id="mec537ba299" d="M 0 0 
L -3.5 0 
" style="stroke: #000000; stroke-width: 0.8"/>
      </defs>
      <g>
       <use xlink:href="#mec537ba299" x="53.328125" y="504.734575" style="stroke: #000000; stroke-width: 0.8"/>
      </g>
     </g>
     <g id="text_11">
      <!-- 0 -->
      <g transform="translate(39.965625 508.533793) scale(0.1 -0.1)">
       <use xlink:href="#DejaVuSans-30"/>
      </g>
     </g>
    </g>
    <g id="ytick_2">
     <g id="line2d_11">
      <g>
       <use xlink:href="#mec537ba299" x="53.328125" y="417.008474" style="stroke: #000000; stroke-width: 0.8"/>
      </g>
     </g>
     <g id="text_12">
      <!-- 1000 -->
      <g transform="translate(20.878125 420.807693) scale(0.1 -0.1)">
       <use xlink:href="#DejaVuSans-31"/>
       <use xlink:href="#DejaVuSans-30" transform="translate(63.623047 0)"/>
       <use xlink:href="#DejaVuSans-30" transform="translate(127.246094 0)"/>
       <use xlink:href="#DejaVuSans-30" transform="translate(190.869141 0)"/>
      </g>
     </g>
    </g>
    <g id="ytick_3">
     <g id="line2d_12">
      <g>
       <use xlink:href="#mec537ba299" x="53.328125" y="329.282374" style="stroke: #000000; stroke-width: 0.8"/>
      </g>
     </g>
     <g id="text_13">
      <!-- 2000 -->
      <g transform="translate(20.878125 333.081593) scale(0.1 -0.1)">
       <use xlink:href="#DejaVuSans-32"/>
       <use xlink:href="#DejaVuSans-30" transform="translate(63.623047 0)"/>
       <use xlink:href="#DejaVuSans-30" transform="translate(127.246094 0)"/>
       <use xlink:href="#DejaVuSans-30" transform="translate(190.869141 0)"/>
      </g>
     </g>
    </g>
    <g id="ytick_4">
     <g id="line2d_13">
      <g>
       <use xlink:href="#mec537ba299" x="53.328125" y="241.556274" style="stroke: #000000; stroke-width: 0.8"/>
      </g>
     </g>
     <g id="text_14">
      <!-- 3000 -->
      <g transform="translate(20.878125 245.355492) scale(0.1 -0.1)">
       <use xlink:href="#DejaVuSans-33"/>
       <use xlink:href="#DejaVuSans-30" transform="translate(63.623047 0)"/>
       <use xlink:href="#DejaVuSans-30" transform="translate(127.246094 0)"/>
       <use xlink:href="#DejaVuSans-30" transform="translate(190.869141 0)"/>
      </g>
     </g>
    </g>
    <g id="ytick_5">
     <g id="line2d_14">
      <g>
       <use xlink:href="#mec537ba299" x="53.328125" y="153.830173" style="stroke: #000000; stroke-width: 0.8"/>
      </g>
     </g>
     <g id="text_15">
      <!-- 4000 -->
      <g transform="translate(20.878125 157.629392) scale(0.1 -0.1)">
       <use xlink:href="#DejaVuSans-34"/>
       <use xlink:href="#DejaVuSans-30" transform="translate(63.623047 0)"/>
       <use xlink:href="#DejaVuSans-30" transform="translate(127.246094 0)"/>
       <use xlink:href="#DejaVuSans-30" transform="translate(190.869141 0)"/>
      </g>
     </g>
    </g>
    <g id="ytick_6">
     <g id="line2d_15">
      <g>
       <use xlink:href="#mec537ba299" x="53.328125" y="66.104073" style="stroke: #000000; stroke-width: 0.8"/>
      </g>
     </g>
     <g id="text_16">
      <!-- 5000 -->
      <g transform="translate(20.878125 69.903291) scale(0.1 -0.1)">
       <use xlink:href="#DejaVuSans-35"/>
       <use xlink:href="#DejaVuSans-30" transform="translate(63.623047 0)"/>
       <use xlink:href="#DejaVuSans-30" transform="translate(127.246094 0)"/>
       <use xlink:href="#DejaVuSans-30" transform="translate(190.869141 0)"/>
      </g>
     </g>
    </g>
    <g id="text_17">
     <!-- Total Impressions (K) -->
     <g transform="translate(14.798438 328.612756) rotate(-90) scale(0.1 -0.1)">
      <defs>
       <path id="DejaVuSans-54" d="M -19 4666 
L 3928 4666 
L 3928 4134 
L 2272 4134 
L 2272 0 
L 1638 0 
L 1638 4134 
L -19 4134 
L -19 4666 
z
" transform="scale(0.015625)"/>
       <path id="DejaVuSans-6f" d="M 1959 3097 
Q 1497 3097 1228 2736 
Q 959 2375 959 1747 
Q 959 1119 1226 758 
Q 1494 397 1959 397 
Q 2419 397 2687 759 
Q 2956 1122 2956 1747 
Q 2956 2369 2687 2733 
Q 2419 3097 1959 3097 
z
M 1959 3584 
Q 2709 3584 3137 3096 
Q 3566 2609 3566 1747 
Q 3566 888 3137 398 
Q 2709 -91 1959 -91 
Q 1206 -91 779 398 
Q 353 888 353 1747 
Q 353 2609 779 3096 
Q 1206 3584 1959 3584 
z
" transform="scale(0.015625)"/>
       <path id="DejaVuSans-6c" d="M 603 4863 
L 1178 4863 
L 1178 0 
L 603 0 
L 603 4863 
z
" transform="scale(0.015625)"/>
       <path id="DejaVuSans-20" transform="scale(0.015625)"/>
       <path id="DejaVuSans-49" d="M 628 4666 
L 1259 4666 
L 1259 0 
L 628 0 
L 628 4666 
z
" transform="scale(0.015625)"/>
       <path id="DejaVuSans-6d" d="M 3328 2828 
Q 3544 3216 3844 3400 
Q 4144 3584 4550 3584 
Q 5097 3584 5394 3201 
Q 5691 2819 5691 2113 
L 5691 0 
L 5113 0 
L 5113 2094 
Q 5113 2597 4934 2840 
Q 4756 3084 4391 3084 
Q 3944 3084 3684 2787 
Q 3425 2491 3425 1978 
L 3425 0 
L 2847 0 
L 2847 2094 
Q 2847 2600 2669 2842 
Q 2491 3084 2119 3084 
Q 1678 3084 1418 2786 
Q 1159 2488 1159 1978 
L 1159 0 
L 581 0 
L 581 3500 
L 1159 3500 
L 1159 2956 
Q 1356 3278 1631 3431 
Q 1906 3584 2284 3584 
Q 2666 3584 2933 3390 
Q 3200 3197 3328 2828 
z
" transform="scale(0.015625)"/>
       <path id="DejaVuSans-70" d="M 1159 525 
L 1159 -1331 
L 581 -1331 
L 581 3500 
L 1159 3500 
L 1159 2969 
Q 1341 3281 1617 3432 
Q 1894 3584 2278 3584 
Q 2916 3584 3314 3078 
Q 3713 2572 3713 1747 
Q 3713 922 3314 415 
Q 2916 -91 2278 -91 
Q 1894 -91 1617 61 
Q 1341 213 1159 525 
z
M 3116 1747 
Q 3116 2381 2855 2742 
Q 2594 3103 2138 3103 
Q 1681 3103 1420 2742 
Q 1159 2381 1159 1747 
Q 1159 1113 1420 752 
Q 1681 391 2138 391 
Q 2594 391 2855 752 
Q 3116 1113 3116 1747 
z
" transform="scale(0.015625)"/>
       <path id="DejaVuSans-73" d="M 2834 3397 
L 2834 2853 
Q 2591 2978 2328 3040 
Q 2066 3103 1784 3103 
Q 1356 3103 1142 2972 
Q 928 2841 928 2578 
Q 928 2378 1081 2264 
Q 1234 2150 1697 2047 
L 1894 2003 
Q 2506 1872 2764 1633 
Q 3022 1394 3022 966 
Q 3022 478 2636 193 
Q 2250 -91 1575 -91 
Q 1294 -91 989 -36 
Q 684 19 347 128 
L 347 722 
Q 666 556 975 473 
Q 1284 391 1588 391 
Q 1994 391 2212 530 
Q 2431 669 2431 922 
Q 2431 1156 2273 1281 
Q 2116 1406 1581 1522 
L 1381 1569 
Q 847 1681 609 1914 
Q 372 2147 372 2553 
Q 372 3047 722 3315 
Q 1072 3584 1716 3584 
Q 2034 3584 2315 3537 
Q 2597 3491 2834 3397 
z
" transform="scale(0.015625)"/>
       <path id="DejaVuSans-69" d="M 603 3500 
L 1178 3500 
L 1178 0 
L 603 0 
L 603 3500 
z
M 603 4863 
L 1178 4863 
L 1178 4134 
L 603 4134 
L 603 4863 
z
" transform="scale(0.015625)"/>
       <path id="DejaVuSans-6e" d="M 3513 2113 
L 3513 0 
L 2938 0 
L 2938 2094 
Q 2938 2591 2744 2837 
Q 2550 3084 2163 3084 
Q 1697 3084 1428 2787 
Q 1159 2491 1159 1978 
L 1159 0 
L 581 0 
L 581 3500 
L 1159 3500 
L 1159 2956 
Q 1366 3272 1645 3428 
Q 1925 3584 2291 3584 
Q 2894 3584 3203 3211 
Q 3513 2838 3513 2113 
z
" transform="scale(0.015625)"/>
       <path id="DejaVuSans-28" d="M 1984 4856 
Q 1566 4138 1362 3434 
Q 1159 2731 1159 2009 
Q 1159 1288 1364 580 
Q 1569 -128 1984 -844 
L 1484 -844 
Q 1016 -109 783 600 
Q 550 1309 550 2009 
Q 550 2706 781 3412 
Q 1013 4119 1484 4856 
L 1984 4856 
z
" transform="scale(0.015625)"/>
       <path id="DejaVuSans-4b" d="M 628 4666 
L 1259 4666 
L 1259 2694 
L 3353 4666 
L 4166 4666 
L 1850 2491 
L 4331 0 
L 3500 0 
L 1259 2247 
L 1259 0 
L 628 0 
L 628 4666 
z
" transform="scale(0.015625)"/>
       <path id="DejaVuSans-29" d="M 513 4856 
L 1013 4856 
Q 1481 4119 1714 3412 
Q 1947 2706 1947 2009 
Q 1947 1309 1714 600 
Q 1481 -109 1013 -844 
L 513 -844 
Q 928 -128 1133 580 
Q 1338 1288 1338 2009 
Q 1338 2731 1133 3434 
Q 928 4138 513 4856 
z
" transform="scale(0.015625)"/>
      </defs>
      <use xlink:href="#DejaVuSans-54"/>
      <use xlink:href="#DejaVuSans-6f" transform="translate(44.083984 0)"/>
      <use xlink:href="#DejaVuSans-74" transform="translate(105.265625 0)"/>
      <use xlink:href="#DejaVuSans-61" transform="translate(144.474609 0)"/>
      <use xlink:href="#DejaVuSans-6c" transform="translate(205.753906 0)"/>
      <use xlink:href="#DejaVuSans-20" transform="translate(233.537109 0)"/>
      <use xlink:href="#DejaVuSans-49" transform="translate(265.324219 0)"/>
      <use xlink:href="#DejaVuSans-6d" transform="translate(294.816406 0)"/>
      <use xlink:href="#DejaVuSans-70" transform="translate(392.228516 0)"/>
      <use xlink:href="#DejaVuSans-72" transform="translate(455.705078 0)"/>
      <use xlink:href="#DejaVuSans-65" transform="translate(494.568359 0)"/>
      <use xlink:href="#DejaVuSans-73" transform="translate(556.091797 0)"/>
      <use xlink:href="#DejaVuSans-73" transform="translate(608.191406 0)"/>
      <use xlink:href="#DejaVuSans-69" transform="translate(660.291016 0)"/>
      <use xlink:href="#DejaVuSans-6f" transform="translate(688.074219 0)"/>
      <use xlink:href="#DejaVuSans-6e" transform="translate(749.255859 0)"/>
      <use xlink:href="#DejaVuSans-73" transform="translate(812.634766 0)"/>
      <use xlink:href="#DejaVuSans-20" transform="translate(864.734375 0)"/>
      <use xlink:href="#DejaVuSans-28" transform="translate(896.521484 0)"/>
      <use xlink:href="#DejaVuSans-4b" transform="translate(935.535156 0)"/>
      <use xlink:href="#DejaVuSans-29" transform="translate(1001.111328 0)"/>
     </g>
    </g>
   </g>
   <g id="line2d_16">
    <path clip-path="url(#p6c5594b12c)" style="fill: none; stroke: #424242; stroke-width: 2.25; stroke-linecap: square"/>
   </g>
   <g id="line2d_17">
    <path clip-path="url(#p6c5594b12c)" style="fill: none; stroke: #424242; stroke-width: 2.25; stroke-linecap: square"/>
   </g>
   <g id="line2d_18">
    <path clip-path="url(#p6c5594b12c)" style="fill: none; stroke: #424242; stroke-width: 2.25; stroke-linecap: square"/>
   </g>
   <g id="line2d_19">
    <path clip-path="url(#p6c5594b12c)" style="fill: none; stroke: #424242; stroke-width: 2.25; stroke-linecap: square"/>
   </g>
   <g id="line2d_20">
    <path clip-path="url(#p6c5594b12c)" style="fill: none; stroke: #424242; stroke-width: 2.25; stroke-linecap: square"/>
   </g>
   <g id="line2d_21">
    <path clip-path="url(#p6c5594b12c)" style="fill: none; stroke: #424242; stroke-width: 2.25; stroke-linecap: square"/>
   </g>
   <g id="line2d_22">
    <path clip-path="url(#p6c5594b12c)" style="fill: none; stroke: #424242; stroke-width: 2.25; stroke-linecap: square"/>
   </g>
   <g id="line2d_23">
    <path clip-path="url(#p6c5594b12c)" style="fill: none; stroke: #424242; stroke-width: 2.25; stroke-linecap: square"/>
   </g>
   <g id="line2d_24">
    <path clip-path="url(#p6c5594b12c)" style="fill: none; stroke: #424242; stroke-width: 2.25; stroke-linecap: square"/>
   </g>
   <g id="line2d_25">
    <path clip-path="url(#p6c5594b12c)" style="fill: none; stroke: #424242; stroke-width: 2.25; stroke-linecap: square"/>
   </g>
   <g id="line2d_26">
    <path clip-path="url(#p6c5594b12c)" style="fill: none; stroke: #424242; stroke-width: 2.25; stroke-linecap: square"/>
   </g>
   <g id="line2d_27">
    <path clip-path="url(#p6c5594b12c)" style="fill: none; stroke: #424242; stroke-width: 2.25; stroke-linecap: square"/>
   </g>
   <g id="patch_17">
    <path d="M 53.328125 504.734575 
L 53.328125 48.48 
" style="fill: none; stroke: #000000; stroke-width: 0.8; stroke-linejoin: miter; stroke-linecap: square"/>
   </g>
   <g id="patch_18">
    <path d="M 800.897258 504.734575 
L 800.897258 48.48 
" style="fill: none; stroke: #000000; stroke-width: 0.8; stroke-linejoin: miter; stroke-linecap: square"/>
   </g>
   <g id="patch_19">
    <path d="M 53.328125 504.734575 
L 800.897258 504.734575 
" style="fill: none; stroke: #000000; stroke-width: 0.8; stroke-linejoin: miter; stroke-linecap: square"/>
   </g>
   <g id="patch_20">
    <path d="M 53.328125 48.48 
L 800.897258 48.48 
" style="fill: none; stroke: #000000; stroke-width: 0.8; stroke-linejoin: miter; stroke-linecap: square"/>
   </g>
   <g id="text_18">
    <!-- 5K -->
    <g transform="translate(72.432955 499.416067) scale(0.09 -0.09)">
     <use xlink:href="#DejaVuSans-35"/>
     <use xlink:href="#DejaVuSans-4b" transform="translate(63.623047 0)"/>
    </g>
   </g>
   <g id="text_19">
    <!-- 6K -->
    <g transform="translate(155.496192 499.368168) scale(0.09 -0.09)">
     <use xlink:href="#DejaVuSans-36"/>
     <use xlink:href="#DejaVuSans-4b" transform="translate(63.623047 0)"/>
    </g>
   </g>
   <g id="text_20">
    <!-- 42K -->
    <g transform="translate(235.696304 496.184939) scale(0.09 -0.09)">
     <use xlink:href="#DejaVuSans-34"/>
     <use xlink:href="#DejaVuSans-32" transform="translate(63.623047 0)"/>
     <use xlink:href="#DejaVuSans-4b" transform="translate(127.246094 0)"/>
    </g>
   </g>
   <g id="text_21">
    <!-- 74K -->
    <g transform="translate(318.759541 493.354983) scale(0.09 -0.09)">
     <defs>
      <path id="DejaVuSans-37" d="M 525 4666 
L 3525 4666 
L 3525 4397 
L 1831 0 
L 1172 0 
L 2766 4134 
L 525 4134 
L 525 4666 
z
" transform="scale(0.015625)"/>
     </defs>
     <use xlink:href="#DejaVuSans-37"/>
     <use xlink:href="#DejaVuSans-34" transform="translate(63.623047 0)"/>
     <use xlink:href="#DejaVuSans-4b" transform="translate(127.246094 0)"/>
    </g>
   </g>
   <g id="text_22">
    <!-- 77K -->
    <g transform="translate(401.822778 493.127597) scale(0.09 -0.09)">
     <use xlink:href="#DejaVuSans-37"/>
     <use xlink:href="#DejaVuSans-37" transform="translate(63.623047 0)"/>
     <use xlink:href="#DejaVuSans-4b" transform="translate(127.246094 0)"/>
    </g>
   </g>
   <g id="text_23">
    <!-- 76K -->
    <g transform="translate(484.886015 493.211288) scale(0.09 -0.09)">
     <use xlink:href="#DejaVuSans-37"/>
     <use xlink:href="#DejaVuSans-36" transform="translate(63.623047 0)"/>
     <use xlink:href="#DejaVuSans-4b" transform="translate(127.246094 0)"/>
    </g>
   </g>
   <g id="text_24">
    <!-- 164K -->
    <g transform="translate(565.086127 485.489285) scale(0.09 -0.09)">
     <use xlink:href="#DejaVuSans-31"/>
     <use xlink:href="#DejaVuSans-36" transform="translate(63.623047 0)"/>
     <use xlink:href="#DejaVuSans-34" transform="translate(127.246094 0)"/>
     <use xlink:href="#DejaVuSans-4b" transform="translate(190.869141 0)"/>
    </g>
   </g>
   <g id="text_25">
    <!-- 1029K -->
    <g transform="translate(645.286239 409.591734) scale(0.09 -0.09)">
     <defs>
      <path id="DejaVuSans-39" d="M 703 97 
L 703 672 
Q 941 559 1184 500 
Q 1428 441 1663 441 
Q 2288 441 2617 861 
Q 2947 1281 2994 2138 
Q 2813 1869 2534 1725 
Q 2256 1581 1919 1581 
Q 1219 1581 811 2004 
Q 403 2428 403 3163 
Q 403 3881 828 4315 
Q 1253 4750 1959 4750 
Q 2769 4750 3195 4129 
Q 3622 3509 3622 2328 
Q 3622 1225 3098 567 
Q 2575 -91 1691 -91 
Q 1453 -91 1209 -44 
Q 966 3 703 97 
z
M 1959 2075 
Q 2384 2075 2632 2365 
Q 2881 2656 2881 3163 
Q 2881 3666 2632 3958 
Q 2384 4250 1959 4250 
Q 1534 4250 1286 3958 
Q 1038 3666 1038 3163 
Q 1038 2656 1286 2365 
Q 1534 2075 1959 2075 
z
" transform="scale(0.015625)"/>
     </defs>
     <use xlink:href="#DejaVuSans-31"/>
     <use xlink:href="#DejaVuSans-30" transform="translate(63.623047 0)"/>
     <use xlink:href="#DejaVuSans-32" transform="translate(127.246094 0)"/>
     <use xlink:href="#DejaVuSans-39" transform="translate(190.869141 0)"/>
     <use xlink:href="#DejaVuSans-4b" transform="translate(254.492188 0)"/>
    </g>
   </g>
   <g id="text_26">
    <!-- 835K -->
    <g transform="translate(731.212601 426.637705) scale(0.09 -0.09)">
     <defs>
      <path id="DejaVuSans-38" d="M 2034 2216 
Q 1584 2216 1326 1975 
Q 1069 1734 1069 1313 
Q 1069 891 1326 650 
Q 1584 409 2034 409 
Q 2484 409 2743 651 
Q 3003 894 3003 1313 
Q 3003 1734 2745 1975 
Q 2488 2216 2034 2216 
z
M 1403 2484 
Q 997 2584 770 2862 
Q 544 3141 544 3541 
Q 544 4100 942 4425 
Q 1341 4750 2034 4750 
Q 2731 4750 3128 4425 
Q 3525 4100 3525 3541 
Q 3525 3141 3298 2862 
Q 3072 2584 2669 2484 
Q 3125 2378 3379 2068 
Q 3634 1759 3634 1313 
Q 3634 634 3220 271 
Q 2806 -91 2034 -91 
Q 1263 -91 848 271 
Q 434 634 434 1313 
Q 434 1759 690 2068 
Q 947 2378 1403 2484 
z
M 1172 3481 
Q 1172 3119 1398 2916 
Q 1625 2713 2034 2713 
Q 2441 2713 2670 2916 
Q 2900 3119 2900 3481 
Q 2900 3844 2670 4047 
Q 2441 4250 2034 4250 
Q 1625 4250 1398 4047 
Q 1172 3844 1172 3481 
z
" transform="scale(0.015625)"/>
     </defs>
     <use xlink:href="#DejaVuSans-38"/>
     <use xlink:href="#DejaVuSans-33" transform="translate(63.623047 0)"/>
     <use xlink:href="#DejaVuSans-35" transform="translate(127.246094 0)"/>
     <use xlink:href="#DejaVuSans-4b" transform="translate(190.869141 0)"/>
    </g>
   </g>
   <g id="text_27">
    <!-- 535K -->
    <g transform="translate(598.311422 452.964834) scale(0.09 -0.09)">
     <use xlink:href="#DejaVuSans-35"/>
     <use xlink:href="#DejaVuSans-33" transform="translate(63.623047 0)"/>
     <use xlink:href="#DejaVuSans-35" transform="translate(127.246094 0)"/>
     <use xlink:href="#DejaVuSans-4b" transform="translate(190.869141 0)"/>
    </g>
   </g>
   <g id="text_28">
    <!-- 2603K -->
    <g transform="translate(678.511534 271.5055) scale(0.09 -0.09)">
     <use xlink:href="#DejaVuSans-32"/>
     <use xlink:href="#DejaVuSans-36" transform="translate(63.623047 0)"/>
     <use xlink:href="#DejaVuSans-30" transform="translate(127.246094 0)"/>
     <use xlink:href="#DejaVuSans-33" transform="translate(190.869141 0)"/>
     <use xlink:href="#DejaVuSans-4b" transform="translate(254.492188 0)"/>
    </g>
   </g>
   <g id="text_29">
    <!-- 4953K -->
    <g transform="translate(761.574771 65.33469) scale(0.09 -0.09)">
     <use xlink:href="#DejaVuSans-34"/>
     <use xlink:href="#DejaVuSans-39" transform="translate(63.623047 0)"/>
     <use xlink:href="#DejaVuSans-35" transform="translate(127.246094 0)"/>
     <use xlink:href="#DejaVuSans-33" transform="translate(190.869141 0)"/>
     <use xlink:href="#DejaVuSans-4b" transform="translate(254.492188 0)"/>
    </g>
   </g>
   <g id="text_30">
    <!-- Quarterly Total Impressions by Intervention Type -->
    <g transform="translate(233.580191 42.48) scale(0.14 -0.14)">
     <defs>
      <path id="DejaVuSans-Bold-51" d="M 2847 -84 
L 2753 -84 
Q 1600 -84 959 553 
Q 319 1191 319 2328 
Q 319 3463 958 4106 
Q 1597 4750 2719 4750 
Q 3853 4750 4486 4112 
Q 5119 3475 5119 2328 
Q 5119 1541 4783 972 
Q 4447 403 3816 116 
L 4756 -934 
L 3609 -934 
L 2847 -84 
z
M 2719 3878 
Q 2169 3878 1866 3472 
Q 1563 3066 1563 2328 
Q 1563 1578 1859 1179 
Q 2156 781 2719 781 
Q 3272 781 3575 1187 
Q 3878 1594 3878 2328 
Q 3878 3066 3575 3472 
Q 3272 3878 2719 3878 
z
" transform="scale(0.015625)"/>
      <path id="DejaVuSans-Bold-75" d="M 500 1363 
L 500 3500 
L 1625 3500 
L 1625 3150 
Q 1625 2866 1622 2436 
Q 1619 2006 1619 1863 
Q 1619 1441 1641 1255 
Q 1663 1069 1716 984 
Q 1784 875 1895 815 
Q 2006 756 2150 756 
Q 2500 756 2700 1025 
Q 2900 1294 2900 1772 
L 2900 3500 
L 4019 3500 
L 4019 0 
L 2900 0 
L 2900 506 
Q 2647 200 2364 54 
Q 2081 -91 1741 -91 
Q 1134 -91 817 281 
Q 500 653 500 1363 
z
" transform="scale(0.015625)"/>
      <path id="DejaVuSans-Bold-61" d="M 2106 1575 
Q 1756 1575 1579 1456 
Q 1403 1338 1403 1106 
Q 1403 894 1545 773 
Q 1688 653 1941 653 
Q 2256 653 2472 879 
Q 2688 1106 2688 1447 
L 2688 1575 
L 2106 1575 
z
M 3816 1997 
L 3816 0 
L 2688 0 
L 2688 519 
Q 2463 200 2181 54 
Q 1900 -91 1497 -91 
Q 953 -91 614 226 
Q 275 544 275 1050 
Q 275 1666 698 1953 
Q 1122 2241 2028 2241 
L 2688 2241 
L 2688 2328 
Q 2688 2594 2478 2717 
Q 2269 2841 1825 2841 
Q 1466 2841 1156 2769 
Q 847 2697 581 2553 
L 581 3406 
Q 941 3494 1303 3539 
Q 1666 3584 2028 3584 
Q 2975 3584 3395 3211 
Q 3816 2838 3816 1997 
z
" transform="scale(0.015625)"/>
      <path id="DejaVuSans-Bold-72" d="M 3138 2547 
Q 2991 2616 2845 2648 
Q 2700 2681 2553 2681 
Q 2122 2681 1889 2404 
Q 1656 2128 1656 1613 
L 1656 0 
L 538 0 
L 538 3500 
L 1656 3500 
L 1656 2925 
Q 1872 3269 2151 3426 
Q 2431 3584 2822 3584 
Q 2878 3584 2943 3579 
Q 3009 3575 3134 3559 
L 3138 2547 
z
" transform="scale(0.015625)"/>
      <path id="DejaVuSans-Bold-74" d="M 1759 4494 
L 1759 3500 
L 2913 3500 
L 2913 2700 
L 1759 2700 
L 1759 1216 
Q 1759 972 1856 886 
Q 1953 800 2241 800 
L 2816 800 
L 2816 0 
L 1856 0 
Q 1194 0 917 276 
Q 641 553 641 1216 
L 641 2700 
L 84 2700 
L 84 3500 
L 641 3500 
L 641 4494 
L 1759 4494 
z
" transform="scale(0.015625)"/>
      <path id="DejaVuSans-Bold-65" d="M 4031 1759 
L 4031 1441 
L 1416 1441 
Q 1456 1047 1700 850 
Q 1944 653 2381 653 
Q 2734 653 3104 758 
Q 3475 863 3866 1075 
L 3866 213 
Q 3469 63 3072 -14 
Q 2675 -91 2278 -91 
Q 1328 -91 801 392 
Q 275 875 275 1747 
Q 275 2603 792 3093 
Q 1309 3584 2216 3584 
Q 3041 3584 3536 3087 
Q 4031 2591 4031 1759 
z
M 2881 2131 
Q 2881 2450 2695 2645 
Q 2509 2841 2209 2841 
Q 1884 2841 1681 2658 
Q 1478 2475 1428 2131 
L 2881 2131 
z
" transform="scale(0.015625)"/>
      <path id="DejaVuSans-Bold-6c" d="M 538 4863 
L 1656 4863 
L 1656 0 
L 538 0 
L 538 4863 
z
" transform="scale(0.015625)"/>
      <path id="DejaVuSans-Bold-79" d="M 78 3500 
L 1197 3500 
L 2138 1125 
L 2938 3500 
L 4056 3500 
L 2584 -331 
Q 2363 -916 2067 -1148 
Q 1772 -1381 1288 -1381 
L 641 -1381 
L 641 -647 
L 991 -647 
Q 1275 -647 1404 -556 
Q 1534 -466 1606 -231 
L 1638 -134 
L 78 3500 
z
" transform="scale(0.015625)"/>
      <path id="DejaVuSans-Bold-20" transform="scale(0.015625)"/>
      <path id="DejaVuSans-Bold-54" d="M 31 4666 
L 4331 4666 
L 4331 3756 
L 2784 3756 
L 2784 0 
L 1581 0 
L 1581 3756 
L 31 3756 
L 31 4666 
z
" transform="scale(0.015625)"/>
      <path id="DejaVuSans-Bold-6f" d="M 2203 2784 
Q 1831 2784 1636 2517 
Q 1441 2250 1441 1747 
Q 1441 1244 1636 976 
Q 1831 709 2203 709 
Q 2569 709 2762 976 
Q 2956 1244 2956 1747 
Q 2956 2250 2762 2517 
Q 2569 2784 2203 2784 
z
M 2203 3584 
Q 3106 3584 3614 3096 
Q 4122 2609 4122 1747 
Q 4122 884 3614 396 
Q 3106 -91 2203 -91 
Q 1297 -91 786 396 
Q 275 884 275 1747 
Q 275 2609 786 3096 
Q 1297 3584 2203 3584 
z
" transform="scale(0.015625)"/>
      <path id="DejaVuSans-Bold-49" d="M 588 4666 
L 1791 4666 
L 1791 0 
L 588 0 
L 588 4666 
z
" transform="scale(0.015625)"/>
      <path id="DejaVuSans-Bold-6d" d="M 3781 2919 
Q 3994 3244 4286 3414 
Q 4578 3584 4928 3584 
Q 5531 3584 5847 3212 
Q 6163 2841 6163 2131 
L 6163 0 
L 5038 0 
L 5038 1825 
Q 5041 1866 5042 1909 
Q 5044 1953 5044 2034 
Q 5044 2406 4934 2573 
Q 4825 2741 4581 2741 
Q 4263 2741 4089 2478 
Q 3916 2216 3909 1719 
L 3909 0 
L 2784 0 
L 2784 1825 
Q 2784 2406 2684 2573 
Q 2584 2741 2328 2741 
Q 2006 2741 1831 2477 
Q 1656 2213 1656 1722 
L 1656 0 
L 531 0 
L 531 3500 
L 1656 3500 
L 1656 2988 
Q 1863 3284 2130 3434 
Q 2397 3584 2719 3584 
Q 3081 3584 3359 3409 
Q 3638 3234 3781 2919 
z
" transform="scale(0.015625)"/>
      <path id="DejaVuSans-Bold-70" d="M 1656 506 
L 1656 -1331 
L 538 -1331 
L 538 3500 
L 1656 3500 
L 1656 2988 
Q 1888 3294 2169 3439 
Q 2450 3584 2816 3584 
Q 3463 3584 3878 3070 
Q 4294 2556 4294 1747 
Q 4294 938 3878 423 
Q 3463 -91 2816 -91 
Q 2450 -91 2169 54 
Q 1888 200 1656 506 
z
M 2400 2772 
Q 2041 2772 1848 2508 
Q 1656 2244 1656 1747 
Q 1656 1250 1848 986 
Q 2041 722 2400 722 
Q 2759 722 2948 984 
Q 3138 1247 3138 1747 
Q 3138 2247 2948 2509 
Q 2759 2772 2400 2772 
z
" transform="scale(0.015625)"/>
      <path id="DejaVuSans-Bold-73" d="M 3272 3391 
L 3272 2541 
Q 2913 2691 2578 2766 
Q 2244 2841 1947 2841 
Q 1628 2841 1473 2761 
Q 1319 2681 1319 2516 
Q 1319 2381 1436 2309 
Q 1553 2238 1856 2203 
L 2053 2175 
Q 2913 2066 3209 1816 
Q 3506 1566 3506 1031 
Q 3506 472 3093 190 
Q 2681 -91 1863 -91 
Q 1516 -91 1145 -36 
Q 775 19 384 128 
L 384 978 
Q 719 816 1070 734 
Q 1422 653 1784 653 
Q 2113 653 2278 743 
Q 2444 834 2444 1013 
Q 2444 1163 2330 1236 
Q 2216 1309 1875 1350 
L 1678 1375 
Q 931 1469 631 1722 
Q 331 1975 331 2491 
Q 331 3047 712 3315 
Q 1094 3584 1881 3584 
Q 2191 3584 2531 3537 
Q 2872 3491 3272 3391 
z
" transform="scale(0.015625)"/>
      <path id="DejaVuSans-Bold-69" d="M 538 3500 
L 1656 3500 
L 1656 0 
L 538 0 
L 538 3500 
z
M 538 4863 
L 1656 4863 
L 1656 3950 
L 538 3950 
L 538 4863 
z
" transform="scale(0.015625)"/>
      <path id="DejaVuSans-Bold-6e" d="M 4056 2131 
L 4056 0 
L 2931 0 
L 2931 347 
L 2931 1631 
Q 2931 2084 2911 2256 
Q 2891 2428 2841 2509 
Q 2775 2619 2662 2680 
Q 2550 2741 2406 2741 
Q 2056 2741 1856 2470 
Q 1656 2200 1656 1722 
L 1656 0 
L 538 0 
L 538 3500 
L 1656 3500 
L 1656 2988 
Q 1909 3294 2193 3439 
Q 2478 3584 2822 3584 
Q 3428 3584 3742 3212 
Q 4056 2841 4056 2131 
z
" transform="scale(0.015625)"/>
      <path id="DejaVuSans-Bold-62" d="M 2400 722 
Q 2759 722 2948 984 
Q 3138 1247 3138 1747 
Q 3138 2247 2948 2509 
Q 2759 2772 2400 2772 
Q 2041 2772 1848 2508 
Q 1656 2244 1656 1747 
Q 1656 1250 1848 986 
Q 2041 722 2400 722 
z
M 1656 2988 
Q 1888 3294 2169 3439 
Q 2450 3584 2816 3584 
Q 3463 3584 3878 3070 
Q 4294 2556 4294 1747 
Q 4294 938 3878 423 
Q 3463 -91 2816 -91 
Q 2450 -91 2169 54 
Q 1888 200 1656 506 
L 1656 0 
L 538 0 
L 538 4863 
L 1656 4863 
L 1656 2988 
z
" transform="scale(0.015625)"/>
      <path id="DejaVuSans-Bold-76" d="M 97 3500 
L 1216 3500 
L 2088 1081 
L 2956 3500 
L 4078 3500 
L 2700 0 
L 1472 0 
L 97 3500 
z
" transform="scale(0.015625)"/>
     </defs>
     <use xlink:href="#DejaVuSans-Bold-51"/>
     <use xlink:href="#DejaVuSans-Bold-75" transform="translate(85.009766 0)"/>
     <use xlink:href="#DejaVuSans-Bold-61" transform="translate(156.201172 0)"/>
     <use xlink:href="#DejaVuSans-Bold-72" transform="translate(223.681641 0)"/>
     <use xlink:href="#DejaVuSans-Bold-74" transform="translate(272.998047 0)"/>
     <use xlink:href="#DejaVuSans-Bold-65" transform="translate(320.800781 0)"/>
     <use xlink:href="#DejaVuSans-Bold-72" transform="translate(388.623047 0)"/>
     <use xlink:href="#DejaVuSans-Bold-6c" transform="translate(437.939453 0)"/>
     <use xlink:href="#DejaVuSans-Bold-79" transform="translate(472.216797 0)"/>
     <use xlink:href="#DejaVuSans-Bold-20" transform="translate(537.402344 0)"/>
     <use xlink:href="#DejaVuSans-Bold-54" transform="translate(572.216797 0)"/>
     <use xlink:href="#DejaVuSans-Bold-6f" transform="translate(627.179688 0)"/>
     <use xlink:href="#DejaVuSans-Bold-74" transform="translate(695.880859 0)"/>
     <use xlink:href="#DejaVuSans-Bold-61" transform="translate(743.683594 0)"/>
     <use xlink:href="#DejaVuSans-Bold-6c" transform="translate(811.164062 0)"/>
     <use xlink:href="#DejaVuSans-Bold-20" transform="translate(845.441406 0)"/>
     <use xlink:href="#DejaVuSans-Bold-49" transform="translate(880.255859 0)"/>
     <use xlink:href="#DejaVuSans-Bold-6d" transform="translate(917.462891 0)"/>
     <use xlink:href="#DejaVuSans-Bold-70" transform="translate(1021.662109 0)"/>
     <use xlink:href="#DejaVuSans-Bold-72" transform="translate(1093.244141 0)"/>
     <use xlink:href="#DejaVuSans-Bold-65" transform="translate(1142.560547 0)"/>
     <use xlink:href="#DejaVuSans-Bold-73" transform="translate(1210.382812 0)"/>
     <use xlink:href="#DejaVuSans-Bold-73" transform="translate(1269.904297 0)"/>
     <use xlink:href="#DejaVuSans-Bold-69" transform="translate(1329.425781 0)"/>
     <use xlink:href="#DejaVuSans-Bold-6f" transform="translate(1363.703125 0)"/>
     <use xlink:href="#DejaVuSans-Bold-6e" transform="translate(1432.404297 0)"/>
     <use xlink:href="#DejaVuSans-Bold-73" transform="translate(1503.595703 0)"/>
     <use xlink:href="#DejaVuSans-Bold-20" transform="translate(1563.117188 0)"/>
     <use xlink:href="#DejaVuSans-Bold-62" transform="translate(1597.931641 0)"/>
     <use xlink:href="#DejaVuSans-Bold-79" transform="translate(1669.513672 0)"/>
     <use xlink:href="#DejaVuSans-Bold-20" transform="translate(1734.699219 0)"/>
     <use xlink:href="#DejaVuSans-Bold-49" transform="translate(1769.513672 0)"/>
     <use xlink:href="#DejaVuSans-Bold-6e" transform="translate(1806.720703 0)"/>
     <use xlink:href="#DejaVuSans-Bold-74" transform="translate(1877.912109 0)"/>
     <use xlink:href="#DejaVuSans-Bold-65" transform="translate(1925.714844 0)"/>
     <use xlink:href="#DejaVuSans-Bold-72" transform="translate(1993.537109 0)"/>
     <use xlink:href="#DejaVuSans-Bold-76" transform="translate(2042.853516 0)"/>
     <use xlink:href="#DejaVuSans-Bold-65" transform="translate(2108.039062 0)"/>
     <use xlink:href="#DejaVuSans-Bold-6e" transform="translate(2175.861328 0)"/>
     <use xlink:href="#DejaVuSans-Bold-74" transform="translate(2247.052734 0)"/>
     <use xlink:href="#DejaVuSans-Bold-69" transform="translate(2294.855469 0)"/>
     <use xlink:href="#DejaVuSans-Bold-6f" transform="translate(2329.132812 0)"/>
     <use xlink:href="#DejaVuSans-Bold-6e" transform="translate(2397.833984 0)"/>
     <use xlink:href="#DejaVuSans-Bold-20" transform="translate(2469.025391 0)"/>
     <use xlink:href="#DejaVuSans-Bold-54" transform="translate(2503.839844 0)"/>
     <use xlink:href="#DejaVuSans-Bold-79" transform="translate(2560.177734 0)"/>
     <use xlink:href="#DejaVuSans-Bold-70" transform="translate(2625.363281 0)"/>
     <use xlink:href="#DejaVuSans-Bold-65" transform="translate(2696.945312 0)"/>
    </g>
   </g>
   <g id="legend_1">
    <g id="patch_21">
     <path d="M 60.328125 100.514375 
L 151.507812 100.514375 
Q 153.507812 100.514375 153.507812 98.514375 
L 153.507812 55.48 
Q 153.507812 53.48 151.507812 53.48 
L 60.328125 53.48 
Q 58.328125 53.48 58.328125 55.48 
L 58.328125 98.514375 
Q 58.328125 100.514375 60.328125 100.514375 
z
" style="fill: #ffffff; opacity: 0.8; stroke: #cccccc; stroke-linejoin: miter"/>
    </g>
    <g id="text_31">
     <!-- Intervention Type -->
     <g transform="translate(62.328125 65.078437) scale(0.1 -0.1)">
      <defs>
       <path id="DejaVuSans-76" d="M 191 3500 
L 800 3500 
L 1894 563 
L 2988 3500 
L 3597 3500 
L 2284 0 
L 1503 0 
L 191 3500 
z
" transform="scale(0.015625)"/>
       <path id="DejaVuSans-79" d="M 2059 -325 
Q 1816 -950 1584 -1140 
Q 1353 -1331 966 -1331 
L 506 -1331 
L 506 -850 
L 844 -850 
Q 1081 -850 1212 -737 
Q 1344 -625 1503 -206 
L 1606 56 
L 191 3500 
L 800 3500 
L 1894 763 
L 2988 3500 
L 3597 3500 
L 2059 -325 
z
" transform="scale(0.015625)"/>
      </defs>
      <use xlink:href="#DejaVuSans-49"/>
      <use xlink:href="#DejaVuSans-6e" transform="translate(29.492188 0)"/>
      <use xlink:href="#DejaVuSans-74" transform="translate(92.871094 0)"/>
      <use xlink:href="#DejaVuSans-65" transform="translate(132.080078 0)"/>
      <use xlink:href="#DejaVuSans-72" transform="translate(193.603516 0)"/>
      <use xlink:href="#DejaVuSans-76" transform="translate(234.716797 0)"/>
      <use xlink:href="#DejaVuSans-65" transform="translate(293.896484 0)"/>
      <use xlink:href="#DejaVuSans-6e" transform="translate(355.419922 0)"/>
      <use xlink:href="#DejaVuSans-74" transform="translate(418.798828 0)"/>
      <use xlink:href="#DejaVuSans-69" transform="translate(458.007812 0)"/>
      <use xlink:href="#DejaVuSans-6f" transform="translate(485.791016 0)"/>
      <use xlink:href="#DejaVuSans-6e" transform="translate(546.972656 0)"/>
      <use xlink:href="#DejaVuSans-20" transform="translate(610.351562 0)"/>
      <use xlink:href="#DejaVuSans-54" transform="translate(642.138672 0)"/>
      <use xlink:href="#DejaVuSans-79" transform="translate(687.597656 0)"/>
      <use xlink:href="#DejaVuSans-70" transform="translate(746.777344 0)"/>
      <use xlink:href="#DejaVuSans-65" transform="translate(810.253906 0)"/>
     </g>
    </g>
    <g id="patch_22">
     <path d="M 64.164062 79.756562 
L 84.164062 79.756562 
L 84.164062 72.756562 
L 64.164062 72.756562 
z
" style="fill: #93c9de; opacity: 0.8"/>
    </g>
    <g id="text_32">
     <!-- Human -->
     <g transform="translate(92.164062 79.756562) scale(0.1 -0.1)">
      <defs>
       <path id="DejaVuSans-48" d="M 628 4666 
L 1259 4666 
L 1259 2753 
L 3553 2753 
L 3553 4666 
L 4184 4666 
L 4184 0 
L 3553 0 
L 3553 2222 
L 1259 2222 
L 1259 0 
L 628 0 
L 628 4666 
z
" transform="scale(0.015625)"/>
      </defs>
      <use xlink:href="#DejaVuSans-48"/>
      <use xlink:href="#DejaVuSans-75" transform="translate(75.195312 0)"/>
      <use xlink:href="#DejaVuSans-6d" transform="translate(138.574219 0)"/>
      <use xlink:href="#DejaVuSans-61" transform="translate(235.986328 0)"/>
      <use xlink:href="#DejaVuSans-6e" transform="translate(297.265625 0)"/>
     </g>
    </g>
    <g id="patch_23">
     <path d="M 64.164062 94.434687 
L 84.164062 94.434687 
L 84.164062 87.434687 
L 64.164062 87.434687 
z
" style="fill: #df9c20; opacity: 0.8"/>
    </g>
    <g id="text_33">
     <!-- Automated -->
     <g transform="translate(92.164062 94.434687) scale(0.1 -0.1)">
      <defs>
       <path id="DejaVuSans-41" d="M 2188 4044 
L 1331 1722 
L 3047 1722 
L 2188 4044 
z
M 1831 4666 
L 2547 4666 
L 4325 0 
L 3669 0 
L 3244 1197 
L 1141 1197 
L 716 0 
L 50 0 
L 1831 4666 
z
" transform="scale(0.015625)"/>
       <path id="DejaVuSans-64" d="M 2906 2969 
L 2906 4863 
L 3481 4863 
L 3481 0 
L 2906 0 
L 2906 525 
Q 2725 213 2448 61 
Q 2172 -91 1784 -91 
Q 1150 -91 751 415 
Q 353 922 353 1747 
Q 353 2572 751 3078 
Q 1150 3584 1784 3584 
Q 2172 3584 2448 3432 
Q 2725 3281 2906 2969 
z
M 947 1747 
Q 947 1113 1208 752 
Q 1469 391 1925 391 
Q 2381 391 2643 752 
Q 2906 1113 2906 1747 
Q 2906 2381 2643 2742 
Q 2381 3103 1925 3103 
Q 1469 3103 1208 2742 
Q 947 2381 947 1747 
z
" transform="scale(0.015625)"/>
      </defs>
      <use xlink:href="#DejaVuSans-41"/>
      <use xlink:href="#DejaVuSans-75" transform="translate(68.408203 0)"/>
      <use xlink:href="#DejaVuSans-74" transform="translate(131.787109 0)"/>
      <use xlink:href="#DejaVuSans-6f" transform="translate(170.996094 0)"/>
      <use xlink:href="#DejaVuSans-6d" transform="translate(232.177734 0)"/>
      <use xlink:href="#DejaVuSans-61" transform="translate(329.589844 0)"/>
      <use xlink:href="#DejaVuSans-74" transform="translate(390.869141 0)"/>
      <use xlink:href="#DejaVuSans-65" transform="translate(430.078125 0)"/>
      <use xlink:href="#DejaVuSans-64" transform="translate(491.601562 0)"/>
     </g>
    </g>
   </g>
  </g>
  <g id="axes_2">
   <g id="patch_24">
    <path d="M 965.242856 146.078634 
C 935.42535 146.078634 906.522824 156.485006 883.548997 175.492557 
C 860.575171 194.500108 844.939995 220.942306 839.355702 250.232226 
L 965.242856 274.233342 
z
" style="fill: #293e46; opacity: 0.5; stroke: #293e46; stroke-linejoin: miter"/>
   </g>
   <g id="patch_25">
    <path d="M 847.525088 260.106304 
C 845.069802 272.98441 844.605114 286.163356 846.147267 299.182412 
C 847.689421 312.201467 851.220234 324.907132 856.616272 336.855221 
C 862.012309 348.80331 869.209948 359.852949 877.957564 369.61785 
C 886.705179 379.38275 896.899631 387.747778 908.184528 394.420495 
C 919.469424 401.093213 931.71171 405.994946 944.483401 408.954332 
C 957.255092 411.913719 970.405602 412.895865 983.475198 411.866437 
C 996.544794 410.837008 1009.379376 407.808143 1021.530256 402.885727 
C 1033.681136 397.963311 1045.005047 391.205384 1055.106111 382.848198 
C 1065.207175 374.491013 1073.966296 364.633104 1081.077258 353.619101 
C 1088.188221 342.605098 1093.567183 330.564861 1097.026099 317.91931 
C 1100.485015 305.27376 1101.983103 292.171993 1101.46799 279.072043 
C 1100.952876 265.972092 1098.430636 253.028412 1093.989444 240.693507 
C 1089.548252 228.358603 1083.240474 216.777909 1075.286624 206.356281 
C 1067.332775 195.934653 1057.826636 186.794967 1047.100536 179.256742 
C 1036.374436 171.718517 1024.554842 165.870633 1012.054961 161.917529 
C 999.555081 157.964425 986.522293 155.952709 973.412219 155.952712 
L 973.412243 284.10742 
z
" style="fill: #4d3200; opacity: 0.5; stroke: #4d3200; stroke-linejoin: miter"/>
   </g>
   <g id="patch_26">
    <path d="M 967.805951 143.51554 
C 937.988444 143.51554 909.085918 153.921911 886.112092 172.929463 
C 863.138265 191.937014 847.503089 218.379212 841.918796 247.669131 
L 967.805951 271.670248 
z
" style="fill: #87ceeb"/>
   </g>
   <g id="patch_27">
    <path d="M 850.088182 257.54321 
C 847.632897 270.421316 847.168208 283.600262 848.710362 296.619317 
C 850.252515 309.638373 853.783329 322.344037 859.179366 334.292127 
C 864.575403 346.240216 871.773042 357.289855 880.520658 367.054756 
C 889.268273 376.819656 899.462725 385.184683 910.747622 391.857401 
C 922.032519 398.530119 934.274804 403.431852 947.046495 406.391238 
C 959.818186 409.350624 972.968697 410.332771 986.038292 409.303343 
C 999.107888 408.273914 1011.942471 405.245048 1024.09335 400.322633 
C 1036.24423 395.400217 1047.568141 388.64229 1057.669205 380.285104 
C 1067.77027 371.927918 1076.52939 362.07001 1083.640352 351.056007 
C 1090.751315 340.042004 1096.130277 328.001767 1099.589193 315.356216 
C 1103.048109 302.710665 1104.546197 289.608899 1104.031084 276.508948 
C 1103.515971 263.408998 1100.99373 250.465318 1096.552538 238.130413 
C 1092.111347 225.795509 1085.803568 214.214815 1077.849719 203.793187 
C 1069.895869 193.371558 1060.38973 184.231873 1049.66363 176.693648 
C 1038.93753 169.155423 1027.117936 163.307539 1014.618056 159.354435 
C 1002.118175 155.40133 989.085388 153.389615 975.975313 153.389618 
L 975.975337 281.544326 
z
" style="fill: #ffa500"/>
   </g>
   <g id="matplotlib.axis_3"/>
   <g id="matplotlib.axis_4"/>
   <g id="text_34">
    <!-- Human -->
    <g transform="translate(841.878643 165.814759) scale(0.1 -0.1)">
     <use xlink:href="#DejaVuSans-48"/>
     <use xlink:href="#DejaVuSans-75" transform="translate(75.195312 0)"/>
     <use xlink:href="#DejaVuSans-6d" transform="translate(138.574219 0)"/>
     <use xlink:href="#DejaVuSans-61" transform="translate(235.986328 0)"/>
     <use xlink:href="#DejaVuSans-6e" transform="translate(297.265625 0)"/>
    </g>
   </g>
   <g id="text_35">
    <!-- 22.0% -->
    <g style="fill: #ffffff" transform="translate(899.708932 209.302292) scale(0.11 -0.11)">
     <defs>
      <path id="DejaVuSans-Bold-32" d="M 1844 884 
L 3897 884 
L 3897 0 
L 506 0 
L 506 884 
L 2209 2388 
Q 2438 2594 2547 2791 
Q 2656 2988 2656 3200 
Q 2656 3528 2436 3728 
Q 2216 3928 1850 3928 
Q 1569 3928 1234 3808 
Q 900 3688 519 3450 
L 519 4475 
Q 925 4609 1322 4679 
Q 1719 4750 2100 4750 
Q 2938 4750 3402 4381 
Q 3866 4013 3866 3353 
Q 3866 2972 3669 2642 
Q 3472 2313 2841 1759 
L 1844 884 
z
" transform="scale(0.015625)"/>
      <path id="DejaVuSans-Bold-2e" d="M 653 1209 
L 1778 1209 
L 1778 0 
L 653 0 
L 653 1209 
z
" transform="scale(0.015625)"/>
      <path id="DejaVuSans-Bold-30" d="M 2944 2338 
Q 2944 3213 2780 3570 
Q 2616 3928 2228 3928 
Q 1841 3928 1675 3570 
Q 1509 3213 1509 2338 
Q 1509 1453 1675 1090 
Q 1841 728 2228 728 
Q 2613 728 2778 1090 
Q 2944 1453 2944 2338 
z
M 4147 2328 
Q 4147 1169 3647 539 
Q 3147 -91 2228 -91 
Q 1306 -91 806 539 
Q 306 1169 306 2328 
Q 306 3491 806 4120 
Q 1306 4750 2228 4750 
Q 3147 4750 3647 4120 
Q 4147 3491 4147 2328 
z
" transform="scale(0.015625)"/>
      <path id="DejaVuSans-Bold-25" d="M 4959 1925 
Q 4738 1925 4616 1733 
Q 4494 1541 4494 1184 
Q 4494 825 4614 633 
Q 4734 441 4959 441 
Q 5184 441 5303 633 
Q 5422 825 5422 1184 
Q 5422 1541 5301 1733 
Q 5181 1925 4959 1925 
z
M 4959 2450 
Q 5541 2450 5875 2112 
Q 6209 1775 6209 1184 
Q 6209 594 5875 251 
Q 5541 -91 4959 -91 
Q 4378 -91 4042 251 
Q 3706 594 3706 1184 
Q 3706 1772 4042 2111 
Q 4378 2450 4959 2450 
z
M 2094 -91 
L 1403 -91 
L 4319 4750 
L 5013 4750 
L 2094 -91 
z
M 1453 4750 
Q 2034 4750 2367 4411 
Q 2700 4072 2700 3481 
Q 2700 2891 2367 2550 
Q 2034 2209 1453 2209 
Q 872 2209 539 2550 
Q 206 2891 206 3481 
Q 206 4072 539 4411 
Q 872 4750 1453 4750 
z
M 1453 4225 
Q 1228 4225 1106 4031 
Q 984 3838 984 3481 
Q 984 3122 1106 2926 
Q 1228 2731 1453 2731 
Q 1678 2731 1798 2926 
Q 1919 3122 1919 3481 
Q 1919 3838 1797 4031 
Q 1675 4225 1453 4225 
z
" transform="scale(0.015625)"/>
     </defs>
     <use xlink:href="#DejaVuSans-Bold-32"/>
     <use xlink:href="#DejaVuSans-Bold-32" transform="translate(69.580078 0)"/>
     <use xlink:href="#DejaVuSans-Bold-2e" transform="translate(139.160156 0)"/>
     <use xlink:href="#DejaVuSans-Bold-30" transform="translate(177.148438 0)"/>
     <use xlink:href="#DejaVuSans-Bold-25" transform="translate(246.728516 0)"/>
    </g>
    <!-- (24,433) -->
    <g style="fill: #ffffff" transform="translate(892.539166 221.619886) scale(0.11 -0.11)">
     <defs>
      <path id="DejaVuSans-Bold-28" d="M 2413 -844 
L 1484 -844 
Q 1006 -72 778 623 
Q 550 1319 550 2003 
Q 550 2688 779 3389 
Q 1009 4091 1484 4856 
L 2413 4856 
Q 2013 4116 1813 3408 
Q 1613 2700 1613 2009 
Q 1613 1319 1811 609 
Q 2009 -100 2413 -844 
z
" transform="scale(0.015625)"/>
      <path id="DejaVuSans-Bold-34" d="M 2356 3675 
L 1038 1722 
L 2356 1722 
L 2356 3675 
z
M 2156 4666 
L 3494 4666 
L 3494 1722 
L 4159 1722 
L 4159 850 
L 3494 850 
L 3494 0 
L 2356 0 
L 2356 850 
L 288 850 
L 288 1881 
L 2156 4666 
z
" transform="scale(0.015625)"/>
      <path id="DejaVuSans-Bold-2c" d="M 653 1209 
L 1778 1209 
L 1778 256 
L 1006 -909 
L 341 -909 
L 653 256 
L 653 1209 
z
" transform="scale(0.015625)"/>
      <path id="DejaVuSans-Bold-33" d="M 2981 2516 
Q 3453 2394 3698 2092 
Q 3944 1791 3944 1325 
Q 3944 631 3412 270 
Q 2881 -91 1863 -91 
Q 1503 -91 1142 -33 
Q 781 25 428 141 
L 428 1069 
Q 766 900 1098 814 
Q 1431 728 1753 728 
Q 2231 728 2486 893 
Q 2741 1059 2741 1369 
Q 2741 1688 2480 1852 
Q 2219 2016 1709 2016 
L 1228 2016 
L 1228 2791 
L 1734 2791 
Q 2188 2791 2409 2933 
Q 2631 3075 2631 3366 
Q 2631 3634 2415 3781 
Q 2200 3928 1806 3928 
Q 1516 3928 1219 3862 
Q 922 3797 628 3669 
L 628 4550 
Q 984 4650 1334 4700 
Q 1684 4750 2022 4750 
Q 2931 4750 3382 4451 
Q 3834 4153 3834 3553 
Q 3834 3144 3618 2883 
Q 3403 2622 2981 2516 
z
" transform="scale(0.015625)"/>
      <path id="DejaVuSans-Bold-29" d="M 513 -844 
Q 913 -100 1113 609 
Q 1313 1319 1313 2009 
Q 1313 2700 1113 3408 
Q 913 4116 513 4856 
L 1441 4856 
Q 1916 4091 2145 3389 
Q 2375 2688 2375 2003 
Q 2375 1319 2147 623 
Q 1919 -72 1441 -844 
L 513 -844 
z
" transform="scale(0.015625)"/>
     </defs>
     <use xlink:href="#DejaVuSans-Bold-28"/>
     <use xlink:href="#DejaVuSans-Bold-32" transform="translate(45.703125 0)"/>
     <use xlink:href="#DejaVuSans-Bold-34" transform="translate(115.283203 0)"/>
     <use xlink:href="#DejaVuSans-Bold-2c" transform="translate(184.863281 0)"/>
     <use xlink:href="#DejaVuSans-Bold-34" transform="translate(222.851562 0)"/>
     <use xlink:href="#DejaVuSans-Bold-33" transform="translate(292.431641 0)"/>
     <use xlink:href="#DejaVuSans-Bold-33" transform="translate(362.011719 0)"/>
     <use xlink:href="#DejaVuSans-Bold-29" transform="translate(431.591797 0)"/>
    </g>
   </g>
   <g id="text_36">
    <!-- Automated -->
    <g transform="translate(1065.838592 392.918557) scale(0.1 -0.1)">
     <use xlink:href="#DejaVuSans-41"/>
     <use xlink:href="#DejaVuSans-75" transform="translate(68.408203 0)"/>
     <use xlink:href="#DejaVuSans-74" transform="translate(131.787109 0)"/>
     <use xlink:href="#DejaVuSans-6f" transform="translate(170.996094 0)"/>
     <use xlink:href="#DejaVuSans-6d" transform="translate(232.177734 0)"/>
     <use xlink:href="#DejaVuSans-61" transform="translate(329.589844 0)"/>
     <use xlink:href="#DejaVuSans-74" transform="translate(390.869141 0)"/>
     <use xlink:href="#DejaVuSans-65" transform="translate(430.078125 0)"/>
     <use xlink:href="#DejaVuSans-64" transform="translate(491.601562 0)"/>
    </g>
   </g>
   <g id="text_37">
    <!-- 78.0% -->
    <g style="fill: #ffffff" transform="translate(1005.910955 337.665309) scale(0.11 -0.11)">
     <defs>
      <path id="DejaVuSans-Bold-37" d="M 428 4666 
L 3944 4666 
L 3944 3988 
L 2125 0 
L 953 0 
L 2675 3781 
L 428 3781 
L 428 4666 
z
" transform="scale(0.015625)"/>
      <path id="DejaVuSans-Bold-38" d="M 2228 2088 
Q 1891 2088 1709 1903 
Q 1528 1719 1528 1375 
Q 1528 1031 1709 848 
Q 1891 666 2228 666 
Q 2563 666 2741 848 
Q 2919 1031 2919 1375 
Q 2919 1722 2741 1905 
Q 2563 2088 2228 2088 
z
M 1350 2484 
Q 925 2613 709 2878 
Q 494 3144 494 3541 
Q 494 4131 934 4440 
Q 1375 4750 2228 4750 
Q 3075 4750 3515 4442 
Q 3956 4134 3956 3541 
Q 3956 3144 3739 2878 
Q 3522 2613 3097 2484 
Q 3572 2353 3814 2058 
Q 4056 1763 4056 1313 
Q 4056 619 3595 264 
Q 3134 -91 2228 -91 
Q 1319 -91 855 264 
Q 391 619 391 1313 
Q 391 1763 633 2058 
Q 875 2353 1350 2484 
z
M 1631 3419 
Q 1631 3141 1786 2991 
Q 1941 2841 2228 2841 
Q 2509 2841 2662 2991 
Q 2816 3141 2816 3419 
Q 2816 3697 2662 3845 
Q 2509 3994 2228 3994 
Q 1941 3994 1786 3844 
Q 1631 3694 1631 3419 
z
" transform="scale(0.015625)"/>
     </defs>
     <use xlink:href="#DejaVuSans-Bold-37"/>
     <use xlink:href="#DejaVuSans-Bold-38" transform="translate(69.580078 0)"/>
     <use xlink:href="#DejaVuSans-Bold-2e" transform="translate(139.160156 0)"/>
     <use xlink:href="#DejaVuSans-Bold-30" transform="translate(177.148438 0)"/>
     <use xlink:href="#DejaVuSans-Bold-25" transform="translate(246.728516 0)"/>
    </g>
    <!-- (86,618) -->
    <g style="fill: #ffffff" transform="translate(998.741189 349.982902) scale(0.11 -0.11)">
     <defs>
      <path id="DejaVuSans-Bold-36" d="M 2316 2303 
Q 2000 2303 1842 2098 
Q 1684 1894 1684 1484 
Q 1684 1075 1842 870 
Q 2000 666 2316 666 
Q 2634 666 2792 870 
Q 2950 1075 2950 1484 
Q 2950 1894 2792 2098 
Q 2634 2303 2316 2303 
z
M 3803 4544 
L 3803 3681 
Q 3506 3822 3243 3889 
Q 2981 3956 2731 3956 
Q 2194 3956 1894 3657 
Q 1594 3359 1544 2772 
Q 1750 2925 1990 3001 
Q 2231 3078 2516 3078 
Q 3231 3078 3670 2659 
Q 4109 2241 4109 1563 
Q 4109 813 3618 361 
Q 3128 -91 2303 -91 
Q 1394 -91 895 523 
Q 397 1138 397 2266 
Q 397 3422 980 4083 
Q 1563 4744 2578 4744 
Q 2900 4744 3203 4694 
Q 3506 4644 3803 4544 
z
" transform="scale(0.015625)"/>
      <path id="DejaVuSans-Bold-31" d="M 750 831 
L 1813 831 
L 1813 3847 
L 722 3622 
L 722 4441 
L 1806 4666 
L 2950 4666 
L 2950 831 
L 4013 831 
L 4013 0 
L 750 0 
L 750 831 
z
" transform="scale(0.015625)"/>
     </defs>
     <use xlink:href="#DejaVuSans-Bold-28"/>
     <use xlink:href="#DejaVuSans-Bold-38" transform="translate(45.703125 0)"/>
     <use xlink:href="#DejaVuSans-Bold-36" transform="translate(115.283203 0)"/>
     <use xlink:href="#DejaVuSans-Bold-2c" transform="translate(184.863281 0)"/>
     <use xlink:href="#DejaVuSans-Bold-36" transform="translate(222.851562 0)"/>
     <use xlink:href="#DejaVuSans-Bold-31" transform="translate(292.431641 0)"/>
     <use xlink:href="#DejaVuSans-Bold-38" transform="translate(362.011719 0)"/>
     <use xlink:href="#DejaVuSans-Bold-29" transform="translate(431.591797 0)"/>
    </g>
   </g>
   <g id="text_38">
    <!-- Intervention Distribution -->
    <g transform="translate(873.383144 94.736964) scale(0.14 -0.14)">
     <defs>
      <path id="DejaVuSans-Bold-44" d="M 1791 3756 
L 1791 909 
L 2222 909 
Q 2959 909 3348 1275 
Q 3738 1641 3738 2338 
Q 3738 3031 3350 3393 
Q 2963 3756 2222 3756 
L 1791 3756 
z
M 588 4666 
L 1856 4666 
Q 2919 4666 3439 4514 
Q 3959 4363 4331 4000 
Q 4659 3684 4818 3271 
Q 4978 2859 4978 2338 
Q 4978 1809 4818 1395 
Q 4659 981 4331 666 
Q 3956 303 3431 151 
Q 2906 0 1856 0 
L 588 0 
L 588 4666 
z
" transform="scale(0.015625)"/>
     </defs>
     <use xlink:href="#DejaVuSans-Bold-49"/>
     <use xlink:href="#DejaVuSans-Bold-6e" transform="translate(37.207031 0)"/>
     <use xlink:href="#DejaVuSans-Bold-74" transform="translate(108.398438 0)"/>
     <use xlink:href="#DejaVuSans-Bold-65" transform="translate(156.201172 0)"/>
     <use xlink:href="#DejaVuSans-Bold-72" transform="translate(224.023438 0)"/>
     <use xlink:href="#DejaVuSans-Bold-76" transform="translate(273.339844 0)"/>
     <use xlink:href="#DejaVuSans-Bold-65" transform="translate(338.525391 0)"/>
     <use xlink:href="#DejaVuSans-Bold-6e" transform="translate(406.347656 0)"/>
     <use xlink:href="#DejaVuSans-Bold-74" transform="translate(477.539062 0)"/>
     <use xlink:href="#DejaVuSans-Bold-69" transform="translate(525.341797 0)"/>
     <use xlink:href="#DejaVuSans-Bold-6f" transform="translate(559.619141 0)"/>
     <use xlink:href="#DejaVuSans-Bold-6e" transform="translate(628.320312 0)"/>
     <use xlink:href="#DejaVuSans-Bold-20" transform="translate(699.511719 0)"/>
     <use xlink:href="#DejaVuSans-Bold-44" transform="translate(734.326172 0)"/>
     <use xlink:href="#DejaVuSans-Bold-69" transform="translate(817.333984 0)"/>
     <use xlink:href="#DejaVuSans-Bold-73" transform="translate(851.611328 0)"/>
     <use xlink:href="#DejaVuSans-Bold-74" transform="translate(911.132812 0)"/>
     <use xlink:href="#DejaVuSans-Bold-72" transform="translate(958.935547 0)"/>
     <use xlink:href="#DejaVuSans-Bold-69" transform="translate(1008.251953 0)"/>
     <use xlink:href="#DejaVuSans-Bold-62" transform="translate(1042.529297 0)"/>
     <use xlink:href="#DejaVuSans-Bold-75" transform="translate(1114.111328 0)"/>
     <use xlink:href="#DejaVuSans-Bold-74" transform="translate(1185.302734 0)"/>
     <use xlink:href="#DejaVuSans-Bold-69" transform="translate(1233.105469 0)"/>
     <use xlink:href="#DejaVuSans-Bold-6f" transform="translate(1267.382812 0)"/>
     <use xlink:href="#DejaVuSans-Bold-6e" transform="translate(1336.083984 0)"/>
    </g>
    <!-- (Total: 111,051) -->
    <g transform="translate(909.2483 110.413902) scale(0.14 -0.14)">
     <defs>
      <path id="DejaVuSans-Bold-3a" d="M 716 3500 
L 1844 3500 
L 1844 2291 
L 716 2291 
L 716 3500 
z
M 716 1209 
L 1844 1209 
L 1844 0 
L 716 0 
L 716 1209 
z
" transform="scale(0.015625)"/>
      <path id="DejaVuSans-Bold-35" d="M 678 4666 
L 3669 4666 
L 3669 3781 
L 1638 3781 
L 1638 3059 
Q 1775 3097 1914 3117 
Q 2053 3138 2203 3138 
Q 3056 3138 3531 2711 
Q 4006 2284 4006 1522 
Q 4006 766 3489 337 
Q 2972 -91 2053 -91 
Q 1656 -91 1267 -14 
Q 878 63 494 219 
L 494 1166 
Q 875 947 1217 837 
Q 1559 728 1863 728 
Q 2300 728 2551 942 
Q 2803 1156 2803 1522 
Q 2803 1891 2551 2103 
Q 2300 2316 1863 2316 
Q 1603 2316 1309 2248 
Q 1016 2181 678 2041 
L 678 4666 
z
" transform="scale(0.015625)"/>
     </defs>
     <use xlink:href="#DejaVuSans-Bold-28"/>
     <use xlink:href="#DejaVuSans-Bold-54" transform="translate(45.703125 0)"/>
     <use xlink:href="#DejaVuSans-Bold-6f" transform="translate(100.666016 0)"/>
     <use xlink:href="#DejaVuSans-Bold-74" transform="translate(169.367188 0)"/>
     <use xlink:href="#DejaVuSans-Bold-61" transform="translate(217.169922 0)"/>
     <use xlink:href="#DejaVuSans-Bold-6c" transform="translate(284.650391 0)"/>
     <use xlink:href="#DejaVuSans-Bold-3a" transform="translate(318.927734 0)"/>
     <use xlink:href="#DejaVuSans-Bold-20" transform="translate(358.917969 0)"/>
     <use xlink:href="#DejaVuSans-Bold-31" transform="translate(393.732422 0)"/>
     <use xlink:href="#DejaVuSans-Bold-31" transform="translate(463.3125 0)"/>
     <use xlink:href="#DejaVuSans-Bold-31" transform="translate(532.892578 0)"/>
     <use xlink:href="#DejaVuSans-Bold-2c" transform="translate(602.472656 0)"/>
     <use xlink:href="#DejaVuSans-Bold-30" transform="translate(640.460938 0)"/>
     <use xlink:href="#DejaVuSans-Bold-35" transform="translate(710.041016 0)"/>
     <use xlink:href="#DejaVuSans-Bold-31" transform="translate(779.621094 0)"/>
     <use xlink:href="#DejaVuSans-Bold-29" transform="translate(849.201172 0)"/>
    </g>
   </g>
  </g>
  <g id="text_39">
   <!-- Normsy Impressions Analysis &amp; Distribution Overview -->
   <g transform="translate(328.675625 19.3575) scale(0.16 -0.16)">
    <defs>
     <path id="DejaVuSans-Bold-4e" d="M 588 4666 
L 1931 4666 
L 3628 1466 
L 3628 4666 
L 4769 4666 
L 4769 0 
L 3425 0 
L 1728 3200 
L 1728 0 
L 588 0 
L 588 4666 
z
" transform="scale(0.015625)"/>
     <path id="DejaVuSans-Bold-41" d="M 3419 850 
L 1538 850 
L 1241 0 
L 31 0 
L 1759 4666 
L 3194 4666 
L 4922 0 
L 3713 0 
L 3419 850 
z
M 1838 1716 
L 3116 1716 
L 2478 3572 
L 1838 1716 
z
" transform="scale(0.015625)"/>
     <path id="DejaVuSans-Bold-26" d="M 2497 3097 
L 3775 1691 
Q 3941 1909 4027 2181 
Q 4113 2453 4128 2797 
L 5100 2797 
Q 5053 2228 4879 1784 
Q 4706 1341 4397 1006 
L 5313 0 
L 3988 0 
L 3681 341 
Q 3353 122 2990 15 
Q 2628 -91 2222 -91 
Q 1400 -91 892 342 
Q 384 775 384 1459 
Q 384 1916 607 2267 
Q 831 2619 1338 2950 
Q 1206 3116 1143 3281 
Q 1081 3447 1081 3628 
Q 1081 4138 1478 4444 
Q 1875 4750 2534 4750 
Q 2819 4750 3126 4704 
Q 3434 4659 3769 4569 
L 3769 3700 
Q 3475 3850 3212 3922 
Q 2950 3994 2700 3994 
Q 2459 3994 2326 3901 
Q 2194 3809 2194 3641 
Q 2194 3534 2270 3398 
Q 2347 3263 2497 3097 
z
M 1875 2322 
Q 1672 2175 1569 1989 
Q 1466 1803 1466 1581 
Q 1466 1222 1731 969 
Q 1997 716 2369 716 
Q 2578 716 2759 780 
Q 2941 844 3097 972 
L 1875 2322 
z
" transform="scale(0.015625)"/>
     <path id="DejaVuSans-Bold-4f" d="M 2719 3878 
Q 2169 3878 1866 3472 
Q 1563 3066 1563 2328 
Q 1563 1594 1866 1187 
Q 2169 781 2719 781 
Q 3272 781 3575 1187 
Q 3878 1594 3878 2328 
Q 3878 3066 3575 3472 
Q 3272 3878 2719 3878 
z
M 2719 4750 
Q 3844 4750 4481 4106 
Q 5119 3463 5119 2328 
Q 5119 1197 4481 553 
Q 3844 -91 2719 -91 
Q 1597 -91 958 553 
Q 319 1197 319 2328 
Q 319 3463 958 4106 
Q 1597 4750 2719 4750 
z
" transform="scale(0.015625)"/>
     <path id="DejaVuSans-Bold-77" d="M 225 3500 
L 1313 3500 
L 1900 1088 
L 2491 3500 
L 3425 3500 
L 4013 1113 
L 4603 3500 
L 5691 3500 
L 4769 0 
L 3547 0 
L 2956 2406 
L 2369 0 
L 1147 0 
L 225 3500 
z
" transform="scale(0.015625)"/>
    </defs>
    <use xlink:href="#DejaVuSans-Bold-4e"/>
    <use xlink:href="#DejaVuSans-Bold-6f" transform="translate(83.691406 0)"/>
    <use xlink:href="#DejaVuSans-Bold-72" transform="translate(152.392578 0)"/>
    <use xlink:href="#DejaVuSans-Bold-6d" transform="translate(201.708984 0)"/>
    <use xlink:href="#DejaVuSans-Bold-73" transform="translate(305.908203 0)"/>
    <use xlink:href="#DejaVuSans-Bold-79" transform="translate(365.429688 0)"/>
    <use xlink:href="#DejaVuSans-Bold-20" transform="translate(430.615234 0)"/>
    <use xlink:href="#DejaVuSans-Bold-49" transform="translate(465.429688 0)"/>
    <use xlink:href="#DejaVuSans-Bold-6d" transform="translate(502.636719 0)"/>
    <use xlink:href="#DejaVuSans-Bold-70" transform="translate(606.835938 0)"/>
    <use xlink:href="#DejaVuSans-Bold-72" transform="translate(678.417969 0)"/>
    <use xlink:href="#DejaVuSans-Bold-65" transform="translate(727.734375 0)"/>
    <use xlink:href="#DejaVuSans-Bold-73" transform="translate(795.556641 0)"/>
    <use xlink:href="#DejaVuSans-Bold-73" transform="translate(855.078125 0)"/>
    <use xlink:href="#DejaVuSans-Bold-69" transform="translate(914.599609 0)"/>
    <use xlink:href="#DejaVuSans-Bold-6f" transform="translate(948.876953 0)"/>
    <use xlink:href="#DejaVuSans-Bold-6e" transform="translate(1017.578125 0)"/>
    <use xlink:href="#DejaVuSans-Bold-73" transform="translate(1088.769531 0)"/>
    <use xlink:href="#DejaVuSans-Bold-20" transform="translate(1148.291016 0)"/>
    <use xlink:href="#DejaVuSans-Bold-41" transform="translate(1183.105469 0)"/>
    <use xlink:href="#DejaVuSans-Bold-6e" transform="translate(1260.498047 0)"/>
    <use xlink:href="#DejaVuSans-Bold-61" transform="translate(1331.689453 0)"/>
    <use xlink:href="#DejaVuSans-Bold-6c" transform="translate(1399.169922 0)"/>
    <use xlink:href="#DejaVuSans-Bold-79" transform="translate(1433.447266 0)"/>
    <use xlink:href="#DejaVuSans-Bold-73" transform="translate(1498.632812 0)"/>
    <use xlink:href="#DejaVuSans-Bold-69" transform="translate(1558.154297 0)"/>
    <use xlink:href="#DejaVuSans-Bold-73" transform="translate(1592.431641 0)"/>
    <use xlink:href="#DejaVuSans-Bold-20" transform="translate(1651.953125 0)"/>
    <use xlink:href="#DejaVuSans-Bold-26" transform="translate(1686.767578 0)"/>
    <use xlink:href="#DejaVuSans-Bold-20" transform="translate(1773.974609 0)"/>
    <use xlink:href="#DejaVuSans-Bold-44" transform="translate(1808.789062 0)"/>
    <use xlink:href="#DejaVuSans-Bold-69" transform="translate(1891.796875 0)"/>
    <use xlink:href="#DejaVuSans-Bold-73" transform="translate(1926.074219 0)"/>
    <use xlink:href="#DejaVuSans-Bold-74" transform="translate(1985.595703 0)"/>
    <use xlink:href="#DejaVuSans-Bold-72" transform="translate(2033.398438 0)"/>
    <use xlink:href="#DejaVuSans-Bold-69" transform="translate(2082.714844 0)"/>
    <use xlink:href="#DejaVuSans-Bold-62" transform="translate(2116.992188 0)"/>
    <use xlink:href="#DejaVuSans-Bold-75" transform="translate(2188.574219 0)"/>
    <use xlink:href="#DejaVuSans-Bold-74" transform="translate(2259.765625 0)"/>
    <use xlink:href="#DejaVuSans-Bold-69" transform="translate(2307.568359 0)"/>
    <use xlink:href="#DejaVuSans-Bold-6f" transform="translate(2341.845703 0)"/>
    <use xlink:href="#DejaVuSans-Bold-6e" transform="translate(2410.546875 0)"/>
    <use xlink:href="#DejaVuSans-Bold-20" transform="translate(2481.738281 0)"/>
    <use xlink:href="#DejaVuSans-Bold-4f" transform="translate(2516.552734 0)"/>
    <use xlink:href="#DejaVuSans-Bold-76" transform="translate(2601.5625 0)"/>
    <use xlink:href="#DejaVuSans-Bold-65" transform="translate(2666.748047 0)"/>
    <use xlink:href="#DejaVuSans-Bold-72" transform="translate(2734.570312 0)"/>
    <use xlink:href="#DejaVuSans-Bold-76" transform="translate(2783.886719 0)"/>
    <use xlink:href="#DejaVuSans-Bold-69" transform="translate(2849.072266 0)"/>
    <use xlink:href="#DejaVuSans-Bold-65" transform="translate(2883.349609 0)"/>
    <use xlink:href="#DejaVuSans-Bold-77" transform="translate(2951.171875 0)"/>
   </g>
  </g>
 </g>
 <defs>
  <clipPath id="p6c5594b12c">
   <rect x="53.328125" y="48.48" width="747.569133" height="456.254575"/>
  </clipPath>
 </defs>
</svg>
