<?xml version="1.0" encoding="utf-8" standalone="no"?>
<!DOCTYPE svg PUBLIC "-//W3C//DTD SVG 1.1//EN"
  "http://www.w3.org/Graphics/SVG/1.1/DTD/svg11.dtd">
<svg xmlns:xlink="http://www.w3.org/1999/xlink" width="1144.620625pt" height="443.43625pt" viewBox="0 0 1144.620625 443.43625" xmlns="http://www.w3.org/2000/svg" version="1.1">
 <metadata>
  <rdf:RDF xmlns:dc="http://purl.org/dc/elements/1.1/" xmlns:cc="http://creativecommons.org/ns#" xmlns:rdf="http://www.w3.org/1999/02/22-rdf-syntax-ns#">
   <cc:Work>
    <dc:type rdf:resource="http://purl.org/dc/dcmitype/StillImage"/>
    <dc:date>2026-03-16T14:54:47.247482</dc:date>
    <dc:format>image/svg+xml</dc:format>
    <dc:creator>
     <cc:Agent>
      <dc:title>Matplotlib v3.10.3, https://matplotlib.org/</dc:title>
     </cc:Agent>
    </dc:creator>
   </cc:Work>
  </rdf:RDF>
 </metadata>
 <defs>
  <style type="text/css">*{stroke-linejoin: round; stroke-linecap: butt}</style>
 </defs>
 <g id="figure_1">
  <g id="patch_1">
   <path d="M 0 443.43625 
L 1144.620625 443.43625 
L 1144.620625 0 
L 0 0 
z
" style="fill: #ffffff"/>
  </g>
  <g id="axes_1">
   <g id="patch_2">
    <path d="M 59.690625 405.88 
L 566.820625 405.88 
L 566.820625 68.64 
L 59.690625 68.64 
z
" style="fill: #ffffff"/>
   </g>
   <g id="patch_3">
    <path d="M 82.741989 405.88 
L 91.962534 405.88 
L 91.962534 368.394131 
L 82.741989 368.394131 
z
" clip-path="url(#pe8eec009d9)" style="fill: #87ceeb; fill-opacity: 0.5; stroke: #000000; stroke-width: 0.737851; stroke-linejoin: miter"/>
   </g>
   <g id="patch_4">
    <path d="M 91.962534 405.88 
L 101.18308 405.88 
L 101.18308 405.88 
L 91.962534 405.88 
z
" clip-path="url(#pe8eec009d9)" style="fill: #87ceeb; fill-opacity: 0.5; stroke: #000000; stroke-width: 0.737851; stroke-linejoin: miter"/>
   </g>
   <g id="patch_5">
    <path d="M 101.18308 405.88 
L 110.403625 405.88 
L 110.403625 405.88 
L 101.18308 405.88 
z
" clip-path="url(#pe8eec009d9)" style="fill: #87ceeb; fill-opacity: 0.5; stroke: #000000; stroke-width: 0.737851; stroke-linejoin: miter"/>
   </g>
   <g id="patch_6">
    <path d="M 110.403625 405.88 
L 119.62417 405.88 
L 119.62417 405.88 
L 110.403625 405.88 
z
" clip-path="url(#pe8eec009d9)" style="fill: #87ceeb; fill-opacity: 0.5; stroke: #000000; stroke-width: 0.737851; stroke-linejoin: miter"/>
   </g>
   <g id="patch_7">
    <path d="M 119.62417 405.88 
L 128.844716 405.88 
L 128.844716 405.88 
L 119.62417 405.88 
z
" clip-path="url(#pe8eec009d9)" style="fill: #87ceeb; fill-opacity: 0.5; stroke: #000000; stroke-width: 0.737851; stroke-linejoin: miter"/>
   </g>
   <g id="patch_8">
    <path d="M 128.844716 405.88 
L 138.065261 405.88 
L 138.065261 405.88 
L 128.844716 405.88 
z
" clip-path="url(#pe8eec009d9)" style="fill: #87ceeb; fill-opacity: 0.5; stroke: #000000; stroke-width: 0.737851; stroke-linejoin: miter"/>
   </g>
   <g id="patch_9">
    <path d="M 138.065261 405.88 
L 147.285807 405.88 
L 147.285807 405.88 
L 138.065261 405.88 
z
" clip-path="url(#pe8eec009d9)" style="fill: #87ceeb; fill-opacity: 0.5; stroke: #000000; stroke-width: 0.737851; stroke-linejoin: miter"/>
   </g>
   <g id="patch_10">
    <path d="M 147.285807 405.88 
L 156.506352 405.88 
L 156.506352 405.88 
L 147.285807 405.88 
z
" clip-path="url(#pe8eec009d9)" style="fill: #87ceeb; fill-opacity: 0.5; stroke: #000000; stroke-width: 0.737851; stroke-linejoin: miter"/>
   </g>
   <g id="patch_11">
    <path d="M 156.506352 405.88 
L 165.726898 405.88 
L 165.726898 405.88 
L 156.506352 405.88 
z
" clip-path="url(#pe8eec009d9)" style="fill: #87ceeb; fill-opacity: 0.5; stroke: #000000; stroke-width: 0.737851; stroke-linejoin: miter"/>
   </g>
   <g id="patch_12">
    <path d="M 165.726898 405.88 
L 174.947443 405.88 
L 174.947443 405.88 
L 165.726898 405.88 
z
" clip-path="url(#pe8eec009d9)" style="fill: #87ceeb; fill-opacity: 0.5; stroke: #000000; stroke-width: 0.737851; stroke-linejoin: miter"/>
   </g>
   <g id="patch_13">
    <path d="M 174.947443 405.88 
L 184.167989 405.88 
L 184.167989 405.88 
L 174.947443 405.88 
z
" clip-path="url(#pe8eec009d9)" style="fill: #87ceeb; fill-opacity: 0.5; stroke: #000000; stroke-width: 0.737851; stroke-linejoin: miter"/>
   </g>
   <g id="patch_14">
    <path d="M 184.167989 405.88 
L 193.388534 405.88 
L 193.388534 405.88 
L 184.167989 405.88 
z
" clip-path="url(#pe8eec009d9)" style="fill: #87ceeb; fill-opacity: 0.5; stroke: #000000; stroke-width: 0.737851; stroke-linejoin: miter"/>
   </g>
   <g id="patch_15">
    <path d="M 193.388534 405.88 
L 202.60908 405.88 
L 202.60908 405.88 
L 193.388534 405.88 
z
" clip-path="url(#pe8eec009d9)" style="fill: #87ceeb; fill-opacity: 0.5; stroke: #000000; stroke-width: 0.737851; stroke-linejoin: miter"/>
   </g>
   <g id="patch_16">
    <path d="M 202.60908 405.88 
L 211.829625 405.88 
L 211.829625 405.88 
L 202.60908 405.88 
z
" clip-path="url(#pe8eec009d9)" style="fill: #87ceeb; fill-opacity: 0.5; stroke: #000000; stroke-width: 0.737851; stroke-linejoin: miter"/>
   </g>
   <g id="patch_17">
    <path d="M 211.829625 405.88 
L 221.05017 405.88 
L 221.05017 405.88 
L 211.829625 405.88 
z
" clip-path="url(#pe8eec009d9)" style="fill: #87ceeb; fill-opacity: 0.5; stroke: #000000; stroke-width: 0.737851; stroke-linejoin: miter"/>
   </g>
   <g id="patch_18">
    <path d="M 221.05017 405.88 
L 230.270716 405.88 
L 230.270716 405.88 
L 221.05017 405.88 
z
" clip-path="url(#pe8eec009d9)" style="fill: #87ceeb; fill-opacity: 0.5; stroke: #000000; stroke-width: 0.737851; stroke-linejoin: miter"/>
   </g>
   <g id="patch_19">
    <path d="M 230.270716 405.88 
L 239.491261 405.88 
L 239.491261 348.386206 
L 230.270716 348.386206 
z
" clip-path="url(#pe8eec009d9)" style="fill: #87ceeb; fill-opacity: 0.5; stroke: #000000; stroke-width: 0.737851; stroke-linejoin: miter"/>
   </g>
   <g id="patch_20">
    <path d="M 239.491261 405.88 
L 248.711807 405.88 
L 248.711807 405.88 
L 239.491261 405.88 
z
" clip-path="url(#pe8eec009d9)" style="fill: #87ceeb; fill-opacity: 0.5; stroke: #000000; stroke-width: 0.737851; stroke-linejoin: miter"/>
   </g>
   <g id="patch_21">
    <path d="M 248.711807 405.88 
L 257.932352 405.88 
L 257.932352 405.88 
L 248.711807 405.88 
z
" clip-path="url(#pe8eec009d9)" style="fill: #87ceeb; fill-opacity: 0.5; stroke: #000000; stroke-width: 0.737851; stroke-linejoin: miter"/>
   </g>
   <g id="patch_22">
    <path d="M 257.932352 405.88 
L 267.152898 405.88 
L 267.152898 405.88 
L 257.932352 405.88 
z
" clip-path="url(#pe8eec009d9)" style="fill: #87ceeb; fill-opacity: 0.5; stroke: #000000; stroke-width: 0.737851; stroke-linejoin: miter"/>
   </g>
   <g id="patch_23">
    <path d="M 267.152898 405.88 
L 276.373443 405.88 
L 276.373443 405.88 
L 267.152898 405.88 
z
" clip-path="url(#pe8eec009d9)" style="fill: #87ceeb; fill-opacity: 0.5; stroke: #000000; stroke-width: 0.737851; stroke-linejoin: miter"/>
   </g>
   <g id="patch_24">
    <path d="M 276.373443 405.88 
L 285.593989 405.88 
L 285.593989 405.88 
L 276.373443 405.88 
z
" clip-path="url(#pe8eec009d9)" style="fill: #87ceeb; fill-opacity: 0.5; stroke: #000000; stroke-width: 0.737851; stroke-linejoin: miter"/>
   </g>
   <g id="patch_25">
    <path d="M 285.593989 405.88 
L 294.814534 405.88 
L 294.814534 405.88 
L 285.593989 405.88 
z
" clip-path="url(#pe8eec009d9)" style="fill: #87ceeb; fill-opacity: 0.5; stroke: #000000; stroke-width: 0.737851; stroke-linejoin: miter"/>
   </g>
   <g id="patch_26">
    <path d="M 294.814534 405.88 
L 304.03508 405.88 
L 304.03508 405.88 
L 294.814534 405.88 
z
" clip-path="url(#pe8eec009d9)" style="fill: #87ceeb; fill-opacity: 0.5; stroke: #000000; stroke-width: 0.737851; stroke-linejoin: miter"/>
   </g>
   <g id="patch_27">
    <path d="M 304.03508 405.88 
L 313.255625 405.88 
L 313.255625 405.88 
L 304.03508 405.88 
z
" clip-path="url(#pe8eec009d9)" style="fill: #87ceeb; fill-opacity: 0.5; stroke: #000000; stroke-width: 0.737851; stroke-linejoin: miter"/>
   </g>
   <g id="patch_28">
    <path d="M 313.255625 405.88 
L 322.47617 405.88 
L 322.47617 405.88 
L 313.255625 405.88 
z
" clip-path="url(#pe8eec009d9)" style="fill: #87ceeb; fill-opacity: 0.5; stroke: #000000; stroke-width: 0.737851; stroke-linejoin: miter"/>
   </g>
   <g id="patch_29">
    <path d="M 322.47617 405.88 
L 331.696716 405.88 
L 331.696716 405.88 
L 322.47617 405.88 
z
" clip-path="url(#pe8eec009d9)" style="fill: #87ceeb; fill-opacity: 0.5; stroke: #000000; stroke-width: 0.737851; stroke-linejoin: miter"/>
   </g>
   <g id="patch_30">
    <path d="M 331.696716 405.88 
L 340.917261 405.88 
L 340.917261 405.88 
L 331.696716 405.88 
z
" clip-path="url(#pe8eec009d9)" style="fill: #87ceeb; fill-opacity: 0.5; stroke: #000000; stroke-width: 0.737851; stroke-linejoin: miter"/>
   </g>
   <g id="patch_31">
    <path d="M 340.917261 405.88 
L 350.137807 405.88 
L 350.137807 405.88 
L 340.917261 405.88 
z
" clip-path="url(#pe8eec009d9)" style="fill: #87ceeb; fill-opacity: 0.5; stroke: #000000; stroke-width: 0.737851; stroke-linejoin: miter"/>
   </g>
   <g id="patch_32">
    <path d="M 350.137807 405.88 
L 359.358352 405.88 
L 359.358352 405.88 
L 350.137807 405.88 
z
" clip-path="url(#pe8eec009d9)" style="fill: #87ceeb; fill-opacity: 0.5; stroke: #000000; stroke-width: 0.737851; stroke-linejoin: miter"/>
   </g>
   <g id="patch_33">
    <path d="M 359.358352 405.88 
L 368.578898 405.88 
L 368.578898 405.88 
L 359.358352 405.88 
z
" clip-path="url(#pe8eec009d9)" style="fill: #87ceeb; fill-opacity: 0.5; stroke: #000000; stroke-width: 0.737851; stroke-linejoin: miter"/>
   </g>
   <g id="patch_34">
    <path d="M 368.578898 405.88 
L 377.799443 405.88 
L 377.799443 405.88 
L 368.578898 405.88 
z
" clip-path="url(#pe8eec009d9)" style="fill: #87ceeb; fill-opacity: 0.5; stroke: #000000; stroke-width: 0.737851; stroke-linejoin: miter"/>
   </g>
   <g id="patch_35">
    <path d="M 377.799443 405.88 
L 387.019989 405.88 
L 387.019989 405.88 
L 377.799443 405.88 
z
" clip-path="url(#pe8eec009d9)" style="fill: #87ceeb; fill-opacity: 0.5; stroke: #000000; stroke-width: 0.737851; stroke-linejoin: miter"/>
   </g>
   <g id="patch_36">
    <path d="M 387.019989 405.88 
L 396.240534 405.88 
L 396.240534 84.699048 
L 387.019989 84.699048 
z
" clip-path="url(#pe8eec009d9)" style="fill: #87ceeb; fill-opacity: 0.5; stroke: #000000; stroke-width: 0.737851; stroke-linejoin: miter"/>
   </g>
   <g id="patch_37">
    <path d="M 396.240534 405.88 
L 405.46108 405.88 
L 405.46108 405.88 
L 396.240534 405.88 
z
" clip-path="url(#pe8eec009d9)" style="fill: #87ceeb; fill-opacity: 0.5; stroke: #000000; stroke-width: 0.737851; stroke-linejoin: miter"/>
   </g>
   <g id="patch_38">
    <path d="M 405.46108 405.88 
L 414.681625 405.88 
L 414.681625 405.88 
L 405.46108 405.88 
z
" clip-path="url(#pe8eec009d9)" style="fill: #87ceeb; fill-opacity: 0.5; stroke: #000000; stroke-width: 0.737851; stroke-linejoin: miter"/>
   </g>
   <g id="patch_39">
    <path d="M 414.681625 405.88 
L 423.90217 405.88 
L 423.90217 405.88 
L 414.681625 405.88 
z
" clip-path="url(#pe8eec009d9)" style="fill: #87ceeb; fill-opacity: 0.5; stroke: #000000; stroke-width: 0.737851; stroke-linejoin: miter"/>
   </g>
   <g id="patch_40">
    <path d="M 423.90217 405.88 
L 433.122716 405.88 
L 433.122716 405.88 
L 423.90217 405.88 
z
" clip-path="url(#pe8eec009d9)" style="fill: #87ceeb; fill-opacity: 0.5; stroke: #000000; stroke-width: 0.737851; stroke-linejoin: miter"/>
   </g>
   <g id="patch_41">
    <path d="M 433.122716 405.88 
L 442.343261 405.88 
L 442.343261 405.88 
L 433.122716 405.88 
z
" clip-path="url(#pe8eec009d9)" style="fill: #87ceeb; fill-opacity: 0.5; stroke: #000000; stroke-width: 0.737851; stroke-linejoin: miter"/>
   </g>
   <g id="patch_42">
    <path d="M 442.343261 405.88 
L 451.563807 405.88 
L 451.563807 405.88 
L 442.343261 405.88 
z
" clip-path="url(#pe8eec009d9)" style="fill: #87ceeb; fill-opacity: 0.5; stroke: #000000; stroke-width: 0.737851; stroke-linejoin: miter"/>
   </g>
   <g id="patch_43">
    <path d="M 451.563807 405.88 
L 460.784352 405.88 
L 460.784352 405.88 
L 451.563807 405.88 
z
" clip-path="url(#pe8eec009d9)" style="fill: #87ceeb; fill-opacity: 0.5; stroke: #000000; stroke-width: 0.737851; stroke-linejoin: miter"/>
   </g>
   <g id="patch_44">
    <path d="M 460.784352 405.88 
L 470.004898 405.88 
L 470.004898 405.88 
L 460.784352 405.88 
z
" clip-path="url(#pe8eec009d9)" style="fill: #87ceeb; fill-opacity: 0.5; stroke: #000000; stroke-width: 0.737851; stroke-linejoin: miter"/>
   </g>
   <g id="patch_45">
    <path d="M 470.004898 405.88 
L 479.225443 405.88 
L 479.225443 405.88 
L 470.004898 405.88 
z
" clip-path="url(#pe8eec009d9)" style="fill: #87ceeb; fill-opacity: 0.5; stroke: #000000; stroke-width: 0.737851; stroke-linejoin: miter"/>
   </g>
   <g id="patch_46">
    <path d="M 479.225443 405.88 
L 488.445989 405.88 
L 488.445989 405.88 
L 479.225443 405.88 
z
" clip-path="url(#pe8eec009d9)" style="fill: #87ceeb; fill-opacity: 0.5; stroke: #000000; stroke-width: 0.737851; stroke-linejoin: miter"/>
   </g>
   <g id="patch_47">
    <path d="M 488.445989 405.88 
L 497.666534 405.88 
L 497.666534 405.88 
L 488.445989 405.88 
z
" clip-path="url(#pe8eec009d9)" style="fill: #87ceeb; fill-opacity: 0.5; stroke: #000000; stroke-width: 0.737851; stroke-linejoin: miter"/>
   </g>
   <g id="patch_48">
    <path d="M 497.666534 405.88 
L 506.88708 405.88 
L 506.88708 405.88 
L 497.666534 405.88 
z
" clip-path="url(#pe8eec009d9)" style="fill: #87ceeb; fill-opacity: 0.5; stroke: #000000; stroke-width: 0.737851; stroke-linejoin: miter"/>
   </g>
   <g id="patch_49">
    <path d="M 506.88708 405.88 
L 516.107625 405.88 
L 516.107625 405.88 
L 506.88708 405.88 
z
" clip-path="url(#pe8eec009d9)" style="fill: #87ceeb; fill-opacity: 0.5; stroke: #000000; stroke-width: 0.737851; stroke-linejoin: miter"/>
   </g>
   <g id="patch_50">
    <path d="M 516.107625 405.88 
L 525.32817 405.88 
L 525.32817 405.88 
L 516.107625 405.88 
z
" clip-path="url(#pe8eec009d9)" style="fill: #87ceeb; fill-opacity: 0.5; stroke: #000000; stroke-width: 0.737851; stroke-linejoin: miter"/>
   </g>
   <g id="patch_51">
    <path d="M 525.32817 405.88 
L 534.548716 405.88 
L 534.548716 405.88 
L 525.32817 405.88 
z
" clip-path="url(#pe8eec009d9)" style="fill: #87ceeb; fill-opacity: 0.5; stroke: #000000; stroke-width: 0.737851; stroke-linejoin: miter"/>
   </g>
   <g id="patch_52">
    <path d="M 534.548716 405.88 
L 543.769261 405.88 
L 543.769261 306.915618 
L 534.548716 306.915618 
z
" clip-path="url(#pe8eec009d9)" style="fill: #87ceeb; fill-opacity: 0.5; stroke: #000000; stroke-width: 0.737851; stroke-linejoin: miter"/>
   </g>
   <g id="matplotlib.axis_1">
    <g id="xtick_1">
     <g id="line2d_1">
      <defs>
       <path id="m7568dcb159" d="M 0 0 
L 0 3.5 
" style="stroke: #000000; stroke-width: 0.8"/>
      </defs>
      <g>
       <use xlink:href="#m7568dcb159" x="82.741989" y="405.88" style="stroke: #000000; stroke-width: 0.8"/>
      </g>
     </g>
     <g id="text_1">
      <!-- 0.0 -->
      <g transform="translate(74.790426 420.478437) scale(0.1 -0.1)">
       <defs>
        <path id="DejaVuSans-30" d="M 2034 4250 
Q 1547 4250 1301 3770 
Q 1056 3291 1056 2328 
Q 1056 1369 1301 889 
Q 1547 409 2034 409 
Q 2525 409 2770 889 
Q 3016 1369 3016 2328 
Q 3016 3291 2770 3770 
Q 2525 4250 2034 4250 
z
M 2034 4750 
Q 2819 4750 3233 4129 
Q 3647 3509 3647 2328 
Q 3647 1150 3233 529 
Q 2819 -91 2034 -91 
Q 1250 -91 836 529 
Q 422 1150 422 2328 
Q 422 3509 836 4129 
Q 1250 4750 2034 4750 
z
" transform="scale(0.015625)"/>
        <path id="DejaVuSans-2e" d="M 684 794 
L 1344 794 
L 1344 0 
L 684 0 
L 684 794 
z
" transform="scale(0.015625)"/>
       </defs>
       <use xlink:href="#DejaVuSans-30"/>
       <use xlink:href="#DejaVuSans-2e" transform="translate(63.623047 0)"/>
       <use xlink:href="#DejaVuSans-30" transform="translate(95.410156 0)"/>
      </g>
     </g>
    </g>
    <g id="xtick_2">
     <g id="line2d_2">
      <g>
       <use xlink:href="#m7568dcb159" x="159.579867" y="405.88" style="stroke: #000000; stroke-width: 0.8"/>
      </g>
     </g>
     <g id="text_2">
      <!-- 0.5 -->
      <g transform="translate(151.628305 420.478437) scale(0.1 -0.1)">
       <defs>
        <path id="DejaVuSans-35" d="M 691 4666 
L 3169 4666 
L 3169 4134 
L 1269 4134 
L 1269 2991 
Q 1406 3038 1543 3061 
Q 1681 3084 1819 3084 
Q 2600 3084 3056 2656 
Q 3513 2228 3513 1497 
Q 3513 744 3044 326 
Q 2575 -91 1722 -91 
Q 1428 -91 1123 -41 
Q 819 9 494 109 
L 494 744 
Q 775 591 1075 516 
Q 1375 441 1709 441 
Q 2250 441 2565 725 
Q 2881 1009 2881 1497 
Q 2881 1984 2565 2268 
Q 2250 2553 1709 2553 
Q 1456 2553 1204 2497 
Q 953 2441 691 2322 
L 691 4666 
z
" transform="scale(0.015625)"/>
       </defs>
       <use xlink:href="#DejaVuSans-30"/>
       <use xlink:href="#DejaVuSans-2e" transform="translate(63.623047 0)"/>
       <use xlink:href="#DejaVuSans-35" transform="translate(95.410156 0)"/>
      </g>
     </g>
    </g>
    <g id="xtick_3">
     <g id="line2d_3">
      <g>
       <use xlink:href="#m7568dcb159" x="236.417746" y="405.88" style="stroke: #000000; stroke-width: 0.8"/>
      </g>
     </g>
     <g id="text_3">
      <!-- 1.0 -->
      <g transform="translate(228.466184 420.478437) scale(0.1 -0.1)">
       <defs>
        <path id="DejaVuSans-31" d="M 794 531 
L 1825 531 
L 1825 4091 
L 703 3866 
L 703 4441 
L 1819 4666 
L 2450 4666 
L 2450 531 
L 3481 531 
L 3481 0 
L 794 0 
L 794 531 
z
" transform="scale(0.015625)"/>
       </defs>
       <use xlink:href="#DejaVuSans-31"/>
       <use xlink:href="#DejaVuSans-2e" transform="translate(63.623047 0)"/>
       <use xlink:href="#DejaVuSans-30" transform="translate(95.410156 0)"/>
      </g>
     </g>
    </g>
    <g id="xtick_4">
     <g id="line2d_4">
      <g>
       <use xlink:href="#m7568dcb159" x="313.255625" y="405.88" style="stroke: #000000; stroke-width: 0.8"/>
      </g>
     </g>
     <g id="text_4">
      <!-- 1.5 -->
      <g transform="translate(305.304062 420.478437) scale(0.1 -0.1)">
       <use xlink:href="#DejaVuSans-31"/>
       <use xlink:href="#DejaVuSans-2e" transform="translate(63.623047 0)"/>
       <use xlink:href="#DejaVuSans-35" transform="translate(95.410156 0)"/>
      </g>
     </g>
    </g>
    <g id="xtick_5">
     <g id="line2d_5">
      <g>
       <use xlink:href="#m7568dcb159" x="390.093504" y="405.88" style="stroke: #000000; stroke-width: 0.8"/>
      </g>
     </g>
     <g id="text_5">
      <!-- 2.0 -->
      <g transform="translate(382.141941 420.478437) scale(0.1 -0.1)">
       <defs>
        <path id="DejaVuSans-32" d="M 1228 531 
L 3431 531 
L 3431 0 
L 469 0 
L 469 531 
Q 828 903 1448 1529 
Q 2069 2156 2228 2338 
Q 2531 2678 2651 2914 
Q 2772 3150 2772 3378 
Q 2772 3750 2511 3984 
Q 2250 4219 1831 4219 
Q 1534 4219 1204 4116 
Q 875 4013 500 3803 
L 500 4441 
Q 881 4594 1212 4672 
Q 1544 4750 1819 4750 
Q 2544 4750 2975 4387 
Q 3406 4025 3406 3419 
Q 3406 3131 3298 2873 
Q 3191 2616 2906 2266 
Q 2828 2175 2409 1742 
Q 1991 1309 1228 531 
z
" transform="scale(0.015625)"/>
       </defs>
       <use xlink:href="#DejaVuSans-32"/>
       <use xlink:href="#DejaVuSans-2e" transform="translate(63.623047 0)"/>
       <use xlink:href="#DejaVuSans-30" transform="translate(95.410156 0)"/>
      </g>
     </g>
    </g>
    <g id="xtick_6">
     <g id="line2d_6">
      <g>
       <use xlink:href="#m7568dcb159" x="466.931383" y="405.88" style="stroke: #000000; stroke-width: 0.8"/>
      </g>
     </g>
     <g id="text_6">
      <!-- 2.5 -->
      <g transform="translate(458.97982 420.478437) scale(0.1 -0.1)">
       <use xlink:href="#DejaVuSans-32"/>
       <use xlink:href="#DejaVuSans-2e" transform="translate(63.623047 0)"/>
       <use xlink:href="#DejaVuSans-35" transform="translate(95.410156 0)"/>
      </g>
     </g>
    </g>
    <g id="xtick_7">
     <g id="line2d_7">
      <g>
       <use xlink:href="#m7568dcb159" x="543.769261" y="405.88" style="stroke: #000000; stroke-width: 0.8"/>
      </g>
     </g>
     <g id="text_7">
      <!-- 3.0 -->
      <g transform="translate(535.817699 420.478437) scale(0.1 -0.1)">
       <defs>
        <path id="DejaVuSans-33" d="M 2597 2516 
Q 3050 2419 3304 2112 
Q 3559 1806 3559 1356 
Q 3559 666 3084 287 
Q 2609 -91 1734 -91 
Q 1441 -91 1130 -33 
Q 819 25 488 141 
L 488 750 
Q 750 597 1062 519 
Q 1375 441 1716 441 
Q 2309 441 2620 675 
Q 2931 909 2931 1356 
Q 2931 1769 2642 2001 
Q 2353 2234 1838 2234 
L 1294 2234 
L 1294 2753 
L 1863 2753 
Q 2328 2753 2575 2939 
Q 2822 3125 2822 3475 
Q 2822 3834 2567 4026 
Q 2313 4219 1838 4219 
Q 1578 4219 1281 4162 
Q 984 4106 628 3988 
L 628 4550 
Q 988 4650 1302 4700 
Q 1616 4750 1894 4750 
Q 2613 4750 3031 4423 
Q 3450 4097 3450 3541 
Q 3450 3153 3228 2886 
Q 3006 2619 2597 2516 
z
" transform="scale(0.015625)"/>
       </defs>
       <use xlink:href="#DejaVuSans-33"/>
       <use xlink:href="#DejaVuSans-2e" transform="translate(63.623047 0)"/>
       <use xlink:href="#DejaVuSans-30" transform="translate(95.410156 0)"/>
      </g>
     </g>
    </g>
    <g id="text_8">
     <!-- Toxic Score -->
     <g transform="translate(285.459531 434.156562) scale(0.1 -0.1)">
      <defs>
       <path id="DejaVuSans-54" d="M -19 4666 
L 3928 4666 
L 3928 4134 
L 2272 4134 
L 2272 0 
L 1638 0 
L 1638 4134 
L -19 4134 
L -19 4666 
z
" transform="scale(0.015625)"/>
       <path id="DejaVuSans-6f" d="M 1959 3097 
Q 1497 3097 1228 2736 
Q 959 2375 959 1747 
Q 959 1119 1226 758 
Q 1494 397 1959 397 
Q 2419 397 2687 759 
Q 2956 1122 2956 1747 
Q 2956 2369 2687 2733 
Q 2419 3097 1959 3097 
z
M 1959 3584 
Q 2709 3584 3137 3096 
Q 3566 2609 3566 1747 
Q 3566 888 3137 398 
Q 2709 -91 1959 -91 
Q 1206 -91 779 398 
Q 353 888 353 1747 
Q 353 2609 779 3096 
Q 1206 3584 1959 3584 
z
" transform="scale(0.015625)"/>
       <path id="DejaVuSans-78" d="M 3513 3500 
L 2247 1797 
L 3578 0 
L 2900 0 
L 1881 1375 
L 863 0 
L 184 0 
L 1544 1831 
L 300 3500 
L 978 3500 
L 1906 2253 
L 2834 3500 
L 3513 3500 
z
" transform="scale(0.015625)"/>
       <path id="DejaVuSans-69" d="M 603 3500 
L 1178 3500 
L 1178 0 
L 603 0 
L 603 3500 
z
M 603 4863 
L 1178 4863 
L 1178 4134 
L 603 4134 
L 603 4863 
z
" transform="scale(0.015625)"/>
       <path id="DejaVuSans-63" d="M 3122 3366 
L 3122 2828 
Q 2878 2963 2633 3030 
Q 2388 3097 2138 3097 
Q 1578 3097 1268 2742 
Q 959 2388 959 1747 
Q 959 1106 1268 751 
Q 1578 397 2138 397 
Q 2388 397 2633 464 
Q 2878 531 3122 666 
L 3122 134 
Q 2881 22 2623 -34 
Q 2366 -91 2075 -91 
Q 1284 -91 818 406 
Q 353 903 353 1747 
Q 353 2603 823 3093 
Q 1294 3584 2113 3584 
Q 2378 3584 2631 3529 
Q 2884 3475 3122 3366 
z
" transform="scale(0.015625)"/>
       <path id="DejaVuSans-20" transform="scale(0.015625)"/>
       <path id="DejaVuSans-53" d="M 3425 4513 
L 3425 3897 
Q 3066 4069 2747 4153 
Q 2428 4238 2131 4238 
Q 1616 4238 1336 4038 
Q 1056 3838 1056 3469 
Q 1056 3159 1242 3001 
Q 1428 2844 1947 2747 
L 2328 2669 
Q 3034 2534 3370 2195 
Q 3706 1856 3706 1288 
Q 3706 609 3251 259 
Q 2797 -91 1919 -91 
Q 1588 -91 1214 -16 
Q 841 59 441 206 
L 441 856 
Q 825 641 1194 531 
Q 1563 422 1919 422 
Q 2459 422 2753 634 
Q 3047 847 3047 1241 
Q 3047 1584 2836 1778 
Q 2625 1972 2144 2069 
L 1759 2144 
Q 1053 2284 737 2584 
Q 422 2884 422 3419 
Q 422 4038 858 4394 
Q 1294 4750 2059 4750 
Q 2388 4750 2728 4690 
Q 3069 4631 3425 4513 
z
" transform="scale(0.015625)"/>
       <path id="DejaVuSans-72" d="M 2631 2963 
Q 2534 3019 2420 3045 
Q 2306 3072 2169 3072 
Q 1681 3072 1420 2755 
Q 1159 2438 1159 1844 
L 1159 0 
L 581 0 
L 581 3500 
L 1159 3500 
L 1159 2956 
Q 1341 3275 1631 3429 
Q 1922 3584 2338 3584 
Q 2397 3584 2469 3576 
Q 2541 3569 2628 3553 
L 2631 2963 
z
" transform="scale(0.015625)"/>
       <path id="DejaVuSans-65" d="M 3597 1894 
L 3597 1613 
L 953 1613 
Q 991 1019 1311 708 
Q 1631 397 2203 397 
Q 2534 397 2845 478 
Q 3156 559 3463 722 
L 3463 178 
Q 3153 47 2828 -22 
Q 2503 -91 2169 -91 
Q 1331 -91 842 396 
Q 353 884 353 1716 
Q 353 2575 817 3079 
Q 1281 3584 2069 3584 
Q 2775 3584 3186 3129 
Q 3597 2675 3597 1894 
z
M 3022 2063 
Q 3016 2534 2758 2815 
Q 2500 3097 2075 3097 
Q 1594 3097 1305 2825 
Q 1016 2553 972 2059 
L 3022 2063 
z
" transform="scale(0.015625)"/>
      </defs>
      <use xlink:href="#DejaVuSans-54"/>
      <use xlink:href="#DejaVuSans-6f" transform="translate(44.083984 0)"/>
      <use xlink:href="#DejaVuSans-78" transform="translate(102.140625 0)"/>
      <use xlink:href="#DejaVuSans-69" transform="translate(161.320312 0)"/>
      <use xlink:href="#DejaVuSans-63" transform="translate(189.103516 0)"/>
      <use xlink:href="#DejaVuSans-20" transform="translate(244.083984 0)"/>
      <use xlink:href="#DejaVuSans-53" transform="translate(275.871094 0)"/>
      <use xlink:href="#DejaVuSans-63" transform="translate(339.347656 0)"/>
      <use xlink:href="#DejaVuSans-6f" transform="translate(394.328125 0)"/>
      <use xlink:href="#DejaVuSans-72" transform="translate(455.509766 0)"/>
      <use xlink:href="#DejaVuSans-65" transform="translate(494.373047 0)"/>
     </g>
    </g>
   </g>
   <g id="matplotlib.axis_2">
    <g id="ytick_1">
     <g id="line2d_8">
      <defs>
       <path id="m99aa32d8c9" d="M 0 0 
L -3.5 0 
" style="stroke: #000000; stroke-width: 0.8"/>
      </defs>
      <g>
       <use xlink:href="#m99aa32d8c9" x="59.690625" y="405.88" style="stroke: #000000; stroke-width: 0.8"/>
      </g>
     </g>
     <g id="text_9">
      <!-- 0 -->
      <g transform="translate(46.328125 409.679219) scale(0.1 -0.1)">
       <use xlink:href="#DejaVuSans-30"/>
      </g>
     </g>
    </g>
    <g id="ytick_2">
     <g id="line2d_9">
      <g>
       <use xlink:href="#m99aa32d8c9" x="59.690625" y="363.713668" style="stroke: #000000; stroke-width: 0.8"/>
      </g>
     </g>
     <g id="text_10">
      <!-- 2000 -->
      <g transform="translate(27.240625 367.512887) scale(0.1 -0.1)">
       <use xlink:href="#DejaVuSans-32"/>
       <use xlink:href="#DejaVuSans-30" transform="translate(63.623047 0)"/>
       <use xlink:href="#DejaVuSans-30" transform="translate(127.246094 0)"/>
       <use xlink:href="#DejaVuSans-30" transform="translate(190.869141 0)"/>
      </g>
     </g>
    </g>
    <g id="ytick_3">
     <g id="line2d_10">
      <g>
       <use xlink:href="#m99aa32d8c9" x="59.690625" y="321.547336" style="stroke: #000000; stroke-width: 0.8"/>
      </g>
     </g>
     <g id="text_11">
      <!-- 4000 -->
      <g transform="translate(27.240625 325.346554) scale(0.1 -0.1)">
       <defs>
        <path id="DejaVuSans-34" d="M 2419 4116 
L 825 1625 
L 2419 1625 
L 2419 4116 
z
M 2253 4666 
L 3047 4666 
L 3047 1625 
L 3713 1625 
L 3713 1100 
L 3047 1100 
L 3047 0 
L 2419 0 
L 2419 1100 
L 313 1100 
L 313 1709 
L 2253 4666 
z
" transform="scale(0.015625)"/>
       </defs>
       <use xlink:href="#DejaVuSans-34"/>
       <use xlink:href="#DejaVuSans-30" transform="translate(63.623047 0)"/>
       <use xlink:href="#DejaVuSans-30" transform="translate(127.246094 0)"/>
       <use xlink:href="#DejaVuSans-30" transform="translate(190.869141 0)"/>
      </g>
     </g>
    </g>
    <g id="ytick_4">
     <g id="line2d_11">
      <g>
       <use xlink:href="#m99aa32d8c9" x="59.690625" y="279.381003" style="stroke: #000000; stroke-width: 0.8"/>
      </g>
     </g>
     <g id="text_12">
      <!-- 6000 -->
      <g transform="translate(27.240625 283.180222) scale(0.1 -0.1)">
       <defs>
        <path id="DejaVuSans-36" d="M 2113 2584 
Q 1688 2584 1439 2293 
Q 1191 2003 1191 1497 
Q 1191 994 1439 701 
Q 1688 409 2113 409 
Q 2538 409 2786 701 
Q 3034 994 3034 1497 
Q 3034 2003 2786 2293 
Q 2538 2584 2113 2584 
z
M 3366 4563 
L 3366 3988 
Q 3128 4100 2886 4159 
Q 2644 4219 2406 4219 
Q 1781 4219 1451 3797 
Q 1122 3375 1075 2522 
Q 1259 2794 1537 2939 
Q 1816 3084 2150 3084 
Q 2853 3084 3261 2657 
Q 3669 2231 3669 1497 
Q 3669 778 3244 343 
Q 2819 -91 2113 -91 
Q 1303 -91 875 529 
Q 447 1150 447 2328 
Q 447 3434 972 4092 
Q 1497 4750 2381 4750 
Q 2619 4750 2861 4703 
Q 3103 4656 3366 4563 
z
" transform="scale(0.015625)"/>
       </defs>
       <use xlink:href="#DejaVuSans-36"/>
       <use xlink:href="#DejaVuSans-30" transform="translate(63.623047 0)"/>
       <use xlink:href="#DejaVuSans-30" transform="translate(127.246094 0)"/>
       <use xlink:href="#DejaVuSans-30" transform="translate(190.869141 0)"/>
      </g>
     </g>
    </g>
    <g id="ytick_5">
     <g id="line2d_12">
      <g>
       <use xlink:href="#m99aa32d8c9" x="59.690625" y="237.214671" style="stroke: #000000; stroke-width: 0.8"/>
      </g>
     </g>
     <g id="text_13">
      <!-- 8000 -->
      <g transform="translate(27.240625 241.01389) scale(0.1 -0.1)">
       <defs>
        <path id="DejaVuSans-38" d="M 2034 2216 
Q 1584 2216 1326 1975 
Q 1069 1734 1069 1313 
Q 1069 891 1326 650 
Q 1584 409 2034 409 
Q 2484 409 2743 651 
Q 3003 894 3003 1313 
Q 3003 1734 2745 1975 
Q 2488 2216 2034 2216 
z
M 1403 2484 
Q 997 2584 770 2862 
Q 544 3141 544 3541 
Q 544 4100 942 4425 
Q 1341 4750 2034 4750 
Q 2731 4750 3128 4425 
Q 3525 4100 3525 3541 
Q 3525 3141 3298 2862 
Q 3072 2584 2669 2484 
Q 3125 2378 3379 2068 
Q 3634 1759 3634 1313 
Q 3634 634 3220 271 
Q 2806 -91 2034 -91 
Q 1263 -91 848 271 
Q 434 634 434 1313 
Q 434 1759 690 2068 
Q 947 2378 1403 2484 
z
M 1172 3481 
Q 1172 3119 1398 2916 
Q 1625 2713 2034 2713 
Q 2441 2713 2670 2916 
Q 2900 3119 2900 3481 
Q 2900 3844 2670 4047 
Q 2441 4250 2034 4250 
Q 1625 4250 1398 4047 
Q 1172 3844 1172 3481 
z
" transform="scale(0.015625)"/>
       </defs>
       <use xlink:href="#DejaVuSans-38"/>
       <use xlink:href="#DejaVuSans-30" transform="translate(63.623047 0)"/>
       <use xlink:href="#DejaVuSans-30" transform="translate(127.246094 0)"/>
       <use xlink:href="#DejaVuSans-30" transform="translate(190.869141 0)"/>
      </g>
     </g>
    </g>
    <g id="ytick_6">
     <g id="line2d_13">
      <g>
       <use xlink:href="#m99aa32d8c9" x="59.690625" y="195.048339" style="stroke: #000000; stroke-width: 0.8"/>
      </g>
     </g>
     <g id="text_14">
      <!-- 10000 -->
      <g transform="translate(20.878125 198.847558) scale(0.1 -0.1)">
       <use xlink:href="#DejaVuSans-31"/>
       <use xlink:href="#DejaVuSans-30" transform="translate(63.623047 0)"/>
       <use xlink:href="#DejaVuSans-30" transform="translate(127.246094 0)"/>
       <use xlink:href="#DejaVuSans-30" transform="translate(190.869141 0)"/>
       <use xlink:href="#DejaVuSans-30" transform="translate(254.492188 0)"/>
      </g>
     </g>
    </g>
    <g id="ytick_7">
     <g id="line2d_14">
      <g>
       <use xlink:href="#m99aa32d8c9" x="59.690625" y="152.882007" style="stroke: #000000; stroke-width: 0.8"/>
      </g>
     </g>
     <g id="text_15">
      <!-- 12000 -->
      <g transform="translate(20.878125 156.681226) scale(0.1 -0.1)">
       <use xlink:href="#DejaVuSans-31"/>
       <use xlink:href="#DejaVuSans-32" transform="translate(63.623047 0)"/>
       <use xlink:href="#DejaVuSans-30" transform="translate(127.246094 0)"/>
       <use xlink:href="#DejaVuSans-30" transform="translate(190.869141 0)"/>
       <use xlink:href="#DejaVuSans-30" transform="translate(254.492188 0)"/>
      </g>
     </g>
    </g>
    <g id="ytick_8">
     <g id="line2d_15">
      <g>
       <use xlink:href="#m99aa32d8c9" x="59.690625" y="110.715675" style="stroke: #000000; stroke-width: 0.8"/>
      </g>
     </g>
     <g id="text_16">
      <!-- 14000 -->
      <g transform="translate(20.878125 114.514893) scale(0.1 -0.1)">
       <use xlink:href="#DejaVuSans-31"/>
       <use xlink:href="#DejaVuSans-34" transform="translate(63.623047 0)"/>
       <use xlink:href="#DejaVuSans-30" transform="translate(127.246094 0)"/>
       <use xlink:href="#DejaVuSans-30" transform="translate(190.869141 0)"/>
       <use xlink:href="#DejaVuSans-30" transform="translate(254.492188 0)"/>
      </g>
     </g>
    </g>
    <g id="text_17">
     <!-- Count -->
     <g transform="translate(14.798438 252.108437) rotate(-90) scale(0.1 -0.1)">
      <defs>
       <path id="DejaVuSans-43" d="M 4122 4306 
L 4122 3641 
Q 3803 3938 3442 4084 
Q 3081 4231 2675 4231 
Q 1875 4231 1450 3742 
Q 1025 3253 1025 2328 
Q 1025 1406 1450 917 
Q 1875 428 2675 428 
Q 3081 428 3442 575 
Q 3803 722 4122 1019 
L 4122 359 
Q 3791 134 3420 21 
Q 3050 -91 2638 -91 
Q 1578 -91 968 557 
Q 359 1206 359 2328 
Q 359 3453 968 4101 
Q 1578 4750 2638 4750 
Q 3056 4750 3426 4639 
Q 3797 4528 4122 4306 
z
" transform="scale(0.015625)"/>
       <path id="DejaVuSans-75" d="M 544 1381 
L 544 3500 
L 1119 3500 
L 1119 1403 
Q 1119 906 1312 657 
Q 1506 409 1894 409 
Q 2359 409 2629 706 
Q 2900 1003 2900 1516 
L 2900 3500 
L 3475 3500 
L 3475 0 
L 2900 0 
L 2900 538 
Q 2691 219 2414 64 
Q 2138 -91 1772 -91 
Q 1169 -91 856 284 
Q 544 659 544 1381 
z
M 1991 3584 
L 1991 3584 
z
" transform="scale(0.015625)"/>
       <path id="DejaVuSans-6e" d="M 3513 2113 
L 3513 0 
L 2938 0 
L 2938 2094 
Q 2938 2591 2744 2837 
Q 2550 3084 2163 3084 
Q 1697 3084 1428 2787 
Q 1159 2491 1159 1978 
L 1159 0 
L 581 0 
L 581 3500 
L 1159 3500 
L 1159 2956 
Q 1366 3272 1645 3428 
Q 1925 3584 2291 3584 
Q 2894 3584 3203 3211 
Q 3513 2838 3513 2113 
z
" transform="scale(0.015625)"/>
       <path id="DejaVuSans-74" d="M 1172 4494 
L 1172 3500 
L 2356 3500 
L 2356 3053 
L 1172 3053 
L 1172 1153 
Q 1172 725 1289 603 
Q 1406 481 1766 481 
L 2356 481 
L 2356 0 
L 1766 0 
Q 1100 0 847 248 
Q 594 497 594 1153 
L 594 3053 
L 172 3053 
L 172 3500 
L 594 3500 
L 594 4494 
L 1172 4494 
z
" transform="scale(0.015625)"/>
      </defs>
      <use xlink:href="#DejaVuSans-43"/>
      <use xlink:href="#DejaVuSans-6f" transform="translate(69.824219 0)"/>
      <use xlink:href="#DejaVuSans-75" transform="translate(131.005859 0)"/>
      <use xlink:href="#DejaVuSans-6e" transform="translate(194.384766 0)"/>
      <use xlink:href="#DejaVuSans-74" transform="translate(257.763672 0)"/>
     </g>
    </g>
   </g>
   <g id="line2d_16">
    <path d="M 82.741989 397.072032 
L 85.058709 397.16795 
L 87.375429 397.449482 
L 89.692149 397.898631 
L 94.325588 399.181285 
L 105.909188 402.933281 
L 110.542628 404.05987 
L 115.176068 404.850033 
L 119.809508 405.34605 
L 124.442948 405.626408 
L 131.393108 405.80957 
L 145.293428 405.876992 
L 184.677667 405.822621 
L 191.627827 405.654484 
L 196.261267 405.37661 
L 200.894707 404.850589 
L 205.528147 403.951454 
L 207.844867 403.325626 
L 210.161587 402.569998 
L 212.478307 401.683751 
L 217.111747 399.564684 
L 226.378626 394.881491 
L 228.695346 393.918334 
L 231.012066 393.152627 
L 233.328786 392.631243 
L 235.645506 392.387242 
L 237.962226 392.436399 
L 240.278946 392.775521 
L 242.595666 393.382788 
L 244.912386 394.220074 
L 247.229106 395.23691 
L 251.862546 397.576153 
L 256.495986 399.944628 
L 261.129426 401.993366 
L 263.446146 402.83652 
L 265.762866 403.548387 
L 268.079586 404.132442 
L 272.713026 404.960716 
L 277.346466 405.436978 
L 281.979905 405.684405 
L 288.930065 405.831312 
L 307.463825 405.879477 
L 332.947745 405.783533 
L 337.581185 405.608009 
L 342.214625 405.177435 
L 344.531345 404.787337 
L 346.848064 404.217447 
L 349.164784 403.405121 
L 351.481504 402.275693 
L 353.798224 400.744547 
L 356.114944 398.721452 
L 358.431664 396.117513 
L 360.748384 392.854776 
L 363.065104 388.878031 
L 365.381824 384.167868 
L 367.698544 378.753423 
L 370.015264 372.722881 
L 374.648704 359.491734 
L 376.965424 352.784501 
L 379.282144 346.423885 
L 381.598864 340.74347 
L 383.915584 336.06609 
L 386.232304 332.673682 
L 388.549024 330.779223 
L 390.865744 330.504613 
L 393.182464 331.867694 
L 395.499184 334.780331 
L 397.815904 339.057845 
L 400.132624 344.438382 
L 402.449344 350.609415 
L 411.716223 376.805494 
L 414.032943 382.438248 
L 416.349663 387.389143 
L 418.666383 391.610351 
L 420.983103 395.106451 
L 423.299823 397.92219 
L 425.616543 400.129342 
L 427.933263 401.814342 
L 430.249983 403.067883 
L 432.566703 403.97706 
L 434.883423 404.620187 
L 437.200143 405.064026 
L 441.833583 405.559458 
L 446.467023 405.764641 
L 455.733903 405.868509 
L 488.167982 405.837597 
L 495.118142 405.694062 
L 499.751582 405.433524 
L 504.385022 404.897834 
L 506.701742 404.470347 
L 509.018462 403.900622 
L 511.335182 403.160842 
L 513.651902 402.225487 
L 515.968622 401.074775 
L 518.285342 399.698594 
L 520.602062 398.100529 
L 522.918782 396.301399 
L 527.552222 392.282035 
L 532.185662 388.195092 
L 534.502382 386.363536 
L 536.819101 384.808826 
L 539.135821 383.623054 
L 541.452541 382.879796 
L 543.769261 382.626568 
L 543.769261 382.626568 
" clip-path="url(#pe8eec009d9)" style="fill: none; stroke: #87ceeb; stroke-width: 1.5; stroke-linecap: square"/>
   </g>
   <g id="line2d_17">
    <path d="M 390.093504 405.88 
L 390.093504 68.64 
" clip-path="url(#pe8eec009d9)" style="fill: none; stroke-dasharray: 7.4,3.2; stroke-dashoffset: 0; stroke: #ff0000; stroke-width: 2"/>
   </g>
   <g id="line2d_18">
    <path d="M 380.099202 405.88 
L 380.099202 68.64 
" clip-path="url(#pe8eec009d9)" style="fill: none; stroke-dasharray: 7.4,3.2; stroke-dashoffset: 0; stroke: #008000; stroke-width: 2"/>
   </g>
   <g id="patch_53">
    <path d="M 59.690625 405.88 
L 59.690625 68.64 
" style="fill: none; stroke: #000000; stroke-width: 0.8; stroke-linejoin: miter; stroke-linecap: square"/>
   </g>
   <g id="patch_54">
    <path d="M 566.820625 405.88 
L 566.820625 68.64 
" style="fill: none; stroke: #000000; stroke-width: 0.8; stroke-linejoin: miter; stroke-linecap: square"/>
   </g>
   <g id="patch_55">
    <path d="M 59.690625 405.88 
L 566.820625 405.88 
" style="fill: none; stroke: #000000; stroke-width: 0.8; stroke-linejoin: miter; stroke-linecap: square"/>
   </g>
   <g id="patch_56">
    <path d="M 59.690625 68.64 
L 566.820625 68.64 
" style="fill: none; stroke: #000000; stroke-width: 0.8; stroke-linejoin: miter; stroke-linecap: square"/>
   </g>
   <g id="text_18">
    <!-- Human Interventions — Toxic Score -->
    <g transform="translate(173.613281 62.64) scale(0.14 -0.14)">
     <defs>
      <path id="DejaVuSans-Bold-48" d="M 588 4666 
L 1791 4666 
L 1791 2888 
L 3566 2888 
L 3566 4666 
L 4769 4666 
L 4769 0 
L 3566 0 
L 3566 1978 
L 1791 1978 
L 1791 0 
L 588 0 
L 588 4666 
z
" transform="scale(0.015625)"/>
      <path id="DejaVuSans-Bold-75" d="M 500 1363 
L 500 3500 
L 1625 3500 
L 1625 3150 
Q 1625 2866 1622 2436 
Q 1619 2006 1619 1863 
Q 1619 1441 1641 1255 
Q 1663 1069 1716 984 
Q 1784 875 1895 815 
Q 2006 756 2150 756 
Q 2500 756 2700 1025 
Q 2900 1294 2900 1772 
L 2900 3500 
L 4019 3500 
L 4019 0 
L 2900 0 
L 2900 506 
Q 2647 200 2364 54 
Q 2081 -91 1741 -91 
Q 1134 -91 817 281 
Q 500 653 500 1363 
z
" transform="scale(0.015625)"/>
      <path id="DejaVuSans-Bold-6d" d="M 3781 2919 
Q 3994 3244 4286 3414 
Q 4578 3584 4928 3584 
Q 5531 3584 5847 3212 
Q 6163 2841 6163 2131 
L 6163 0 
L 5038 0 
L 5038 1825 
Q 5041 1866 5042 1909 
Q 5044 1953 5044 2034 
Q 5044 2406 4934 2573 
Q 4825 2741 4581 2741 
Q 4263 2741 4089 2478 
Q 3916 2216 3909 1719 
L 3909 0 
L 2784 0 
L 2784 1825 
Q 2784 2406 2684 2573 
Q 2584 2741 2328 2741 
Q 2006 2741 1831 2477 
Q 1656 2213 1656 1722 
L 1656 0 
L 531 0 
L 531 3500 
L 1656 3500 
L 1656 2988 
Q 1863 3284 2130 3434 
Q 2397 3584 2719 3584 
Q 3081 3584 3359 3409 
Q 3638 3234 3781 2919 
z
" transform="scale(0.015625)"/>
      <path id="DejaVuSans-Bold-61" d="M 2106 1575 
Q 1756 1575 1579 1456 
Q 1403 1338 1403 1106 
Q 1403 894 1545 773 
Q 1688 653 1941 653 
Q 2256 653 2472 879 
Q 2688 1106 2688 1447 
L 2688 1575 
L 2106 1575 
z
M 3816 1997 
L 3816 0 
L 2688 0 
L 2688 519 
Q 2463 200 2181 54 
Q 1900 -91 1497 -91 
Q 953 -91 614 226 
Q 275 544 275 1050 
Q 275 1666 698 1953 
Q 1122 2241 2028 2241 
L 2688 2241 
L 2688 2328 
Q 2688 2594 2478 2717 
Q 2269 2841 1825 2841 
Q 1466 2841 1156 2769 
Q 847 2697 581 2553 
L 581 3406 
Q 941 3494 1303 3539 
Q 1666 3584 2028 3584 
Q 2975 3584 3395 3211 
Q 3816 2838 3816 1997 
z
" transform="scale(0.015625)"/>
      <path id="DejaVuSans-Bold-6e" d="M 4056 2131 
L 4056 0 
L 2931 0 
L 2931 347 
L 2931 1631 
Q 2931 2084 2911 2256 
Q 2891 2428 2841 2509 
Q 2775 2619 2662 2680 
Q 2550 2741 2406 2741 
Q 2056 2741 1856 2470 
Q 1656 2200 1656 1722 
L 1656 0 
L 538 0 
L 538 3500 
L 1656 3500 
L 1656 2988 
Q 1909 3294 2193 3439 
Q 2478 3584 2822 3584 
Q 3428 3584 3742 3212 
Q 4056 2841 4056 2131 
z
" transform="scale(0.015625)"/>
      <path id="DejaVuSans-Bold-20" transform="scale(0.015625)"/>
      <path id="DejaVuSans-Bold-49" d="M 588 4666 
L 1791 4666 
L 1791 0 
L 588 0 
L 588 4666 
z
" transform="scale(0.015625)"/>
      <path id="DejaVuSans-Bold-74" d="M 1759 4494 
L 1759 3500 
L 2913 3500 
L 2913 2700 
L 1759 2700 
L 1759 1216 
Q 1759 972 1856 886 
Q 1953 800 2241 800 
L 2816 800 
L 2816 0 
L 1856 0 
Q 1194 0 917 276 
Q 641 553 641 1216 
L 641 2700 
L 84 2700 
L 84 3500 
L 641 3500 
L 641 4494 
L 1759 4494 
z
" transform="scale(0.015625)"/>
      <path id="DejaVuSans-Bold-65" d="M 4031 1759 
L 4031 1441 
L 1416 1441 
Q 1456 1047 1700 850 
Q 1944 653 2381 653 
Q 2734 653 3104 758 
Q 3475 863 3866 1075 
L 3866 213 
Q 3469 63 3072 -14 
Q 2675 -91 2278 -91 
Q 1328 -91 801 392 
Q 275 875 275 1747 
Q 275 2603 792 3093 
Q 1309 3584 2216 3584 
Q 3041 3584 3536 3087 
Q 4031 2591 4031 1759 
z
M 2881 2131 
Q 2881 2450 2695 2645 
Q 2509 2841 2209 2841 
Q 1884 2841 1681 2658 
Q 1478 2475 1428 2131 
L 2881 2131 
z
" transform="scale(0.015625)"/>
      <path id="DejaVuSans-Bold-72" d="M 3138 2547 
Q 2991 2616 2845 2648 
Q 2700 2681 2553 2681 
Q 2122 2681 1889 2404 
Q 1656 2128 1656 1613 
L 1656 0 
L 538 0 
L 538 3500 
L 1656 3500 
L 1656 2925 
Q 1872 3269 2151 3426 
Q 2431 3584 2822 3584 
Q 2878 3584 2943 3579 
Q 3009 3575 3134 3559 
L 3138 2547 
z
" transform="scale(0.015625)"/>
      <path id="DejaVuSans-Bold-76" d="M 97 3500 
L 1216 3500 
L 2088 1081 
L 2956 3500 
L 4078 3500 
L 2700 0 
L 1472 0 
L 97 3500 
z
" transform="scale(0.015625)"/>
      <path id="DejaVuSans-Bold-69" d="M 538 3500 
L 1656 3500 
L 1656 0 
L 538 0 
L 538 3500 
z
M 538 4863 
L 1656 4863 
L 1656 3950 
L 538 3950 
L 538 4863 
z
" transform="scale(0.015625)"/>
      <path id="DejaVuSans-Bold-6f" d="M 2203 2784 
Q 1831 2784 1636 2517 
Q 1441 2250 1441 1747 
Q 1441 1244 1636 976 
Q 1831 709 2203 709 
Q 2569 709 2762 976 
Q 2956 1244 2956 1747 
Q 2956 2250 2762 2517 
Q 2569 2784 2203 2784 
z
M 2203 3584 
Q 3106 3584 3614 3096 
Q 4122 2609 4122 1747 
Q 4122 884 3614 396 
Q 3106 -91 2203 -91 
Q 1297 -91 786 396 
Q 275 884 275 1747 
Q 275 2609 786 3096 
Q 1297 3584 2203 3584 
z
" transform="scale(0.015625)"/>
      <path id="DejaVuSans-Bold-73" d="M 3272 3391 
L 3272 2541 
Q 2913 2691 2578 2766 
Q 2244 2841 1947 2841 
Q 1628 2841 1473 2761 
Q 1319 2681 1319 2516 
Q 1319 2381 1436 2309 
Q 1553 2238 1856 2203 
L 2053 2175 
Q 2913 2066 3209 1816 
Q 3506 1566 3506 1031 
Q 3506 472 3093 190 
Q 2681 -91 1863 -91 
Q 1516 -91 1145 -36 
Q 775 19 384 128 
L 384 978 
Q 719 816 1070 734 
Q 1422 653 1784 653 
Q 2113 653 2278 743 
Q 2444 834 2444 1013 
Q 2444 1163 2330 1236 
Q 2216 1309 1875 1350 
L 1678 1375 
Q 931 1469 631 1722 
Q 331 1975 331 2491 
Q 331 3047 712 3315 
Q 1094 3584 1881 3584 
Q 2191 3584 2531 3537 
Q 2872 3491 3272 3391 
z
" transform="scale(0.015625)"/>
      <path id="DejaVuSans-Bold-2014" d="M 344 2156 
L 6056 2156 
L 6056 1350 
L 344 1350 
L 344 2156 
z
" transform="scale(0.015625)"/>
      <path id="DejaVuSans-Bold-54" d="M 31 4666 
L 4331 4666 
L 4331 3756 
L 2784 3756 
L 2784 0 
L 1581 0 
L 1581 3756 
L 31 3756 
L 31 4666 
z
" transform="scale(0.015625)"/>
      <path id="DejaVuSans-Bold-78" d="M 1422 1791 
L 159 3500 
L 1344 3500 
L 2059 2463 
L 2784 3500 
L 3969 3500 
L 2706 1797 
L 4031 0 
L 2847 0 
L 2059 1106 
L 1281 0 
L 97 0 
L 1422 1791 
z
" transform="scale(0.015625)"/>
      <path id="DejaVuSans-Bold-63" d="M 3366 3391 
L 3366 2478 
Q 3138 2634 2908 2709 
Q 2678 2784 2431 2784 
Q 1963 2784 1702 2511 
Q 1441 2238 1441 1747 
Q 1441 1256 1702 982 
Q 1963 709 2431 709 
Q 2694 709 2930 787 
Q 3166 866 3366 1019 
L 3366 103 
Q 3103 6 2833 -42 
Q 2563 -91 2291 -91 
Q 1344 -91 809 395 
Q 275 881 275 1747 
Q 275 2613 809 3098 
Q 1344 3584 2291 3584 
Q 2566 3584 2833 3536 
Q 3100 3488 3366 3391 
z
" transform="scale(0.015625)"/>
      <path id="DejaVuSans-Bold-53" d="M 3834 4519 
L 3834 3531 
Q 3450 3703 3084 3790 
Q 2719 3878 2394 3878 
Q 1963 3878 1756 3759 
Q 1550 3641 1550 3391 
Q 1550 3203 1689 3098 
Q 1828 2994 2194 2919 
L 2706 2816 
Q 3484 2659 3812 2340 
Q 4141 2022 4141 1434 
Q 4141 663 3683 286 
Q 3225 -91 2284 -91 
Q 1841 -91 1394 -6 
Q 947 78 500 244 
L 500 1259 
Q 947 1022 1364 901 
Q 1781 781 2169 781 
Q 2563 781 2772 912 
Q 2981 1044 2981 1288 
Q 2981 1506 2839 1625 
Q 2697 1744 2272 1838 
L 1806 1941 
Q 1106 2091 782 2419 
Q 459 2747 459 3303 
Q 459 4000 909 4375 
Q 1359 4750 2203 4750 
Q 2588 4750 2994 4692 
Q 3400 4634 3834 4519 
z
" transform="scale(0.015625)"/>
     </defs>
     <use xlink:href="#DejaVuSans-Bold-48"/>
     <use xlink:href="#DejaVuSans-Bold-75" transform="translate(83.691406 0)"/>
     <use xlink:href="#DejaVuSans-Bold-6d" transform="translate(154.882812 0)"/>
     <use xlink:href="#DejaVuSans-Bold-61" transform="translate(259.082031 0)"/>
     <use xlink:href="#DejaVuSans-Bold-6e" transform="translate(326.5625 0)"/>
     <use xlink:href="#DejaVuSans-Bold-20" transform="translate(397.753906 0)"/>
     <use xlink:href="#DejaVuSans-Bold-49" transform="translate(432.568359 0)"/>
     <use xlink:href="#DejaVuSans-Bold-6e" transform="translate(469.775391 0)"/>
     <use xlink:href="#DejaVuSans-Bold-74" transform="translate(540.966797 0)"/>
     <use xlink:href="#DejaVuSans-Bold-65" transform="translate(588.769531 0)"/>
     <use xlink:href="#DejaVuSans-Bold-72" transform="translate(656.591797 0)"/>
     <use xlink:href="#DejaVuSans-Bold-76" transform="translate(705.908203 0)"/>
     <use xlink:href="#DejaVuSans-Bold-65" transform="translate(771.09375 0)"/>
     <use xlink:href="#DejaVuSans-Bold-6e" transform="translate(838.916016 0)"/>
     <use xlink:href="#DejaVuSans-Bold-74" transform="translate(910.107422 0)"/>
     <use xlink:href="#DejaVuSans-Bold-69" transform="translate(957.910156 0)"/>
     <use xlink:href="#DejaVuSans-Bold-6f" transform="translate(992.1875 0)"/>
     <use xlink:href="#DejaVuSans-Bold-6e" transform="translate(1060.888672 0)"/>
     <use xlink:href="#DejaVuSans-Bold-73" transform="translate(1132.080078 0)"/>
     <use xlink:href="#DejaVuSans-Bold-20" transform="translate(1191.601562 0)"/>
     <use xlink:href="#DejaVuSans-Bold-2014" transform="translate(1226.416016 0)"/>
     <use xlink:href="#DejaVuSans-Bold-20" transform="translate(1326.416016 0)"/>
     <use xlink:href="#DejaVuSans-Bold-54" transform="translate(1361.230469 0)"/>
     <use xlink:href="#DejaVuSans-Bold-6f" transform="translate(1416.193359 0)"/>
     <use xlink:href="#DejaVuSans-Bold-78" transform="translate(1484.894531 0)"/>
     <use xlink:href="#DejaVuSans-Bold-69" transform="translate(1549.396484 0)"/>
     <use xlink:href="#DejaVuSans-Bold-63" transform="translate(1583.673828 0)"/>
     <use xlink:href="#DejaVuSans-Bold-20" transform="translate(1642.951172 0)"/>
     <use xlink:href="#DejaVuSans-Bold-53" transform="translate(1677.765625 0)"/>
     <use xlink:href="#DejaVuSans-Bold-63" transform="translate(1749.787109 0)"/>
     <use xlink:href="#DejaVuSans-Bold-6f" transform="translate(1809.064453 0)"/>
     <use xlink:href="#DejaVuSans-Bold-72" transform="translate(1877.765625 0)"/>
     <use xlink:href="#DejaVuSans-Bold-65" transform="translate(1927.082031 0)"/>
    </g>
   </g>
   <g id="legend_1">
    <g id="patch_57">
     <path d="M 454.445625 120.674375 
L 559.820625 120.674375 
Q 561.820625 120.674375 561.820625 118.674375 
L 561.820625 75.64 
Q 561.820625 73.64 559.820625 73.64 
L 454.445625 73.64 
Q 452.445625 73.64 452.445625 75.64 
L 452.445625 118.674375 
Q 452.445625 120.674375 454.445625 120.674375 
z
" style="fill: #ffffff; opacity: 0.8; stroke: #cccccc; stroke-linejoin: miter"/>
    </g>
    <g id="text_19">
     <!-- N = 24,433 -->
     <g transform="translate(478.529219 85.238437) scale(0.1 -0.1)">
      <defs>
       <path id="DejaVuSans-4e" d="M 628 4666 
L 1478 4666 
L 3547 763 
L 3547 4666 
L 4159 4666 
L 4159 0 
L 3309 0 
L 1241 3903 
L 1241 0 
L 628 0 
L 628 4666 
z
" transform="scale(0.015625)"/>
       <path id="DejaVuSans-3d" d="M 678 2906 
L 4684 2906 
L 4684 2381 
L 678 2381 
L 678 2906 
z
M 678 1631 
L 4684 1631 
L 4684 1100 
L 678 1100 
L 678 1631 
z
" transform="scale(0.015625)"/>
       <path id="DejaVuSans-2c" d="M 750 794 
L 1409 794 
L 1409 256 
L 897 -744 
L 494 -744 
L 750 256 
L 750 794 
z
" transform="scale(0.015625)"/>
      </defs>
      <use xlink:href="#DejaVuSans-4e"/>
      <use xlink:href="#DejaVuSans-20" transform="translate(74.804688 0)"/>
      <use xlink:href="#DejaVuSans-3d" transform="translate(106.591797 0)"/>
      <use xlink:href="#DejaVuSans-20" transform="translate(190.380859 0)"/>
      <use xlink:href="#DejaVuSans-32" transform="translate(222.167969 0)"/>
      <use xlink:href="#DejaVuSans-34" transform="translate(285.791016 0)"/>
      <use xlink:href="#DejaVuSans-2c" transform="translate(349.414062 0)"/>
      <use xlink:href="#DejaVuSans-34" transform="translate(381.201172 0)"/>
      <use xlink:href="#DejaVuSans-33" transform="translate(444.824219 0)"/>
      <use xlink:href="#DejaVuSans-33" transform="translate(508.447266 0)"/>
     </g>
    </g>
    <g id="line2d_19">
     <path d="M 456.445625 96.416562 
L 466.445625 96.416562 
L 476.445625 96.416562 
" style="fill: none; stroke-dasharray: 7.4,3.2; stroke-dashoffset: 0; stroke: #ff0000; stroke-width: 2"/>
    </g>
    <g id="text_20">
     <!-- Median = 2.00 -->
     <g transform="translate(484.445625 99.916562) scale(0.1 -0.1)">
      <defs>
       <path id="DejaVuSans-4d" d="M 628 4666 
L 1569 4666 
L 2759 1491 
L 3956 4666 
L 4897 4666 
L 4897 0 
L 4281 0 
L 4281 4097 
L 3078 897 
L 2444 897 
L 1241 4097 
L 1241 0 
L 628 0 
L 628 4666 
z
" transform="scale(0.015625)"/>
       <path id="DejaVuSans-64" d="M 2906 2969 
L 2906 4863 
L 3481 4863 
L 3481 0 
L 2906 0 
L 2906 525 
Q 2725 213 2448 61 
Q 2172 -91 1784 -91 
Q 1150 -91 751 415 
Q 353 922 353 1747 
Q 353 2572 751 3078 
Q 1150 3584 1784 3584 
Q 2172 3584 2448 3432 
Q 2725 3281 2906 2969 
z
M 947 1747 
Q 947 1113 1208 752 
Q 1469 391 1925 391 
Q 2381 391 2643 752 
Q 2906 1113 2906 1747 
Q 2906 2381 2643 2742 
Q 2381 3103 1925 3103 
Q 1469 3103 1208 2742 
Q 947 2381 947 1747 
z
" transform="scale(0.015625)"/>
       <path id="DejaVuSans-61" d="M 2194 1759 
Q 1497 1759 1228 1600 
Q 959 1441 959 1056 
Q 959 750 1161 570 
Q 1363 391 1709 391 
Q 2188 391 2477 730 
Q 2766 1069 2766 1631 
L 2766 1759 
L 2194 1759 
z
M 3341 1997 
L 3341 0 
L 2766 0 
L 2766 531 
Q 2569 213 2275 61 
Q 1981 -91 1556 -91 
Q 1019 -91 701 211 
Q 384 513 384 1019 
Q 384 1609 779 1909 
Q 1175 2209 1959 2209 
L 2766 2209 
L 2766 2266 
Q 2766 2663 2505 2880 
Q 2244 3097 1772 3097 
Q 1472 3097 1187 3025 
Q 903 2953 641 2809 
L 641 3341 
Q 956 3463 1253 3523 
Q 1550 3584 1831 3584 
Q 2591 3584 2966 3190 
Q 3341 2797 3341 1997 
z
" transform="scale(0.015625)"/>
      </defs>
      <use xlink:href="#DejaVuSans-4d"/>
      <use xlink:href="#DejaVuSans-65" transform="translate(86.279297 0)"/>
      <use xlink:href="#DejaVuSans-64" transform="translate(147.802734 0)"/>
      <use xlink:href="#DejaVuSans-69" transform="translate(211.279297 0)"/>
      <use xlink:href="#DejaVuSans-61" transform="translate(239.0625 0)"/>
      <use xlink:href="#DejaVuSans-6e" transform="translate(300.341797 0)"/>
      <use xlink:href="#DejaVuSans-20" transform="translate(363.720703 0)"/>
      <use xlink:href="#DejaVuSans-3d" transform="translate(395.507812 0)"/>
      <use xlink:href="#DejaVuSans-20" transform="translate(479.296875 0)"/>
      <use xlink:href="#DejaVuSans-32" transform="translate(511.083984 0)"/>
      <use xlink:href="#DejaVuSans-2e" transform="translate(574.707031 0)"/>
      <use xlink:href="#DejaVuSans-30" transform="translate(606.494141 0)"/>
      <use xlink:href="#DejaVuSans-30" transform="translate(670.117188 0)"/>
     </g>
    </g>
    <g id="line2d_20">
     <path d="M 456.445625 111.094687 
L 466.445625 111.094687 
L 476.445625 111.094687 
" style="fill: none; stroke-dasharray: 7.4,3.2; stroke-dashoffset: 0; stroke: #008000; stroke-width: 2"/>
    </g>
    <g id="text_21">
     <!-- Mean = 1.93 -->
     <g transform="translate(484.445625 114.594687) scale(0.1 -0.1)">
      <defs>
       <path id="DejaVuSans-39" d="M 703 97 
L 703 672 
Q 941 559 1184 500 
Q 1428 441 1663 441 
Q 2288 441 2617 861 
Q 2947 1281 2994 2138 
Q 2813 1869 2534 1725 
Q 2256 1581 1919 1581 
Q 1219 1581 811 2004 
Q 403 2428 403 3163 
Q 403 3881 828 4315 
Q 1253 4750 1959 4750 
Q 2769 4750 3195 4129 
Q 3622 3509 3622 2328 
Q 3622 1225 3098 567 
Q 2575 -91 1691 -91 
Q 1453 -91 1209 -44 
Q 966 3 703 97 
z
M 1959 2075 
Q 2384 2075 2632 2365 
Q 2881 2656 2881 3163 
Q 2881 3666 2632 3958 
Q 2384 4250 1959 4250 
Q 1534 4250 1286 3958 
Q 1038 3666 1038 3163 
Q 1038 2656 1286 2365 
Q 1534 2075 1959 2075 
z
" transform="scale(0.015625)"/>
      </defs>
      <use xlink:href="#DejaVuSans-4d"/>
      <use xlink:href="#DejaVuSans-65" transform="translate(86.279297 0)"/>
      <use xlink:href="#DejaVuSans-61" transform="translate(147.802734 0)"/>
      <use xlink:href="#DejaVuSans-6e" transform="translate(209.082031 0)"/>
      <use xlink:href="#DejaVuSans-20" transform="translate(272.460938 0)"/>
      <use xlink:href="#DejaVuSans-3d" transform="translate(304.248047 0)"/>
      <use xlink:href="#DejaVuSans-20" transform="translate(388.037109 0)"/>
      <use xlink:href="#DejaVuSans-31" transform="translate(419.824219 0)"/>
      <use xlink:href="#DejaVuSans-2e" transform="translate(483.447266 0)"/>
      <use xlink:href="#DejaVuSans-39" transform="translate(515.234375 0)"/>
      <use xlink:href="#DejaVuSans-33" transform="translate(578.857422 0)"/>
     </g>
    </g>
   </g>
  </g>
  <g id="axes_2">
   <g id="patch_58">
    <path d="M 630.290625 405.88 
L 1137.420625 405.88 
L 1137.420625 68.64 
L 630.290625 68.64 
z
" style="fill: #ffffff"/>
   </g>
   <g id="patch_59">
    <path d="M 653.341989 405.88 
L 662.562534 405.88 
L 662.562534 382.954047 
L 653.341989 382.954047 
z
" clip-path="url(#p2d4353611a)" style="fill: #ffa500; fill-opacity: 0.5; stroke: #000000; stroke-width: 0.737851; stroke-linejoin: miter"/>
   </g>
   <g id="patch_60">
    <path d="M 662.562534 405.88 
L 671.78308 405.88 
L 671.78308 405.88 
L 662.562534 405.88 
z
" clip-path="url(#p2d4353611a)" style="fill: #ffa500; fill-opacity: 0.5; stroke: #000000; stroke-width: 0.737851; stroke-linejoin: miter"/>
   </g>
   <g id="patch_61">
    <path d="M 671.78308 405.88 
L 681.003625 405.88 
L 681.003625 405.88 
L 671.78308 405.88 
z
" clip-path="url(#p2d4353611a)" style="fill: #ffa500; fill-opacity: 0.5; stroke: #000000; stroke-width: 0.737851; stroke-linejoin: miter"/>
   </g>
   <g id="patch_62">
    <path d="M 681.003625 405.88 
L 690.22417 405.88 
L 690.22417 405.88 
L 681.003625 405.88 
z
" clip-path="url(#p2d4353611a)" style="fill: #ffa500; fill-opacity: 0.5; stroke: #000000; stroke-width: 0.737851; stroke-linejoin: miter"/>
   </g>
   <g id="patch_63">
    <path d="M 690.22417 405.88 
L 699.444716 405.88 
L 699.444716 405.88 
L 690.22417 405.88 
z
" clip-path="url(#p2d4353611a)" style="fill: #ffa500; fill-opacity: 0.5; stroke: #000000; stroke-width: 0.737851; stroke-linejoin: miter"/>
   </g>
   <g id="patch_64">
    <path d="M 699.444716 405.88 
L 708.665261 405.88 
L 708.665261 405.88 
L 699.444716 405.88 
z
" clip-path="url(#p2d4353611a)" style="fill: #ffa500; fill-opacity: 0.5; stroke: #000000; stroke-width: 0.737851; stroke-linejoin: miter"/>
   </g>
   <g id="patch_65">
    <path d="M 708.665261 405.88 
L 717.885807 405.88 
L 717.885807 405.88 
L 708.665261 405.88 
z
" clip-path="url(#p2d4353611a)" style="fill: #ffa500; fill-opacity: 0.5; stroke: #000000; stroke-width: 0.737851; stroke-linejoin: miter"/>
   </g>
   <g id="patch_66">
    <path d="M 717.885807 405.88 
L 727.106352 405.88 
L 727.106352 405.88 
L 717.885807 405.88 
z
" clip-path="url(#p2d4353611a)" style="fill: #ffa500; fill-opacity: 0.5; stroke: #000000; stroke-width: 0.737851; stroke-linejoin: miter"/>
   </g>
   <g id="patch_67">
    <path d="M 727.106352 405.88 
L 736.326898 405.88 
L 736.326898 405.88 
L 727.106352 405.88 
z
" clip-path="url(#p2d4353611a)" style="fill: #ffa500; fill-opacity: 0.5; stroke: #000000; stroke-width: 0.737851; stroke-linejoin: miter"/>
   </g>
   <g id="patch_68">
    <path d="M 736.326898 405.88 
L 745.547443 405.88 
L 745.547443 405.88 
L 736.326898 405.88 
z
" clip-path="url(#p2d4353611a)" style="fill: #ffa500; fill-opacity: 0.5; stroke: #000000; stroke-width: 0.737851; stroke-linejoin: miter"/>
   </g>
   <g id="patch_69">
    <path d="M 745.547443 405.88 
L 754.767989 405.88 
L 754.767989 405.88 
L 745.547443 405.88 
z
" clip-path="url(#p2d4353611a)" style="fill: #ffa500; fill-opacity: 0.5; stroke: #000000; stroke-width: 0.737851; stroke-linejoin: miter"/>
   </g>
   <g id="patch_70">
    <path d="M 754.767989 405.88 
L 763.988534 405.88 
L 763.988534 405.88 
L 754.767989 405.88 
z
" clip-path="url(#p2d4353611a)" style="fill: #ffa500; fill-opacity: 0.5; stroke: #000000; stroke-width: 0.737851; stroke-linejoin: miter"/>
   </g>
   <g id="patch_71">
    <path d="M 763.988534 405.88 
L 773.20908 405.88 
L 773.20908 405.88 
L 763.988534 405.88 
z
" clip-path="url(#p2d4353611a)" style="fill: #ffa500; fill-opacity: 0.5; stroke: #000000; stroke-width: 0.737851; stroke-linejoin: miter"/>
   </g>
   <g id="patch_72">
    <path d="M 773.20908 405.88 
L 782.429625 405.88 
L 782.429625 405.88 
L 773.20908 405.88 
z
" clip-path="url(#p2d4353611a)" style="fill: #ffa500; fill-opacity: 0.5; stroke: #000000; stroke-width: 0.737851; stroke-linejoin: miter"/>
   </g>
   <g id="patch_73">
    <path d="M 782.429625 405.88 
L 791.65017 405.88 
L 791.65017 405.88 
L 782.429625 405.88 
z
" clip-path="url(#p2d4353611a)" style="fill: #ffa500; fill-opacity: 0.5; stroke: #000000; stroke-width: 0.737851; stroke-linejoin: miter"/>
   </g>
   <g id="patch_74">
    <path d="M 791.65017 405.88 
L 800.870716 405.88 
L 800.870716 405.88 
L 791.65017 405.88 
z
" clip-path="url(#p2d4353611a)" style="fill: #ffa500; fill-opacity: 0.5; stroke: #000000; stroke-width: 0.737851; stroke-linejoin: miter"/>
   </g>
   <g id="patch_75">
    <path d="M 800.870716 405.88 
L 810.091261 405.88 
L 810.091261 384.466486 
L 800.870716 384.466486 
z
" clip-path="url(#p2d4353611a)" style="fill: #ffa500; fill-opacity: 0.5; stroke: #000000; stroke-width: 0.737851; stroke-linejoin: miter"/>
   </g>
   <g id="patch_76">
    <path d="M 810.091261 405.88 
L 819.311807 405.88 
L 819.311807 405.88 
L 810.091261 405.88 
z
" clip-path="url(#p2d4353611a)" style="fill: #ffa500; fill-opacity: 0.5; stroke: #000000; stroke-width: 0.737851; stroke-linejoin: miter"/>
   </g>
   <g id="patch_77">
    <path d="M 819.311807 405.88 
L 828.532352 405.88 
L 828.532352 405.88 
L 819.311807 405.88 
z
" clip-path="url(#p2d4353611a)" style="fill: #ffa500; fill-opacity: 0.5; stroke: #000000; stroke-width: 0.737851; stroke-linejoin: miter"/>
   </g>
   <g id="patch_78">
    <path d="M 828.532352 405.88 
L 837.752898 405.88 
L 837.752898 405.88 
L 828.532352 405.88 
z
" clip-path="url(#p2d4353611a)" style="fill: #ffa500; fill-opacity: 0.5; stroke: #000000; stroke-width: 0.737851; stroke-linejoin: miter"/>
   </g>
   <g id="patch_79">
    <path d="M 837.752898 405.88 
L 846.973443 405.88 
L 846.973443 405.88 
L 837.752898 405.88 
z
" clip-path="url(#p2d4353611a)" style="fill: #ffa500; fill-opacity: 0.5; stroke: #000000; stroke-width: 0.737851; stroke-linejoin: miter"/>
   </g>
   <g id="patch_80">
    <path d="M 846.973443 405.88 
L 856.193989 405.88 
L 856.193989 405.88 
L 846.973443 405.88 
z
" clip-path="url(#p2d4353611a)" style="fill: #ffa500; fill-opacity: 0.5; stroke: #000000; stroke-width: 0.737851; stroke-linejoin: miter"/>
   </g>
   <g id="patch_81">
    <path d="M 856.193989 405.88 
L 865.414534 405.88 
L 865.414534 405.88 
L 856.193989 405.88 
z
" clip-path="url(#p2d4353611a)" style="fill: #ffa500; fill-opacity: 0.5; stroke: #000000; stroke-width: 0.737851; stroke-linejoin: miter"/>
   </g>
   <g id="patch_82">
    <path d="M 865.414534 405.88 
L 874.63508 405.88 
L 874.63508 405.88 
L 865.414534 405.88 
z
" clip-path="url(#p2d4353611a)" style="fill: #ffa500; fill-opacity: 0.5; stroke: #000000; stroke-width: 0.737851; stroke-linejoin: miter"/>
   </g>
   <g id="patch_83">
    <path d="M 874.63508 405.88 
L 883.855625 405.88 
L 883.855625 405.88 
L 874.63508 405.88 
z
" clip-path="url(#p2d4353611a)" style="fill: #ffa500; fill-opacity: 0.5; stroke: #000000; stroke-width: 0.737851; stroke-linejoin: miter"/>
   </g>
   <g id="patch_84">
    <path d="M 883.855625 405.88 
L 893.07617 405.88 
L 893.07617 405.88 
L 883.855625 405.88 
z
" clip-path="url(#p2d4353611a)" style="fill: #ffa500; fill-opacity: 0.5; stroke: #000000; stroke-width: 0.737851; stroke-linejoin: miter"/>
   </g>
   <g id="patch_85">
    <path d="M 893.07617 405.88 
L 902.296716 405.88 
L 902.296716 405.88 
L 893.07617 405.88 
z
" clip-path="url(#p2d4353611a)" style="fill: #ffa500; fill-opacity: 0.5; stroke: #000000; stroke-width: 0.737851; stroke-linejoin: miter"/>
   </g>
   <g id="patch_86">
    <path d="M 902.296716 405.88 
L 911.517261 405.88 
L 911.517261 405.88 
L 902.296716 405.88 
z
" clip-path="url(#p2d4353611a)" style="fill: #ffa500; fill-opacity: 0.5; stroke: #000000; stroke-width: 0.737851; stroke-linejoin: miter"/>
   </g>
   <g id="patch_87">
    <path d="M 911.517261 405.88 
L 920.737807 405.88 
L 920.737807 405.88 
L 911.517261 405.88 
z
" clip-path="url(#p2d4353611a)" style="fill: #ffa500; fill-opacity: 0.5; stroke: #000000; stroke-width: 0.737851; stroke-linejoin: miter"/>
   </g>
   <g id="patch_88">
    <path d="M 920.737807 405.88 
L 929.958352 405.88 
L 929.958352 405.88 
L 920.737807 405.88 
z
" clip-path="url(#p2d4353611a)" style="fill: #ffa500; fill-opacity: 0.5; stroke: #000000; stroke-width: 0.737851; stroke-linejoin: miter"/>
   </g>
   <g id="patch_89">
    <path d="M 929.958352 405.88 
L 939.178898 405.88 
L 939.178898 405.88 
L 929.958352 405.88 
z
" clip-path="url(#p2d4353611a)" style="fill: #ffa500; fill-opacity: 0.5; stroke: #000000; stroke-width: 0.737851; stroke-linejoin: miter"/>
   </g>
   <g id="patch_90">
    <path d="M 939.178898 405.88 
L 948.399443 405.88 
L 948.399443 405.88 
L 939.178898 405.88 
z
" clip-path="url(#p2d4353611a)" style="fill: #ffa500; fill-opacity: 0.5; stroke: #000000; stroke-width: 0.737851; stroke-linejoin: miter"/>
   </g>
   <g id="patch_91">
    <path d="M 948.399443 405.88 
L 957.619989 405.88 
L 957.619989 405.88 
L 948.399443 405.88 
z
" clip-path="url(#p2d4353611a)" style="fill: #ffa500; fill-opacity: 0.5; stroke: #000000; stroke-width: 0.737851; stroke-linejoin: miter"/>
   </g>
   <g id="patch_92">
    <path d="M 957.619989 405.88 
L 966.840534 405.88 
L 966.840534 84.699048 
L 957.619989 84.699048 
z
" clip-path="url(#p2d4353611a)" style="fill: #ffa500; fill-opacity: 0.5; stroke: #000000; stroke-width: 0.737851; stroke-linejoin: miter"/>
   </g>
   <g id="patch_93">
    <path d="M 966.840534 405.88 
L 976.06108 405.88 
L 976.06108 405.88 
L 966.840534 405.88 
z
" clip-path="url(#p2d4353611a)" style="fill: #ffa500; fill-opacity: 0.5; stroke: #000000; stroke-width: 0.737851; stroke-linejoin: miter"/>
   </g>
   <g id="patch_94">
    <path d="M 976.06108 405.88 
L 985.281625 405.88 
L 985.281625 405.88 
L 976.06108 405.88 
z
" clip-path="url(#p2d4353611a)" style="fill: #ffa500; fill-opacity: 0.5; stroke: #000000; stroke-width: 0.737851; stroke-linejoin: miter"/>
   </g>
   <g id="patch_95">
    <path d="M 985.281625 405.88 
L 994.50217 405.88 
L 994.50217 405.88 
L 985.281625 405.88 
z
" clip-path="url(#p2d4353611a)" style="fill: #ffa500; fill-opacity: 0.5; stroke: #000000; stroke-width: 0.737851; stroke-linejoin: miter"/>
   </g>
   <g id="patch_96">
    <path d="M 994.50217 405.88 
L 1003.722716 405.88 
L 1003.722716 405.88 
L 994.50217 405.88 
z
" clip-path="url(#p2d4353611a)" style="fill: #ffa500; fill-opacity: 0.5; stroke: #000000; stroke-width: 0.737851; stroke-linejoin: miter"/>
   </g>
   <g id="patch_97">
    <path d="M 1003.722716 405.88 
L 1012.943261 405.88 
L 1012.943261 405.88 
L 1003.722716 405.88 
z
" clip-path="url(#p2d4353611a)" style="fill: #ffa500; fill-opacity: 0.5; stroke: #000000; stroke-width: 0.737851; stroke-linejoin: miter"/>
   </g>
   <g id="patch_98">
    <path d="M 1012.943261 405.88 
L 1022.163807 405.88 
L 1022.163807 405.88 
L 1012.943261 405.88 
z
" clip-path="url(#p2d4353611a)" style="fill: #ffa500; fill-opacity: 0.5; stroke: #000000; stroke-width: 0.737851; stroke-linejoin: miter"/>
   </g>
   <g id="patch_99">
    <path d="M 1022.163807 405.88 
L 1031.384352 405.88 
L 1031.384352 405.88 
L 1022.163807 405.88 
z
" clip-path="url(#p2d4353611a)" style="fill: #ffa500; fill-opacity: 0.5; stroke: #000000; stroke-width: 0.737851; stroke-linejoin: miter"/>
   </g>
   <g id="patch_100">
    <path d="M 1031.384352 405.88 
L 1040.604898 405.88 
L 1040.604898 405.88 
L 1031.384352 405.88 
z
" clip-path="url(#p2d4353611a)" style="fill: #ffa500; fill-opacity: 0.5; stroke: #000000; stroke-width: 0.737851; stroke-linejoin: miter"/>
   </g>
   <g id="patch_101">
    <path d="M 1040.604898 405.88 
L 1049.825443 405.88 
L 1049.825443 405.88 
L 1040.604898 405.88 
z
" clip-path="url(#p2d4353611a)" style="fill: #ffa500; fill-opacity: 0.5; stroke: #000000; stroke-width: 0.737851; stroke-linejoin: miter"/>
   </g>
   <g id="patch_102">
    <path d="M 1049.825443 405.88 
L 1059.045989 405.88 
L 1059.045989 405.88 
L 1049.825443 405.88 
z
" clip-path="url(#p2d4353611a)" style="fill: #ffa500; fill-opacity: 0.5; stroke: #000000; stroke-width: 0.737851; stroke-linejoin: miter"/>
   </g>
   <g id="patch_103">
    <path d="M 1059.045989 405.88 
L 1068.266534 405.88 
L 1068.266534 405.88 
L 1059.045989 405.88 
z
" clip-path="url(#p2d4353611a)" style="fill: #ffa500; fill-opacity: 0.5; stroke: #000000; stroke-width: 0.737851; stroke-linejoin: miter"/>
   </g>
   <g id="patch_104">
    <path d="M 1068.266534 405.88 
L 1077.48708 405.88 
L 1077.48708 405.88 
L 1068.266534 405.88 
z
" clip-path="url(#p2d4353611a)" style="fill: #ffa500; fill-opacity: 0.5; stroke: #000000; stroke-width: 0.737851; stroke-linejoin: miter"/>
   </g>
   <g id="patch_105">
    <path d="M 1077.48708 405.88 
L 1086.707625 405.88 
L 1086.707625 405.88 
L 1077.48708 405.88 
z
" clip-path="url(#p2d4353611a)" style="fill: #ffa500; fill-opacity: 0.5; stroke: #000000; stroke-width: 0.737851; stroke-linejoin: miter"/>
   </g>
   <g id="patch_106">
    <path d="M 1086.707625 405.88 
L 1095.92817 405.88 
L 1095.92817 405.88 
L 1086.707625 405.88 
z
" clip-path="url(#p2d4353611a)" style="fill: #ffa500; fill-opacity: 0.5; stroke: #000000; stroke-width: 0.737851; stroke-linejoin: miter"/>
   </g>
   <g id="patch_107">
    <path d="M 1095.92817 405.88 
L 1105.148716 405.88 
L 1105.148716 405.88 
L 1095.92817 405.88 
z
" clip-path="url(#p2d4353611a)" style="fill: #ffa500; fill-opacity: 0.5; stroke: #000000; stroke-width: 0.737851; stroke-linejoin: miter"/>
   </g>
   <g id="patch_108">
    <path d="M 1105.148716 405.88 
L 1114.369261 405.88 
L 1114.369261 300.161654 
L 1105.148716 300.161654 
z
" clip-path="url(#p2d4353611a)" style="fill: #ffa500; fill-opacity: 0.5; stroke: #000000; stroke-width: 0.737851; stroke-linejoin: miter"/>
   </g>
   <g id="matplotlib.axis_3">
    <g id="xtick_8">
     <g id="line2d_21">
      <g>
       <use xlink:href="#m7568dcb159" x="653.341989" y="405.88" style="stroke: #000000; stroke-width: 0.8"/>
      </g>
     </g>
     <g id="text_22">
      <!-- 0.0 -->
      <g transform="translate(645.390426 420.478437) scale(0.1 -0.1)">
       <use xlink:href="#DejaVuSans-30"/>
       <use xlink:href="#DejaVuSans-2e" transform="translate(63.623047 0)"/>
       <use xlink:href="#DejaVuSans-30" transform="translate(95.410156 0)"/>
      </g>
     </g>
    </g>
    <g id="xtick_9">
     <g id="line2d_22">
      <g>
       <use xlink:href="#m7568dcb159" x="730.179867" y="405.88" style="stroke: #000000; stroke-width: 0.8"/>
      </g>
     </g>
     <g id="text_23">
      <!-- 0.5 -->
      <g transform="translate(722.228305 420.478437) scale(0.1 -0.1)">
       <use xlink:href="#DejaVuSans-30"/>
       <use xlink:href="#DejaVuSans-2e" transform="translate(63.623047 0)"/>
       <use xlink:href="#DejaVuSans-35" transform="translate(95.410156 0)"/>
      </g>
     </g>
    </g>
    <g id="xtick_10">
     <g id="line2d_23">
      <g>
       <use xlink:href="#m7568dcb159" x="807.017746" y="405.88" style="stroke: #000000; stroke-width: 0.8"/>
      </g>
     </g>
     <g id="text_24">
      <!-- 1.0 -->
      <g transform="translate(799.066184 420.478437) scale(0.1 -0.1)">
       <use xlink:href="#DejaVuSans-31"/>
       <use xlink:href="#DejaVuSans-2e" transform="translate(63.623047 0)"/>
       <use xlink:href="#DejaVuSans-30" transform="translate(95.410156 0)"/>
      </g>
     </g>
    </g>
    <g id="xtick_11">
     <g id="line2d_24">
      <g>
       <use xlink:href="#m7568dcb159" x="883.855625" y="405.88" style="stroke: #000000; stroke-width: 0.8"/>
      </g>
     </g>
     <g id="text_25">
      <!-- 1.5 -->
      <g transform="translate(875.904063 420.478437) scale(0.1 -0.1)">
       <use xlink:href="#DejaVuSans-31"/>
       <use xlink:href="#DejaVuSans-2e" transform="translate(63.623047 0)"/>
       <use xlink:href="#DejaVuSans-35" transform="translate(95.410156 0)"/>
      </g>
     </g>
    </g>
    <g id="xtick_12">
     <g id="line2d_25">
      <g>
       <use xlink:href="#m7568dcb159" x="960.693504" y="405.88" style="stroke: #000000; stroke-width: 0.8"/>
      </g>
     </g>
     <g id="text_26">
      <!-- 2.0 -->
      <g transform="translate(952.741941 420.478437) scale(0.1 -0.1)">
       <use xlink:href="#DejaVuSans-32"/>
       <use xlink:href="#DejaVuSans-2e" transform="translate(63.623047 0)"/>
       <use xlink:href="#DejaVuSans-30" transform="translate(95.410156 0)"/>
      </g>
     </g>
    </g>
    <g id="xtick_13">
     <g id="line2d_26">
      <g>
       <use xlink:href="#m7568dcb159" x="1037.531383" y="405.88" style="stroke: #000000; stroke-width: 0.8"/>
      </g>
     </g>
     <g id="text_27">
      <!-- 2.5 -->
      <g transform="translate(1029.57982 420.478437) scale(0.1 -0.1)">
       <use xlink:href="#DejaVuSans-32"/>
       <use xlink:href="#DejaVuSans-2e" transform="translate(63.623047 0)"/>
       <use xlink:href="#DejaVuSans-35" transform="translate(95.410156 0)"/>
      </g>
     </g>
    </g>
    <g id="xtick_14">
     <g id="line2d_27">
      <g>
       <use xlink:href="#m7568dcb159" x="1114.369261" y="405.88" style="stroke: #000000; stroke-width: 0.8"/>
      </g>
     </g>
     <g id="text_28">
      <!-- 3.0 -->
      <g transform="translate(1106.417699 420.478437) scale(0.1 -0.1)">
       <use xlink:href="#DejaVuSans-33"/>
       <use xlink:href="#DejaVuSans-2e" transform="translate(63.623047 0)"/>
       <use xlink:href="#DejaVuSans-30" transform="translate(95.410156 0)"/>
      </g>
     </g>
    </g>
    <g id="text_29">
     <!-- Toxic Score -->
     <g transform="translate(856.059531 434.156562) scale(0.1 -0.1)">
      <use xlink:href="#DejaVuSans-54"/>
      <use xlink:href="#DejaVuSans-6f" transform="translate(44.083984 0)"/>
      <use xlink:href="#DejaVuSans-78" transform="translate(102.140625 0)"/>
      <use xlink:href="#DejaVuSans-69" transform="translate(161.320312 0)"/>
      <use xlink:href="#DejaVuSans-63" transform="translate(189.103516 0)"/>
      <use xlink:href="#DejaVuSans-20" transform="translate(244.083984 0)"/>
      <use xlink:href="#DejaVuSans-53" transform="translate(275.871094 0)"/>
      <use xlink:href="#DejaVuSans-63" transform="translate(339.347656 0)"/>
      <use xlink:href="#DejaVuSans-6f" transform="translate(394.328125 0)"/>
      <use xlink:href="#DejaVuSans-72" transform="translate(455.509766 0)"/>
      <use xlink:href="#DejaVuSans-65" transform="translate(494.373047 0)"/>
     </g>
    </g>
   </g>
   <g id="matplotlib.axis_4">
    <g id="ytick_9">
     <g id="line2d_28">
      <g>
       <use xlink:href="#m99aa32d8c9" x="630.290625" y="405.88" style="stroke: #000000; stroke-width: 0.8"/>
      </g>
     </g>
     <g id="text_30">
      <!-- 0 -->
      <g transform="translate(616.928125 409.679219) scale(0.1 -0.1)">
       <use xlink:href="#DejaVuSans-30"/>
      </g>
     </g>
    </g>
    <g id="ytick_10">
     <g id="line2d_29">
      <g>
       <use xlink:href="#m99aa32d8c9" x="630.290625" y="351.475746" style="stroke: #000000; stroke-width: 0.8"/>
      </g>
     </g>
     <g id="text_31">
      <!-- 10000 -->
      <g transform="translate(591.478125 355.274965) scale(0.1 -0.1)">
       <use xlink:href="#DejaVuSans-31"/>
       <use xlink:href="#DejaVuSans-30" transform="translate(63.623047 0)"/>
       <use xlink:href="#DejaVuSans-30" transform="translate(127.246094 0)"/>
       <use xlink:href="#DejaVuSans-30" transform="translate(190.869141 0)"/>
       <use xlink:href="#DejaVuSans-30" transform="translate(254.492188 0)"/>
      </g>
     </g>
    </g>
    <g id="ytick_11">
     <g id="line2d_30">
      <g>
       <use xlink:href="#m99aa32d8c9" x="630.290625" y="297.071493" style="stroke: #000000; stroke-width: 0.8"/>
      </g>
     </g>
     <g id="text_32">
      <!-- 20000 -->
      <g transform="translate(591.478125 300.870711) scale(0.1 -0.1)">
       <use xlink:href="#DejaVuSans-32"/>
       <use xlink:href="#DejaVuSans-30" transform="translate(63.623047 0)"/>
       <use xlink:href="#DejaVuSans-30" transform="translate(127.246094 0)"/>
       <use xlink:href="#DejaVuSans-30" transform="translate(190.869141 0)"/>
       <use xlink:href="#DejaVuSans-30" transform="translate(254.492188 0)"/>
      </g>
     </g>
    </g>
    <g id="ytick_12">
     <g id="line2d_31">
      <g>
       <use xlink:href="#m99aa32d8c9" x="630.290625" y="242.667239" style="stroke: #000000; stroke-width: 0.8"/>
      </g>
     </g>
     <g id="text_33">
      <!-- 30000 -->
      <g transform="translate(591.478125 246.466458) scale(0.1 -0.1)">
       <use xlink:href="#DejaVuSans-33"/>
       <use xlink:href="#DejaVuSans-30" transform="translate(63.623047 0)"/>
       <use xlink:href="#DejaVuSans-30" transform="translate(127.246094 0)"/>
       <use xlink:href="#DejaVuSans-30" transform="translate(190.869141 0)"/>
       <use xlink:href="#DejaVuSans-30" transform="translate(254.492188 0)"/>
      </g>
     </g>
    </g>
    <g id="ytick_13">
     <g id="line2d_32">
      <g>
       <use xlink:href="#m99aa32d8c9" x="630.290625" y="188.262985" style="stroke: #000000; stroke-width: 0.8"/>
      </g>
     </g>
     <g id="text_34">
      <!-- 40000 -->
      <g transform="translate(591.478125 192.062204) scale(0.1 -0.1)">
       <use xlink:href="#DejaVuSans-34"/>
       <use xlink:href="#DejaVuSans-30" transform="translate(63.623047 0)"/>
       <use xlink:href="#DejaVuSans-30" transform="translate(127.246094 0)"/>
       <use xlink:href="#DejaVuSans-30" transform="translate(190.869141 0)"/>
       <use xlink:href="#DejaVuSans-30" transform="translate(254.492188 0)"/>
      </g>
     </g>
    </g>
    <g id="ytick_14">
     <g id="line2d_33">
      <g>
       <use xlink:href="#m99aa32d8c9" x="630.290625" y="133.858731" style="stroke: #000000; stroke-width: 0.8"/>
      </g>
     </g>
     <g id="text_35">
      <!-- 50000 -->
      <g transform="translate(591.478125 137.65795) scale(0.1 -0.1)">
       <use xlink:href="#DejaVuSans-35"/>
       <use xlink:href="#DejaVuSans-30" transform="translate(63.623047 0)"/>
       <use xlink:href="#DejaVuSans-30" transform="translate(127.246094 0)"/>
       <use xlink:href="#DejaVuSans-30" transform="translate(190.869141 0)"/>
       <use xlink:href="#DejaVuSans-30" transform="translate(254.492188 0)"/>
      </g>
     </g>
    </g>
    <g id="ytick_15">
     <g id="line2d_34">
      <g>
       <use xlink:href="#m99aa32d8c9" x="630.290625" y="79.454478" style="stroke: #000000; stroke-width: 0.8"/>
      </g>
     </g>
     <g id="text_36">
      <!-- 60000 -->
      <g transform="translate(591.478125 83.253696) scale(0.1 -0.1)">
       <use xlink:href="#DejaVuSans-36"/>
       <use xlink:href="#DejaVuSans-30" transform="translate(63.623047 0)"/>
       <use xlink:href="#DejaVuSans-30" transform="translate(127.246094 0)"/>
       <use xlink:href="#DejaVuSans-30" transform="translate(190.869141 0)"/>
       <use xlink:href="#DejaVuSans-30" transform="translate(254.492188 0)"/>
      </g>
     </g>
    </g>
    <g id="text_37">
     <!-- Count -->
     <g transform="translate(585.398438 252.108437) rotate(-90) scale(0.1 -0.1)">
      <use xlink:href="#DejaVuSans-43"/>
      <use xlink:href="#DejaVuSans-6f" transform="translate(69.824219 0)"/>
      <use xlink:href="#DejaVuSans-75" transform="translate(131.005859 0)"/>
      <use xlink:href="#DejaVuSans-6e" transform="translate(194.384766 0)"/>
      <use xlink:href="#DejaVuSans-74" transform="translate(257.763672 0)"/>
     </g>
    </g>
   </g>
   <g id="line2d_35">
    <path d="M 653.341989 397.998564 
L 655.658709 398.181149 
L 657.975429 398.703915 
L 660.292149 399.497507 
L 669.559028 403.380733 
L 671.875748 404.121586 
L 674.192468 404.699488 
L 676.509188 405.123757 
L 681.142628 405.610372 
L 685.776068 405.800304 
L 695.042948 405.876033 
L 771.494707 405.850238 
L 778.444867 405.671762 
L 783.078307 405.277402 
L 785.395027 404.924516 
L 787.711747 404.43436 
L 790.028466 403.792925 
L 794.661906 402.100648 
L 799.295346 400.20637 
L 801.612066 399.400455 
L 803.928786 398.818953 
L 806.245506 398.537654 
L 808.562226 398.594796 
L 810.878946 398.982532 
L 813.195666 399.648698 
L 817.829106 401.461445 
L 822.462546 403.282556 
L 824.779266 404.023731 
L 827.095986 404.614166 
L 829.412706 405.056329 
L 834.046146 405.577008 
L 838.679586 405.7876 
L 847.946466 405.875104 
L 917.448064 405.848663 
L 922.081504 405.715788 
L 924.398224 405.529619 
L 926.714944 405.166627 
L 929.031664 404.494093 
L 931.348384 403.31083 
L 933.665104 401.335432 
L 935.981824 398.209327 
L 938.298544 393.525776 
L 940.615264 386.893778 
L 942.931984 378.03785 
L 945.248704 366.920972 
L 947.565424 353.861891 
L 952.198864 325.310475 
L 954.515584 312.41681 
L 956.832304 302.424993 
L 959.149024 296.609345 
L 961.465744 295.752268 
L 963.782464 299.971466 
L 966.099184 308.693411 
L 968.415904 320.781318 
L 975.366064 362.756001 
L 977.682784 374.575989 
L 979.999503 384.196865 
L 982.316223 391.548711 
L 984.632943 396.841641 
L 986.949663 400.4408 
L 989.266383 402.756644 
L 991.583103 404.168609 
L 993.899823 404.985216 
L 996.216543 405.433596 
L 998.533263 405.66749 
L 1003.166703 405.838159 
L 1017.067023 405.879896 
L 1077.301742 405.789948 
L 1081.935182 405.5125 
L 1084.251902 405.188005 
L 1086.568622 404.636663 
L 1088.885342 403.74835 
L 1091.202062 402.392741 
L 1093.518782 400.436308 
L 1095.835502 397.771434 
L 1098.152222 394.35514 
L 1100.468942 390.24966 
L 1107.419101 376.448436 
L 1109.735821 372.78895 
L 1112.052541 370.378322 
L 1114.369261 369.536368 
L 1114.369261 369.536368 
" clip-path="url(#p2d4353611a)" style="fill: none; stroke: #ffa500; stroke-width: 1.5; stroke-linecap: square"/>
   </g>
   <g id="line2d_36">
    <path d="M 960.693504 405.88 
L 960.693504 68.64 
" clip-path="url(#p2d4353611a)" style="fill: none; stroke-dasharray: 7.4,3.2; stroke-dashoffset: 0; stroke: #ff0000; stroke-width: 2"/>
   </g>
   <g id="line2d_37">
    <path d="M 973.233395 405.88 
L 973.233395 68.64 
" clip-path="url(#p2d4353611a)" style="fill: none; stroke-dasharray: 7.4,3.2; stroke-dashoffset: 0; stroke: #008000; stroke-width: 2"/>
   </g>
   <g id="patch_109">
    <path d="M 630.290625 405.88 
L 630.290625 68.64 
" style="fill: none; stroke: #000000; stroke-width: 0.8; stroke-linejoin: miter; stroke-linecap: square"/>
   </g>
   <g id="patch_110">
    <path d="M 1137.420625 405.88 
L 1137.420625 68.64 
" style="fill: none; stroke: #000000; stroke-width: 0.8; stroke-linejoin: miter; stroke-linecap: square"/>
   </g>
   <g id="patch_111">
    <path d="M 630.290625 405.88 
L 1137.420625 405.88 
" style="fill: none; stroke: #000000; stroke-width: 0.8; stroke-linejoin: miter; stroke-linecap: square"/>
   </g>
   <g id="patch_112">
    <path d="M 630.290625 68.64 
L 1137.420625 68.64 
" style="fill: none; stroke: #000000; stroke-width: 0.8; stroke-linejoin: miter; stroke-linecap: square"/>
   </g>
   <g id="text_38">
    <!-- Automated Interventions — Toxic Score -->
    <g transform="translate(728.377969 62.64) scale(0.14 -0.14)">
     <defs>
      <path id="DejaVuSans-Bold-41" d="M 3419 850 
L 1538 850 
L 1241 0 
L 31 0 
L 1759 4666 
L 3194 4666 
L 4922 0 
L 3713 0 
L 3419 850 
z
M 1838 1716 
L 3116 1716 
L 2478 3572 
L 1838 1716 
z
" transform="scale(0.015625)"/>
      <path id="DejaVuSans-Bold-64" d="M 2919 2988 
L 2919 4863 
L 4044 4863 
L 4044 0 
L 2919 0 
L 2919 506 
Q 2688 197 2409 53 
Q 2131 -91 1766 -91 
Q 1119 -91 703 423 
Q 288 938 288 1747 
Q 288 2556 703 3070 
Q 1119 3584 1766 3584 
Q 2128 3584 2408 3439 
Q 2688 3294 2919 2988 
z
M 2181 722 
Q 2541 722 2730 984 
Q 2919 1247 2919 1747 
Q 2919 2247 2730 2509 
Q 2541 2772 2181 2772 
Q 1825 2772 1636 2509 
Q 1447 2247 1447 1747 
Q 1447 1247 1636 984 
Q 1825 722 2181 722 
z
" transform="scale(0.015625)"/>
     </defs>
     <use xlink:href="#DejaVuSans-Bold-41"/>
     <use xlink:href="#DejaVuSans-Bold-75" transform="translate(77.392578 0)"/>
     <use xlink:href="#DejaVuSans-Bold-74" transform="translate(148.583984 0)"/>
     <use xlink:href="#DejaVuSans-Bold-6f" transform="translate(196.386719 0)"/>
     <use xlink:href="#DejaVuSans-Bold-6d" transform="translate(265.087891 0)"/>
     <use xlink:href="#DejaVuSans-Bold-61" transform="translate(369.287109 0)"/>
     <use xlink:href="#DejaVuSans-Bold-74" transform="translate(436.767578 0)"/>
     <use xlink:href="#DejaVuSans-Bold-65" transform="translate(484.570312 0)"/>
     <use xlink:href="#DejaVuSans-Bold-64" transform="translate(552.392578 0)"/>
     <use xlink:href="#DejaVuSans-Bold-20" transform="translate(623.974609 0)"/>
     <use xlink:href="#DejaVuSans-Bold-49" transform="translate(658.789062 0)"/>
     <use xlink:href="#DejaVuSans-Bold-6e" transform="translate(695.996094 0)"/>
     <use xlink:href="#DejaVuSans-Bold-74" transform="translate(767.1875 0)"/>
     <use xlink:href="#DejaVuSans-Bold-65" transform="translate(814.990234 0)"/>
     <use xlink:href="#DejaVuSans-Bold-72" transform="translate(882.8125 0)"/>
     <use xlink:href="#DejaVuSans-Bold-76" transform="translate(932.128906 0)"/>
     <use xlink:href="#DejaVuSans-Bold-65" transform="translate(997.314453 0)"/>
     <use xlink:href="#DejaVuSans-Bold-6e" transform="translate(1065.136719 0)"/>
     <use xlink:href="#DejaVuSans-Bold-74" transform="translate(1136.328125 0)"/>
     <use xlink:href="#DejaVuSans-Bold-69" transform="translate(1184.130859 0)"/>
     <use xlink:href="#DejaVuSans-Bold-6f" transform="translate(1218.408203 0)"/>
     <use xlink:href="#DejaVuSans-Bold-6e" transform="translate(1287.109375 0)"/>
     <use xlink:href="#DejaVuSans-Bold-73" transform="translate(1358.300781 0)"/>
     <use xlink:href="#DejaVuSans-Bold-20" transform="translate(1417.822266 0)"/>
     <use xlink:href="#DejaVuSans-Bold-2014" transform="translate(1452.636719 0)"/>
     <use xlink:href="#DejaVuSans-Bold-20" transform="translate(1552.636719 0)"/>
     <use xlink:href="#DejaVuSans-Bold-54" transform="translate(1587.451172 0)"/>
     <use xlink:href="#DejaVuSans-Bold-6f" transform="translate(1642.414062 0)"/>
     <use xlink:href="#DejaVuSans-Bold-78" transform="translate(1711.115234 0)"/>
     <use xlink:href="#DejaVuSans-Bold-69" transform="translate(1775.617188 0)"/>
     <use xlink:href="#DejaVuSans-Bold-63" transform="translate(1809.894531 0)"/>
     <use xlink:href="#DejaVuSans-Bold-20" transform="translate(1869.171875 0)"/>
     <use xlink:href="#DejaVuSans-Bold-53" transform="translate(1903.986328 0)"/>
     <use xlink:href="#DejaVuSans-Bold-63" transform="translate(1976.007812 0)"/>
     <use xlink:href="#DejaVuSans-Bold-6f" transform="translate(2035.285156 0)"/>
     <use xlink:href="#DejaVuSans-Bold-72" transform="translate(2103.986328 0)"/>
     <use xlink:href="#DejaVuSans-Bold-65" transform="translate(2153.302734 0)"/>
    </g>
   </g>
   <g id="legend_2">
    <g id="patch_113">
     <path d="M 1025.045625 120.674375 
L 1130.420625 120.674375 
Q 1132.420625 120.674375 1132.420625 118.674375 
L 1132.420625 75.64 
Q 1132.420625 73.64 1130.420625 73.64 
L 1025.045625 73.64 
Q 1023.045625 73.64 1023.045625 75.64 
L 1023.045625 118.674375 
Q 1023.045625 120.674375 1025.045625 120.674375 
z
" style="fill: #ffffff; opacity: 0.8; stroke: #cccccc; stroke-linejoin: miter"/>
    </g>
    <g id="text_39">
     <!-- N = 86,618 -->
     <g transform="translate(1049.129219 85.238437) scale(0.1 -0.1)">
      <use xlink:href="#DejaVuSans-4e"/>
      <use xlink:href="#DejaVuSans-20" transform="translate(74.804688 0)"/>
      <use xlink:href="#DejaVuSans-3d" transform="translate(106.591797 0)"/>
      <use xlink:href="#DejaVuSans-20" transform="translate(190.380859 0)"/>
      <use xlink:href="#DejaVuSans-38" transform="translate(222.167969 0)"/>
      <use xlink:href="#DejaVuSans-36" transform="translate(285.791016 0)"/>
      <use xlink:href="#DejaVuSans-2c" transform="translate(349.414062 0)"/>
      <use xlink:href="#DejaVuSans-36" transform="translate(381.201172 0)"/>
      <use xlink:href="#DejaVuSans-31" transform="translate(444.824219 0)"/>
      <use xlink:href="#DejaVuSans-38" transform="translate(508.447266 0)"/>
     </g>
    </g>
    <g id="line2d_38">
     <path d="M 1027.045625 96.416562 
L 1037.045625 96.416562 
L 1047.045625 96.416562 
" style="fill: none; stroke-dasharray: 7.4,3.2; stroke-dashoffset: 0; stroke: #ff0000; stroke-width: 2"/>
    </g>
    <g id="text_40">
     <!-- Median = 2.00 -->
     <g transform="translate(1055.045625 99.916562) scale(0.1 -0.1)">
      <use xlink:href="#DejaVuSans-4d"/>
      <use xlink:href="#DejaVuSans-65" transform="translate(86.279297 0)"/>
      <use xlink:href="#DejaVuSans-64" transform="translate(147.802734 0)"/>
      <use xlink:href="#DejaVuSans-69" transform="translate(211.279297 0)"/>
      <use xlink:href="#DejaVuSans-61" transform="translate(239.0625 0)"/>
      <use xlink:href="#DejaVuSans-6e" transform="translate(300.341797 0)"/>
      <use xlink:href="#DejaVuSans-20" transform="translate(363.720703 0)"/>
      <use xlink:href="#DejaVuSans-3d" transform="translate(395.507812 0)"/>
      <use xlink:href="#DejaVuSans-20" transform="translate(479.296875 0)"/>
      <use xlink:href="#DejaVuSans-32" transform="translate(511.083984 0)"/>
      <use xlink:href="#DejaVuSans-2e" transform="translate(574.707031 0)"/>
      <use xlink:href="#DejaVuSans-30" transform="translate(606.494141 0)"/>
      <use xlink:href="#DejaVuSans-30" transform="translate(670.117188 0)"/>
     </g>
    </g>
    <g id="line2d_39">
     <path d="M 1027.045625 111.094687 
L 1037.045625 111.094687 
L 1047.045625 111.094687 
" style="fill: none; stroke-dasharray: 7.4,3.2; stroke-dashoffset: 0; stroke: #008000; stroke-width: 2"/>
    </g>
    <g id="text_41">
     <!-- Mean = 2.08 -->
     <g transform="translate(1055.045625 114.594687) scale(0.1 -0.1)">
      <use xlink:href="#DejaVuSans-4d"/>
      <use xlink:href="#DejaVuSans-65" transform="translate(86.279297 0)"/>
      <use xlink:href="#DejaVuSans-61" transform="translate(147.802734 0)"/>
      <use xlink:href="#DejaVuSans-6e" transform="translate(209.082031 0)"/>
      <use xlink:href="#DejaVuSans-20" transform="translate(272.460938 0)"/>
      <use xlink:href="#DejaVuSans-3d" transform="translate(304.248047 0)"/>
      <use xlink:href="#DejaVuSans-20" transform="translate(388.037109 0)"/>
      <use xlink:href="#DejaVuSans-32" transform="translate(419.824219 0)"/>
      <use xlink:href="#DejaVuSans-2e" transform="translate(483.447266 0)"/>
      <use xlink:href="#DejaVuSans-30" transform="translate(515.234375 0)"/>
      <use xlink:href="#DejaVuSans-38" transform="translate(578.857422 0)"/>
     </g>
    </g>
   </g>
  </g>
  <g id="text_42">
   <!-- Toxic Score Distribution by Intervention Type -->
   <g transform="translate(368.774375 19.3575) scale(0.16 -0.16)">
    <defs>
     <path id="DejaVuSans-Bold-44" d="M 1791 3756 
L 1791 909 
L 2222 909 
Q 2959 909 3348 1275 
Q 3738 1641 3738 2338 
Q 3738 3031 3350 3393 
Q 2963 3756 2222 3756 
L 1791 3756 
z
M 588 4666 
L 1856 4666 
Q 2919 4666 3439 4514 
Q 3959 4363 4331 4000 
Q 4659 3684 4818 3271 
Q 4978 2859 4978 2338 
Q 4978 1809 4818 1395 
Q 4659 981 4331 666 
Q 3956 303 3431 151 
Q 2906 0 1856 0 
L 588 0 
L 588 4666 
z
" transform="scale(0.015625)"/>
     <path id="DejaVuSans-Bold-62" d="M 2400 722 
Q 2759 722 2948 984 
Q 3138 1247 3138 1747 
Q 3138 2247 2948 2509 
Q 2759 2772 2400 2772 
Q 2041 2772 1848 2508 
Q 1656 2244 1656 1747 
Q 1656 1250 1848 986 
Q 2041 722 2400 722 
z
M 1656 2988 
Q 1888 3294 2169 3439 
Q 2450 3584 2816 3584 
Q 3463 3584 3878 3070 
Q 4294 2556 4294 1747 
Q 4294 938 3878 423 
Q 3463 -91 2816 -91 
Q 2450 -91 2169 54 
Q 1888 200 1656 506 
L 1656 0 
L 538 0 
L 538 4863 
L 1656 4863 
L 1656 2988 
z
" transform="scale(0.015625)"/>
     <path id="DejaVuSans-Bold-79" d="M 78 3500 
L 1197 3500 
L 2138 1125 
L 2938 3500 
L 4056 3500 
L 2584 -331 
Q 2363 -916 2067 -1148 
Q 1772 -1381 1288 -1381 
L 641 -1381 
L 641 -647 
L 991 -647 
Q 1275 -647 1404 -556 
Q 1534 -466 1606 -231 
L 1638 -134 
L 78 3500 
z
" transform="scale(0.015625)"/>
     <path id="DejaVuSans-Bold-70" d="M 1656 506 
L 1656 -1331 
L 538 -1331 
L 538 3500 
L 1656 3500 
L 1656 2988 
Q 1888 3294 2169 3439 
Q 2450 3584 2816 3584 
Q 3463 3584 3878 3070 
Q 4294 2556 4294 1747 
Q 4294 938 3878 423 
Q 3463 -91 2816 -91 
Q 2450 -91 2169 54 
Q 1888 200 1656 506 
z
M 2400 2772 
Q 2041 2772 1848 2508 
Q 1656 2244 1656 1747 
Q 1656 1250 1848 986 
Q 2041 722 2400 722 
Q 2759 722 2948 984 
Q 3138 1247 3138 1747 
Q 3138 2247 2948 2509 
Q 2759 2772 2400 2772 
z
" transform="scale(0.015625)"/>
    </defs>
    <use xlink:href="#DejaVuSans-Bold-54"/>
    <use xlink:href="#DejaVuSans-Bold-6f" transform="translate(54.962891 0)"/>
    <use xlink:href="#DejaVuSans-Bold-78" transform="translate(123.664062 0)"/>
    <use xlink:href="#DejaVuSans-Bold-69" transform="translate(188.166016 0)"/>
    <use xlink:href="#DejaVuSans-Bold-63" transform="translate(222.443359 0)"/>
    <use xlink:href="#DejaVuSans-Bold-20" transform="translate(281.720703 0)"/>
    <use xlink:href="#DejaVuSans-Bold-53" transform="translate(316.535156 0)"/>
    <use xlink:href="#DejaVuSans-Bold-63" transform="translate(388.556641 0)"/>
    <use xlink:href="#DejaVuSans-Bold-6f" transform="translate(447.833984 0)"/>
    <use xlink:href="#DejaVuSans-Bold-72" transform="translate(516.535156 0)"/>
    <use xlink:href="#DejaVuSans-Bold-65" transform="translate(565.851562 0)"/>
    <use xlink:href="#DejaVuSans-Bold-20" transform="translate(633.673828 0)"/>
    <use xlink:href="#DejaVuSans-Bold-44" transform="translate(668.488281 0)"/>
    <use xlink:href="#DejaVuSans-Bold-69" transform="translate(751.496094 0)"/>
    <use xlink:href="#DejaVuSans-Bold-73" transform="translate(785.773438 0)"/>
    <use xlink:href="#DejaVuSans-Bold-74" transform="translate(845.294922 0)"/>
    <use xlink:href="#DejaVuSans-Bold-72" transform="translate(893.097656 0)"/>
    <use xlink:href="#DejaVuSans-Bold-69" transform="translate(942.414062 0)"/>
    <use xlink:href="#DejaVuSans-Bold-62" transform="translate(976.691406 0)"/>
    <use xlink:href="#DejaVuSans-Bold-75" transform="translate(1048.273438 0)"/>
    <use xlink:href="#DejaVuSans-Bold-74" transform="translate(1119.464844 0)"/>
    <use xlink:href="#DejaVuSans-Bold-69" transform="translate(1167.267578 0)"/>
    <use xlink:href="#DejaVuSans-Bold-6f" transform="translate(1201.544922 0)"/>
    <use xlink:href="#DejaVuSans-Bold-6e" transform="translate(1270.246094 0)"/>
    <use xlink:href="#DejaVuSans-Bold-20" transform="translate(1341.4375 0)"/>
    <use xlink:href="#DejaVuSans-Bold-62" transform="translate(1376.251953 0)"/>
    <use xlink:href="#DejaVuSans-Bold-79" transform="translate(1447.833984 0)"/>
    <use xlink:href="#DejaVuSans-Bold-20" transform="translate(1513.019531 0)"/>
    <use xlink:href="#DejaVuSans-Bold-49" transform="translate(1547.833984 0)"/>
    <use xlink:href="#DejaVuSans-Bold-6e" transform="translate(1585.041016 0)"/>
    <use xlink:href="#DejaVuSans-Bold-74" transform="translate(1656.232422 0)"/>
    <use xlink:href="#DejaVuSans-Bold-65" transform="translate(1704.035156 0)"/>
    <use xlink:href="#DejaVuSans-Bold-72" transform="translate(1771.857422 0)"/>
    <use xlink:href="#DejaVuSans-Bold-76" transform="translate(1821.173828 0)"/>
    <use xlink:href="#DejaVuSans-Bold-65" transform="translate(1886.359375 0)"/>
    <use xlink:href="#DejaVuSans-Bold-6e" transform="translate(1954.181641 0)"/>
    <use xlink:href="#DejaVuSans-Bold-74" transform="translate(2025.373047 0)"/>
    <use xlink:href="#DejaVuSans-Bold-69" transform="translate(2073.175781 0)"/>
    <use xlink:href="#DejaVuSans-Bold-6f" transform="translate(2107.453125 0)"/>
    <use xlink:href="#DejaVuSans-Bold-6e" transform="translate(2176.154297 0)"/>
    <use xlink:href="#DejaVuSans-Bold-20" transform="translate(2247.345703 0)"/>
    <use xlink:href="#DejaVuSans-Bold-54" transform="translate(2282.160156 0)"/>
    <use xlink:href="#DejaVuSans-Bold-79" transform="translate(2338.498047 0)"/>
    <use xlink:href="#DejaVuSans-Bold-70" transform="translate(2403.683594 0)"/>
    <use xlink:href="#DejaVuSans-Bold-65" transform="translate(2475.265625 0)"/>
   </g>
  </g>
 </g>
 <defs>
  <clipPath id="pe8eec009d9">
   <rect x="59.690625" y="68.64" width="507.13" height="337.24"/>
  </clipPath>
  <clipPath id="p2d4353611a">
   <rect x="630.290625" y="68.64" width="507.13" height="337.24"/>
  </clipPath>
 </defs>
</svg>
