<?xml version="1.0" encoding="utf-8" standalone="no"?>
<!DOCTYPE svg PUBLIC "-//W3C//DTD SVG 1.1//EN"
  "http://www.w3.org/Graphics/SVG/1.1/DTD/svg11.dtd">
<svg xmlns:xlink="http://www.w3.org/1999/xlink" width="855.396187pt" height="425.039473pt" viewBox="0 0 855.396187 425.039473" xmlns="http://www.w3.org/2000/svg" version="1.1">
 <metadata>
  <rdf:RDF xmlns:dc="http://purl.org/dc/elements/1.1/" xmlns:cc="http://creativecommons.org/ns#" xmlns:rdf="http://www.w3.org/1999/02/22-rdf-syntax-ns#">
   <cc:Work>
    <dc:type rdf:resource="http://purl.org/dc/dcmitype/StillImage"/>
    <dc:date>2026-03-21T19:51:09.163322</dc:date>
    <dc:format>image/svg+xml</dc:format>
    <dc:creator>
     <cc:Agent>
      <dc:title>Matplotlib v3.10.3, https://matplotlib.org/</dc:title>
     </cc:Agent>
    </dc:creator>
   </cc:Work>
  </rdf:RDF>
 </metadata>
 <defs>
  <style type="text/css">*{stroke-linejoin: round; stroke-linecap: butt}</style>
 </defs>
 <g id="figure_1">
  <g id="patch_1">
   <path d="M 0 425.039473 
L 855.396187 425.039473 
L 855.396187 0 
L 0 0 
z
" style="fill: #ffffff"/>
  </g>
  <g id="axes_1">
   <g id="patch_2">
    <path d="M 47.6525 268.628302 
L 552.1025 268.628302 
L 552.1025 7.2 
L 47.6525 7.2 
z
" style="fill: #ffffff"/>
   </g>
   <g id="patch_3">
    <path d="M 70.582045 268.628302 
L 80.136023 268.628302 
L 80.136023 41.096772 
L 70.582045 41.096772 
z
" clip-path="url(#pc0253a4a64)" style="fill: #72b6a1"/>
   </g>
   <g id="patch_4">
    <path d="M 106.40946 268.628302 
L 115.963437 268.628302 
L 115.963437 51.434056 
L 106.40946 51.434056 
z
" clip-path="url(#pc0253a4a64)" style="fill: #72b6a1"/>
   </g>
   <g id="patch_5">
    <path d="M 142.236875 268.628302 
L 151.790852 268.628302 
L 151.790852 28.792609 
L 142.236875 28.792609 
z
" clip-path="url(#pc0253a4a64)" style="fill: #72b6a1"/>
   </g>
   <g id="patch_6">
    <path d="M 178.06429 268.628302 
L 187.618267 268.628302 
L 187.618267 48.628044 
L 178.06429 48.628044 
z
" clip-path="url(#pc0253a4a64)" style="fill: #72b6a1"/>
   </g>
   <g id="patch_7">
    <path d="M 213.891705 268.628302 
L 223.445682 268.628302 
L 223.445682 53.018558 
L 213.891705 53.018558 
z
" clip-path="url(#pc0253a4a64)" style="fill: #72b6a1"/>
   </g>
   <g id="patch_8">
    <path d="M 249.719119 268.628302 
L 259.273097 268.628302 
L 259.273097 44.407416 
L 249.719119 44.407416 
z
" clip-path="url(#pc0253a4a64)" style="fill: #72b6a1"/>
   </g>
   <g id="patch_9">
    <path d="M 285.546534 268.628302 
L 295.100511 268.628302 
L 295.100511 82.728804 
L 285.546534 82.728804 
z
" clip-path="url(#pc0253a4a64)" style="fill: #72b6a1"/>
   </g>
   <g id="patch_10">
    <path d="M 321.373949 268.628302 
L 330.927926 268.628302 
L 330.927926 42.798 
L 321.373949 42.798 
z
" clip-path="url(#pc0253a4a64)" style="fill: #72b6a1"/>
   </g>
   <g id="patch_11">
    <path d="M 357.201364 268.628302 
L 366.755341 268.628302 
L 366.755341 69.743567 
L 357.201364 69.743567 
z
" clip-path="url(#pc0253a4a64)" style="fill: #72b6a1"/>
   </g>
   <g id="patch_12">
    <path d="M 393.028778 268.628302 
L 402.582756 268.628302 
L 402.582756 56.934137 
L 393.028778 56.934137 
z
" clip-path="url(#pc0253a4a64)" style="fill: #72b6a1"/>
   </g>
   <g id="patch_13">
    <path d="M 428.856193 268.628302 
L 438.41017 268.628302 
L 438.41017 48.172958 
L 428.856193 48.172958 
z
" clip-path="url(#pc0253a4a64)" style="fill: #72b6a1"/>
   </g>
   <g id="patch_14">
    <path d="M 464.683608 268.628302 
L 474.237585 268.628302 
L 474.237585 42.434486 
L 464.683608 42.434486 
z
" clip-path="url(#pc0253a4a64)" style="fill: #72b6a1"/>
   </g>
   <g id="patch_15">
    <path d="M 500.511023 268.628302 
L 510.065 268.628302 
L 510.065 52.567353 
L 500.511023 52.567353 
z
" clip-path="url(#pc0253a4a64)" style="fill: #72b6a1"/>
   </g>
   <g id="patch_16">
    <path d="M 80.136023 268.628302 
L 89.69 268.628302 
L 89.69 29.315626 
L 80.136023 29.315626 
z
" clip-path="url(#pc0253a4a64)" style="fill: #e99675"/>
   </g>
   <g id="patch_17">
    <path d="M 115.963438 268.628302 
L 125.517415 268.628302 
L 125.517415 25.317124 
L 115.963438 25.317124 
z
" clip-path="url(#pc0253a4a64)" style="fill: #e99675"/>
   </g>
   <g id="patch_18">
    <path d="M 151.790852 268.628302 
L 161.34483 268.628302 
L 161.34483 22.433769 
L 151.790852 22.433769 
z
" clip-path="url(#pc0253a4a64)" style="fill: #e99675"/>
   </g>
   <g id="patch_19">
    <path d="M 187.618267 268.628302 
L 197.172244 268.628302 
L 197.172244 24.843334 
L 187.618267 24.843334 
z
" clip-path="url(#pc0253a4a64)" style="fill: #e99675"/>
   </g>
   <g id="patch_20">
    <path d="M 223.445682 268.628302 
L 232.999659 268.628302 
L 232.999659 46.015375 
L 223.445682 46.015375 
z
" clip-path="url(#pc0253a4a64)" style="fill: #e99675"/>
   </g>
   <g id="patch_21">
    <path d="M 259.273097 268.628302 
L 268.827074 268.628302 
L 268.827074 29.795268 
L 259.273097 29.795268 
z
" clip-path="url(#pc0253a4a64)" style="fill: #e99675"/>
   </g>
   <g id="patch_22">
    <path d="M 295.100511 268.628302 
L 304.654489 268.628302 
L 304.654489 47.610572 
L 295.100511 47.610572 
z
" clip-path="url(#pc0253a4a64)" style="fill: #e99675"/>
   </g>
   <g id="patch_23">
    <path d="M 330.927926 268.628302 
L 340.481903 268.628302 
L 340.481903 56.778224 
L 330.927926 56.778224 
z
" clip-path="url(#pc0253a4a64)" style="fill: #e99675"/>
   </g>
   <g id="patch_24">
    <path d="M 366.755341 268.628302 
L 376.309318 268.628302 
L 376.309318 33.196372 
L 366.755341 33.196372 
z
" clip-path="url(#pc0253a4a64)" style="fill: #e99675"/>
   </g>
   <g id="patch_25">
    <path d="M 402.582756 268.628302 
L 412.136733 268.628302 
L 412.136733 46.199075 
L 402.582756 46.199075 
z
" clip-path="url(#pc0253a4a64)" style="fill: #e99675"/>
   </g>
   <g id="patch_26">
    <path d="M 438.41017 268.628302 
L 447.964148 268.628302 
L 447.964148 33.661346 
L 438.41017 33.661346 
z
" clip-path="url(#pc0253a4a64)" style="fill: #e99675"/>
   </g>
   <g id="patch_27">
    <path d="M 474.237585 268.628302 
L 483.791562 268.628302 
L 483.791562 48.995434 
L 474.237585 48.995434 
z
" clip-path="url(#pc0253a4a64)" style="fill: #e99675"/>
   </g>
   <g id="patch_28">
    <path d="M 510.065 268.628302 
L 519.618977 268.628302 
L 519.618977 29.480803 
L 510.065 29.480803 
z
" clip-path="url(#pc0253a4a64)" style="fill: #e99675"/>
   </g>
   <g id="patch_29">
    <path d="M 89.69 268.628302 
L 99.243977 268.628302 
L 99.243977 38.629416 
L 89.69 38.629416 
z
" clip-path="url(#pc0253a4a64)" style="fill: #95a3c3"/>
   </g>
   <g id="patch_30">
    <path d="M 125.517415 268.628302 
L 135.071392 268.628302 
L 135.071392 29.993216 
L 125.517415 29.993216 
z
" clip-path="url(#pc0253a4a64)" style="fill: #95a3c3"/>
   </g>
   <g id="patch_31">
    <path d="M 161.34483 268.628302 
L 170.898807 268.628302 
L 170.898807 19.648967 
L 161.34483 19.648967 
z
" clip-path="url(#pc0253a4a64)" style="fill: #95a3c3"/>
   </g>
   <g id="patch_32">
    <path d="M 197.172244 268.628302 
L 206.726222 268.628302 
L 206.726222 31.134796 
L 197.172244 31.134796 
z
" clip-path="url(#pc0253a4a64)" style="fill: #95a3c3"/>
   </g>
   <g id="patch_33">
    <path d="M 232.999659 268.628302 
L 242.553636 268.628302 
L 242.553636 47.474179 
L 232.999659 47.474179 
z
" clip-path="url(#pc0253a4a64)" style="fill: #95a3c3"/>
   </g>
   <g id="patch_34">
    <path d="M 268.827074 268.628302 
L 278.381051 268.628302 
L 278.381051 58.701498 
L 268.827074 58.701498 
z
" clip-path="url(#pc0253a4a64)" style="fill: #95a3c3"/>
   </g>
   <g id="patch_35">
    <path d="M 304.654489 268.628302 
L 314.208466 268.628302 
L 314.208466 101.471631 
L 304.654489 101.471631 
z
" clip-path="url(#pc0253a4a64)" style="fill: #95a3c3"/>
   </g>
   <g id="patch_36">
    <path d="M 340.481903 268.628302 
L 350.035881 268.628302 
L 350.035881 41.647774 
L 340.481903 41.647774 
z
" clip-path="url(#pc0253a4a64)" style="fill: #95a3c3"/>
   </g>
   <g id="patch_37">
    <path d="M 376.309318 268.628302 
L 385.863295 268.628302 
L 385.863295 34.352339 
L 376.309318 34.352339 
z
" clip-path="url(#pc0253a4a64)" style="fill: #95a3c3"/>
   </g>
   <g id="patch_38">
    <path d="M 412.136733 268.628302 
L 421.69071 268.628302 
L 421.69071 33.61905 
L 412.136733 33.61905 
z
" clip-path="url(#pc0253a4a64)" style="fill: #95a3c3"/>
   </g>
   <g id="patch_39">
    <path d="M 447.964148 268.628302 
L 457.518125 268.628302 
L 457.518125 38.957349 
L 447.964148 38.957349 
z
" clip-path="url(#pc0253a4a64)" style="fill: #95a3c3"/>
   </g>
   <g id="patch_40">
    <path d="M 483.791562 268.628302 
L 493.34554 268.628302 
L 493.34554 36.799922 
L 483.791562 36.799922 
z
" clip-path="url(#pc0253a4a64)" style="fill: #95a3c3"/>
   </g>
   <g id="patch_41">
    <path d="M 519.618977 268.628302 
L 529.172955 268.628302 
L 529.172955 31.160937 
L 519.618977 31.160937 
z
" clip-path="url(#pc0253a4a64)" style="fill: #95a3c3"/>
   </g>
   <g id="patch_42">
    <path d="M 84.913011 268.628302 
L 84.913011 268.628302 
L 84.913011 268.628302 
L 84.913011 268.628302 
z
" clip-path="url(#pc0253a4a64)" style="fill: #72b6a1"/>
   </g>
   <g id="patch_43">
    <path d="M 84.913011 268.628302 
L 84.913011 268.628302 
L 84.913011 268.628302 
L 84.913011 268.628302 
z
" clip-path="url(#pc0253a4a64)" style="fill: #e99675"/>
   </g>
   <g id="patch_44">
    <path d="M 84.913011 268.628302 
L 84.913011 268.628302 
L 84.913011 268.628302 
L 84.913011 268.628302 
z
" clip-path="url(#pc0253a4a64)" style="fill: #95a3c3"/>
   </g>
   <g id="matplotlib.axis_1">
    <g id="xtick_1">
     <g id="line2d_1">
      <defs>
       <path id="m0f08305cbb" d="M 0 0 
L 0 3.5 
" style="stroke: #000000; stroke-width: 0.8"/>
      </defs>
      <g>
       <use xlink:href="#m0f08305cbb" x="84.913011" y="268.628302" style="stroke: #000000; stroke-width: 0.8"/>
      </g>
     </g>
     <g id="text_1">
      <!-- claude-haiku-4-5-20251001 -->
      <g transform="translate(13.932262 399.250254) rotate(-60) scale(0.1 -0.1)">
       <defs>
        <path id="DejaVuSans-63" d="M 3122 3366 
L 3122 2828 
Q 2878 2963 2633 3030 
Q 2388 3097 2138 3097 
Q 1578 3097 1268 2742 
Q 959 2388 959 1747 
Q 959 1106 1268 751 
Q 1578 397 2138 397 
Q 2388 397 2633 464 
Q 2878 531 3122 666 
L 3122 134 
Q 2881 22 2623 -34 
Q 2366 -91 2075 -91 
Q 1284 -91 818 406 
Q 353 903 353 1747 
Q 353 2603 823 3093 
Q 1294 3584 2113 3584 
Q 2378 3584 2631 3529 
Q 2884 3475 3122 3366 
z
" transform="scale(0.015625)"/>
        <path id="DejaVuSans-6c" d="M 603 4863 
L 1178 4863 
L 1178 0 
L 603 0 
L 603 4863 
z
" transform="scale(0.015625)"/>
        <path id="DejaVuSans-61" d="M 2194 1759 
Q 1497 1759 1228 1600 
Q 959 1441 959 1056 
Q 959 750 1161 570 
Q 1363 391 1709 391 
Q 2188 391 2477 730 
Q 2766 1069 2766 1631 
L 2766 1759 
L 2194 1759 
z
M 3341 1997 
L 3341 0 
L 2766 0 
L 2766 531 
Q 2569 213 2275 61 
Q 1981 -91 1556 -91 
Q 1019 -91 701 211 
Q 384 513 384 1019 
Q 384 1609 779 1909 
Q 1175 2209 1959 2209 
L 2766 2209 
L 2766 2266 
Q 2766 2663 2505 2880 
Q 2244 3097 1772 3097 
Q 1472 3097 1187 3025 
Q 903 2953 641 2809 
L 641 3341 
Q 956 3463 1253 3523 
Q 1550 3584 1831 3584 
Q 2591 3584 2966 3190 
Q 3341 2797 3341 1997 
z
" transform="scale(0.015625)"/>
        <path id="DejaVuSans-75" d="M 544 1381 
L 544 3500 
L 1119 3500 
L 1119 1403 
Q 1119 906 1312 657 
Q 1506 409 1894 409 
Q 2359 409 2629 706 
Q 2900 1003 2900 1516 
L 2900 3500 
L 3475 3500 
L 3475 0 
L 2900 0 
L 2900 538 
Q 2691 219 2414 64 
Q 2138 -91 1772 -91 
Q 1169 -91 856 284 
Q 544 659 544 1381 
z
M 1991 3584 
L 1991 3584 
z
" transform="scale(0.015625)"/>
        <path id="DejaVuSans-64" d="M 2906 2969 
L 2906 4863 
L 3481 4863 
L 3481 0 
L 2906 0 
L 2906 525 
Q 2725 213 2448 61 
Q 2172 -91 1784 -91 
Q 1150 -91 751 415 
Q 353 922 353 1747 
Q 353 2572 751 3078 
Q 1150 3584 1784 3584 
Q 2172 3584 2448 3432 
Q 2725 3281 2906 2969 
z
M 947 1747 
Q 947 1113 1208 752 
Q 1469 391 1925 391 
Q 2381 391 2643 752 
Q 2906 1113 2906 1747 
Q 2906 2381 2643 2742 
Q 2381 3103 1925 3103 
Q 1469 3103 1208 2742 
Q 947 2381 947 1747 
z
" transform="scale(0.015625)"/>
        <path id="DejaVuSans-65" d="M 3597 1894 
L 3597 1613 
L 953 1613 
Q 991 1019 1311 708 
Q 1631 397 2203 397 
Q 2534 397 2845 478 
Q 3156 559 3463 722 
L 3463 178 
Q 3153 47 2828 -22 
Q 2503 -91 2169 -91 
Q 1331 -91 842 396 
Q 353 884 353 1716 
Q 353 2575 817 3079 
Q 1281 3584 2069 3584 
Q 2775 3584 3186 3129 
Q 3597 2675 3597 1894 
z
M 3022 2063 
Q 3016 2534 2758 2815 
Q 2500 3097 2075 3097 
Q 1594 3097 1305 2825 
Q 1016 2553 972 2059 
L 3022 2063 
z
" transform="scale(0.015625)"/>
        <path id="DejaVuSans-2d" d="M 313 2009 
L 1997 2009 
L 1997 1497 
L 313 1497 
L 313 2009 
z
" transform="scale(0.015625)"/>
        <path id="DejaVuSans-68" d="M 3513 2113 
L 3513 0 
L 2938 0 
L 2938 2094 
Q 2938 2591 2744 2837 
Q 2550 3084 2163 3084 
Q 1697 3084 1428 2787 
Q 1159 2491 1159 1978 
L 1159 0 
L 581 0 
L 581 4863 
L 1159 4863 
L 1159 2956 
Q 1366 3272 1645 3428 
Q 1925 3584 2291 3584 
Q 2894 3584 3203 3211 
Q 3513 2838 3513 2113 
z
" transform="scale(0.015625)"/>
        <path id="DejaVuSans-69" d="M 603 3500 
L 1178 3500 
L 1178 0 
L 603 0 
L 603 3500 
z
M 603 4863 
L 1178 4863 
L 1178 4134 
L 603 4134 
L 603 4863 
z
" transform="scale(0.015625)"/>
        <path id="DejaVuSans-6b" d="M 581 4863 
L 1159 4863 
L 1159 1991 
L 2875 3500 
L 3609 3500 
L 1753 1863 
L 3688 0 
L 2938 0 
L 1159 1709 
L 1159 0 
L 581 0 
L 581 4863 
z
" transform="scale(0.015625)"/>
        <path id="DejaVuSans-34" d="M 2419 4116 
L 825 1625 
L 2419 1625 
L 2419 4116 
z
M 2253 4666 
L 3047 4666 
L 3047 1625 
L 3713 1625 
L 3713 1100 
L 3047 1100 
L 3047 0 
L 2419 0 
L 2419 1100 
L 313 1100 
L 313 1709 
L 2253 4666 
z
" transform="scale(0.015625)"/>
        <path id="DejaVuSans-35" d="M 691 4666 
L 3169 4666 
L 3169 4134 
L 1269 4134 
L 1269 2991 
Q 1406 3038 1543 3061 
Q 1681 3084 1819 3084 
Q 2600 3084 3056 2656 
Q 3513 2228 3513 1497 
Q 3513 744 3044 326 
Q 2575 -91 1722 -91 
Q 1428 -91 1123 -41 
Q 819 9 494 109 
L 494 744 
Q 775 591 1075 516 
Q 1375 441 1709 441 
Q 2250 441 2565 725 
Q 2881 1009 2881 1497 
Q 2881 1984 2565 2268 
Q 2250 2553 1709 2553 
Q 1456 2553 1204 2497 
Q 953 2441 691 2322 
L 691 4666 
z
" transform="scale(0.015625)"/>
        <path id="DejaVuSans-32" d="M 1228 531 
L 3431 531 
L 3431 0 
L 469 0 
L 469 531 
Q 828 903 1448 1529 
Q 2069 2156 2228 2338 
Q 2531 2678 2651 2914 
Q 2772 3150 2772 3378 
Q 2772 3750 2511 3984 
Q 2250 4219 1831 4219 
Q 1534 4219 1204 4116 
Q 875 4013 500 3803 
L 500 4441 
Q 881 4594 1212 4672 
Q 1544 4750 1819 4750 
Q 2544 4750 2975 4387 
Q 3406 4025 3406 3419 
Q 3406 3131 3298 2873 
Q 3191 2616 2906 2266 
Q 2828 2175 2409 1742 
Q 1991 1309 1228 531 
z
" transform="scale(0.015625)"/>
        <path id="DejaVuSans-30" d="M 2034 4250 
Q 1547 4250 1301 3770 
Q 1056 3291 1056 2328 
Q 1056 1369 1301 889 
Q 1547 409 2034 409 
Q 2525 409 2770 889 
Q 3016 1369 3016 2328 
Q 3016 3291 2770 3770 
Q 2525 4250 2034 4250 
z
M 2034 4750 
Q 2819 4750 3233 4129 
Q 3647 3509 3647 2328 
Q 3647 1150 3233 529 
Q 2819 -91 2034 -91 
Q 1250 -91 836 529 
Q 422 1150 422 2328 
Q 422 3509 836 4129 
Q 1250 4750 2034 4750 
z
" transform="scale(0.015625)"/>
        <path id="DejaVuSans-31" d="M 794 531 
L 1825 531 
L 1825 4091 
L 703 3866 
L 703 4441 
L 1819 4666 
L 2450 4666 
L 2450 531 
L 3481 531 
L 3481 0 
L 794 0 
L 794 531 
z
" transform="scale(0.015625)"/>
       </defs>
       <use xlink:href="#DejaVuSans-63"/>
       <use xlink:href="#DejaVuSans-6c" transform="translate(54.980469 0)"/>
       <use xlink:href="#DejaVuSans-61" transform="translate(82.763672 0)"/>
       <use xlink:href="#DejaVuSans-75" transform="translate(144.042969 0)"/>
       <use xlink:href="#DejaVuSans-64" transform="translate(207.421875 0)"/>
       <use xlink:href="#DejaVuSans-65" transform="translate(270.898438 0)"/>
       <use xlink:href="#DejaVuSans-2d" transform="translate(332.421875 0)"/>
       <use xlink:href="#DejaVuSans-68" transform="translate(368.505859 0)"/>
       <use xlink:href="#DejaVuSans-61" transform="translate(431.884766 0)"/>
       <use xlink:href="#DejaVuSans-69" transform="translate(493.164062 0)"/>
       <use xlink:href="#DejaVuSans-6b" transform="translate(520.947266 0)"/>
       <use xlink:href="#DejaVuSans-75" transform="translate(575.732422 0)"/>
       <use xlink:href="#DejaVuSans-2d" transform="translate(639.111328 0)"/>
       <use xlink:href="#DejaVuSans-34" transform="translate(675.195312 0)"/>
       <use xlink:href="#DejaVuSans-2d" transform="translate(738.818359 0)"/>
       <use xlink:href="#DejaVuSans-35" transform="translate(774.902344 0)"/>
       <use xlink:href="#DejaVuSans-2d" transform="translate(838.525391 0)"/>
       <use xlink:href="#DejaVuSans-32" transform="translate(874.609375 0)"/>
       <use xlink:href="#DejaVuSans-30" transform="translate(938.232422 0)"/>
       <use xlink:href="#DejaVuSans-32" transform="translate(1001.855469 0)"/>
       <use xlink:href="#DejaVuSans-35" transform="translate(1065.478516 0)"/>
       <use xlink:href="#DejaVuSans-31" transform="translate(1129.101562 0)"/>
       <use xlink:href="#DejaVuSans-30" transform="translate(1192.724609 0)"/>
       <use xlink:href="#DejaVuSans-30" transform="translate(1256.347656 0)"/>
       <use xlink:href="#DejaVuSans-31" transform="translate(1319.970703 0)"/>
      </g>
     </g>
    </g>
    <g id="xtick_2">
     <g id="line2d_2">
      <g>
       <use xlink:href="#m0f08305cbb" x="120.740426" y="268.628302" style="stroke: #000000; stroke-width: 0.8"/>
      </g>
     </g>
     <g id="text_2">
      <!-- gemini-2.0-flash -->
      <g transform="translate(78.325301 349.77314) rotate(-60) scale(0.1 -0.1)">
       <defs>
        <path id="DejaVuSans-67" d="M 2906 1791 
Q 2906 2416 2648 2759 
Q 2391 3103 1925 3103 
Q 1463 3103 1205 2759 
Q 947 2416 947 1791 
Q 947 1169 1205 825 
Q 1463 481 1925 481 
Q 2391 481 2648 825 
Q 2906 1169 2906 1791 
z
M 3481 434 
Q 3481 -459 3084 -895 
Q 2688 -1331 1869 -1331 
Q 1566 -1331 1297 -1286 
Q 1028 -1241 775 -1147 
L 775 -588 
Q 1028 -725 1275 -790 
Q 1522 -856 1778 -856 
Q 2344 -856 2625 -561 
Q 2906 -266 2906 331 
L 2906 616 
Q 2728 306 2450 153 
Q 2172 0 1784 0 
Q 1141 0 747 490 
Q 353 981 353 1791 
Q 353 2603 747 3093 
Q 1141 3584 1784 3584 
Q 2172 3584 2450 3431 
Q 2728 3278 2906 2969 
L 2906 3500 
L 3481 3500 
L 3481 434 
z
" transform="scale(0.015625)"/>
        <path id="DejaVuSans-6d" d="M 3328 2828 
Q 3544 3216 3844 3400 
Q 4144 3584 4550 3584 
Q 5097 3584 5394 3201 
Q 5691 2819 5691 2113 
L 5691 0 
L 5113 0 
L 5113 2094 
Q 5113 2597 4934 2840 
Q 4756 3084 4391 3084 
Q 3944 3084 3684 2787 
Q 3425 2491 3425 1978 
L 3425 0 
L 2847 0 
L 2847 2094 
Q 2847 2600 2669 2842 
Q 2491 3084 2119 3084 
Q 1678 3084 1418 2786 
Q 1159 2488 1159 1978 
L 1159 0 
L 581 0 
L 581 3500 
L 1159 3500 
L 1159 2956 
Q 1356 3278 1631 3431 
Q 1906 3584 2284 3584 
Q 2666 3584 2933 3390 
Q 3200 3197 3328 2828 
z
" transform="scale(0.015625)"/>
        <path id="DejaVuSans-6e" d="M 3513 2113 
L 3513 0 
L 2938 0 
L 2938 2094 
Q 2938 2591 2744 2837 
Q 2550 3084 2163 3084 
Q 1697 3084 1428 2787 
Q 1159 2491 1159 1978 
L 1159 0 
L 581 0 
L 581 3500 
L 1159 3500 
L 1159 2956 
Q 1366 3272 1645 3428 
Q 1925 3584 2291 3584 
Q 2894 3584 3203 3211 
Q 3513 2838 3513 2113 
z
" transform="scale(0.015625)"/>
        <path id="DejaVuSans-2e" d="M 684 794 
L 1344 794 
L 1344 0 
L 684 0 
L 684 794 
z
" transform="scale(0.015625)"/>
        <path id="DejaVuSans-66" d="M 2375 4863 
L 2375 4384 
L 1825 4384 
Q 1516 4384 1395 4259 
Q 1275 4134 1275 3809 
L 1275 3500 
L 2222 3500 
L 2222 3053 
L 1275 3053 
L 1275 0 
L 697 0 
L 697 3053 
L 147 3053 
L 147 3500 
L 697 3500 
L 697 3744 
Q 697 4328 969 4595 
Q 1241 4863 1831 4863 
L 2375 4863 
z
" transform="scale(0.015625)"/>
        <path id="DejaVuSans-73" d="M 2834 3397 
L 2834 2853 
Q 2591 2978 2328 3040 
Q 2066 3103 1784 3103 
Q 1356 3103 1142 2972 
Q 928 2841 928 2578 
Q 928 2378 1081 2264 
Q 1234 2150 1697 2047 
L 1894 2003 
Q 2506 1872 2764 1633 
Q 3022 1394 3022 966 
Q 3022 478 2636 193 
Q 2250 -91 1575 -91 
Q 1294 -91 989 -36 
Q 684 19 347 128 
L 347 722 
Q 666 556 975 473 
Q 1284 391 1588 391 
Q 1994 391 2212 530 
Q 2431 669 2431 922 
Q 2431 1156 2273 1281 
Q 2116 1406 1581 1522 
L 1381 1569 
Q 847 1681 609 1914 
Q 372 2147 372 2553 
Q 372 3047 722 3315 
Q 1072 3584 1716 3584 
Q 2034 3584 2315 3537 
Q 2597 3491 2834 3397 
z
" transform="scale(0.015625)"/>
       </defs>
       <use xlink:href="#DejaVuSans-67"/>
       <use xlink:href="#DejaVuSans-65" transform="translate(63.476562 0)"/>
       <use xlink:href="#DejaVuSans-6d" transform="translate(125 0)"/>
       <use xlink:href="#DejaVuSans-69" transform="translate(222.412109 0)"/>
       <use xlink:href="#DejaVuSans-6e" transform="translate(250.195312 0)"/>
       <use xlink:href="#DejaVuSans-69" transform="translate(313.574219 0)"/>
       <use xlink:href="#DejaVuSans-2d" transform="translate(341.357422 0)"/>
       <use xlink:href="#DejaVuSans-32" transform="translate(377.441406 0)"/>
       <use xlink:href="#DejaVuSans-2e" transform="translate(441.064453 0)"/>
       <use xlink:href="#DejaVuSans-30" transform="translate(472.851562 0)"/>
       <use xlink:href="#DejaVuSans-2d" transform="translate(536.474609 0)"/>
       <use xlink:href="#DejaVuSans-66" transform="translate(572.558594 0)"/>
       <use xlink:href="#DejaVuSans-6c" transform="translate(607.763672 0)"/>
       <use xlink:href="#DejaVuSans-61" transform="translate(635.546875 0)"/>
       <use xlink:href="#DejaVuSans-73" transform="translate(696.826172 0)"/>
       <use xlink:href="#DejaVuSans-68" transform="translate(748.925781 0)"/>
      </g>
     </g>
    </g>
    <g id="xtick_3">
     <g id="line2d_3">
      <g>
       <use xlink:href="#m0f08305cbb" x="156.567841" y="268.628302" style="stroke: #000000; stroke-width: 0.8"/>
      </g>
     </g>
     <g id="text_3">
      <!-- gemini-2.5-flash -->
      <g transform="translate(114.152716 349.77314) rotate(-60) scale(0.1 -0.1)">
       <use xlink:href="#DejaVuSans-67"/>
       <use xlink:href="#DejaVuSans-65" transform="translate(63.476562 0)"/>
       <use xlink:href="#DejaVuSans-6d" transform="translate(125 0)"/>
       <use xlink:href="#DejaVuSans-69" transform="translate(222.412109 0)"/>
       <use xlink:href="#DejaVuSans-6e" transform="translate(250.195312 0)"/>
       <use xlink:href="#DejaVuSans-69" transform="translate(313.574219 0)"/>
       <use xlink:href="#DejaVuSans-2d" transform="translate(341.357422 0)"/>
       <use xlink:href="#DejaVuSans-32" transform="translate(377.441406 0)"/>
       <use xlink:href="#DejaVuSans-2e" transform="translate(441.064453 0)"/>
       <use xlink:href="#DejaVuSans-35" transform="translate(472.851562 0)"/>
       <use xlink:href="#DejaVuSans-2d" transform="translate(536.474609 0)"/>
       <use xlink:href="#DejaVuSans-66" transform="translate(572.558594 0)"/>
       <use xlink:href="#DejaVuSans-6c" transform="translate(607.763672 0)"/>
       <use xlink:href="#DejaVuSans-61" transform="translate(635.546875 0)"/>
       <use xlink:href="#DejaVuSans-73" transform="translate(696.826172 0)"/>
       <use xlink:href="#DejaVuSans-68" transform="translate(748.925781 0)"/>
      </g>
     </g>
    </g>
    <g id="xtick_4">
     <g id="line2d_4">
      <g>
       <use xlink:href="#m0f08305cbb" x="192.395256" y="268.628302" style="stroke: #000000; stroke-width: 0.8"/>
      </g>
     </g>
     <g id="text_4">
      <!-- gemini-2.5-flash-lite -->
      <g transform="translate(140.361381 366.433304) rotate(-60) scale(0.1 -0.1)">
       <defs>
        <path id="DejaVuSans-74" d="M 1172 4494 
L 1172 3500 
L 2356 3500 
L 2356 3053 
L 1172 3053 
L 1172 1153 
Q 1172 725 1289 603 
Q 1406 481 1766 481 
L 2356 481 
L 2356 0 
L 1766 0 
Q 1100 0 847 248 
Q 594 497 594 1153 
L 594 3053 
L 172 3053 
L 172 3500 
L 594 3500 
L 594 4494 
L 1172 4494 
z
" transform="scale(0.015625)"/>
       </defs>
       <use xlink:href="#DejaVuSans-67"/>
       <use xlink:href="#DejaVuSans-65" transform="translate(63.476562 0)"/>
       <use xlink:href="#DejaVuSans-6d" transform="translate(125 0)"/>
       <use xlink:href="#DejaVuSans-69" transform="translate(222.412109 0)"/>
       <use xlink:href="#DejaVuSans-6e" transform="translate(250.195312 0)"/>
       <use xlink:href="#DejaVuSans-69" transform="translate(313.574219 0)"/>
       <use xlink:href="#DejaVuSans-2d" transform="translate(341.357422 0)"/>
       <use xlink:href="#DejaVuSans-32" transform="translate(377.441406 0)"/>
       <use xlink:href="#DejaVuSans-2e" transform="translate(441.064453 0)"/>
       <use xlink:href="#DejaVuSans-35" transform="translate(472.851562 0)"/>
       <use xlink:href="#DejaVuSans-2d" transform="translate(536.474609 0)"/>
       <use xlink:href="#DejaVuSans-66" transform="translate(572.558594 0)"/>
       <use xlink:href="#DejaVuSans-6c" transform="translate(607.763672 0)"/>
       <use xlink:href="#DejaVuSans-61" transform="translate(635.546875 0)"/>
       <use xlink:href="#DejaVuSans-73" transform="translate(696.826172 0)"/>
       <use xlink:href="#DejaVuSans-68" transform="translate(748.925781 0)"/>
       <use xlink:href="#DejaVuSans-2d" transform="translate(812.304688 0)"/>
       <use xlink:href="#DejaVuSans-6c" transform="translate(848.388672 0)"/>
       <use xlink:href="#DejaVuSans-69" transform="translate(876.171875 0)"/>
       <use xlink:href="#DejaVuSans-74" transform="translate(903.955078 0)"/>
       <use xlink:href="#DejaVuSans-65" transform="translate(943.164062 0)"/>
      </g>
     </g>
    </g>
    <g id="xtick_5">
     <g id="line2d_5">
      <g>
       <use xlink:href="#m0f08305cbb" x="228.22267" y="268.628302" style="stroke: #000000; stroke-width: 0.8"/>
      </g>
     </g>
     <g id="text_5">
      <!-- gpt-3.5-turbo-0125 -->
      <g transform="translate(178.513014 362.407639) rotate(-60) scale(0.1 -0.1)">
       <defs>
        <path id="DejaVuSans-70" d="M 1159 525 
L 1159 -1331 
L 581 -1331 
L 581 3500 
L 1159 3500 
L 1159 2969 
Q 1341 3281 1617 3432 
Q 1894 3584 2278 3584 
Q 2916 3584 3314 3078 
Q 3713 2572 3713 1747 
Q 3713 922 3314 415 
Q 2916 -91 2278 -91 
Q 1894 -91 1617 61 
Q 1341 213 1159 525 
z
M 3116 1747 
Q 3116 2381 2855 2742 
Q 2594 3103 2138 3103 
Q 1681 3103 1420 2742 
Q 1159 2381 1159 1747 
Q 1159 1113 1420 752 
Q 1681 391 2138 391 
Q 2594 391 2855 752 
Q 3116 1113 3116 1747 
z
" transform="scale(0.015625)"/>
        <path id="DejaVuSans-33" d="M 2597 2516 
Q 3050 2419 3304 2112 
Q 3559 1806 3559 1356 
Q 3559 666 3084 287 
Q 2609 -91 1734 -91 
Q 1441 -91 1130 -33 
Q 819 25 488 141 
L 488 750 
Q 750 597 1062 519 
Q 1375 441 1716 441 
Q 2309 441 2620 675 
Q 2931 909 2931 1356 
Q 2931 1769 2642 2001 
Q 2353 2234 1838 2234 
L 1294 2234 
L 1294 2753 
L 1863 2753 
Q 2328 2753 2575 2939 
Q 2822 3125 2822 3475 
Q 2822 3834 2567 4026 
Q 2313 4219 1838 4219 
Q 1578 4219 1281 4162 
Q 984 4106 628 3988 
L 628 4550 
Q 988 4650 1302 4700 
Q 1616 4750 1894 4750 
Q 2613 4750 3031 4423 
Q 3450 4097 3450 3541 
Q 3450 3153 3228 2886 
Q 3006 2619 2597 2516 
z
" transform="scale(0.015625)"/>
        <path id="DejaVuSans-72" d="M 2631 2963 
Q 2534 3019 2420 3045 
Q 2306 3072 2169 3072 
Q 1681 3072 1420 2755 
Q 1159 2438 1159 1844 
L 1159 0 
L 581 0 
L 581 3500 
L 1159 3500 
L 1159 2956 
Q 1341 3275 1631 3429 
Q 1922 3584 2338 3584 
Q 2397 3584 2469 3576 
Q 2541 3569 2628 3553 
L 2631 2963 
z
" transform="scale(0.015625)"/>
        <path id="DejaVuSans-62" d="M 3116 1747 
Q 3116 2381 2855 2742 
Q 2594 3103 2138 3103 
Q 1681 3103 1420 2742 
Q 1159 2381 1159 1747 
Q 1159 1113 1420 752 
Q 1681 391 2138 391 
Q 2594 391 2855 752 
Q 3116 1113 3116 1747 
z
M 1159 2969 
Q 1341 3281 1617 3432 
Q 1894 3584 2278 3584 
Q 2916 3584 3314 3078 
Q 3713 2572 3713 1747 
Q 3713 922 3314 415 
Q 2916 -91 2278 -91 
Q 1894 -91 1617 61 
Q 1341 213 1159 525 
L 1159 0 
L 581 0 
L 581 4863 
L 1159 4863 
L 1159 2969 
z
" transform="scale(0.015625)"/>
        <path id="DejaVuSans-6f" d="M 1959 3097 
Q 1497 3097 1228 2736 
Q 959 2375 959 1747 
Q 959 1119 1226 758 
Q 1494 397 1959 397 
Q 2419 397 2687 759 
Q 2956 1122 2956 1747 
Q 2956 2369 2687 2733 
Q 2419 3097 1959 3097 
z
M 1959 3584 
Q 2709 3584 3137 3096 
Q 3566 2609 3566 1747 
Q 3566 888 3137 398 
Q 2709 -91 1959 -91 
Q 1206 -91 779 398 
Q 353 888 353 1747 
Q 353 2609 779 3096 
Q 1206 3584 1959 3584 
z
" transform="scale(0.015625)"/>
       </defs>
       <use xlink:href="#DejaVuSans-67"/>
       <use xlink:href="#DejaVuSans-70" transform="translate(63.476562 0)"/>
       <use xlink:href="#DejaVuSans-74" transform="translate(126.953125 0)"/>
       <use xlink:href="#DejaVuSans-2d" transform="translate(166.162109 0)"/>
       <use xlink:href="#DejaVuSans-33" transform="translate(202.246094 0)"/>
       <use xlink:href="#DejaVuSans-2e" transform="translate(265.869141 0)"/>
       <use xlink:href="#DejaVuSans-35" transform="translate(297.65625 0)"/>
       <use xlink:href="#DejaVuSans-2d" transform="translate(361.279297 0)"/>
       <use xlink:href="#DejaVuSans-74" transform="translate(397.363281 0)"/>
       <use xlink:href="#DejaVuSans-75" transform="translate(436.572266 0)"/>
       <use xlink:href="#DejaVuSans-72" transform="translate(499.951172 0)"/>
       <use xlink:href="#DejaVuSans-62" transform="translate(541.064453 0)"/>
       <use xlink:href="#DejaVuSans-6f" transform="translate(604.541016 0)"/>
       <use xlink:href="#DejaVuSans-2d" transform="translate(667.597656 0)"/>
       <use xlink:href="#DejaVuSans-30" transform="translate(703.681641 0)"/>
       <use xlink:href="#DejaVuSans-31" transform="translate(767.304688 0)"/>
       <use xlink:href="#DejaVuSans-32" transform="translate(830.927734 0)"/>
       <use xlink:href="#DejaVuSans-35" transform="translate(894.550781 0)"/>
      </g>
     </g>
    </g>
    <g id="xtick_6">
     <g id="line2d_6">
      <g>
       <use xlink:href="#m0f08305cbb" x="264.050085" y="268.628302" style="stroke: #000000; stroke-width: 0.8"/>
      </g>
     </g>
     <g id="text_6">
      <!-- gpt-4.1-2025-04-14 -->
      <g transform="translate(213.323242 364.16946) rotate(-60) scale(0.1 -0.1)">
       <use xlink:href="#DejaVuSans-67"/>
       <use xlink:href="#DejaVuSans-70" transform="translate(63.476562 0)"/>
       <use xlink:href="#DejaVuSans-74" transform="translate(126.953125 0)"/>
       <use xlink:href="#DejaVuSans-2d" transform="translate(166.162109 0)"/>
       <use xlink:href="#DejaVuSans-34" transform="translate(202.246094 0)"/>
       <use xlink:href="#DejaVuSans-2e" transform="translate(265.869141 0)"/>
       <use xlink:href="#DejaVuSans-31" transform="translate(297.65625 0)"/>
       <use xlink:href="#DejaVuSans-2d" transform="translate(361.279297 0)"/>
       <use xlink:href="#DejaVuSans-32" transform="translate(397.363281 0)"/>
       <use xlink:href="#DejaVuSans-30" transform="translate(460.986328 0)"/>
       <use xlink:href="#DejaVuSans-32" transform="translate(524.609375 0)"/>
       <use xlink:href="#DejaVuSans-35" transform="translate(588.232422 0)"/>
       <use xlink:href="#DejaVuSans-2d" transform="translate(651.855469 0)"/>
       <use xlink:href="#DejaVuSans-30" transform="translate(687.939453 0)"/>
       <use xlink:href="#DejaVuSans-34" transform="translate(751.5625 0)"/>
       <use xlink:href="#DejaVuSans-2d" transform="translate(815.185547 0)"/>
       <use xlink:href="#DejaVuSans-31" transform="translate(851.269531 0)"/>
       <use xlink:href="#DejaVuSans-34" transform="translate(914.892578 0)"/>
      </g>
     </g>
    </g>
    <g id="xtick_7">
     <g id="line2d_7">
      <g>
       <use xlink:href="#m0f08305cbb" x="299.8775" y="268.628302" style="stroke: #000000; stroke-width: 0.8"/>
      </g>
     </g>
     <g id="text_7">
      <!-- gpt-4.1-mini-2025-04-14 -->
      <g transform="translate(236.529563 386.029835) rotate(-60) scale(0.1 -0.1)">
       <use xlink:href="#DejaVuSans-67"/>
       <use xlink:href="#DejaVuSans-70" transform="translate(63.476562 0)"/>
       <use xlink:href="#DejaVuSans-74" transform="translate(126.953125 0)"/>
       <use xlink:href="#DejaVuSans-2d" transform="translate(166.162109 0)"/>
       <use xlink:href="#DejaVuSans-34" transform="translate(202.246094 0)"/>
       <use xlink:href="#DejaVuSans-2e" transform="translate(265.869141 0)"/>
       <use xlink:href="#DejaVuSans-31" transform="translate(297.65625 0)"/>
       <use xlink:href="#DejaVuSans-2d" transform="translate(361.279297 0)"/>
       <use xlink:href="#DejaVuSans-6d" transform="translate(397.363281 0)"/>
       <use xlink:href="#DejaVuSans-69" transform="translate(494.775391 0)"/>
       <use xlink:href="#DejaVuSans-6e" transform="translate(522.558594 0)"/>
       <use xlink:href="#DejaVuSans-69" transform="translate(585.9375 0)"/>
       <use xlink:href="#DejaVuSans-2d" transform="translate(613.720703 0)"/>
       <use xlink:href="#DejaVuSans-32" transform="translate(649.804688 0)"/>
       <use xlink:href="#DejaVuSans-30" transform="translate(713.427734 0)"/>
       <use xlink:href="#DejaVuSans-32" transform="translate(777.050781 0)"/>
       <use xlink:href="#DejaVuSans-35" transform="translate(840.673828 0)"/>
       <use xlink:href="#DejaVuSans-2d" transform="translate(904.296875 0)"/>
       <use xlink:href="#DejaVuSans-30" transform="translate(940.380859 0)"/>
       <use xlink:href="#DejaVuSans-34" transform="translate(1004.003906 0)"/>
       <use xlink:href="#DejaVuSans-2d" transform="translate(1067.626953 0)"/>
       <use xlink:href="#DejaVuSans-31" transform="translate(1103.710938 0)"/>
       <use xlink:href="#DejaVuSans-34" transform="translate(1167.333984 0)"/>
      </g>
     </g>
    </g>
    <g id="xtick_8">
     <g id="line2d_8">
      <g>
       <use xlink:href="#m0f08305cbb" x="335.704915" y="268.628302" style="stroke: #000000; stroke-width: 0.8"/>
      </g>
     </g>
     <g id="text_8">
      <!-- gpt-4.1-nano-2025-04-14 -->
      <g transform="translate(270.619478 389.039273) rotate(-60) scale(0.1 -0.1)">
       <use xlink:href="#DejaVuSans-67"/>
       <use xlink:href="#DejaVuSans-70" transform="translate(63.476562 0)"/>
       <use xlink:href="#DejaVuSans-74" transform="translate(126.953125 0)"/>
       <use xlink:href="#DejaVuSans-2d" transform="translate(166.162109 0)"/>
       <use xlink:href="#DejaVuSans-34" transform="translate(202.246094 0)"/>
       <use xlink:href="#DejaVuSans-2e" transform="translate(265.869141 0)"/>
       <use xlink:href="#DejaVuSans-31" transform="translate(297.65625 0)"/>
       <use xlink:href="#DejaVuSans-2d" transform="translate(361.279297 0)"/>
       <use xlink:href="#DejaVuSans-6e" transform="translate(397.363281 0)"/>
       <use xlink:href="#DejaVuSans-61" transform="translate(460.742188 0)"/>
       <use xlink:href="#DejaVuSans-6e" transform="translate(522.021484 0)"/>
       <use xlink:href="#DejaVuSans-6f" transform="translate(585.400391 0)"/>
       <use xlink:href="#DejaVuSans-2d" transform="translate(648.457031 0)"/>
       <use xlink:href="#DejaVuSans-32" transform="translate(684.541016 0)"/>
       <use xlink:href="#DejaVuSans-30" transform="translate(748.164062 0)"/>
       <use xlink:href="#DejaVuSans-32" transform="translate(811.787109 0)"/>
       <use xlink:href="#DejaVuSans-35" transform="translate(875.410156 0)"/>
       <use xlink:href="#DejaVuSans-2d" transform="translate(939.033203 0)"/>
       <use xlink:href="#DejaVuSans-30" transform="translate(975.117188 0)"/>
       <use xlink:href="#DejaVuSans-34" transform="translate(1038.740234 0)"/>
       <use xlink:href="#DejaVuSans-2d" transform="translate(1102.363281 0)"/>
       <use xlink:href="#DejaVuSans-31" transform="translate(1138.447266 0)"/>
       <use xlink:href="#DejaVuSans-34" transform="translate(1202.070312 0)"/>
      </g>
     </g>
    </g>
    <g id="xtick_9">
     <g id="line2d_9">
      <g>
       <use xlink:href="#m0f08305cbb" x="371.53233" y="268.628302" style="stroke: #000000; stroke-width: 0.8"/>
      </g>
     </g>
     <g id="text_9">
      <!-- gpt-4o-mini-2024-07-18 -->
      <g transform="translate(309.80158 383.228784) rotate(-60) scale(0.1 -0.1)">
       <defs>
        <path id="DejaVuSans-37" d="M 525 4666 
L 3525 4666 
L 3525 4397 
L 1831 0 
L 1172 0 
L 2766 4134 
L 525 4134 
L 525 4666 
z
" transform="scale(0.015625)"/>
        <path id="DejaVuSans-38" d="M 2034 2216 
Q 1584 2216 1326 1975 
Q 1069 1734 1069 1313 
Q 1069 891 1326 650 
Q 1584 409 2034 409 
Q 2484 409 2743 651 
Q 3003 894 3003 1313 
Q 3003 1734 2745 1975 
Q 2488 2216 2034 2216 
z
M 1403 2484 
Q 997 2584 770 2862 
Q 544 3141 544 3541 
Q 544 4100 942 4425 
Q 1341 4750 2034 4750 
Q 2731 4750 3128 4425 
Q 3525 4100 3525 3541 
Q 3525 3141 3298 2862 
Q 3072 2584 2669 2484 
Q 3125 2378 3379 2068 
Q 3634 1759 3634 1313 
Q 3634 634 3220 271 
Q 2806 -91 2034 -91 
Q 1263 -91 848 271 
Q 434 634 434 1313 
Q 434 1759 690 2068 
Q 947 2378 1403 2484 
z
M 1172 3481 
Q 1172 3119 1398 2916 
Q 1625 2713 2034 2713 
Q 2441 2713 2670 2916 
Q 2900 3119 2900 3481 
Q 2900 3844 2670 4047 
Q 2441 4250 2034 4250 
Q 1625 4250 1398 4047 
Q 1172 3844 1172 3481 
z
" transform="scale(0.015625)"/>
       </defs>
       <use xlink:href="#DejaVuSans-67"/>
       <use xlink:href="#DejaVuSans-70" transform="translate(63.476562 0)"/>
       <use xlink:href="#DejaVuSans-74" transform="translate(126.953125 0)"/>
       <use xlink:href="#DejaVuSans-2d" transform="translate(166.162109 0)"/>
       <use xlink:href="#DejaVuSans-34" transform="translate(202.246094 0)"/>
       <use xlink:href="#DejaVuSans-6f" transform="translate(265.869141 0)"/>
       <use xlink:href="#DejaVuSans-2d" transform="translate(328.925781 0)"/>
       <use xlink:href="#DejaVuSans-6d" transform="translate(365.009766 0)"/>
       <use xlink:href="#DejaVuSans-69" transform="translate(462.421875 0)"/>
       <use xlink:href="#DejaVuSans-6e" transform="translate(490.205078 0)"/>
       <use xlink:href="#DejaVuSans-69" transform="translate(553.583984 0)"/>
       <use xlink:href="#DejaVuSans-2d" transform="translate(581.367188 0)"/>
       <use xlink:href="#DejaVuSans-32" transform="translate(617.451172 0)"/>
       <use xlink:href="#DejaVuSans-30" transform="translate(681.074219 0)"/>
       <use xlink:href="#DejaVuSans-32" transform="translate(744.697266 0)"/>
       <use xlink:href="#DejaVuSans-34" transform="translate(808.320312 0)"/>
       <use xlink:href="#DejaVuSans-2d" transform="translate(871.943359 0)"/>
       <use xlink:href="#DejaVuSans-30" transform="translate(908.027344 0)"/>
       <use xlink:href="#DejaVuSans-37" transform="translate(971.650391 0)"/>
       <use xlink:href="#DejaVuSans-2d" transform="translate(1035.273438 0)"/>
       <use xlink:href="#DejaVuSans-31" transform="translate(1071.357422 0)"/>
       <use xlink:href="#DejaVuSans-38" transform="translate(1134.980469 0)"/>
      </g>
     </g>
    </g>
    <g id="xtick_10">
     <g id="line2d_10">
      <g>
       <use xlink:href="#m0f08305cbb" x="407.359744" y="268.628302" style="stroke: #000000; stroke-width: 0.8"/>
      </g>
     </g>
     <g id="text_10">
      <!-- grok-3-mini -->
      <g transform="translate(376.880557 329.09949) rotate(-60) scale(0.1 -0.1)">
       <use xlink:href="#DejaVuSans-67"/>
       <use xlink:href="#DejaVuSans-72" transform="translate(63.476562 0)"/>
       <use xlink:href="#DejaVuSans-6f" transform="translate(102.339844 0)"/>
       <use xlink:href="#DejaVuSans-6b" transform="translate(163.521484 0)"/>
       <use xlink:href="#DejaVuSans-2d" transform="translate(221.431641 0)"/>
       <use xlink:href="#DejaVuSans-33" transform="translate(257.515625 0)"/>
       <use xlink:href="#DejaVuSans-2d" transform="translate(321.138672 0)"/>
       <use xlink:href="#DejaVuSans-6d" transform="translate(357.222656 0)"/>
       <use xlink:href="#DejaVuSans-69" transform="translate(454.634766 0)"/>
       <use xlink:href="#DejaVuSans-6e" transform="translate(482.417969 0)"/>
       <use xlink:href="#DejaVuSans-69" transform="translate(545.796875 0)"/>
      </g>
     </g>
    </g>
    <g id="xtick_11">
     <g id="line2d_11">
      <g>
       <use xlink:href="#m0f08305cbb" x="443.187159" y="268.628302" style="stroke: #000000; stroke-width: 0.8"/>
      </g>
     </g>
     <g id="text_11">
      <!-- grok-4-fast-non-reasoning -->
      <g transform="translate(376.482972 391.843031) rotate(-60) scale(0.1 -0.1)">
       <use xlink:href="#DejaVuSans-67"/>
       <use xlink:href="#DejaVuSans-72" transform="translate(63.476562 0)"/>
       <use xlink:href="#DejaVuSans-6f" transform="translate(102.339844 0)"/>
       <use xlink:href="#DejaVuSans-6b" transform="translate(163.521484 0)"/>
       <use xlink:href="#DejaVuSans-2d" transform="translate(221.431641 0)"/>
       <use xlink:href="#DejaVuSans-34" transform="translate(257.515625 0)"/>
       <use xlink:href="#DejaVuSans-2d" transform="translate(321.138672 0)"/>
       <use xlink:href="#DejaVuSans-66" transform="translate(357.222656 0)"/>
       <use xlink:href="#DejaVuSans-61" transform="translate(392.427734 0)"/>
       <use xlink:href="#DejaVuSans-73" transform="translate(453.707031 0)"/>
       <use xlink:href="#DejaVuSans-74" transform="translate(505.806641 0)"/>
       <use xlink:href="#DejaVuSans-2d" transform="translate(545.015625 0)"/>
       <use xlink:href="#DejaVuSans-6e" transform="translate(581.099609 0)"/>
       <use xlink:href="#DejaVuSans-6f" transform="translate(644.478516 0)"/>
       <use xlink:href="#DejaVuSans-6e" transform="translate(705.660156 0)"/>
       <use xlink:href="#DejaVuSans-2d" transform="translate(769.039062 0)"/>
       <use xlink:href="#DejaVuSans-72" transform="translate(805.123047 0)"/>
       <use xlink:href="#DejaVuSans-65" transform="translate(843.986328 0)"/>
       <use xlink:href="#DejaVuSans-61" transform="translate(905.509766 0)"/>
       <use xlink:href="#DejaVuSans-73" transform="translate(966.789062 0)"/>
       <use xlink:href="#DejaVuSans-6f" transform="translate(1018.888672 0)"/>
       <use xlink:href="#DejaVuSans-6e" transform="translate(1080.070312 0)"/>
       <use xlink:href="#DejaVuSans-69" transform="translate(1143.449219 0)"/>
       <use xlink:href="#DejaVuSans-6e" transform="translate(1171.232422 0)"/>
       <use xlink:href="#DejaVuSans-67" transform="translate(1234.611328 0)"/>
      </g>
     </g>
    </g>
    <g id="xtick_12">
     <g id="line2d_12">
      <g>
       <use xlink:href="#m0f08305cbb" x="479.014574" y="268.628302" style="stroke: #000000; stroke-width: 0.8"/>
      </g>
     </g>
     <g id="text_12">
      <!-- qwen-flash -->
      <g transform="translate(449.914293 326.711155) rotate(-60) scale(0.1 -0.1)">
       <defs>
        <path id="DejaVuSans-71" d="M 947 1747 
Q 947 1113 1208 752 
Q 1469 391 1925 391 
Q 2381 391 2643 752 
Q 2906 1113 2906 1747 
Q 2906 2381 2643 2742 
Q 2381 3103 1925 3103 
Q 1469 3103 1208 2742 
Q 947 2381 947 1747 
z
M 2906 525 
Q 2725 213 2448 61 
Q 2172 -91 1784 -91 
Q 1150 -91 751 415 
Q 353 922 353 1747 
Q 353 2572 751 3078 
Q 1150 3584 1784 3584 
Q 2172 3584 2448 3432 
Q 2725 3281 2906 2969 
L 2906 3500 
L 3481 3500 
L 3481 -1331 
L 2906 -1331 
L 2906 525 
z
" transform="scale(0.015625)"/>
        <path id="DejaVuSans-77" d="M 269 3500 
L 844 3500 
L 1563 769 
L 2278 3500 
L 2956 3500 
L 3675 769 
L 4391 3500 
L 4966 3500 
L 4050 0 
L 3372 0 
L 2619 2869 
L 1863 0 
L 1184 0 
L 269 3500 
z
" transform="scale(0.015625)"/>
       </defs>
       <use xlink:href="#DejaVuSans-71"/>
       <use xlink:href="#DejaVuSans-77" transform="translate(63.476562 0)"/>
       <use xlink:href="#DejaVuSans-65" transform="translate(145.263672 0)"/>
       <use xlink:href="#DejaVuSans-6e" transform="translate(206.787109 0)"/>
       <use xlink:href="#DejaVuSans-2d" transform="translate(270.166016 0)"/>
       <use xlink:href="#DejaVuSans-66" transform="translate(306.25 0)"/>
       <use xlink:href="#DejaVuSans-6c" transform="translate(341.455078 0)"/>
       <use xlink:href="#DejaVuSans-61" transform="translate(369.238281 0)"/>
       <use xlink:href="#DejaVuSans-73" transform="translate(430.517578 0)"/>
       <use xlink:href="#DejaVuSans-68" transform="translate(482.617188 0)"/>
      </g>
     </g>
    </g>
    <g id="xtick_13">
     <g id="line2d_13">
      <g>
       <use xlink:href="#m0f08305cbb" x="514.841989" y="268.628302" style="stroke: #000000; stroke-width: 0.8"/>
      </g>
     </g>
     <g id="text_13">
      <!-- qwen-plus -->
      <g transform="translate(487.391708 323.853271) rotate(-60) scale(0.1 -0.1)">
       <use xlink:href="#DejaVuSans-71"/>
       <use xlink:href="#DejaVuSans-77" transform="translate(63.476562 0)"/>
       <use xlink:href="#DejaVuSans-65" transform="translate(145.263672 0)"/>
       <use xlink:href="#DejaVuSans-6e" transform="translate(206.787109 0)"/>
       <use xlink:href="#DejaVuSans-2d" transform="translate(270.166016 0)"/>
       <use xlink:href="#DejaVuSans-70" transform="translate(306.25 0)"/>
       <use xlink:href="#DejaVuSans-6c" transform="translate(369.726562 0)"/>
       <use xlink:href="#DejaVuSans-75" transform="translate(397.509766 0)"/>
       <use xlink:href="#DejaVuSans-73" transform="translate(460.888672 0)"/>
      </g>
     </g>
    </g>
    <g id="text_14">
     <!-- Modelo -->
     <g transform="translate(274.575781 414.927911) scale(0.14 -0.14)">
      <defs>
       <path id="DejaVuSans-4d" d="M 628 4666 
L 1569 4666 
L 2759 1491 
L 3956 4666 
L 4897 4666 
L 4897 0 
L 4281 0 
L 4281 4097 
L 3078 897 
L 2444 897 
L 1241 4097 
L 1241 0 
L 628 0 
L 628 4666 
z
" transform="scale(0.015625)"/>
      </defs>
      <use xlink:href="#DejaVuSans-4d"/>
      <use xlink:href="#DejaVuSans-6f" transform="translate(86.279297 0)"/>
      <use xlink:href="#DejaVuSans-64" transform="translate(147.460938 0)"/>
      <use xlink:href="#DejaVuSans-65" transform="translate(210.9375 0)"/>
      <use xlink:href="#DejaVuSans-6c" transform="translate(272.460938 0)"/>
      <use xlink:href="#DejaVuSans-6f" transform="translate(300.244141 0)"/>
     </g>
    </g>
   </g>
   <g id="matplotlib.axis_2">
    <g id="ytick_1">
     <g id="line2d_14">
      <defs>
       <path id="m62be765242" d="M 0 0 
L -3.5 0 
" style="stroke: #000000; stroke-width: 0.8"/>
      </defs>
      <g>
       <use xlink:href="#m62be765242" x="47.6525" y="268.628302" style="stroke: #000000; stroke-width: 0.8"/>
      </g>
     </g>
     <g id="text_15">
      <!-- 0.0 -->
      <g transform="translate(24.749375 272.427521) scale(0.1 -0.1)">
       <use xlink:href="#DejaVuSans-30"/>
       <use xlink:href="#DejaVuSans-2e" transform="translate(63.623047 0)"/>
       <use xlink:href="#DejaVuSans-30" transform="translate(95.410156 0)"/>
      </g>
     </g>
    </g>
    <g id="ytick_2">
     <g id="line2d_15">
      <g>
       <use xlink:href="#m62be765242" x="47.6525" y="221.541916" style="stroke: #000000; stroke-width: 0.8"/>
      </g>
     </g>
     <g id="text_16">
      <!-- 0.1 -->
      <g transform="translate(24.749375 225.341135) scale(0.1 -0.1)">
       <use xlink:href="#DejaVuSans-30"/>
       <use xlink:href="#DejaVuSans-2e" transform="translate(63.623047 0)"/>
       <use xlink:href="#DejaVuSans-31" transform="translate(95.410156 0)"/>
      </g>
     </g>
    </g>
    <g id="ytick_3">
     <g id="line2d_16">
      <g>
       <use xlink:href="#m62be765242" x="47.6525" y="174.45553" style="stroke: #000000; stroke-width: 0.8"/>
      </g>
     </g>
     <g id="text_17">
      <!-- 0.2 -->
      <g transform="translate(24.749375 178.254749) scale(0.1 -0.1)">
       <use xlink:href="#DejaVuSans-30"/>
       <use xlink:href="#DejaVuSans-2e" transform="translate(63.623047 0)"/>
       <use xlink:href="#DejaVuSans-32" transform="translate(95.410156 0)"/>
      </g>
     </g>
    </g>
    <g id="ytick_4">
     <g id="line2d_17">
      <g>
       <use xlink:href="#m62be765242" x="47.6525" y="127.369144" style="stroke: #000000; stroke-width: 0.8"/>
      </g>
     </g>
     <g id="text_18">
      <!-- 0.3 -->
      <g transform="translate(24.749375 131.168363) scale(0.1 -0.1)">
       <use xlink:href="#DejaVuSans-30"/>
       <use xlink:href="#DejaVuSans-2e" transform="translate(63.623047 0)"/>
       <use xlink:href="#DejaVuSans-33" transform="translate(95.410156 0)"/>
      </g>
     </g>
    </g>
    <g id="ytick_5">
     <g id="line2d_18">
      <g>
       <use xlink:href="#m62be765242" x="47.6525" y="80.282758" style="stroke: #000000; stroke-width: 0.8"/>
      </g>
     </g>
     <g id="text_19">
      <!-- 0.4 -->
      <g transform="translate(24.749375 84.081977) scale(0.1 -0.1)">
       <use xlink:href="#DejaVuSans-30"/>
       <use xlink:href="#DejaVuSans-2e" transform="translate(63.623047 0)"/>
       <use xlink:href="#DejaVuSans-34" transform="translate(95.410156 0)"/>
      </g>
     </g>
    </g>
    <g id="ytick_6">
     <g id="line2d_19">
      <g>
       <use xlink:href="#m62be765242" x="47.6525" y="33.196372" style="stroke: #000000; stroke-width: 0.8"/>
      </g>
     </g>
     <g id="text_20">
      <!-- 0.5 -->
      <g transform="translate(24.749375 36.995591) scale(0.1 -0.1)">
       <use xlink:href="#DejaVuSans-30"/>
       <use xlink:href="#DejaVuSans-2e" transform="translate(63.623047 0)"/>
       <use xlink:href="#DejaVuSans-35" transform="translate(95.410156 0)"/>
      </g>
     </g>
    </g>
    <g id="text_21">
     <!-- Puntaje F1 -->
     <g transform="translate(17.837812 174.875245) rotate(-90) scale(0.14 -0.14)">
      <defs>
       <path id="DejaVuSans-50" d="M 1259 4147 
L 1259 2394 
L 2053 2394 
Q 2494 2394 2734 2622 
Q 2975 2850 2975 3272 
Q 2975 3691 2734 3919 
Q 2494 4147 2053 4147 
L 1259 4147 
z
M 628 4666 
L 2053 4666 
Q 2838 4666 3239 4311 
Q 3641 3956 3641 3272 
Q 3641 2581 3239 2228 
Q 2838 1875 2053 1875 
L 1259 1875 
L 1259 0 
L 628 0 
L 628 4666 
z
" transform="scale(0.015625)"/>
       <path id="DejaVuSans-6a" d="M 603 3500 
L 1178 3500 
L 1178 -63 
Q 1178 -731 923 -1031 
Q 669 -1331 103 -1331 
L -116 -1331 
L -116 -844 
L 38 -844 
Q 366 -844 484 -692 
Q 603 -541 603 -63 
L 603 3500 
z
M 603 4863 
L 1178 4863 
L 1178 4134 
L 603 4134 
L 603 4863 
z
" transform="scale(0.015625)"/>
       <path id="DejaVuSans-20" transform="scale(0.015625)"/>
       <path id="DejaVuSans-46" d="M 628 4666 
L 3309 4666 
L 3309 4134 
L 1259 4134 
L 1259 2759 
L 3109 2759 
L 3109 2228 
L 1259 2228 
L 1259 0 
L 628 0 
L 628 4666 
z
" transform="scale(0.015625)"/>
      </defs>
      <use xlink:href="#DejaVuSans-50"/>
      <use xlink:href="#DejaVuSans-75" transform="translate(58.552734 0)"/>
      <use xlink:href="#DejaVuSans-6e" transform="translate(121.931641 0)"/>
      <use xlink:href="#DejaVuSans-74" transform="translate(185.310547 0)"/>
      <use xlink:href="#DejaVuSans-61" transform="translate(224.519531 0)"/>
      <use xlink:href="#DejaVuSans-6a" transform="translate(285.798828 0)"/>
      <use xlink:href="#DejaVuSans-65" transform="translate(313.582031 0)"/>
      <use xlink:href="#DejaVuSans-20" transform="translate(375.105469 0)"/>
      <use xlink:href="#DejaVuSans-46" transform="translate(406.892578 0)"/>
      <use xlink:href="#DejaVuSans-31" transform="translate(464.412109 0)"/>
     </g>
    </g>
   </g>
   <g id="line2d_20">
    <path clip-path="url(#pc0253a4a64)" style="fill: none; stroke: #424242; stroke-width: 2.25; stroke-linecap: square"/>
   </g>
   <g id="line2d_21">
    <path clip-path="url(#pc0253a4a64)" style="fill: none; stroke: #424242; stroke-width: 2.25; stroke-linecap: square"/>
   </g>
   <g id="line2d_22">
    <path clip-path="url(#pc0253a4a64)" style="fill: none; stroke: #424242; stroke-width: 2.25; stroke-linecap: square"/>
   </g>
   <g id="line2d_23">
    <path clip-path="url(#pc0253a4a64)" style="fill: none; stroke: #424242; stroke-width: 2.25; stroke-linecap: square"/>
   </g>
   <g id="line2d_24">
    <path clip-path="url(#pc0253a4a64)" style="fill: none; stroke: #424242; stroke-width: 2.25; stroke-linecap: square"/>
   </g>
   <g id="line2d_25">
    <path clip-path="url(#pc0253a4a64)" style="fill: none; stroke: #424242; stroke-width: 2.25; stroke-linecap: square"/>
   </g>
   <g id="line2d_26">
    <path clip-path="url(#pc0253a4a64)" style="fill: none; stroke: #424242; stroke-width: 2.25; stroke-linecap: square"/>
   </g>
   <g id="line2d_27">
    <path clip-path="url(#pc0253a4a64)" style="fill: none; stroke: #424242; stroke-width: 2.25; stroke-linecap: square"/>
   </g>
   <g id="line2d_28">
    <path clip-path="url(#pc0253a4a64)" style="fill: none; stroke: #424242; stroke-width: 2.25; stroke-linecap: square"/>
   </g>
   <g id="line2d_29">
    <path clip-path="url(#pc0253a4a64)" style="fill: none; stroke: #424242; stroke-width: 2.25; stroke-linecap: square"/>
   </g>
   <g id="line2d_30">
    <path clip-path="url(#pc0253a4a64)" style="fill: none; stroke: #424242; stroke-width: 2.25; stroke-linecap: square"/>
   </g>
   <g id="line2d_31">
    <path clip-path="url(#pc0253a4a64)" style="fill: none; stroke: #424242; stroke-width: 2.25; stroke-linecap: square"/>
   </g>
   <g id="line2d_32">
    <path clip-path="url(#pc0253a4a64)" style="fill: none; stroke: #424242; stroke-width: 2.25; stroke-linecap: square"/>
   </g>
   <g id="line2d_33">
    <path clip-path="url(#pc0253a4a64)" style="fill: none; stroke: #424242; stroke-width: 2.25; stroke-linecap: square"/>
   </g>
   <g id="line2d_34">
    <path clip-path="url(#pc0253a4a64)" style="fill: none; stroke: #424242; stroke-width: 2.25; stroke-linecap: square"/>
   </g>
   <g id="line2d_35">
    <path clip-path="url(#pc0253a4a64)" style="fill: none; stroke: #424242; stroke-width: 2.25; stroke-linecap: square"/>
   </g>
   <g id="line2d_36">
    <path clip-path="url(#pc0253a4a64)" style="fill: none; stroke: #424242; stroke-width: 2.25; stroke-linecap: square"/>
   </g>
   <g id="line2d_37">
    <path clip-path="url(#pc0253a4a64)" style="fill: none; stroke: #424242; stroke-width: 2.25; stroke-linecap: square"/>
   </g>
   <g id="line2d_38">
    <path clip-path="url(#pc0253a4a64)" style="fill: none; stroke: #424242; stroke-width: 2.25; stroke-linecap: square"/>
   </g>
   <g id="line2d_39">
    <path clip-path="url(#pc0253a4a64)" style="fill: none; stroke: #424242; stroke-width: 2.25; stroke-linecap: square"/>
   </g>
   <g id="line2d_40">
    <path clip-path="url(#pc0253a4a64)" style="fill: none; stroke: #424242; stroke-width: 2.25; stroke-linecap: square"/>
   </g>
   <g id="line2d_41">
    <path clip-path="url(#pc0253a4a64)" style="fill: none; stroke: #424242; stroke-width: 2.25; stroke-linecap: square"/>
   </g>
   <g id="line2d_42">
    <path clip-path="url(#pc0253a4a64)" style="fill: none; stroke: #424242; stroke-width: 2.25; stroke-linecap: square"/>
   </g>
   <g id="line2d_43">
    <path clip-path="url(#pc0253a4a64)" style="fill: none; stroke: #424242; stroke-width: 2.25; stroke-linecap: square"/>
   </g>
   <g id="line2d_44">
    <path clip-path="url(#pc0253a4a64)" style="fill: none; stroke: #424242; stroke-width: 2.25; stroke-linecap: square"/>
   </g>
   <g id="line2d_45">
    <path clip-path="url(#pc0253a4a64)" style="fill: none; stroke: #424242; stroke-width: 2.25; stroke-linecap: square"/>
   </g>
   <g id="line2d_46">
    <path clip-path="url(#pc0253a4a64)" style="fill: none; stroke: #424242; stroke-width: 2.25; stroke-linecap: square"/>
   </g>
   <g id="line2d_47">
    <path clip-path="url(#pc0253a4a64)" style="fill: none; stroke: #424242; stroke-width: 2.25; stroke-linecap: square"/>
   </g>
   <g id="line2d_48">
    <path clip-path="url(#pc0253a4a64)" style="fill: none; stroke: #424242; stroke-width: 2.25; stroke-linecap: square"/>
   </g>
   <g id="line2d_49">
    <path clip-path="url(#pc0253a4a64)" style="fill: none; stroke: #424242; stroke-width: 2.25; stroke-linecap: square"/>
   </g>
   <g id="line2d_50">
    <path clip-path="url(#pc0253a4a64)" style="fill: none; stroke: #424242; stroke-width: 2.25; stroke-linecap: square"/>
   </g>
   <g id="line2d_51">
    <path clip-path="url(#pc0253a4a64)" style="fill: none; stroke: #424242; stroke-width: 2.25; stroke-linecap: square"/>
   </g>
   <g id="line2d_52">
    <path clip-path="url(#pc0253a4a64)" style="fill: none; stroke: #424242; stroke-width: 2.25; stroke-linecap: square"/>
   </g>
   <g id="line2d_53">
    <path clip-path="url(#pc0253a4a64)" style="fill: none; stroke: #424242; stroke-width: 2.25; stroke-linecap: square"/>
   </g>
   <g id="line2d_54">
    <path clip-path="url(#pc0253a4a64)" style="fill: none; stroke: #424242; stroke-width: 2.25; stroke-linecap: square"/>
   </g>
   <g id="line2d_55">
    <path clip-path="url(#pc0253a4a64)" style="fill: none; stroke: #424242; stroke-width: 2.25; stroke-linecap: square"/>
   </g>
   <g id="line2d_56">
    <path clip-path="url(#pc0253a4a64)" style="fill: none; stroke: #424242; stroke-width: 2.25; stroke-linecap: square"/>
   </g>
   <g id="line2d_57">
    <path clip-path="url(#pc0253a4a64)" style="fill: none; stroke: #424242; stroke-width: 2.25; stroke-linecap: square"/>
   </g>
   <g id="line2d_58">
    <path clip-path="url(#pc0253a4a64)" style="fill: none; stroke: #424242; stroke-width: 2.25; stroke-linecap: square"/>
   </g>
   <g id="line2d_59">
    <path d="M 47.6525 34.352339 
L 552.1025 34.352339 
" clip-path="url(#pc0253a4a64)" style="fill: none; stroke-dasharray: 7.4,3.2; stroke-dashoffset: 0; stroke: #ff0000; stroke-opacity: 0.7; stroke-width: 2"/>
   </g>
   <g id="line2d_60">
    <path d="M 47.6525 19.648967 
L 552.1025 19.648967 
" clip-path="url(#pc0253a4a64)" style="fill: none; stroke-dasharray: 12.8,3.2,2,3.2; stroke-dashoffset: 0; stroke: #008000; stroke-opacity: 0.7; stroke-width: 2"/>
   </g>
   <g id="line2d_61"/>
   <g id="patch_45">
    <path d="M 47.6525 268.628302 
L 47.6525 7.2 
" style="fill: none; stroke: #000000; stroke-width: 0.8; stroke-linejoin: miter; stroke-linecap: square"/>
   </g>
   <g id="patch_46">
    <path d="M 552.1025 268.628302 
L 552.1025 7.2 
" style="fill: none; stroke: #000000; stroke-width: 0.8; stroke-linejoin: miter; stroke-linecap: square"/>
   </g>
   <g id="patch_47">
    <path d="M 47.6525 268.628302 
L 552.1025 268.628302 
" style="fill: none; stroke: #000000; stroke-width: 0.8; stroke-linejoin: miter; stroke-linecap: square"/>
   </g>
   <g id="patch_48">
    <path d="M 47.6525 7.2 
L 552.1025 7.2 
" style="fill: none; stroke: #000000; stroke-width: 0.8; stroke-linejoin: miter; stroke-linecap: square"/>
   </g>
   <g id="legend_1">
    <g id="patch_49">
     <path d="M 571.9915 191.84575 
L 845.396188 191.84575 
Q 848.196188 191.84575 848.196188 189.04575 
L 848.196188 17 
Q 848.196188 14.2 845.396188 14.2 
L 571.9915 14.2 
Q 569.1915 14.2 569.1915 17 
L 569.1915 189.04575 
Q 569.1915 191.84575 571.9915 191.84575 
z
" style="fill: #ffffff; opacity: 0.8; stroke: #cccccc; stroke-linejoin: miter"/>
    </g>
    <g id="text_22">
     <!-- Prompt -->
     <g transform="translate(690.759469 27.398438) scale(0.1 -0.1)">
      <use xlink:href="#DejaVuSans-50"/>
      <use xlink:href="#DejaVuSans-72" transform="translate(58.552734 0)"/>
      <use xlink:href="#DejaVuSans-6f" transform="translate(97.416016 0)"/>
      <use xlink:href="#DejaVuSans-6d" transform="translate(158.597656 0)"/>
      <use xlink:href="#DejaVuSans-70" transform="translate(256.009766 0)"/>
      <use xlink:href="#DejaVuSans-74" transform="translate(319.486328 0)"/>
     </g>
    </g>
    <g id="patch_50">
     <path d="M 574.7915 47.115937 
L 602.7915 47.115937 
L 602.7915 37.315937 
L 574.7915 37.315937 
z
" style="fill: #72b6a1"/>
    </g>
    <g id="text_23">
     <!-- detailed_tox_types_0_10.jinja2 -->
     <g transform="translate(613.9915 47.115937) scale(0.14 -0.14)">
      <defs>
       <path id="DejaVuSans-5f" d="M 3263 -1063 
L 3263 -1509 
L -63 -1509 
L -63 -1063 
L 3263 -1063 
z
" transform="scale(0.015625)"/>
       <path id="DejaVuSans-78" d="M 3513 3500 
L 2247 1797 
L 3578 0 
L 2900 0 
L 1881 1375 
L 863 0 
L 184 0 
L 1544 1831 
L 300 3500 
L 978 3500 
L 1906 2253 
L 2834 3500 
L 3513 3500 
z
" transform="scale(0.015625)"/>
       <path id="DejaVuSans-79" d="M 2059 -325 
Q 1816 -950 1584 -1140 
Q 1353 -1331 966 -1331 
L 506 -1331 
L 506 -850 
L 844 -850 
Q 1081 -850 1212 -737 
Q 1344 -625 1503 -206 
L 1606 56 
L 191 3500 
L 800 3500 
L 1894 763 
L 2988 3500 
L 3597 3500 
L 2059 -325 
z
" transform="scale(0.015625)"/>
      </defs>
      <use xlink:href="#DejaVuSans-64"/>
      <use xlink:href="#DejaVuSans-65" transform="translate(63.476562 0)"/>
      <use xlink:href="#DejaVuSans-74" transform="translate(125 0)"/>
      <use xlink:href="#DejaVuSans-61" transform="translate(164.208984 0)"/>
      <use xlink:href="#DejaVuSans-69" transform="translate(225.488281 0)"/>
      <use xlink:href="#DejaVuSans-6c" transform="translate(253.271484 0)"/>
      <use xlink:href="#DejaVuSans-65" transform="translate(281.054688 0)"/>
      <use xlink:href="#DejaVuSans-64" transform="translate(342.578125 0)"/>
      <use xlink:href="#DejaVuSans-5f" transform="translate(406.054688 0)"/>
      <use xlink:href="#DejaVuSans-74" transform="translate(456.054688 0)"/>
      <use xlink:href="#DejaVuSans-6f" transform="translate(495.263672 0)"/>
      <use xlink:href="#DejaVuSans-78" transform="translate(553.320312 0)"/>
      <use xlink:href="#DejaVuSans-5f" transform="translate(612.5 0)"/>
      <use xlink:href="#DejaVuSans-74" transform="translate(662.5 0)"/>
      <use xlink:href="#DejaVuSans-79" transform="translate(701.708984 0)"/>
      <use xlink:href="#DejaVuSans-70" transform="translate(760.888672 0)"/>
      <use xlink:href="#DejaVuSans-65" transform="translate(824.365234 0)"/>
      <use xlink:href="#DejaVuSans-73" transform="translate(885.888672 0)"/>
      <use xlink:href="#DejaVuSans-5f" transform="translate(937.988281 0)"/>
      <use xlink:href="#DejaVuSans-30" transform="translate(987.988281 0)"/>
      <use xlink:href="#DejaVuSans-5f" transform="translate(1051.611328 0)"/>
      <use xlink:href="#DejaVuSans-31" transform="translate(1101.611328 0)"/>
      <use xlink:href="#DejaVuSans-30" transform="translate(1165.234375 0)"/>
      <use xlink:href="#DejaVuSans-2e" transform="translate(1228.857422 0)"/>
      <use xlink:href="#DejaVuSans-6a" transform="translate(1260.644531 0)"/>
      <use xlink:href="#DejaVuSans-69" transform="translate(1288.427734 0)"/>
      <use xlink:href="#DejaVuSans-6e" transform="translate(1316.210938 0)"/>
      <use xlink:href="#DejaVuSans-6a" transform="translate(1379.589844 0)"/>
      <use xlink:href="#DejaVuSans-61" transform="translate(1407.373047 0)"/>
      <use xlink:href="#DejaVuSans-32" transform="translate(1468.652344 0)"/>
     </g>
    </g>
    <g id="patch_51">
     <path d="M 574.7915 68.054688 
L 602.7915 68.054688 
L 602.7915 58.254688 
L 574.7915 58.254688 
z
" style="fill: #e99675"/>
    </g>
    <g id="text_24">
     <!-- toxicity_10_alternative.jinja2 -->
     <g transform="translate(613.9915 68.054688) scale(0.14 -0.14)">
      <defs>
       <path id="DejaVuSans-76" d="M 191 3500 
L 800 3500 
L 1894 563 
L 2988 3500 
L 3597 3500 
L 2284 0 
L 1503 0 
L 191 3500 
z
" transform="scale(0.015625)"/>
      </defs>
      <use xlink:href="#DejaVuSans-74"/>
      <use xlink:href="#DejaVuSans-6f" transform="translate(39.208984 0)"/>
      <use xlink:href="#DejaVuSans-78" transform="translate(97.265625 0)"/>
      <use xlink:href="#DejaVuSans-69" transform="translate(156.445312 0)"/>
      <use xlink:href="#DejaVuSans-63" transform="translate(184.228516 0)"/>
      <use xlink:href="#DejaVuSans-69" transform="translate(239.208984 0)"/>
      <use xlink:href="#DejaVuSans-74" transform="translate(266.992188 0)"/>
      <use xlink:href="#DejaVuSans-79" transform="translate(306.201172 0)"/>
      <use xlink:href="#DejaVuSans-5f" transform="translate(365.380859 0)"/>
      <use xlink:href="#DejaVuSans-31" transform="translate(415.380859 0)"/>
      <use xlink:href="#DejaVuSans-30" transform="translate(479.003906 0)"/>
      <use xlink:href="#DejaVuSans-5f" transform="translate(542.626953 0)"/>
      <use xlink:href="#DejaVuSans-61" transform="translate(592.626953 0)"/>
      <use xlink:href="#DejaVuSans-6c" transform="translate(653.90625 0)"/>
      <use xlink:href="#DejaVuSans-74" transform="translate(681.689453 0)"/>
      <use xlink:href="#DejaVuSans-65" transform="translate(720.898438 0)"/>
      <use xlink:href="#DejaVuSans-72" transform="translate(782.421875 0)"/>
      <use xlink:href="#DejaVuSans-6e" transform="translate(821.785156 0)"/>
      <use xlink:href="#DejaVuSans-61" transform="translate(885.164062 0)"/>
      <use xlink:href="#DejaVuSans-74" transform="translate(946.443359 0)"/>
      <use xlink:href="#DejaVuSans-69" transform="translate(985.652344 0)"/>
      <use xlink:href="#DejaVuSans-76" transform="translate(1013.435547 0)"/>
      <use xlink:href="#DejaVuSans-65" transform="translate(1072.615234 0)"/>
      <use xlink:href="#DejaVuSans-2e" transform="translate(1134.138672 0)"/>
      <use xlink:href="#DejaVuSans-6a" transform="translate(1165.925781 0)"/>
      <use xlink:href="#DejaVuSans-69" transform="translate(1193.708984 0)"/>
      <use xlink:href="#DejaVuSans-6e" transform="translate(1221.492188 0)"/>
      <use xlink:href="#DejaVuSans-6a" transform="translate(1284.871094 0)"/>
      <use xlink:href="#DejaVuSans-61" transform="translate(1312.654297 0)"/>
      <use xlink:href="#DejaVuSans-32" transform="translate(1373.933594 0)"/>
     </g>
    </g>
    <g id="patch_52">
     <path d="M 574.7915 88.993437 
L 602.7915 88.993437 
L 602.7915 79.193437 
L 574.7915 79.193437 
z
" style="fill: #95a3c3"/>
    </g>
    <g id="text_25">
     <!-- toxicity_10_prod.jinja2 -->
     <g transform="translate(613.9915 88.993437) scale(0.14 -0.14)">
      <use xlink:href="#DejaVuSans-74"/>
      <use xlink:href="#DejaVuSans-6f" transform="translate(39.208984 0)"/>
      <use xlink:href="#DejaVuSans-78" transform="translate(97.265625 0)"/>
      <use xlink:href="#DejaVuSans-69" transform="translate(156.445312 0)"/>
      <use xlink:href="#DejaVuSans-63" transform="translate(184.228516 0)"/>
      <use xlink:href="#DejaVuSans-69" transform="translate(239.208984 0)"/>
      <use xlink:href="#DejaVuSans-74" transform="translate(266.992188 0)"/>
      <use xlink:href="#DejaVuSans-79" transform="translate(306.201172 0)"/>
      <use xlink:href="#DejaVuSans-5f" transform="translate(365.380859 0)"/>
      <use xlink:href="#DejaVuSans-31" transform="translate(415.380859 0)"/>
      <use xlink:href="#DejaVuSans-30" transform="translate(479.003906 0)"/>
      <use xlink:href="#DejaVuSans-5f" transform="translate(542.626953 0)"/>
      <use xlink:href="#DejaVuSans-70" transform="translate(592.626953 0)"/>
      <use xlink:href="#DejaVuSans-72" transform="translate(656.103516 0)"/>
      <use xlink:href="#DejaVuSans-6f" transform="translate(694.966797 0)"/>
      <use xlink:href="#DejaVuSans-64" transform="translate(756.148438 0)"/>
      <use xlink:href="#DejaVuSans-2e" transform="translate(819.625 0)"/>
      <use xlink:href="#DejaVuSans-6a" transform="translate(851.412109 0)"/>
      <use xlink:href="#DejaVuSans-69" transform="translate(879.195312 0)"/>
      <use xlink:href="#DejaVuSans-6e" transform="translate(906.978516 0)"/>
      <use xlink:href="#DejaVuSans-6a" transform="translate(970.357422 0)"/>
      <use xlink:href="#DejaVuSans-61" transform="translate(998.140625 0)"/>
      <use xlink:href="#DejaVuSans-32" transform="translate(1059.419922 0)"/>
     </g>
    </g>
    <g id="line2d_62">
     <path d="M 574.7915 105.592187 
L 588.7915 105.592187 
L 602.7915 105.592187 
" style="fill: none; stroke-dasharray: 7.4,3.2; stroke-dashoffset: 0; stroke: #ff0000; stroke-opacity: 0.7; stroke-width: 2"/>
    </g>
    <g id="text_26">
     <!-- Línea base de producción: 0.498 -->
     <g transform="translate(613.9915 110.492188) scale(0.14 -0.14)">
      <defs>
       <path id="DejaVuSans-4c" d="M 628 4666 
L 1259 4666 
L 1259 531 
L 3531 531 
L 3531 0 
L 628 0 
L 628 4666 
z
" transform="scale(0.015625)"/>
       <path id="DejaVuSans-ed" d="M 1322 5119 
L 1944 5119 
L 926 3944 
L 447 3944 
L 1322 5119 
z
M 603 3500 
L 1178 3500 
L 1178 0 
L 603 0 
L 603 3500 
z
M 891 3584 
L 891 3584 
z
" transform="scale(0.015625)"/>
       <path id="DejaVuSans-f3" d="M 1959 3097 
Q 1497 3097 1228 2736 
Q 959 2375 959 1747 
Q 959 1119 1226 758 
Q 1494 397 1959 397 
Q 2419 397 2687 759 
Q 2956 1122 2956 1747 
Q 2956 2369 2687 2733 
Q 2419 3097 1959 3097 
z
M 1959 3584 
Q 2709 3584 3137 3096 
Q 3566 2609 3566 1747 
Q 3566 888 3137 398 
Q 2709 -91 1959 -91 
Q 1206 -91 779 398 
Q 353 888 353 1747 
Q 353 2609 779 3096 
Q 1206 3584 1959 3584 
z
M 2394 5119 
L 3016 5119 
L 1998 3944 
L 1519 3944 
L 2394 5119 
z
" transform="scale(0.015625)"/>
       <path id="DejaVuSans-3a" d="M 750 794 
L 1409 794 
L 1409 0 
L 750 0 
L 750 794 
z
M 750 3309 
L 1409 3309 
L 1409 2516 
L 750 2516 
L 750 3309 
z
" transform="scale(0.015625)"/>
       <path id="DejaVuSans-39" d="M 703 97 
L 703 672 
Q 941 559 1184 500 
Q 1428 441 1663 441 
Q 2288 441 2617 861 
Q 2947 1281 2994 2138 
Q 2813 1869 2534 1725 
Q 2256 1581 1919 1581 
Q 1219 1581 811 2004 
Q 403 2428 403 3163 
Q 403 3881 828 4315 
Q 1253 4750 1959 4750 
Q 2769 4750 3195 4129 
Q 3622 3509 3622 2328 
Q 3622 1225 3098 567 
Q 2575 -91 1691 -91 
Q 1453 -91 1209 -44 
Q 966 3 703 97 
z
M 1959 2075 
Q 2384 2075 2632 2365 
Q 2881 2656 2881 3163 
Q 2881 3666 2632 3958 
Q 2384 4250 1959 4250 
Q 1534 4250 1286 3958 
Q 1038 3666 1038 3163 
Q 1038 2656 1286 2365 
Q 1534 2075 1959 2075 
z
" transform="scale(0.015625)"/>
      </defs>
      <use xlink:href="#DejaVuSans-4c"/>
      <use xlink:href="#DejaVuSans-ed" transform="translate(55.712891 0)"/>
      <use xlink:href="#DejaVuSans-6e" transform="translate(83.496094 0)"/>
      <use xlink:href="#DejaVuSans-65" transform="translate(146.875 0)"/>
      <use xlink:href="#DejaVuSans-61" transform="translate(208.398438 0)"/>
      <use xlink:href="#DejaVuSans-20" transform="translate(269.677734 0)"/>
      <use xlink:href="#DejaVuSans-62" transform="translate(301.464844 0)"/>
      <use xlink:href="#DejaVuSans-61" transform="translate(364.941406 0)"/>
      <use xlink:href="#DejaVuSans-73" transform="translate(426.220703 0)"/>
      <use xlink:href="#DejaVuSans-65" transform="translate(478.320312 0)"/>
      <use xlink:href="#DejaVuSans-20" transform="translate(539.84375 0)"/>
      <use xlink:href="#DejaVuSans-64" transform="translate(571.630859 0)"/>
      <use xlink:href="#DejaVuSans-65" transform="translate(635.107422 0)"/>
      <use xlink:href="#DejaVuSans-20" transform="translate(696.630859 0)"/>
      <use xlink:href="#DejaVuSans-70" transform="translate(728.417969 0)"/>
      <use xlink:href="#DejaVuSans-72" transform="translate(791.894531 0)"/>
      <use xlink:href="#DejaVuSans-6f" transform="translate(830.757812 0)"/>
      <use xlink:href="#DejaVuSans-64" transform="translate(891.939453 0)"/>
      <use xlink:href="#DejaVuSans-75" transform="translate(955.416016 0)"/>
      <use xlink:href="#DejaVuSans-63" transform="translate(1018.794922 0)"/>
      <use xlink:href="#DejaVuSans-63" transform="translate(1073.775391 0)"/>
      <use xlink:href="#DejaVuSans-69" transform="translate(1128.755859 0)"/>
      <use xlink:href="#DejaVuSans-f3" transform="translate(1156.539062 0)"/>
      <use xlink:href="#DejaVuSans-6e" transform="translate(1217.720703 0)"/>
      <use xlink:href="#DejaVuSans-3a" transform="translate(1281.099609 0)"/>
      <use xlink:href="#DejaVuSans-20" transform="translate(1314.791016 0)"/>
      <use xlink:href="#DejaVuSans-30" transform="translate(1346.578125 0)"/>
      <use xlink:href="#DejaVuSans-2e" transform="translate(1410.201172 0)"/>
      <use xlink:href="#DejaVuSans-34" transform="translate(1441.988281 0)"/>
      <use xlink:href="#DejaVuSans-39" transform="translate(1505.611328 0)"/>
      <use xlink:href="#DejaVuSans-38" transform="translate(1569.234375 0)"/>
     </g>
    </g>
    <g id="line2d_63">
     <path d="M 574.7915 143.468969 
L 588.7915 143.468969 
L 602.7915 143.468969 
" style="fill: none; stroke-dasharray: 12.8,3.2,2,3.2; stroke-dashoffset: 0; stroke: #008000; stroke-opacity: 0.7; stroke-width: 2"/>
    </g>
    <g id="text_27">
     <!-- Mejor: 0.529 -->
     <g transform="translate(613.9915 131.041562) scale(0.14 -0.14)">
      <use xlink:href="#DejaVuSans-4d"/>
      <use xlink:href="#DejaVuSans-65" transform="translate(86.279297 0)"/>
      <use xlink:href="#DejaVuSans-6a" transform="translate(147.802734 0)"/>
      <use xlink:href="#DejaVuSans-6f" transform="translate(175.585938 0)"/>
      <use xlink:href="#DejaVuSans-72" transform="translate(236.767578 0)"/>
      <use xlink:href="#DejaVuSans-3a" transform="translate(276.130859 0)"/>
      <use xlink:href="#DejaVuSans-20" transform="translate(309.822266 0)"/>
      <use xlink:href="#DejaVuSans-30" transform="translate(341.609375 0)"/>
      <use xlink:href="#DejaVuSans-2e" transform="translate(405.232422 0)"/>
      <use xlink:href="#DejaVuSans-35" transform="translate(437.019531 0)"/>
      <use xlink:href="#DejaVuSans-32" transform="translate(500.642578 0)"/>
      <use xlink:href="#DejaVuSans-39" transform="translate(564.265625 0)"/>
     </g>
     <!-- gemini-2.5-flash -->
     <g transform="translate(613.9915 146.7185) scale(0.14 -0.14)">
      <use xlink:href="#DejaVuSans-67"/>
      <use xlink:href="#DejaVuSans-65" transform="translate(63.476562 0)"/>
      <use xlink:href="#DejaVuSans-6d" transform="translate(125 0)"/>
      <use xlink:href="#DejaVuSans-69" transform="translate(222.412109 0)"/>
      <use xlink:href="#DejaVuSans-6e" transform="translate(250.195312 0)"/>
      <use xlink:href="#DejaVuSans-69" transform="translate(313.574219 0)"/>
      <use xlink:href="#DejaVuSans-2d" transform="translate(341.357422 0)"/>
      <use xlink:href="#DejaVuSans-32" transform="translate(377.441406 0)"/>
      <use xlink:href="#DejaVuSans-2e" transform="translate(441.064453 0)"/>
      <use xlink:href="#DejaVuSans-35" transform="translate(472.851562 0)"/>
      <use xlink:href="#DejaVuSans-2d" transform="translate(536.474609 0)"/>
      <use xlink:href="#DejaVuSans-66" transform="translate(572.558594 0)"/>
      <use xlink:href="#DejaVuSans-6c" transform="translate(607.763672 0)"/>
      <use xlink:href="#DejaVuSans-61" transform="translate(635.546875 0)"/>
      <use xlink:href="#DejaVuSans-73" transform="translate(696.826172 0)"/>
      <use xlink:href="#DejaVuSans-68" transform="translate(748.925781 0)"/>
     </g>
     <!-- toxicity_10_prod.jinja2 -->
     <g transform="translate(613.9915 162.395437) scale(0.14 -0.14)">
      <use xlink:href="#DejaVuSans-74"/>
      <use xlink:href="#DejaVuSans-6f" transform="translate(39.208984 0)"/>
      <use xlink:href="#DejaVuSans-78" transform="translate(97.265625 0)"/>
      <use xlink:href="#DejaVuSans-69" transform="translate(156.445312 0)"/>
      <use xlink:href="#DejaVuSans-63" transform="translate(184.228516 0)"/>
      <use xlink:href="#DejaVuSans-69" transform="translate(239.208984 0)"/>
      <use xlink:href="#DejaVuSans-74" transform="translate(266.992188 0)"/>
      <use xlink:href="#DejaVuSans-79" transform="translate(306.201172 0)"/>
      <use xlink:href="#DejaVuSans-5f" transform="translate(365.380859 0)"/>
      <use xlink:href="#DejaVuSans-31" transform="translate(415.380859 0)"/>
      <use xlink:href="#DejaVuSans-30" transform="translate(479.003906 0)"/>
      <use xlink:href="#DejaVuSans-5f" transform="translate(542.626953 0)"/>
      <use xlink:href="#DejaVuSans-70" transform="translate(592.626953 0)"/>
      <use xlink:href="#DejaVuSans-72" transform="translate(656.103516 0)"/>
      <use xlink:href="#DejaVuSans-6f" transform="translate(694.966797 0)"/>
      <use xlink:href="#DejaVuSans-64" transform="translate(756.148438 0)"/>
      <use xlink:href="#DejaVuSans-2e" transform="translate(819.625 0)"/>
      <use xlink:href="#DejaVuSans-6a" transform="translate(851.412109 0)"/>
      <use xlink:href="#DejaVuSans-69" transform="translate(879.195312 0)"/>
      <use xlink:href="#DejaVuSans-6e" transform="translate(906.978516 0)"/>
      <use xlink:href="#DejaVuSans-6a" transform="translate(970.357422 0)"/>
      <use xlink:href="#DejaVuSans-61" transform="translate(998.140625 0)"/>
      <use xlink:href="#DejaVuSans-32" transform="translate(1059.419922 0)"/>
     </g>
    </g>
    <g id="line2d_64"/>
    <g id="text_28">
     <!-- Mejora: +0.031 (+6.3%) -->
     <g transform="translate(613.9915 183.334187) scale(0.14 -0.14)">
      <defs>
       <path id="DejaVuSans-2b" d="M 2944 4013 
L 2944 2272 
L 4684 2272 
L 4684 1741 
L 2944 1741 
L 2944 0 
L 2419 0 
L 2419 1741 
L 678 1741 
L 678 2272 
L 2419 2272 
L 2419 4013 
L 2944 4013 
z
" transform="scale(0.015625)"/>
       <path id="DejaVuSans-28" d="M 1984 4856 
Q 1566 4138 1362 3434 
Q 1159 2731 1159 2009 
Q 1159 1288 1364 580 
Q 1569 -128 1984 -844 
L 1484 -844 
Q 1016 -109 783 600 
Q 550 1309 550 2009 
Q 550 2706 781 3412 
Q 1013 4119 1484 4856 
L 1984 4856 
z
" transform="scale(0.015625)"/>
       <path id="DejaVuSans-36" d="M 2113 2584 
Q 1688 2584 1439 2293 
Q 1191 2003 1191 1497 
Q 1191 994 1439 701 
Q 1688 409 2113 409 
Q 2538 409 2786 701 
Q 3034 994 3034 1497 
Q 3034 2003 2786 2293 
Q 2538 2584 2113 2584 
z
M 3366 4563 
L 3366 3988 
Q 3128 4100 2886 4159 
Q 2644 4219 2406 4219 
Q 1781 4219 1451 3797 
Q 1122 3375 1075 2522 
Q 1259 2794 1537 2939 
Q 1816 3084 2150 3084 
Q 2853 3084 3261 2657 
Q 3669 2231 3669 1497 
Q 3669 778 3244 343 
Q 2819 -91 2113 -91 
Q 1303 -91 875 529 
Q 447 1150 447 2328 
Q 447 3434 972 4092 
Q 1497 4750 2381 4750 
Q 2619 4750 2861 4703 
Q 3103 4656 3366 4563 
z
" transform="scale(0.015625)"/>
       <path id="DejaVuSans-25" d="M 4653 2053 
Q 4381 2053 4226 1822 
Q 4072 1591 4072 1178 
Q 4072 772 4226 539 
Q 4381 306 4653 306 
Q 4919 306 5073 539 
Q 5228 772 5228 1178 
Q 5228 1588 5073 1820 
Q 4919 2053 4653 2053 
z
M 4653 2450 
Q 5147 2450 5437 2106 
Q 5728 1763 5728 1178 
Q 5728 594 5436 251 
Q 5144 -91 4653 -91 
Q 4153 -91 3862 251 
Q 3572 594 3572 1178 
Q 3572 1766 3864 2108 
Q 4156 2450 4653 2450 
z
M 1428 4353 
Q 1159 4353 1004 4120 
Q 850 3888 850 3481 
Q 850 3069 1003 2837 
Q 1156 2606 1428 2606 
Q 1700 2606 1854 2837 
Q 2009 3069 2009 3481 
Q 2009 3884 1853 4118 
Q 1697 4353 1428 4353 
z
M 4250 4750 
L 4750 4750 
L 1831 -91 
L 1331 -91 
L 4250 4750 
z
M 1428 4750 
Q 1922 4750 2215 4408 
Q 2509 4066 2509 3481 
Q 2509 2891 2217 2550 
Q 1925 2209 1428 2209 
Q 931 2209 642 2551 
Q 353 2894 353 3481 
Q 353 4063 643 4406 
Q 934 4750 1428 4750 
z
" transform="scale(0.015625)"/>
       <path id="DejaVuSans-29" d="M 513 4856 
L 1013 4856 
Q 1481 4119 1714 3412 
Q 1947 2706 1947 2009 
Q 1947 1309 1714 600 
Q 1481 -109 1013 -844 
L 513 -844 
Q 928 -128 1133 580 
Q 1338 1288 1338 2009 
Q 1338 2731 1133 3434 
Q 928 4138 513 4856 
z
" transform="scale(0.015625)"/>
      </defs>
      <use xlink:href="#DejaVuSans-4d"/>
      <use xlink:href="#DejaVuSans-65" transform="translate(86.279297 0)"/>
      <use xlink:href="#DejaVuSans-6a" transform="translate(147.802734 0)"/>
      <use xlink:href="#DejaVuSans-6f" transform="translate(175.585938 0)"/>
      <use xlink:href="#DejaVuSans-72" transform="translate(236.767578 0)"/>
      <use xlink:href="#DejaVuSans-61" transform="translate(277.880859 0)"/>
      <use xlink:href="#DejaVuSans-3a" transform="translate(339.160156 0)"/>
      <use xlink:href="#DejaVuSans-20" transform="translate(372.851562 0)"/>
      <use xlink:href="#DejaVuSans-2b" transform="translate(404.638672 0)"/>
      <use xlink:href="#DejaVuSans-30" transform="translate(488.427734 0)"/>
      <use xlink:href="#DejaVuSans-2e" transform="translate(552.050781 0)"/>
      <use xlink:href="#DejaVuSans-30" transform="translate(583.837891 0)"/>
      <use xlink:href="#DejaVuSans-33" transform="translate(647.460938 0)"/>
      <use xlink:href="#DejaVuSans-31" transform="translate(711.083984 0)"/>
      <use xlink:href="#DejaVuSans-20" transform="translate(774.707031 0)"/>
      <use xlink:href="#DejaVuSans-28" transform="translate(806.494141 0)"/>
      <use xlink:href="#DejaVuSans-2b" transform="translate(845.507812 0)"/>
      <use xlink:href="#DejaVuSans-36" transform="translate(929.296875 0)"/>
      <use xlink:href="#DejaVuSans-2e" transform="translate(992.919922 0)"/>
      <use xlink:href="#DejaVuSans-33" transform="translate(1024.707031 0)"/>
      <use xlink:href="#DejaVuSans-25" transform="translate(1088.330078 0)"/>
      <use xlink:href="#DejaVuSans-29" transform="translate(1183.349609 0)"/>
     </g>
    </g>
   </g>
  </g>
 </g>
 <defs>
  <clipPath id="pc0253a4a64">
   <rect x="47.6525" y="7.2" width="504.45" height="261.428302"/>
  </clipPath>
 </defs>
</svg>
