<?xml version="1.0" encoding="utf-8" standalone="no"?>
<!DOCTYPE svg PUBLIC "-//W3C//DTD SVG 1.1//EN"
  "http://www.w3.org/Graphics/SVG/1.1/DTD/svg11.dtd">
<svg xmlns:xlink="http://www.w3.org/1999/xlink" width="851.425062pt" height="424.982547pt" viewBox="0 0 851.425062 424.982547" xmlns="http://www.w3.org/2000/svg" version="1.1">
 <metadata>
  <rdf:RDF xmlns:dc="http://purl.org/dc/elements/1.1/" xmlns:cc="http://creativecommons.org/ns#" xmlns:rdf="http://www.w3.org/1999/02/22-rdf-syntax-ns#">
   <cc:Work>
    <dc:type rdf:resource="http://purl.org/dc/dcmitype/StillImage"/>
    <dc:date>2026-03-21T19:51:00.481333</dc:date>
    <dc:format>image/svg+xml</dc:format>
    <dc:creator>
     <cc:Agent>
      <dc:title>Matplotlib v3.10.3, https://matplotlib.org/</dc:title>
     </cc:Agent>
    </dc:creator>
   </cc:Work>
  </rdf:RDF>
 </metadata>
 <defs>
  <style type="text/css">*{stroke-linejoin: round; stroke-linecap: butt}</style>
 </defs>
 <g id="figure_1">
  <g id="patch_1">
   <path d="M 0 424.982547 
L 851.425062 424.982547 
L 851.425062 0 
L 0 0 
z
" style="fill: #ffffff"/>
  </g>
  <g id="axes_1">
   <g id="patch_2">
    <path d="M 54.015 268.571376 
L 612.035 268.571376 
L 612.035 10.640662 
L 54.015 10.640662 
z
" style="fill: #ffffff"/>
   </g>
   <g id="patch_3">
    <path d="M 79.379545 268.571376 
L 89.948106 268.571376 
L 89.948106 83.528741 
L 79.379545 83.528741 
z
" clip-path="url(#pae9ed95e9f)" style="fill: #72b6a1"/>
   </g>
   <g id="patch_4">
    <path d="M 119.011648 268.571376 
L 129.580208 268.571376 
L 129.580208 105.027685 
L 119.011648 105.027685 
z
" clip-path="url(#pae9ed95e9f)" style="fill: #72b6a1"/>
   </g>
   <g id="patch_5">
    <path d="M 158.64375 268.571376 
L 169.212311 268.571376 
L 169.212311 111.72659 
L 158.64375 111.72659 
z
" clip-path="url(#pae9ed95e9f)" style="fill: #72b6a1"/>
   </g>
   <g id="patch_6">
    <path d="M 198.275852 268.571376 
L 208.844413 268.571376 
L 208.844413 87.380503 
L 198.275852 87.380503 
z
" clip-path="url(#pae9ed95e9f)" style="fill: #72b6a1"/>
   </g>
   <g id="patch_7">
    <path d="M 237.907955 268.571376 
L 248.476515 268.571376 
L 248.476515 168.548963 
L 237.907955 168.548963 
z
" clip-path="url(#pae9ed95e9f)" style="fill: #72b6a1"/>
   </g>
   <g id="patch_8">
    <path d="M 277.540057 268.571376 
L 288.108617 268.571376 
L 288.108617 83.487397 
L 277.540057 83.487397 
z
" clip-path="url(#pae9ed95e9f)" style="fill: #72b6a1"/>
   </g>
   <g id="patch_9">
    <path d="M 317.172159 268.571376 
L 327.74072 268.571376 
L 327.74072 49.751145 
L 317.172159 49.751145 
z
" clip-path="url(#pae9ed95e9f)" style="fill: #72b6a1"/>
   </g>
   <g id="patch_10">
    <path d="M 356.804261 268.571376 
L 367.372822 268.571376 
L 367.372822 99.899646 
L 356.804261 99.899646 
z
" clip-path="url(#pae9ed95e9f)" style="fill: #72b6a1"/>
   </g>
   <g id="patch_11">
    <path d="M 396.436364 268.571376 
L 407.004924 268.571376 
L 407.004924 122.718321 
L 396.436364 122.718321 
z
" clip-path="url(#pae9ed95e9f)" style="fill: #72b6a1"/>
   </g>
   <g id="patch_12">
    <path d="M 436.068466 268.571376 
L 446.637027 268.571376 
L 446.637027 142.234384 
L 436.068466 142.234384 
z
" clip-path="url(#pae9ed95e9f)" style="fill: #72b6a1"/>
   </g>
   <g id="patch_13">
    <path d="M 475.700568 268.571376 
L 486.269129 268.571376 
L 486.269129 66.25865 
L 475.700568 66.25865 
z
" clip-path="url(#pae9ed95e9f)" style="fill: #72b6a1"/>
   </g>
   <g id="patch_14">
    <path d="M 515.33267 268.571376 
L 525.901231 268.571376 
L 525.901231 157.160279 
L 515.33267 157.160279 
z
" clip-path="url(#pae9ed95e9f)" style="fill: #72b6a1"/>
   </g>
   <g id="patch_15">
    <path d="M 554.964773 268.571376 
L 565.533333 268.571376 
L 565.533333 123.315512 
L 554.964773 123.315512 
z
" clip-path="url(#pae9ed95e9f)" style="fill: #72b6a1"/>
   </g>
   <g id="patch_16">
    <path d="M 89.948106 268.571376 
L 100.516667 268.571376 
L 100.516667 80.264581 
L 89.948106 80.264581 
z
" clip-path="url(#pae9ed95e9f)" style="fill: #e99675"/>
   </g>
   <g id="patch_17">
    <path d="M 129.580208 268.571376 
L 140.148769 268.571376 
L 140.148769 92.232566 
L 129.580208 92.232566 
z
" clip-path="url(#pae9ed95e9f)" style="fill: #e99675"/>
   </g>
   <g id="patch_18">
    <path d="M 169.212311 268.571376 
L 179.780871 268.571376 
L 179.780871 93.956048 
L 169.212311 93.956048 
z
" clip-path="url(#pae9ed95e9f)" style="fill: #e99675"/>
   </g>
   <g id="patch_19">
    <path d="M 208.844413 268.571376 
L 219.412973 268.571376 
L 219.412973 121.456001 
L 208.844413 121.456001 
z
" clip-path="url(#pae9ed95e9f)" style="fill: #e99675"/>
   </g>
   <g id="patch_20">
    <path d="M 248.476515 268.571376 
L 259.045076 268.571376 
L 259.045076 180.855756 
L 248.476515 180.855756 
z
" clip-path="url(#pae9ed95e9f)" style="fill: #e99675"/>
   </g>
   <g id="patch_21">
    <path d="M 288.108617 268.571376 
L 298.677178 268.571376 
L 298.677178 64.0614 
L 288.108617 64.0614 
z
" clip-path="url(#pae9ed95e9f)" style="fill: #e99675"/>
   </g>
   <g id="patch_22">
    <path d="M 327.74072 268.571376 
L 338.30928 268.571376 
L 338.30928 75.000015 
L 327.74072 75.000015 
z
" clip-path="url(#pae9ed95e9f)" style="fill: #e99675"/>
   </g>
   <g id="patch_23">
    <path d="M 367.372822 268.571376 
L 377.941383 268.571376 
L 377.941383 117.296904 
L 367.372822 117.296904 
z
" clip-path="url(#pae9ed95e9f)" style="fill: #e99675"/>
   </g>
   <g id="patch_24">
    <path d="M 407.004924 268.571376 
L 417.573485 268.571376 
L 417.573485 146.140007 
L 407.004924 146.140007 
z
" clip-path="url(#pae9ed95e9f)" style="fill: #e99675"/>
   </g>
   <g id="patch_25">
    <path d="M 446.637027 268.571376 
L 457.205587 268.571376 
L 457.205587 151.644379 
L 446.637027 151.644379 
z
" clip-path="url(#pae9ed95e9f)" style="fill: #e99675"/>
   </g>
   <g id="patch_26">
    <path d="M 486.269129 268.571376 
L 496.837689 268.571376 
L 496.837689 107.125368 
L 486.269129 107.125368 
z
" clip-path="url(#pae9ed95e9f)" style="fill: #e99675"/>
   </g>
   <g id="patch_27">
    <path d="M 525.901231 268.571376 
L 536.469792 268.571376 
L 536.469792 193.248356 
L 525.901231 193.248356 
z
" clip-path="url(#pae9ed95e9f)" style="fill: #e99675"/>
   </g>
   <g id="patch_28">
    <path d="M 565.533333 268.571376 
L 576.101894 268.571376 
L 576.101894 115.454652 
L 565.533333 115.454652 
z
" clip-path="url(#pae9ed95e9f)" style="fill: #e99675"/>
   </g>
   <g id="patch_29">
    <path d="M 100.516667 268.571376 
L 111.085227 268.571376 
L 111.085227 32.42543 
L 100.516667 32.42543 
z
" clip-path="url(#pae9ed95e9f)" style="fill: #95a3c3"/>
   </g>
   <g id="patch_30">
    <path d="M 140.148769 268.571376 
L 150.71733 268.571376 
L 150.71733 35.329712 
L 140.148769 35.329712 
z
" clip-path="url(#pae9ed95e9f)" style="fill: #95a3c3"/>
   </g>
   <g id="patch_31">
    <path d="M 179.780871 268.571376 
L 190.349432 268.571376 
L 190.349432 28.771192 
L 179.780871 28.771192 
z
" clip-path="url(#pae9ed95e9f)" style="fill: #95a3c3"/>
   </g>
   <g id="patch_32">
    <path d="M 219.412973 268.571376 
L 229.981534 268.571376 
L 229.981534 49.589985 
L 219.412973 49.589985 
z
" clip-path="url(#pae9ed95e9f)" style="fill: #95a3c3"/>
   </g>
   <g id="patch_33">
    <path d="M 259.045076 268.571376 
L 269.613636 268.571376 
L 269.613636 150.068778 
L 259.045076 150.068778 
z
" clip-path="url(#pae9ed95e9f)" style="fill: #95a3c3"/>
   </g>
   <g id="patch_34">
    <path d="M 298.677178 268.571376 
L 309.245739 268.571376 
L 309.245739 22.923076 
L 298.677178 22.923076 
z
" clip-path="url(#pae9ed95e9f)" style="fill: #95a3c3"/>
   </g>
   <g id="patch_35">
    <path d="M 338.30928 268.571376 
L 348.877841 268.571376 
L 348.877841 62.559997 
L 338.30928 62.559997 
z
" clip-path="url(#pae9ed95e9f)" style="fill: #95a3c3"/>
   </g>
   <g id="patch_36">
    <path d="M 377.941383 268.571376 
L 388.509943 268.571376 
L 388.509943 71.099715 
L 377.941383 71.099715 
z
" clip-path="url(#pae9ed95e9f)" style="fill: #95a3c3"/>
   </g>
   <g id="patch_37">
    <path d="M 417.573485 268.571376 
L 428.142045 268.571376 
L 428.142045 65.132486 
L 417.573485 65.132486 
z
" clip-path="url(#pae9ed95e9f)" style="fill: #95a3c3"/>
   </g>
   <g id="patch_38">
    <path d="M 457.205587 268.571376 
L 467.774148 268.571376 
L 467.774148 26.495102 
L 457.205587 26.495102 
z
" clip-path="url(#pae9ed95e9f)" style="fill: #95a3c3"/>
   </g>
   <g id="patch_39">
    <path d="M 496.837689 268.571376 
L 507.40625 268.571376 
L 507.40625 59.960567 
L 496.837689 59.960567 
z
" clip-path="url(#pae9ed95e9f)" style="fill: #95a3c3"/>
   </g>
   <g id="patch_40">
    <path d="M 536.469792 268.571376 
L 547.038352 268.571376 
L 547.038352 131.741656 
L 536.469792 131.741656 
z
" clip-path="url(#pae9ed95e9f)" style="fill: #95a3c3"/>
   </g>
   <g id="patch_41">
    <path d="M 576.101894 268.571376 
L 586.670455 268.571376 
L 586.670455 81.064499 
L 576.101894 81.064499 
z
" clip-path="url(#pae9ed95e9f)" style="fill: #95a3c3"/>
   </g>
   <g id="patch_42">
    <path d="M 95.232386 268.571376 
L 95.232386 268.571376 
L 95.232386 268.571376 
L 95.232386 268.571376 
z
" clip-path="url(#pae9ed95e9f)" style="fill: #72b6a1"/>
   </g>
   <g id="patch_43">
    <path d="M 95.232386 268.571376 
L 95.232386 268.571376 
L 95.232386 268.571376 
L 95.232386 268.571376 
z
" clip-path="url(#pae9ed95e9f)" style="fill: #e99675"/>
   </g>
   <g id="patch_44">
    <path d="M 95.232386 268.571376 
L 95.232386 268.571376 
L 95.232386 268.571376 
L 95.232386 268.571376 
z
" clip-path="url(#pae9ed95e9f)" style="fill: #95a3c3"/>
   </g>
   <g id="matplotlib.axis_1">
    <g id="xtick_1">
     <g id="line2d_1">
      <defs>
       <path id="m34e7c9d796" d="M 0 0 
L 0 3.5 
" style="stroke: #000000; stroke-width: 0.8"/>
      </defs>
      <g>
       <use xlink:href="#m34e7c9d796" x="95.232386" y="268.571376" style="stroke: #000000; stroke-width: 0.8"/>
      </g>
     </g>
     <g id="text_1">
      <!-- claude-haiku-4-5-20251001 -->
      <g transform="translate(24.251637 399.193329) rotate(-60) scale(0.1 -0.1)">
       <defs>
        <path id="DejaVuSans-63" d="M 3122 3366 
L 3122 2828 
Q 2878 2963 2633 3030 
Q 2388 3097 2138 3097 
Q 1578 3097 1268 2742 
Q 959 2388 959 1747 
Q 959 1106 1268 751 
Q 1578 397 2138 397 
Q 2388 397 2633 464 
Q 2878 531 3122 666 
L 3122 134 
Q 2881 22 2623 -34 
Q 2366 -91 2075 -91 
Q 1284 -91 818 406 
Q 353 903 353 1747 
Q 353 2603 823 3093 
Q 1294 3584 2113 3584 
Q 2378 3584 2631 3529 
Q 2884 3475 3122 3366 
z
" transform="scale(0.015625)"/>
        <path id="DejaVuSans-6c" d="M 603 4863 
L 1178 4863 
L 1178 0 
L 603 0 
L 603 4863 
z
" transform="scale(0.015625)"/>
        <path id="DejaVuSans-61" d="M 2194 1759 
Q 1497 1759 1228 1600 
Q 959 1441 959 1056 
Q 959 750 1161 570 
Q 1363 391 1709 391 
Q 2188 391 2477 730 
Q 2766 1069 2766 1631 
L 2766 1759 
L 2194 1759 
z
M 3341 1997 
L 3341 0 
L 2766 0 
L 2766 531 
Q 2569 213 2275 61 
Q 1981 -91 1556 -91 
Q 1019 -91 701 211 
Q 384 513 384 1019 
Q 384 1609 779 1909 
Q 1175 2209 1959 2209 
L 2766 2209 
L 2766 2266 
Q 2766 2663 2505 2880 
Q 2244 3097 1772 3097 
Q 1472 3097 1187 3025 
Q 903 2953 641 2809 
L 641 3341 
Q 956 3463 1253 3523 
Q 1550 3584 1831 3584 
Q 2591 3584 2966 3190 
Q 3341 2797 3341 1997 
z
" transform="scale(0.015625)"/>
        <path id="DejaVuSans-75" d="M 544 1381 
L 544 3500 
L 1119 3500 
L 1119 1403 
Q 1119 906 1312 657 
Q 1506 409 1894 409 
Q 2359 409 2629 706 
Q 2900 1003 2900 1516 
L 2900 3500 
L 3475 3500 
L 3475 0 
L 2900 0 
L 2900 538 
Q 2691 219 2414 64 
Q 2138 -91 1772 -91 
Q 1169 -91 856 284 
Q 544 659 544 1381 
z
M 1991 3584 
L 1991 3584 
z
" transform="scale(0.015625)"/>
        <path id="DejaVuSans-64" d="M 2906 2969 
L 2906 4863 
L 3481 4863 
L 3481 0 
L 2906 0 
L 2906 525 
Q 2725 213 2448 61 
Q 2172 -91 1784 -91 
Q 1150 -91 751 415 
Q 353 922 353 1747 
Q 353 2572 751 3078 
Q 1150 3584 1784 3584 
Q 2172 3584 2448 3432 
Q 2725 3281 2906 2969 
z
M 947 1747 
Q 947 1113 1208 752 
Q 1469 391 1925 391 
Q 2381 391 2643 752 
Q 2906 1113 2906 1747 
Q 2906 2381 2643 2742 
Q 2381 3103 1925 3103 
Q 1469 3103 1208 2742 
Q 947 2381 947 1747 
z
" transform="scale(0.015625)"/>
        <path id="DejaVuSans-65" d="M 3597 1894 
L 3597 1613 
L 953 1613 
Q 991 1019 1311 708 
Q 1631 397 2203 397 
Q 2534 397 2845 478 
Q 3156 559 3463 722 
L 3463 178 
Q 3153 47 2828 -22 
Q 2503 -91 2169 -91 
Q 1331 -91 842 396 
Q 353 884 353 1716 
Q 353 2575 817 3079 
Q 1281 3584 2069 3584 
Q 2775 3584 3186 3129 
Q 3597 2675 3597 1894 
z
M 3022 2063 
Q 3016 2534 2758 2815 
Q 2500 3097 2075 3097 
Q 1594 3097 1305 2825 
Q 1016 2553 972 2059 
L 3022 2063 
z
" transform="scale(0.015625)"/>
        <path id="DejaVuSans-2d" d="M 313 2009 
L 1997 2009 
L 1997 1497 
L 313 1497 
L 313 2009 
z
" transform="scale(0.015625)"/>
        <path id="DejaVuSans-68" d="M 3513 2113 
L 3513 0 
L 2938 0 
L 2938 2094 
Q 2938 2591 2744 2837 
Q 2550 3084 2163 3084 
Q 1697 3084 1428 2787 
Q 1159 2491 1159 1978 
L 1159 0 
L 581 0 
L 581 4863 
L 1159 4863 
L 1159 2956 
Q 1366 3272 1645 3428 
Q 1925 3584 2291 3584 
Q 2894 3584 3203 3211 
Q 3513 2838 3513 2113 
z
" transform="scale(0.015625)"/>
        <path id="DejaVuSans-69" d="M 603 3500 
L 1178 3500 
L 1178 0 
L 603 0 
L 603 3500 
z
M 603 4863 
L 1178 4863 
L 1178 4134 
L 603 4134 
L 603 4863 
z
" transform="scale(0.015625)"/>
        <path id="DejaVuSans-6b" d="M 581 4863 
L 1159 4863 
L 1159 1991 
L 2875 3500 
L 3609 3500 
L 1753 1863 
L 3688 0 
L 2938 0 
L 1159 1709 
L 1159 0 
L 581 0 
L 581 4863 
z
" transform="scale(0.015625)"/>
        <path id="DejaVuSans-34" d="M 2419 4116 
L 825 1625 
L 2419 1625 
L 2419 4116 
z
M 2253 4666 
L 3047 4666 
L 3047 1625 
L 3713 1625 
L 3713 1100 
L 3047 1100 
L 3047 0 
L 2419 0 
L 2419 1100 
L 313 1100 
L 313 1709 
L 2253 4666 
z
" transform="scale(0.015625)"/>
        <path id="DejaVuSans-35" d="M 691 4666 
L 3169 4666 
L 3169 4134 
L 1269 4134 
L 1269 2991 
Q 1406 3038 1543 3061 
Q 1681 3084 1819 3084 
Q 2600 3084 3056 2656 
Q 3513 2228 3513 1497 
Q 3513 744 3044 326 
Q 2575 -91 1722 -91 
Q 1428 -91 1123 -41 
Q 819 9 494 109 
L 494 744 
Q 775 591 1075 516 
Q 1375 441 1709 441 
Q 2250 441 2565 725 
Q 2881 1009 2881 1497 
Q 2881 1984 2565 2268 
Q 2250 2553 1709 2553 
Q 1456 2553 1204 2497 
Q 953 2441 691 2322 
L 691 4666 
z
" transform="scale(0.015625)"/>
        <path id="DejaVuSans-32" d="M 1228 531 
L 3431 531 
L 3431 0 
L 469 0 
L 469 531 
Q 828 903 1448 1529 
Q 2069 2156 2228 2338 
Q 2531 2678 2651 2914 
Q 2772 3150 2772 3378 
Q 2772 3750 2511 3984 
Q 2250 4219 1831 4219 
Q 1534 4219 1204 4116 
Q 875 4013 500 3803 
L 500 4441 
Q 881 4594 1212 4672 
Q 1544 4750 1819 4750 
Q 2544 4750 2975 4387 
Q 3406 4025 3406 3419 
Q 3406 3131 3298 2873 
Q 3191 2616 2906 2266 
Q 2828 2175 2409 1742 
Q 1991 1309 1228 531 
z
" transform="scale(0.015625)"/>
        <path id="DejaVuSans-30" d="M 2034 4250 
Q 1547 4250 1301 3770 
Q 1056 3291 1056 2328 
Q 1056 1369 1301 889 
Q 1547 409 2034 409 
Q 2525 409 2770 889 
Q 3016 1369 3016 2328 
Q 3016 3291 2770 3770 
Q 2525 4250 2034 4250 
z
M 2034 4750 
Q 2819 4750 3233 4129 
Q 3647 3509 3647 2328 
Q 3647 1150 3233 529 
Q 2819 -91 2034 -91 
Q 1250 -91 836 529 
Q 422 1150 422 2328 
Q 422 3509 836 4129 
Q 1250 4750 2034 4750 
z
" transform="scale(0.015625)"/>
        <path id="DejaVuSans-31" d="M 794 531 
L 1825 531 
L 1825 4091 
L 703 3866 
L 703 4441 
L 1819 4666 
L 2450 4666 
L 2450 531 
L 3481 531 
L 3481 0 
L 794 0 
L 794 531 
z
" transform="scale(0.015625)"/>
       </defs>
       <use xlink:href="#DejaVuSans-63"/>
       <use xlink:href="#DejaVuSans-6c" transform="translate(54.980469 0)"/>
       <use xlink:href="#DejaVuSans-61" transform="translate(82.763672 0)"/>
       <use xlink:href="#DejaVuSans-75" transform="translate(144.042969 0)"/>
       <use xlink:href="#DejaVuSans-64" transform="translate(207.421875 0)"/>
       <use xlink:href="#DejaVuSans-65" transform="translate(270.898438 0)"/>
       <use xlink:href="#DejaVuSans-2d" transform="translate(332.421875 0)"/>
       <use xlink:href="#DejaVuSans-68" transform="translate(368.505859 0)"/>
       <use xlink:href="#DejaVuSans-61" transform="translate(431.884766 0)"/>
       <use xlink:href="#DejaVuSans-69" transform="translate(493.164062 0)"/>
       <use xlink:href="#DejaVuSans-6b" transform="translate(520.947266 0)"/>
       <use xlink:href="#DejaVuSans-75" transform="translate(575.732422 0)"/>
       <use xlink:href="#DejaVuSans-2d" transform="translate(639.111328 0)"/>
       <use xlink:href="#DejaVuSans-34" transform="translate(675.195312 0)"/>
       <use xlink:href="#DejaVuSans-2d" transform="translate(738.818359 0)"/>
       <use xlink:href="#DejaVuSans-35" transform="translate(774.902344 0)"/>
       <use xlink:href="#DejaVuSans-2d" transform="translate(838.525391 0)"/>
       <use xlink:href="#DejaVuSans-32" transform="translate(874.609375 0)"/>
       <use xlink:href="#DejaVuSans-30" transform="translate(938.232422 0)"/>
       <use xlink:href="#DejaVuSans-32" transform="translate(1001.855469 0)"/>
       <use xlink:href="#DejaVuSans-35" transform="translate(1065.478516 0)"/>
       <use xlink:href="#DejaVuSans-31" transform="translate(1129.101562 0)"/>
       <use xlink:href="#DejaVuSans-30" transform="translate(1192.724609 0)"/>
       <use xlink:href="#DejaVuSans-30" transform="translate(1256.347656 0)"/>
       <use xlink:href="#DejaVuSans-31" transform="translate(1319.970703 0)"/>
      </g>
     </g>
    </g>
    <g id="xtick_2">
     <g id="line2d_2">
      <g>
       <use xlink:href="#m34e7c9d796" x="134.864489" y="268.571376" style="stroke: #000000; stroke-width: 0.8"/>
      </g>
     </g>
     <g id="text_2">
      <!-- gemini-2.0-flash -->
      <g transform="translate(92.449364 349.716215) rotate(-60) scale(0.1 -0.1)">
       <defs>
        <path id="DejaVuSans-67" d="M 2906 1791 
Q 2906 2416 2648 2759 
Q 2391 3103 1925 3103 
Q 1463 3103 1205 2759 
Q 947 2416 947 1791 
Q 947 1169 1205 825 
Q 1463 481 1925 481 
Q 2391 481 2648 825 
Q 2906 1169 2906 1791 
z
M 3481 434 
Q 3481 -459 3084 -895 
Q 2688 -1331 1869 -1331 
Q 1566 -1331 1297 -1286 
Q 1028 -1241 775 -1147 
L 775 -588 
Q 1028 -725 1275 -790 
Q 1522 -856 1778 -856 
Q 2344 -856 2625 -561 
Q 2906 -266 2906 331 
L 2906 616 
Q 2728 306 2450 153 
Q 2172 0 1784 0 
Q 1141 0 747 490 
Q 353 981 353 1791 
Q 353 2603 747 3093 
Q 1141 3584 1784 3584 
Q 2172 3584 2450 3431 
Q 2728 3278 2906 2969 
L 2906 3500 
L 3481 3500 
L 3481 434 
z
" transform="scale(0.015625)"/>
        <path id="DejaVuSans-6d" d="M 3328 2828 
Q 3544 3216 3844 3400 
Q 4144 3584 4550 3584 
Q 5097 3584 5394 3201 
Q 5691 2819 5691 2113 
L 5691 0 
L 5113 0 
L 5113 2094 
Q 5113 2597 4934 2840 
Q 4756 3084 4391 3084 
Q 3944 3084 3684 2787 
Q 3425 2491 3425 1978 
L 3425 0 
L 2847 0 
L 2847 2094 
Q 2847 2600 2669 2842 
Q 2491 3084 2119 3084 
Q 1678 3084 1418 2786 
Q 1159 2488 1159 1978 
L 1159 0 
L 581 0 
L 581 3500 
L 1159 3500 
L 1159 2956 
Q 1356 3278 1631 3431 
Q 1906 3584 2284 3584 
Q 2666 3584 2933 3390 
Q 3200 3197 3328 2828 
z
" transform="scale(0.015625)"/>
        <path id="DejaVuSans-6e" d="M 3513 2113 
L 3513 0 
L 2938 0 
L 2938 2094 
Q 2938 2591 2744 2837 
Q 2550 3084 2163 3084 
Q 1697 3084 1428 2787 
Q 1159 2491 1159 1978 
L 1159 0 
L 581 0 
L 581 3500 
L 1159 3500 
L 1159 2956 
Q 1366 3272 1645 3428 
Q 1925 3584 2291 3584 
Q 2894 3584 3203 3211 
Q 3513 2838 3513 2113 
z
" transform="scale(0.015625)"/>
        <path id="DejaVuSans-2e" d="M 684 794 
L 1344 794 
L 1344 0 
L 684 0 
L 684 794 
z
" transform="scale(0.015625)"/>
        <path id="DejaVuSans-66" d="M 2375 4863 
L 2375 4384 
L 1825 4384 
Q 1516 4384 1395 4259 
Q 1275 4134 1275 3809 
L 1275 3500 
L 2222 3500 
L 2222 3053 
L 1275 3053 
L 1275 0 
L 697 0 
L 697 3053 
L 147 3053 
L 147 3500 
L 697 3500 
L 697 3744 
Q 697 4328 969 4595 
Q 1241 4863 1831 4863 
L 2375 4863 
z
" transform="scale(0.015625)"/>
        <path id="DejaVuSans-73" d="M 2834 3397 
L 2834 2853 
Q 2591 2978 2328 3040 
Q 2066 3103 1784 3103 
Q 1356 3103 1142 2972 
Q 928 2841 928 2578 
Q 928 2378 1081 2264 
Q 1234 2150 1697 2047 
L 1894 2003 
Q 2506 1872 2764 1633 
Q 3022 1394 3022 966 
Q 3022 478 2636 193 
Q 2250 -91 1575 -91 
Q 1294 -91 989 -36 
Q 684 19 347 128 
L 347 722 
Q 666 556 975 473 
Q 1284 391 1588 391 
Q 1994 391 2212 530 
Q 2431 669 2431 922 
Q 2431 1156 2273 1281 
Q 2116 1406 1581 1522 
L 1381 1569 
Q 847 1681 609 1914 
Q 372 2147 372 2553 
Q 372 3047 722 3315 
Q 1072 3584 1716 3584 
Q 2034 3584 2315 3537 
Q 2597 3491 2834 3397 
z
" transform="scale(0.015625)"/>
       </defs>
       <use xlink:href="#DejaVuSans-67"/>
       <use xlink:href="#DejaVuSans-65" transform="translate(63.476562 0)"/>
       <use xlink:href="#DejaVuSans-6d" transform="translate(125 0)"/>
       <use xlink:href="#DejaVuSans-69" transform="translate(222.412109 0)"/>
       <use xlink:href="#DejaVuSans-6e" transform="translate(250.195312 0)"/>
       <use xlink:href="#DejaVuSans-69" transform="translate(313.574219 0)"/>
       <use xlink:href="#DejaVuSans-2d" transform="translate(341.357422 0)"/>
       <use xlink:href="#DejaVuSans-32" transform="translate(377.441406 0)"/>
       <use xlink:href="#DejaVuSans-2e" transform="translate(441.064453 0)"/>
       <use xlink:href="#DejaVuSans-30" transform="translate(472.851562 0)"/>
       <use xlink:href="#DejaVuSans-2d" transform="translate(536.474609 0)"/>
       <use xlink:href="#DejaVuSans-66" transform="translate(572.558594 0)"/>
       <use xlink:href="#DejaVuSans-6c" transform="translate(607.763672 0)"/>
       <use xlink:href="#DejaVuSans-61" transform="translate(635.546875 0)"/>
       <use xlink:href="#DejaVuSans-73" transform="translate(696.826172 0)"/>
       <use xlink:href="#DejaVuSans-68" transform="translate(748.925781 0)"/>
      </g>
     </g>
    </g>
    <g id="xtick_3">
     <g id="line2d_3">
      <g>
       <use xlink:href="#m34e7c9d796" x="174.496591" y="268.571376" style="stroke: #000000; stroke-width: 0.8"/>
      </g>
     </g>
     <g id="text_3">
      <!-- gemini-2.5-flash -->
      <g transform="translate(132.081466 349.716215) rotate(-60) scale(0.1 -0.1)">
       <use xlink:href="#DejaVuSans-67"/>
       <use xlink:href="#DejaVuSans-65" transform="translate(63.476562 0)"/>
       <use xlink:href="#DejaVuSans-6d" transform="translate(125 0)"/>
       <use xlink:href="#DejaVuSans-69" transform="translate(222.412109 0)"/>
       <use xlink:href="#DejaVuSans-6e" transform="translate(250.195312 0)"/>
       <use xlink:href="#DejaVuSans-69" transform="translate(313.574219 0)"/>
       <use xlink:href="#DejaVuSans-2d" transform="translate(341.357422 0)"/>
       <use xlink:href="#DejaVuSans-32" transform="translate(377.441406 0)"/>
       <use xlink:href="#DejaVuSans-2e" transform="translate(441.064453 0)"/>
       <use xlink:href="#DejaVuSans-35" transform="translate(472.851562 0)"/>
       <use xlink:href="#DejaVuSans-2d" transform="translate(536.474609 0)"/>
       <use xlink:href="#DejaVuSans-66" transform="translate(572.558594 0)"/>
       <use xlink:href="#DejaVuSans-6c" transform="translate(607.763672 0)"/>
       <use xlink:href="#DejaVuSans-61" transform="translate(635.546875 0)"/>
       <use xlink:href="#DejaVuSans-73" transform="translate(696.826172 0)"/>
       <use xlink:href="#DejaVuSans-68" transform="translate(748.925781 0)"/>
      </g>
     </g>
    </g>
    <g id="xtick_4">
     <g id="line2d_4">
      <g>
       <use xlink:href="#m34e7c9d796" x="214.128693" y="268.571376" style="stroke: #000000; stroke-width: 0.8"/>
      </g>
     </g>
     <g id="text_4">
      <!-- gemini-2.5-flash-lite -->
      <g transform="translate(162.094818 366.376378) rotate(-60) scale(0.1 -0.1)">
       <defs>
        <path id="DejaVuSans-74" d="M 1172 4494 
L 1172 3500 
L 2356 3500 
L 2356 3053 
L 1172 3053 
L 1172 1153 
Q 1172 725 1289 603 
Q 1406 481 1766 481 
L 2356 481 
L 2356 0 
L 1766 0 
Q 1100 0 847 248 
Q 594 497 594 1153 
L 594 3053 
L 172 3053 
L 172 3500 
L 594 3500 
L 594 4494 
L 1172 4494 
z
" transform="scale(0.015625)"/>
       </defs>
       <use xlink:href="#DejaVuSans-67"/>
       <use xlink:href="#DejaVuSans-65" transform="translate(63.476562 0)"/>
       <use xlink:href="#DejaVuSans-6d" transform="translate(125 0)"/>
       <use xlink:href="#DejaVuSans-69" transform="translate(222.412109 0)"/>
       <use xlink:href="#DejaVuSans-6e" transform="translate(250.195312 0)"/>
       <use xlink:href="#DejaVuSans-69" transform="translate(313.574219 0)"/>
       <use xlink:href="#DejaVuSans-2d" transform="translate(341.357422 0)"/>
       <use xlink:href="#DejaVuSans-32" transform="translate(377.441406 0)"/>
       <use xlink:href="#DejaVuSans-2e" transform="translate(441.064453 0)"/>
       <use xlink:href="#DejaVuSans-35" transform="translate(472.851562 0)"/>
       <use xlink:href="#DejaVuSans-2d" transform="translate(536.474609 0)"/>
       <use xlink:href="#DejaVuSans-66" transform="translate(572.558594 0)"/>
       <use xlink:href="#DejaVuSans-6c" transform="translate(607.763672 0)"/>
       <use xlink:href="#DejaVuSans-61" transform="translate(635.546875 0)"/>
       <use xlink:href="#DejaVuSans-73" transform="translate(696.826172 0)"/>
       <use xlink:href="#DejaVuSans-68" transform="translate(748.925781 0)"/>
       <use xlink:href="#DejaVuSans-2d" transform="translate(812.304688 0)"/>
       <use xlink:href="#DejaVuSans-6c" transform="translate(848.388672 0)"/>
       <use xlink:href="#DejaVuSans-69" transform="translate(876.171875 0)"/>
       <use xlink:href="#DejaVuSans-74" transform="translate(903.955078 0)"/>
       <use xlink:href="#DejaVuSans-65" transform="translate(943.164062 0)"/>
      </g>
     </g>
    </g>
    <g id="xtick_5">
     <g id="line2d_5">
      <g>
       <use xlink:href="#m34e7c9d796" x="253.760795" y="268.571376" style="stroke: #000000; stroke-width: 0.8"/>
      </g>
     </g>
     <g id="text_5">
      <!-- gpt-3.5-turbo-0125 -->
      <g transform="translate(204.051139 362.350714) rotate(-60) scale(0.1 -0.1)">
       <defs>
        <path id="DejaVuSans-70" d="M 1159 525 
L 1159 -1331 
L 581 -1331 
L 581 3500 
L 1159 3500 
L 1159 2969 
Q 1341 3281 1617 3432 
Q 1894 3584 2278 3584 
Q 2916 3584 3314 3078 
Q 3713 2572 3713 1747 
Q 3713 922 3314 415 
Q 2916 -91 2278 -91 
Q 1894 -91 1617 61 
Q 1341 213 1159 525 
z
M 3116 1747 
Q 3116 2381 2855 2742 
Q 2594 3103 2138 3103 
Q 1681 3103 1420 2742 
Q 1159 2381 1159 1747 
Q 1159 1113 1420 752 
Q 1681 391 2138 391 
Q 2594 391 2855 752 
Q 3116 1113 3116 1747 
z
" transform="scale(0.015625)"/>
        <path id="DejaVuSans-33" d="M 2597 2516 
Q 3050 2419 3304 2112 
Q 3559 1806 3559 1356 
Q 3559 666 3084 287 
Q 2609 -91 1734 -91 
Q 1441 -91 1130 -33 
Q 819 25 488 141 
L 488 750 
Q 750 597 1062 519 
Q 1375 441 1716 441 
Q 2309 441 2620 675 
Q 2931 909 2931 1356 
Q 2931 1769 2642 2001 
Q 2353 2234 1838 2234 
L 1294 2234 
L 1294 2753 
L 1863 2753 
Q 2328 2753 2575 2939 
Q 2822 3125 2822 3475 
Q 2822 3834 2567 4026 
Q 2313 4219 1838 4219 
Q 1578 4219 1281 4162 
Q 984 4106 628 3988 
L 628 4550 
Q 988 4650 1302 4700 
Q 1616 4750 1894 4750 
Q 2613 4750 3031 4423 
Q 3450 4097 3450 3541 
Q 3450 3153 3228 2886 
Q 3006 2619 2597 2516 
z
" transform="scale(0.015625)"/>
        <path id="DejaVuSans-72" d="M 2631 2963 
Q 2534 3019 2420 3045 
Q 2306 3072 2169 3072 
Q 1681 3072 1420 2755 
Q 1159 2438 1159 1844 
L 1159 0 
L 581 0 
L 581 3500 
L 1159 3500 
L 1159 2956 
Q 1341 3275 1631 3429 
Q 1922 3584 2338 3584 
Q 2397 3584 2469 3576 
Q 2541 3569 2628 3553 
L 2631 2963 
z
" transform="scale(0.015625)"/>
        <path id="DejaVuSans-62" d="M 3116 1747 
Q 3116 2381 2855 2742 
Q 2594 3103 2138 3103 
Q 1681 3103 1420 2742 
Q 1159 2381 1159 1747 
Q 1159 1113 1420 752 
Q 1681 391 2138 391 
Q 2594 391 2855 752 
Q 3116 1113 3116 1747 
z
M 1159 2969 
Q 1341 3281 1617 3432 
Q 1894 3584 2278 3584 
Q 2916 3584 3314 3078 
Q 3713 2572 3713 1747 
Q 3713 922 3314 415 
Q 2916 -91 2278 -91 
Q 1894 -91 1617 61 
Q 1341 213 1159 525 
L 1159 0 
L 581 0 
L 581 4863 
L 1159 4863 
L 1159 2969 
z
" transform="scale(0.015625)"/>
        <path id="DejaVuSans-6f" d="M 1959 3097 
Q 1497 3097 1228 2736 
Q 959 2375 959 1747 
Q 959 1119 1226 758 
Q 1494 397 1959 397 
Q 2419 397 2687 759 
Q 2956 1122 2956 1747 
Q 2956 2369 2687 2733 
Q 2419 3097 1959 3097 
z
M 1959 3584 
Q 2709 3584 3137 3096 
Q 3566 2609 3566 1747 
Q 3566 888 3137 398 
Q 2709 -91 1959 -91 
Q 1206 -91 779 398 
Q 353 888 353 1747 
Q 353 2609 779 3096 
Q 1206 3584 1959 3584 
z
" transform="scale(0.015625)"/>
       </defs>
       <use xlink:href="#DejaVuSans-67"/>
       <use xlink:href="#DejaVuSans-70" transform="translate(63.476562 0)"/>
       <use xlink:href="#DejaVuSans-74" transform="translate(126.953125 0)"/>
       <use xlink:href="#DejaVuSans-2d" transform="translate(166.162109 0)"/>
       <use xlink:href="#DejaVuSans-33" transform="translate(202.246094 0)"/>
       <use xlink:href="#DejaVuSans-2e" transform="translate(265.869141 0)"/>
       <use xlink:href="#DejaVuSans-35" transform="translate(297.65625 0)"/>
       <use xlink:href="#DejaVuSans-2d" transform="translate(361.279297 0)"/>
       <use xlink:href="#DejaVuSans-74" transform="translate(397.363281 0)"/>
       <use xlink:href="#DejaVuSans-75" transform="translate(436.572266 0)"/>
       <use xlink:href="#DejaVuSans-72" transform="translate(499.951172 0)"/>
       <use xlink:href="#DejaVuSans-62" transform="translate(541.064453 0)"/>
       <use xlink:href="#DejaVuSans-6f" transform="translate(604.541016 0)"/>
       <use xlink:href="#DejaVuSans-2d" transform="translate(667.597656 0)"/>
       <use xlink:href="#DejaVuSans-30" transform="translate(703.681641 0)"/>
       <use xlink:href="#DejaVuSans-31" transform="translate(767.304688 0)"/>
       <use xlink:href="#DejaVuSans-32" transform="translate(830.927734 0)"/>
       <use xlink:href="#DejaVuSans-35" transform="translate(894.550781 0)"/>
      </g>
     </g>
    </g>
    <g id="xtick_6">
     <g id="line2d_6">
      <g>
       <use xlink:href="#m34e7c9d796" x="293.392898" y="268.571376" style="stroke: #000000; stroke-width: 0.8"/>
      </g>
     </g>
     <g id="text_6">
      <!-- gpt-4.1-2025-04-14 -->
      <g transform="translate(242.666054 364.112534) rotate(-60) scale(0.1 -0.1)">
       <use xlink:href="#DejaVuSans-67"/>
       <use xlink:href="#DejaVuSans-70" transform="translate(63.476562 0)"/>
       <use xlink:href="#DejaVuSans-74" transform="translate(126.953125 0)"/>
       <use xlink:href="#DejaVuSans-2d" transform="translate(166.162109 0)"/>
       <use xlink:href="#DejaVuSans-34" transform="translate(202.246094 0)"/>
       <use xlink:href="#DejaVuSans-2e" transform="translate(265.869141 0)"/>
       <use xlink:href="#DejaVuSans-31" transform="translate(297.65625 0)"/>
       <use xlink:href="#DejaVuSans-2d" transform="translate(361.279297 0)"/>
       <use xlink:href="#DejaVuSans-32" transform="translate(397.363281 0)"/>
       <use xlink:href="#DejaVuSans-30" transform="translate(460.986328 0)"/>
       <use xlink:href="#DejaVuSans-32" transform="translate(524.609375 0)"/>
       <use xlink:href="#DejaVuSans-35" transform="translate(588.232422 0)"/>
       <use xlink:href="#DejaVuSans-2d" transform="translate(651.855469 0)"/>
       <use xlink:href="#DejaVuSans-30" transform="translate(687.939453 0)"/>
       <use xlink:href="#DejaVuSans-34" transform="translate(751.5625 0)"/>
       <use xlink:href="#DejaVuSans-2d" transform="translate(815.185547 0)"/>
       <use xlink:href="#DejaVuSans-31" transform="translate(851.269531 0)"/>
       <use xlink:href="#DejaVuSans-34" transform="translate(914.892578 0)"/>
      </g>
     </g>
    </g>
    <g id="xtick_7">
     <g id="line2d_7">
      <g>
       <use xlink:href="#m34e7c9d796" x="333.025" y="268.571376" style="stroke: #000000; stroke-width: 0.8"/>
      </g>
     </g>
     <g id="text_7">
      <!-- gpt-4.1-mini-2025-04-14 -->
      <g transform="translate(269.677063 385.97291) rotate(-60) scale(0.1 -0.1)">
       <use xlink:href="#DejaVuSans-67"/>
       <use xlink:href="#DejaVuSans-70" transform="translate(63.476562 0)"/>
       <use xlink:href="#DejaVuSans-74" transform="translate(126.953125 0)"/>
       <use xlink:href="#DejaVuSans-2d" transform="translate(166.162109 0)"/>
       <use xlink:href="#DejaVuSans-34" transform="translate(202.246094 0)"/>
       <use xlink:href="#DejaVuSans-2e" transform="translate(265.869141 0)"/>
       <use xlink:href="#DejaVuSans-31" transform="translate(297.65625 0)"/>
       <use xlink:href="#DejaVuSans-2d" transform="translate(361.279297 0)"/>
       <use xlink:href="#DejaVuSans-6d" transform="translate(397.363281 0)"/>
       <use xlink:href="#DejaVuSans-69" transform="translate(494.775391 0)"/>
       <use xlink:href="#DejaVuSans-6e" transform="translate(522.558594 0)"/>
       <use xlink:href="#DejaVuSans-69" transform="translate(585.9375 0)"/>
       <use xlink:href="#DejaVuSans-2d" transform="translate(613.720703 0)"/>
       <use xlink:href="#DejaVuSans-32" transform="translate(649.804688 0)"/>
       <use xlink:href="#DejaVuSans-30" transform="translate(713.427734 0)"/>
       <use xlink:href="#DejaVuSans-32" transform="translate(777.050781 0)"/>
       <use xlink:href="#DejaVuSans-35" transform="translate(840.673828 0)"/>
       <use xlink:href="#DejaVuSans-2d" transform="translate(904.296875 0)"/>
       <use xlink:href="#DejaVuSans-30" transform="translate(940.380859 0)"/>
       <use xlink:href="#DejaVuSans-34" transform="translate(1004.003906 0)"/>
       <use xlink:href="#DejaVuSans-2d" transform="translate(1067.626953 0)"/>
       <use xlink:href="#DejaVuSans-31" transform="translate(1103.710938 0)"/>
       <use xlink:href="#DejaVuSans-34" transform="translate(1167.333984 0)"/>
      </g>
     </g>
    </g>
    <g id="xtick_8">
     <g id="line2d_8">
      <g>
       <use xlink:href="#m34e7c9d796" x="372.657102" y="268.571376" style="stroke: #000000; stroke-width: 0.8"/>
      </g>
     </g>
     <g id="text_8">
      <!-- gpt-4.1-nano-2025-04-14 -->
      <g transform="translate(307.571665 388.982348) rotate(-60) scale(0.1 -0.1)">
       <use xlink:href="#DejaVuSans-67"/>
       <use xlink:href="#DejaVuSans-70" transform="translate(63.476562 0)"/>
       <use xlink:href="#DejaVuSans-74" transform="translate(126.953125 0)"/>
       <use xlink:href="#DejaVuSans-2d" transform="translate(166.162109 0)"/>
       <use xlink:href="#DejaVuSans-34" transform="translate(202.246094 0)"/>
       <use xlink:href="#DejaVuSans-2e" transform="translate(265.869141 0)"/>
       <use xlink:href="#DejaVuSans-31" transform="translate(297.65625 0)"/>
       <use xlink:href="#DejaVuSans-2d" transform="translate(361.279297 0)"/>
       <use xlink:href="#DejaVuSans-6e" transform="translate(397.363281 0)"/>
       <use xlink:href="#DejaVuSans-61" transform="translate(460.742188 0)"/>
       <use xlink:href="#DejaVuSans-6e" transform="translate(522.021484 0)"/>
       <use xlink:href="#DejaVuSans-6f" transform="translate(585.400391 0)"/>
       <use xlink:href="#DejaVuSans-2d" transform="translate(648.457031 0)"/>
       <use xlink:href="#DejaVuSans-32" transform="translate(684.541016 0)"/>
       <use xlink:href="#DejaVuSans-30" transform="translate(748.164062 0)"/>
       <use xlink:href="#DejaVuSans-32" transform="translate(811.787109 0)"/>
       <use xlink:href="#DejaVuSans-35" transform="translate(875.410156 0)"/>
       <use xlink:href="#DejaVuSans-2d" transform="translate(939.033203 0)"/>
       <use xlink:href="#DejaVuSans-30" transform="translate(975.117188 0)"/>
       <use xlink:href="#DejaVuSans-34" transform="translate(1038.740234 0)"/>
       <use xlink:href="#DejaVuSans-2d" transform="translate(1102.363281 0)"/>
       <use xlink:href="#DejaVuSans-31" transform="translate(1138.447266 0)"/>
       <use xlink:href="#DejaVuSans-34" transform="translate(1202.070312 0)"/>
      </g>
     </g>
    </g>
    <g id="xtick_9">
     <g id="line2d_9">
      <g>
       <use xlink:href="#m34e7c9d796" x="412.289205" y="268.571376" style="stroke: #000000; stroke-width: 0.8"/>
      </g>
     </g>
     <g id="text_9">
      <!-- gpt-4o-mini-2024-07-18 -->
      <g transform="translate(350.558455 383.171859) rotate(-60) scale(0.1 -0.1)">
       <defs>
        <path id="DejaVuSans-37" d="M 525 4666 
L 3525 4666 
L 3525 4397 
L 1831 0 
L 1172 0 
L 2766 4134 
L 525 4134 
L 525 4666 
z
" transform="scale(0.015625)"/>
        <path id="DejaVuSans-38" d="M 2034 2216 
Q 1584 2216 1326 1975 
Q 1069 1734 1069 1313 
Q 1069 891 1326 650 
Q 1584 409 2034 409 
Q 2484 409 2743 651 
Q 3003 894 3003 1313 
Q 3003 1734 2745 1975 
Q 2488 2216 2034 2216 
z
M 1403 2484 
Q 997 2584 770 2862 
Q 544 3141 544 3541 
Q 544 4100 942 4425 
Q 1341 4750 2034 4750 
Q 2731 4750 3128 4425 
Q 3525 4100 3525 3541 
Q 3525 3141 3298 2862 
Q 3072 2584 2669 2484 
Q 3125 2378 3379 2068 
Q 3634 1759 3634 1313 
Q 3634 634 3220 271 
Q 2806 -91 2034 -91 
Q 1263 -91 848 271 
Q 434 634 434 1313 
Q 434 1759 690 2068 
Q 947 2378 1403 2484 
z
M 1172 3481 
Q 1172 3119 1398 2916 
Q 1625 2713 2034 2713 
Q 2441 2713 2670 2916 
Q 2900 3119 2900 3481 
Q 2900 3844 2670 4047 
Q 2441 4250 2034 4250 
Q 1625 4250 1398 4047 
Q 1172 3844 1172 3481 
z
" transform="scale(0.015625)"/>
       </defs>
       <use xlink:href="#DejaVuSans-67"/>
       <use xlink:href="#DejaVuSans-70" transform="translate(63.476562 0)"/>
       <use xlink:href="#DejaVuSans-74" transform="translate(126.953125 0)"/>
       <use xlink:href="#DejaVuSans-2d" transform="translate(166.162109 0)"/>
       <use xlink:href="#DejaVuSans-34" transform="translate(202.246094 0)"/>
       <use xlink:href="#DejaVuSans-6f" transform="translate(265.869141 0)"/>
       <use xlink:href="#DejaVuSans-2d" transform="translate(328.925781 0)"/>
       <use xlink:href="#DejaVuSans-6d" transform="translate(365.009766 0)"/>
       <use xlink:href="#DejaVuSans-69" transform="translate(462.421875 0)"/>
       <use xlink:href="#DejaVuSans-6e" transform="translate(490.205078 0)"/>
       <use xlink:href="#DejaVuSans-69" transform="translate(553.583984 0)"/>
       <use xlink:href="#DejaVuSans-2d" transform="translate(581.367188 0)"/>
       <use xlink:href="#DejaVuSans-32" transform="translate(617.451172 0)"/>
       <use xlink:href="#DejaVuSans-30" transform="translate(681.074219 0)"/>
       <use xlink:href="#DejaVuSans-32" transform="translate(744.697266 0)"/>
       <use xlink:href="#DejaVuSans-34" transform="translate(808.320312 0)"/>
       <use xlink:href="#DejaVuSans-2d" transform="translate(871.943359 0)"/>
       <use xlink:href="#DejaVuSans-30" transform="translate(908.027344 0)"/>
       <use xlink:href="#DejaVuSans-37" transform="translate(971.650391 0)"/>
       <use xlink:href="#DejaVuSans-2d" transform="translate(1035.273438 0)"/>
       <use xlink:href="#DejaVuSans-31" transform="translate(1071.357422 0)"/>
       <use xlink:href="#DejaVuSans-38" transform="translate(1134.980469 0)"/>
      </g>
     </g>
    </g>
    <g id="xtick_10">
     <g id="line2d_10">
      <g>
       <use xlink:href="#m34e7c9d796" x="451.921307" y="268.571376" style="stroke: #000000; stroke-width: 0.8"/>
      </g>
     </g>
     <g id="text_10">
      <!-- grok-3-mini -->
      <g transform="translate(421.44212 329.042565) rotate(-60) scale(0.1 -0.1)">
       <use xlink:href="#DejaVuSans-67"/>
       <use xlink:href="#DejaVuSans-72" transform="translate(63.476562 0)"/>
       <use xlink:href="#DejaVuSans-6f" transform="translate(102.339844 0)"/>
       <use xlink:href="#DejaVuSans-6b" transform="translate(163.521484 0)"/>
       <use xlink:href="#DejaVuSans-2d" transform="translate(221.431641 0)"/>
       <use xlink:href="#DejaVuSans-33" transform="translate(257.515625 0)"/>
       <use xlink:href="#DejaVuSans-2d" transform="translate(321.138672 0)"/>
       <use xlink:href="#DejaVuSans-6d" transform="translate(357.222656 0)"/>
       <use xlink:href="#DejaVuSans-69" transform="translate(454.634766 0)"/>
       <use xlink:href="#DejaVuSans-6e" transform="translate(482.417969 0)"/>
       <use xlink:href="#DejaVuSans-69" transform="translate(545.796875 0)"/>
      </g>
     </g>
    </g>
    <g id="xtick_11">
     <g id="line2d_11">
      <g>
       <use xlink:href="#m34e7c9d796" x="491.553409" y="268.571376" style="stroke: #000000; stroke-width: 0.8"/>
      </g>
     </g>
     <g id="text_11">
      <!-- grok-4-fast-non-reasoning -->
      <g transform="translate(424.849222 391.786105) rotate(-60) scale(0.1 -0.1)">
       <use xlink:href="#DejaVuSans-67"/>
       <use xlink:href="#DejaVuSans-72" transform="translate(63.476562 0)"/>
       <use xlink:href="#DejaVuSans-6f" transform="translate(102.339844 0)"/>
       <use xlink:href="#DejaVuSans-6b" transform="translate(163.521484 0)"/>
       <use xlink:href="#DejaVuSans-2d" transform="translate(221.431641 0)"/>
       <use xlink:href="#DejaVuSans-34" transform="translate(257.515625 0)"/>
       <use xlink:href="#DejaVuSans-2d" transform="translate(321.138672 0)"/>
       <use xlink:href="#DejaVuSans-66" transform="translate(357.222656 0)"/>
       <use xlink:href="#DejaVuSans-61" transform="translate(392.427734 0)"/>
       <use xlink:href="#DejaVuSans-73" transform="translate(453.707031 0)"/>
       <use xlink:href="#DejaVuSans-74" transform="translate(505.806641 0)"/>
       <use xlink:href="#DejaVuSans-2d" transform="translate(545.015625 0)"/>
       <use xlink:href="#DejaVuSans-6e" transform="translate(581.099609 0)"/>
       <use xlink:href="#DejaVuSans-6f" transform="translate(644.478516 0)"/>
       <use xlink:href="#DejaVuSans-6e" transform="translate(705.660156 0)"/>
       <use xlink:href="#DejaVuSans-2d" transform="translate(769.039062 0)"/>
       <use xlink:href="#DejaVuSans-72" transform="translate(805.123047 0)"/>
       <use xlink:href="#DejaVuSans-65" transform="translate(843.986328 0)"/>
       <use xlink:href="#DejaVuSans-61" transform="translate(905.509766 0)"/>
       <use xlink:href="#DejaVuSans-73" transform="translate(966.789062 0)"/>
       <use xlink:href="#DejaVuSans-6f" transform="translate(1018.888672 0)"/>
       <use xlink:href="#DejaVuSans-6e" transform="translate(1080.070312 0)"/>
       <use xlink:href="#DejaVuSans-69" transform="translate(1143.449219 0)"/>
       <use xlink:href="#DejaVuSans-6e" transform="translate(1171.232422 0)"/>
       <use xlink:href="#DejaVuSans-67" transform="translate(1234.611328 0)"/>
      </g>
     </g>
    </g>
    <g id="xtick_12">
     <g id="line2d_12">
      <g>
       <use xlink:href="#m34e7c9d796" x="531.185511" y="268.571376" style="stroke: #000000; stroke-width: 0.8"/>
      </g>
     </g>
     <g id="text_12">
      <!-- qwen-flash -->
      <g transform="translate(502.08523 326.654229) rotate(-60) scale(0.1 -0.1)">
       <defs>
        <path id="DejaVuSans-71" d="M 947 1747 
Q 947 1113 1208 752 
Q 1469 391 1925 391 
Q 2381 391 2643 752 
Q 2906 1113 2906 1747 
Q 2906 2381 2643 2742 
Q 2381 3103 1925 3103 
Q 1469 3103 1208 2742 
Q 947 2381 947 1747 
z
M 2906 525 
Q 2725 213 2448 61 
Q 2172 -91 1784 -91 
Q 1150 -91 751 415 
Q 353 922 353 1747 
Q 353 2572 751 3078 
Q 1150 3584 1784 3584 
Q 2172 3584 2448 3432 
Q 2725 3281 2906 2969 
L 2906 3500 
L 3481 3500 
L 3481 -1331 
L 2906 -1331 
L 2906 525 
z
" transform="scale(0.015625)"/>
        <path id="DejaVuSans-77" d="M 269 3500 
L 844 3500 
L 1563 769 
L 2278 3500 
L 2956 3500 
L 3675 769 
L 4391 3500 
L 4966 3500 
L 4050 0 
L 3372 0 
L 2619 2869 
L 1863 0 
L 1184 0 
L 269 3500 
z
" transform="scale(0.015625)"/>
       </defs>
       <use xlink:href="#DejaVuSans-71"/>
       <use xlink:href="#DejaVuSans-77" transform="translate(63.476562 0)"/>
       <use xlink:href="#DejaVuSans-65" transform="translate(145.263672 0)"/>
       <use xlink:href="#DejaVuSans-6e" transform="translate(206.787109 0)"/>
       <use xlink:href="#DejaVuSans-2d" transform="translate(270.166016 0)"/>
       <use xlink:href="#DejaVuSans-66" transform="translate(306.25 0)"/>
       <use xlink:href="#DejaVuSans-6c" transform="translate(341.455078 0)"/>
       <use xlink:href="#DejaVuSans-61" transform="translate(369.238281 0)"/>
       <use xlink:href="#DejaVuSans-73" transform="translate(430.517578 0)"/>
       <use xlink:href="#DejaVuSans-68" transform="translate(482.617188 0)"/>
      </g>
     </g>
    </g>
    <g id="xtick_13">
     <g id="line2d_13">
      <g>
       <use xlink:href="#m34e7c9d796" x="570.817614" y="268.571376" style="stroke: #000000; stroke-width: 0.8"/>
      </g>
     </g>
     <g id="text_13">
      <!-- qwen-plus -->
      <g transform="translate(543.367333 323.796345) rotate(-60) scale(0.1 -0.1)">
       <use xlink:href="#DejaVuSans-71"/>
       <use xlink:href="#DejaVuSans-77" transform="translate(63.476562 0)"/>
       <use xlink:href="#DejaVuSans-65" transform="translate(145.263672 0)"/>
       <use xlink:href="#DejaVuSans-6e" transform="translate(206.787109 0)"/>
       <use xlink:href="#DejaVuSans-2d" transform="translate(270.166016 0)"/>
       <use xlink:href="#DejaVuSans-70" transform="translate(306.25 0)"/>
       <use xlink:href="#DejaVuSans-6c" transform="translate(369.726562 0)"/>
       <use xlink:href="#DejaVuSans-75" transform="translate(397.509766 0)"/>
       <use xlink:href="#DejaVuSans-73" transform="translate(460.888672 0)"/>
      </g>
     </g>
    </g>
    <g id="text_14">
     <!-- Modelo -->
     <g transform="translate(307.723281 414.870985) scale(0.14 -0.14)">
      <defs>
       <path id="DejaVuSans-4d" d="M 628 4666 
L 1569 4666 
L 2759 1491 
L 3956 4666 
L 4897 4666 
L 4897 0 
L 4281 0 
L 4281 4097 
L 3078 897 
L 2444 897 
L 1241 4097 
L 1241 0 
L 628 0 
L 628 4666 
z
" transform="scale(0.015625)"/>
      </defs>
      <use xlink:href="#DejaVuSans-4d"/>
      <use xlink:href="#DejaVuSans-6f" transform="translate(86.279297 0)"/>
      <use xlink:href="#DejaVuSans-64" transform="translate(147.460938 0)"/>
      <use xlink:href="#DejaVuSans-65" transform="translate(210.9375 0)"/>
      <use xlink:href="#DejaVuSans-6c" transform="translate(272.460938 0)"/>
      <use xlink:href="#DejaVuSans-6f" transform="translate(300.244141 0)"/>
     </g>
    </g>
   </g>
   <g id="matplotlib.axis_2">
    <g id="ytick_1">
     <g id="line2d_14">
      <defs>
       <path id="md587bddf7e" d="M 0 0 
L -3.5 0 
" style="stroke: #000000; stroke-width: 0.8"/>
      </defs>
      <g>
       <use xlink:href="#md587bddf7e" x="54.015" y="268.571376" style="stroke: #000000; stroke-width: 0.8"/>
      </g>
     </g>
     <g id="text_15">
      <!-- 0.00 -->
      <g transform="translate(24.749375 272.370595) scale(0.1 -0.1)">
       <use xlink:href="#DejaVuSans-30"/>
       <use xlink:href="#DejaVuSans-2e" transform="translate(63.623047 0)"/>
       <use xlink:href="#DejaVuSans-30" transform="translate(95.410156 0)"/>
       <use xlink:href="#DejaVuSans-30" transform="translate(159.033203 0)"/>
      </g>
     </g>
    </g>
    <g id="ytick_2">
     <g id="line2d_15">
      <g>
       <use xlink:href="#md587bddf7e" x="54.015" y="231.775354" style="stroke: #000000; stroke-width: 0.8"/>
      </g>
     </g>
     <g id="text_16">
      <!-- 0.05 -->
      <g transform="translate(24.749375 235.574573) scale(0.1 -0.1)">
       <use xlink:href="#DejaVuSans-30"/>
       <use xlink:href="#DejaVuSans-2e" transform="translate(63.623047 0)"/>
       <use xlink:href="#DejaVuSans-30" transform="translate(95.410156 0)"/>
       <use xlink:href="#DejaVuSans-35" transform="translate(159.033203 0)"/>
      </g>
     </g>
    </g>
    <g id="ytick_3">
     <g id="line2d_16">
      <g>
       <use xlink:href="#md587bddf7e" x="54.015" y="194.979331" style="stroke: #000000; stroke-width: 0.8"/>
      </g>
     </g>
     <g id="text_17">
      <!-- 0.10 -->
      <g transform="translate(24.749375 198.77855) scale(0.1 -0.1)">
       <use xlink:href="#DejaVuSans-30"/>
       <use xlink:href="#DejaVuSans-2e" transform="translate(63.623047 0)"/>
       <use xlink:href="#DejaVuSans-31" transform="translate(95.410156 0)"/>
       <use xlink:href="#DejaVuSans-30" transform="translate(159.033203 0)"/>
      </g>
     </g>
    </g>
    <g id="ytick_4">
     <g id="line2d_17">
      <g>
       <use xlink:href="#md587bddf7e" x="54.015" y="158.183309" style="stroke: #000000; stroke-width: 0.8"/>
      </g>
     </g>
     <g id="text_18">
      <!-- 0.15 -->
      <g transform="translate(24.749375 161.982528) scale(0.1 -0.1)">
       <use xlink:href="#DejaVuSans-30"/>
       <use xlink:href="#DejaVuSans-2e" transform="translate(63.623047 0)"/>
       <use xlink:href="#DejaVuSans-31" transform="translate(95.410156 0)"/>
       <use xlink:href="#DejaVuSans-35" transform="translate(159.033203 0)"/>
      </g>
     </g>
    </g>
    <g id="ytick_5">
     <g id="line2d_18">
      <g>
       <use xlink:href="#md587bddf7e" x="54.015" y="121.387286" style="stroke: #000000; stroke-width: 0.8"/>
      </g>
     </g>
     <g id="text_19">
      <!-- 0.20 -->
      <g transform="translate(24.749375 125.186505) scale(0.1 -0.1)">
       <use xlink:href="#DejaVuSans-30"/>
       <use xlink:href="#DejaVuSans-2e" transform="translate(63.623047 0)"/>
       <use xlink:href="#DejaVuSans-32" transform="translate(95.410156 0)"/>
       <use xlink:href="#DejaVuSans-30" transform="translate(159.033203 0)"/>
      </g>
     </g>
    </g>
    <g id="ytick_6">
     <g id="line2d_19">
      <g>
       <use xlink:href="#md587bddf7e" x="54.015" y="84.591264" style="stroke: #000000; stroke-width: 0.8"/>
      </g>
     </g>
     <g id="text_20">
      <!-- 0.25 -->
      <g transform="translate(24.749375 88.390483) scale(0.1 -0.1)">
       <use xlink:href="#DejaVuSans-30"/>
       <use xlink:href="#DejaVuSans-2e" transform="translate(63.623047 0)"/>
       <use xlink:href="#DejaVuSans-32" transform="translate(95.410156 0)"/>
       <use xlink:href="#DejaVuSans-35" transform="translate(159.033203 0)"/>
      </g>
     </g>
    </g>
    <g id="ytick_7">
     <g id="line2d_20">
      <g>
       <use xlink:href="#md587bddf7e" x="54.015" y="47.795241" style="stroke: #000000; stroke-width: 0.8"/>
      </g>
     </g>
     <g id="text_21">
      <!-- 0.30 -->
      <g transform="translate(24.749375 51.59446) scale(0.1 -0.1)">
       <use xlink:href="#DejaVuSans-30"/>
       <use xlink:href="#DejaVuSans-2e" transform="translate(63.623047 0)"/>
       <use xlink:href="#DejaVuSans-33" transform="translate(95.410156 0)"/>
       <use xlink:href="#DejaVuSans-30" transform="translate(159.033203 0)"/>
      </g>
     </g>
    </g>
    <g id="ytick_8">
     <g id="line2d_21">
      <g>
       <use xlink:href="#md587bddf7e" x="54.015" y="10.999219" style="stroke: #000000; stroke-width: 0.8"/>
      </g>
     </g>
     <g id="text_22">
      <!-- 0.35 -->
      <g transform="translate(24.749375 14.798437) scale(0.1 -0.1)">
       <use xlink:href="#DejaVuSans-30"/>
       <use xlink:href="#DejaVuSans-2e" transform="translate(63.623047 0)"/>
       <use xlink:href="#DejaVuSans-33" transform="translate(95.410156 0)"/>
       <use xlink:href="#DejaVuSans-35" transform="translate(159.033203 0)"/>
      </g>
     </g>
    </g>
    <g id="text_23">
     <!-- QWK -->
     <g transform="translate(17.837812 156.62805) rotate(-90) scale(0.14 -0.14)">
      <defs>
       <path id="DejaVuSans-51" d="M 2522 4238 
Q 1834 4238 1429 3725 
Q 1025 3213 1025 2328 
Q 1025 1447 1429 934 
Q 1834 422 2522 422 
Q 3209 422 3611 934 
Q 4013 1447 4013 2328 
Q 4013 3213 3611 3725 
Q 3209 4238 2522 4238 
z
M 3406 84 
L 4238 -825 
L 3475 -825 
L 2784 -78 
Q 2681 -84 2626 -87 
Q 2572 -91 2522 -91 
Q 1538 -91 948 567 
Q 359 1225 359 2328 
Q 359 3434 948 4092 
Q 1538 4750 2522 4750 
Q 3503 4750 4090 4092 
Q 4678 3434 4678 2328 
Q 4678 1516 4351 937 
Q 4025 359 3406 84 
z
" transform="scale(0.015625)"/>
       <path id="DejaVuSans-57" d="M 213 4666 
L 850 4666 
L 1831 722 
L 2809 4666 
L 3519 4666 
L 4500 722 
L 5478 4666 
L 6119 4666 
L 4947 0 
L 4153 0 
L 3169 4050 
L 2175 0 
L 1381 0 
L 213 4666 
z
" transform="scale(0.015625)"/>
       <path id="DejaVuSans-4b" d="M 628 4666 
L 1259 4666 
L 1259 2694 
L 3353 4666 
L 4166 4666 
L 1850 2491 
L 4331 0 
L 3500 0 
L 1259 2247 
L 1259 0 
L 628 0 
L 628 4666 
z
" transform="scale(0.015625)"/>
      </defs>
      <use xlink:href="#DejaVuSans-51"/>
      <use xlink:href="#DejaVuSans-57" transform="translate(78.710938 0)"/>
      <use xlink:href="#DejaVuSans-4b" transform="translate(177.587891 0)"/>
     </g>
    </g>
   </g>
   <g id="line2d_22">
    <path clip-path="url(#pae9ed95e9f)" style="fill: none; stroke: #424242; stroke-width: 2.25; stroke-linecap: square"/>
   </g>
   <g id="line2d_23">
    <path clip-path="url(#pae9ed95e9f)" style="fill: none; stroke: #424242; stroke-width: 2.25; stroke-linecap: square"/>
   </g>
   <g id="line2d_24">
    <path clip-path="url(#pae9ed95e9f)" style="fill: none; stroke: #424242; stroke-width: 2.25; stroke-linecap: square"/>
   </g>
   <g id="line2d_25">
    <path clip-path="url(#pae9ed95e9f)" style="fill: none; stroke: #424242; stroke-width: 2.25; stroke-linecap: square"/>
   </g>
   <g id="line2d_26">
    <path clip-path="url(#pae9ed95e9f)" style="fill: none; stroke: #424242; stroke-width: 2.25; stroke-linecap: square"/>
   </g>
   <g id="line2d_27">
    <path clip-path="url(#pae9ed95e9f)" style="fill: none; stroke: #424242; stroke-width: 2.25; stroke-linecap: square"/>
   </g>
   <g id="line2d_28">
    <path clip-path="url(#pae9ed95e9f)" style="fill: none; stroke: #424242; stroke-width: 2.25; stroke-linecap: square"/>
   </g>
   <g id="line2d_29">
    <path clip-path="url(#pae9ed95e9f)" style="fill: none; stroke: #424242; stroke-width: 2.25; stroke-linecap: square"/>
   </g>
   <g id="line2d_30">
    <path clip-path="url(#pae9ed95e9f)" style="fill: none; stroke: #424242; stroke-width: 2.25; stroke-linecap: square"/>
   </g>
   <g id="line2d_31">
    <path clip-path="url(#pae9ed95e9f)" style="fill: none; stroke: #424242; stroke-width: 2.25; stroke-linecap: square"/>
   </g>
   <g id="line2d_32">
    <path clip-path="url(#pae9ed95e9f)" style="fill: none; stroke: #424242; stroke-width: 2.25; stroke-linecap: square"/>
   </g>
   <g id="line2d_33">
    <path clip-path="url(#pae9ed95e9f)" style="fill: none; stroke: #424242; stroke-width: 2.25; stroke-linecap: square"/>
   </g>
   <g id="line2d_34">
    <path clip-path="url(#pae9ed95e9f)" style="fill: none; stroke: #424242; stroke-width: 2.25; stroke-linecap: square"/>
   </g>
   <g id="line2d_35">
    <path clip-path="url(#pae9ed95e9f)" style="fill: none; stroke: #424242; stroke-width: 2.25; stroke-linecap: square"/>
   </g>
   <g id="line2d_36">
    <path clip-path="url(#pae9ed95e9f)" style="fill: none; stroke: #424242; stroke-width: 2.25; stroke-linecap: square"/>
   </g>
   <g id="line2d_37">
    <path clip-path="url(#pae9ed95e9f)" style="fill: none; stroke: #424242; stroke-width: 2.25; stroke-linecap: square"/>
   </g>
   <g id="line2d_38">
    <path clip-path="url(#pae9ed95e9f)" style="fill: none; stroke: #424242; stroke-width: 2.25; stroke-linecap: square"/>
   </g>
   <g id="line2d_39">
    <path clip-path="url(#pae9ed95e9f)" style="fill: none; stroke: #424242; stroke-width: 2.25; stroke-linecap: square"/>
   </g>
   <g id="line2d_40">
    <path clip-path="url(#pae9ed95e9f)" style="fill: none; stroke: #424242; stroke-width: 2.25; stroke-linecap: square"/>
   </g>
   <g id="line2d_41">
    <path clip-path="url(#pae9ed95e9f)" style="fill: none; stroke: #424242; stroke-width: 2.25; stroke-linecap: square"/>
   </g>
   <g id="line2d_42">
    <path clip-path="url(#pae9ed95e9f)" style="fill: none; stroke: #424242; stroke-width: 2.25; stroke-linecap: square"/>
   </g>
   <g id="line2d_43">
    <path clip-path="url(#pae9ed95e9f)" style="fill: none; stroke: #424242; stroke-width: 2.25; stroke-linecap: square"/>
   </g>
   <g id="line2d_44">
    <path clip-path="url(#pae9ed95e9f)" style="fill: none; stroke: #424242; stroke-width: 2.25; stroke-linecap: square"/>
   </g>
   <g id="line2d_45">
    <path clip-path="url(#pae9ed95e9f)" style="fill: none; stroke: #424242; stroke-width: 2.25; stroke-linecap: square"/>
   </g>
   <g id="line2d_46">
    <path clip-path="url(#pae9ed95e9f)" style="fill: none; stroke: #424242; stroke-width: 2.25; stroke-linecap: square"/>
   </g>
   <g id="line2d_47">
    <path clip-path="url(#pae9ed95e9f)" style="fill: none; stroke: #424242; stroke-width: 2.25; stroke-linecap: square"/>
   </g>
   <g id="line2d_48">
    <path clip-path="url(#pae9ed95e9f)" style="fill: none; stroke: #424242; stroke-width: 2.25; stroke-linecap: square"/>
   </g>
   <g id="line2d_49">
    <path clip-path="url(#pae9ed95e9f)" style="fill: none; stroke: #424242; stroke-width: 2.25; stroke-linecap: square"/>
   </g>
   <g id="line2d_50">
    <path clip-path="url(#pae9ed95e9f)" style="fill: none; stroke: #424242; stroke-width: 2.25; stroke-linecap: square"/>
   </g>
   <g id="line2d_51">
    <path clip-path="url(#pae9ed95e9f)" style="fill: none; stroke: #424242; stroke-width: 2.25; stroke-linecap: square"/>
   </g>
   <g id="line2d_52">
    <path clip-path="url(#pae9ed95e9f)" style="fill: none; stroke: #424242; stroke-width: 2.25; stroke-linecap: square"/>
   </g>
   <g id="line2d_53">
    <path clip-path="url(#pae9ed95e9f)" style="fill: none; stroke: #424242; stroke-width: 2.25; stroke-linecap: square"/>
   </g>
   <g id="line2d_54">
    <path clip-path="url(#pae9ed95e9f)" style="fill: none; stroke: #424242; stroke-width: 2.25; stroke-linecap: square"/>
   </g>
   <g id="line2d_55">
    <path clip-path="url(#pae9ed95e9f)" style="fill: none; stroke: #424242; stroke-width: 2.25; stroke-linecap: square"/>
   </g>
   <g id="line2d_56">
    <path clip-path="url(#pae9ed95e9f)" style="fill: none; stroke: #424242; stroke-width: 2.25; stroke-linecap: square"/>
   </g>
   <g id="line2d_57">
    <path clip-path="url(#pae9ed95e9f)" style="fill: none; stroke: #424242; stroke-width: 2.25; stroke-linecap: square"/>
   </g>
   <g id="line2d_58">
    <path clip-path="url(#pae9ed95e9f)" style="fill: none; stroke: #424242; stroke-width: 2.25; stroke-linecap: square"/>
   </g>
   <g id="line2d_59">
    <path clip-path="url(#pae9ed95e9f)" style="fill: none; stroke: #424242; stroke-width: 2.25; stroke-linecap: square"/>
   </g>
   <g id="line2d_60">
    <path clip-path="url(#pae9ed95e9f)" style="fill: none; stroke: #424242; stroke-width: 2.25; stroke-linecap: square"/>
   </g>
   <g id="line2d_61">
    <path d="M 54.015 65.132486 
L 612.035 65.132486 
" clip-path="url(#pae9ed95e9f)" style="fill: none; stroke-dasharray: 7.4,3.2; stroke-dashoffset: 0; stroke: #ff0000; stroke-opacity: 0.7; stroke-width: 2"/>
   </g>
   <g id="line2d_62">
    <path d="M 54.015 22.923076 
L 612.035 22.923076 
" clip-path="url(#pae9ed95e9f)" style="fill: none; stroke-dasharray: 12.8,3.2,2,3.2; stroke-dashoffset: 0; stroke: #008000; stroke-opacity: 0.7; stroke-width: 2"/>
   </g>
   <g id="line2d_63"/>
   <g id="patch_45">
    <path d="M 54.015 268.571376 
L 54.015 10.640662 
" style="fill: none; stroke: #000000; stroke-width: 0.8; stroke-linejoin: miter; stroke-linecap: square"/>
   </g>
   <g id="patch_46">
    <path d="M 612.035 268.571376 
L 612.035 10.640662 
" style="fill: none; stroke: #000000; stroke-width: 0.8; stroke-linejoin: miter; stroke-linecap: square"/>
   </g>
   <g id="patch_47">
    <path d="M 54.015 268.571376 
L 612.035 268.571376 
" style="fill: none; stroke: #000000; stroke-width: 0.8; stroke-linejoin: miter; stroke-linecap: square"/>
   </g>
   <g id="patch_48">
    <path d="M 54.015 10.640662 
L 612.035 10.640662 
" style="fill: none; stroke: #000000; stroke-width: 0.8; stroke-linejoin: miter; stroke-linecap: square"/>
   </g>
   <g id="legend_1">
    <g id="patch_49">
     <path d="M 646.936 145.295662 
L 842.225063 145.295662 
Q 844.225063 145.295662 844.225063 143.295662 
L 844.225063 17.640662 
Q 844.225063 15.640662 842.225063 15.640662 
L 646.936 15.640662 
Q 644.936 15.640662 644.936 17.640662 
L 644.936 143.295662 
Q 644.936 145.295662 646.936 145.295662 
z
" style="fill: #ffffff; opacity: 0.8; stroke: #cccccc; stroke-linejoin: miter"/>
    </g>
    <g id="text_24">
     <!-- Prompt -->
     <g transform="translate(726.646156 27.239099) scale(0.1 -0.1)">
      <defs>
       <path id="DejaVuSans-50" d="M 1259 4147 
L 1259 2394 
L 2053 2394 
Q 2494 2394 2734 2622 
Q 2975 2850 2975 3272 
Q 2975 3691 2734 3919 
Q 2494 4147 2053 4147 
L 1259 4147 
z
M 628 4666 
L 2053 4666 
Q 2838 4666 3239 4311 
Q 3641 3956 3641 3272 
Q 3641 2581 3239 2228 
Q 2838 1875 2053 1875 
L 1259 1875 
L 1259 0 
L 628 0 
L 628 4666 
z
" transform="scale(0.015625)"/>
      </defs>
      <use xlink:href="#DejaVuSans-50"/>
      <use xlink:href="#DejaVuSans-72" transform="translate(58.552734 0)"/>
      <use xlink:href="#DejaVuSans-6f" transform="translate(97.416016 0)"/>
      <use xlink:href="#DejaVuSans-6d" transform="translate(158.597656 0)"/>
      <use xlink:href="#DejaVuSans-70" transform="translate(256.009766 0)"/>
      <use xlink:href="#DejaVuSans-74" transform="translate(319.486328 0)"/>
     </g>
    </g>
    <g id="patch_50">
     <path d="M 648.936 41.917224 
L 668.936 41.917224 
L 668.936 34.917224 
L 648.936 34.917224 
z
" style="fill: #72b6a1"/>
    </g>
    <g id="text_25">
     <!-- detailed_tox_types_0_10.jinja2 -->
     <g transform="translate(676.936 41.917224) scale(0.1 -0.1)">
      <defs>
       <path id="DejaVuSans-5f" d="M 3263 -1063 
L 3263 -1509 
L -63 -1509 
L -63 -1063 
L 3263 -1063 
z
" transform="scale(0.015625)"/>
       <path id="DejaVuSans-78" d="M 3513 3500 
L 2247 1797 
L 3578 0 
L 2900 0 
L 1881 1375 
L 863 0 
L 184 0 
L 1544 1831 
L 300 3500 
L 978 3500 
L 1906 2253 
L 2834 3500 
L 3513 3500 
z
" transform="scale(0.015625)"/>
       <path id="DejaVuSans-79" d="M 2059 -325 
Q 1816 -950 1584 -1140 
Q 1353 -1331 966 -1331 
L 506 -1331 
L 506 -850 
L 844 -850 
Q 1081 -850 1212 -737 
Q 1344 -625 1503 -206 
L 1606 56 
L 191 3500 
L 800 3500 
L 1894 763 
L 2988 3500 
L 3597 3500 
L 2059 -325 
z
" transform="scale(0.015625)"/>
       <path id="DejaVuSans-6a" d="M 603 3500 
L 1178 3500 
L 1178 -63 
Q 1178 -731 923 -1031 
Q 669 -1331 103 -1331 
L -116 -1331 
L -116 -844 
L 38 -844 
Q 366 -844 484 -692 
Q 603 -541 603 -63 
L 603 3500 
z
M 603 4863 
L 1178 4863 
L 1178 4134 
L 603 4134 
L 603 4863 
z
" transform="scale(0.015625)"/>
      </defs>
      <use xlink:href="#DejaVuSans-64"/>
      <use xlink:href="#DejaVuSans-65" transform="translate(63.476562 0)"/>
      <use xlink:href="#DejaVuSans-74" transform="translate(125 0)"/>
      <use xlink:href="#DejaVuSans-61" transform="translate(164.208984 0)"/>
      <use xlink:href="#DejaVuSans-69" transform="translate(225.488281 0)"/>
      <use xlink:href="#DejaVuSans-6c" transform="translate(253.271484 0)"/>
      <use xlink:href="#DejaVuSans-65" transform="translate(281.054688 0)"/>
      <use xlink:href="#DejaVuSans-64" transform="translate(342.578125 0)"/>
      <use xlink:href="#DejaVuSans-5f" transform="translate(406.054688 0)"/>
      <use xlink:href="#DejaVuSans-74" transform="translate(456.054688 0)"/>
      <use xlink:href="#DejaVuSans-6f" transform="translate(495.263672 0)"/>
      <use xlink:href="#DejaVuSans-78" transform="translate(553.320312 0)"/>
      <use xlink:href="#DejaVuSans-5f" transform="translate(612.5 0)"/>
      <use xlink:href="#DejaVuSans-74" transform="translate(662.5 0)"/>
      <use xlink:href="#DejaVuSans-79" transform="translate(701.708984 0)"/>
      <use xlink:href="#DejaVuSans-70" transform="translate(760.888672 0)"/>
      <use xlink:href="#DejaVuSans-65" transform="translate(824.365234 0)"/>
      <use xlink:href="#DejaVuSans-73" transform="translate(885.888672 0)"/>
      <use xlink:href="#DejaVuSans-5f" transform="translate(937.988281 0)"/>
      <use xlink:href="#DejaVuSans-30" transform="translate(987.988281 0)"/>
      <use xlink:href="#DejaVuSans-5f" transform="translate(1051.611328 0)"/>
      <use xlink:href="#DejaVuSans-31" transform="translate(1101.611328 0)"/>
      <use xlink:href="#DejaVuSans-30" transform="translate(1165.234375 0)"/>
      <use xlink:href="#DejaVuSans-2e" transform="translate(1228.857422 0)"/>
      <use xlink:href="#DejaVuSans-6a" transform="translate(1260.644531 0)"/>
      <use xlink:href="#DejaVuSans-69" transform="translate(1288.427734 0)"/>
      <use xlink:href="#DejaVuSans-6e" transform="translate(1316.210938 0)"/>
      <use xlink:href="#DejaVuSans-6a" transform="translate(1379.589844 0)"/>
      <use xlink:href="#DejaVuSans-61" transform="translate(1407.373047 0)"/>
      <use xlink:href="#DejaVuSans-32" transform="translate(1468.652344 0)"/>
     </g>
    </g>
    <g id="patch_51">
     <path d="M 648.936 56.873474 
L 668.936 56.873474 
L 668.936 49.873474 
L 648.936 49.873474 
z
" style="fill: #e99675"/>
    </g>
    <g id="text_26">
     <!-- toxicity_10_alternative.jinja2 -->
     <g transform="translate(676.936 56.873474) scale(0.1 -0.1)">
      <defs>
       <path id="DejaVuSans-76" d="M 191 3500 
L 800 3500 
L 1894 563 
L 2988 3500 
L 3597 3500 
L 2284 0 
L 1503 0 
L 191 3500 
z
" transform="scale(0.015625)"/>
      </defs>
      <use xlink:href="#DejaVuSans-74"/>
      <use xlink:href="#DejaVuSans-6f" transform="translate(39.208984 0)"/>
      <use xlink:href="#DejaVuSans-78" transform="translate(97.265625 0)"/>
      <use xlink:href="#DejaVuSans-69" transform="translate(156.445312 0)"/>
      <use xlink:href="#DejaVuSans-63" transform="translate(184.228516 0)"/>
      <use xlink:href="#DejaVuSans-69" transform="translate(239.208984 0)"/>
      <use xlink:href="#DejaVuSans-74" transform="translate(266.992188 0)"/>
      <use xlink:href="#DejaVuSans-79" transform="translate(306.201172 0)"/>
      <use xlink:href="#DejaVuSans-5f" transform="translate(365.380859 0)"/>
      <use xlink:href="#DejaVuSans-31" transform="translate(415.380859 0)"/>
      <use xlink:href="#DejaVuSans-30" transform="translate(479.003906 0)"/>
      <use xlink:href="#DejaVuSans-5f" transform="translate(542.626953 0)"/>
      <use xlink:href="#DejaVuSans-61" transform="translate(592.626953 0)"/>
      <use xlink:href="#DejaVuSans-6c" transform="translate(653.90625 0)"/>
      <use xlink:href="#DejaVuSans-74" transform="translate(681.689453 0)"/>
      <use xlink:href="#DejaVuSans-65" transform="translate(720.898438 0)"/>
      <use xlink:href="#DejaVuSans-72" transform="translate(782.421875 0)"/>
      <use xlink:href="#DejaVuSans-6e" transform="translate(821.785156 0)"/>
      <use xlink:href="#DejaVuSans-61" transform="translate(885.164062 0)"/>
      <use xlink:href="#DejaVuSans-74" transform="translate(946.443359 0)"/>
      <use xlink:href="#DejaVuSans-69" transform="translate(985.652344 0)"/>
      <use xlink:href="#DejaVuSans-76" transform="translate(1013.435547 0)"/>
      <use xlink:href="#DejaVuSans-65" transform="translate(1072.615234 0)"/>
      <use xlink:href="#DejaVuSans-2e" transform="translate(1134.138672 0)"/>
      <use xlink:href="#DejaVuSans-6a" transform="translate(1165.925781 0)"/>
      <use xlink:href="#DejaVuSans-69" transform="translate(1193.708984 0)"/>
      <use xlink:href="#DejaVuSans-6e" transform="translate(1221.492188 0)"/>
      <use xlink:href="#DejaVuSans-6a" transform="translate(1284.871094 0)"/>
      <use xlink:href="#DejaVuSans-61" transform="translate(1312.654297 0)"/>
      <use xlink:href="#DejaVuSans-32" transform="translate(1373.933594 0)"/>
     </g>
    </g>
    <g id="patch_52">
     <path d="M 648.936 71.829724 
L 668.936 71.829724 
L 668.936 64.829724 
L 648.936 64.829724 
z
" style="fill: #95a3c3"/>
    </g>
    <g id="text_27">
     <!-- toxicity_10_prod.jinja2 -->
     <g transform="translate(676.936 71.829724) scale(0.1 -0.1)">
      <use xlink:href="#DejaVuSans-74"/>
      <use xlink:href="#DejaVuSans-6f" transform="translate(39.208984 0)"/>
      <use xlink:href="#DejaVuSans-78" transform="translate(97.265625 0)"/>
      <use xlink:href="#DejaVuSans-69" transform="translate(156.445312 0)"/>
      <use xlink:href="#DejaVuSans-63" transform="translate(184.228516 0)"/>
      <use xlink:href="#DejaVuSans-69" transform="translate(239.208984 0)"/>
      <use xlink:href="#DejaVuSans-74" transform="translate(266.992188 0)"/>
      <use xlink:href="#DejaVuSans-79" transform="translate(306.201172 0)"/>
      <use xlink:href="#DejaVuSans-5f" transform="translate(365.380859 0)"/>
      <use xlink:href="#DejaVuSans-31" transform="translate(415.380859 0)"/>
      <use xlink:href="#DejaVuSans-30" transform="translate(479.003906 0)"/>
      <use xlink:href="#DejaVuSans-5f" transform="translate(542.626953 0)"/>
      <use xlink:href="#DejaVuSans-70" transform="translate(592.626953 0)"/>
      <use xlink:href="#DejaVuSans-72" transform="translate(656.103516 0)"/>
      <use xlink:href="#DejaVuSans-6f" transform="translate(694.966797 0)"/>
      <use xlink:href="#DejaVuSans-64" transform="translate(756.148438 0)"/>
      <use xlink:href="#DejaVuSans-2e" transform="translate(819.625 0)"/>
      <use xlink:href="#DejaVuSans-6a" transform="translate(851.412109 0)"/>
      <use xlink:href="#DejaVuSans-69" transform="translate(879.195312 0)"/>
      <use xlink:href="#DejaVuSans-6e" transform="translate(906.978516 0)"/>
      <use xlink:href="#DejaVuSans-6a" transform="translate(970.357422 0)"/>
      <use xlink:href="#DejaVuSans-61" transform="translate(998.140625 0)"/>
      <use xlink:href="#DejaVuSans-32" transform="translate(1059.419922 0)"/>
     </g>
    </g>
    <g id="line2d_64">
     <path d="M 648.936 83.685974 
L 658.936 83.685974 
L 668.936 83.685974 
" style="fill: none; stroke-dasharray: 7.4,3.2; stroke-dashoffset: 0; stroke: #ff0000; stroke-opacity: 0.7; stroke-width: 2"/>
    </g>
    <g id="text_28">
     <!-- Línea base de producción: 0.276 -->
     <g transform="translate(676.936 87.185974) scale(0.1 -0.1)">
      <defs>
       <path id="DejaVuSans-4c" d="M 628 4666 
L 1259 4666 
L 1259 531 
L 3531 531 
L 3531 0 
L 628 0 
L 628 4666 
z
" transform="scale(0.015625)"/>
       <path id="DejaVuSans-ed" d="M 1322 5119 
L 1944 5119 
L 926 3944 
L 447 3944 
L 1322 5119 
z
M 603 3500 
L 1178 3500 
L 1178 0 
L 603 0 
L 603 3500 
z
M 891 3584 
L 891 3584 
z
" transform="scale(0.015625)"/>
       <path id="DejaVuSans-20" transform="scale(0.015625)"/>
       <path id="DejaVuSans-f3" d="M 1959 3097 
Q 1497 3097 1228 2736 
Q 959 2375 959 1747 
Q 959 1119 1226 758 
Q 1494 397 1959 397 
Q 2419 397 2687 759 
Q 2956 1122 2956 1747 
Q 2956 2369 2687 2733 
Q 2419 3097 1959 3097 
z
M 1959 3584 
Q 2709 3584 3137 3096 
Q 3566 2609 3566 1747 
Q 3566 888 3137 398 
Q 2709 -91 1959 -91 
Q 1206 -91 779 398 
Q 353 888 353 1747 
Q 353 2609 779 3096 
Q 1206 3584 1959 3584 
z
M 2394 5119 
L 3016 5119 
L 1998 3944 
L 1519 3944 
L 2394 5119 
z
" transform="scale(0.015625)"/>
       <path id="DejaVuSans-3a" d="M 750 794 
L 1409 794 
L 1409 0 
L 750 0 
L 750 794 
z
M 750 3309 
L 1409 3309 
L 1409 2516 
L 750 2516 
L 750 3309 
z
" transform="scale(0.015625)"/>
       <path id="DejaVuSans-36" d="M 2113 2584 
Q 1688 2584 1439 2293 
Q 1191 2003 1191 1497 
Q 1191 994 1439 701 
Q 1688 409 2113 409 
Q 2538 409 2786 701 
Q 3034 994 3034 1497 
Q 3034 2003 2786 2293 
Q 2538 2584 2113 2584 
z
M 3366 4563 
L 3366 3988 
Q 3128 4100 2886 4159 
Q 2644 4219 2406 4219 
Q 1781 4219 1451 3797 
Q 1122 3375 1075 2522 
Q 1259 2794 1537 2939 
Q 1816 3084 2150 3084 
Q 2853 3084 3261 2657 
Q 3669 2231 3669 1497 
Q 3669 778 3244 343 
Q 2819 -91 2113 -91 
Q 1303 -91 875 529 
Q 447 1150 447 2328 
Q 447 3434 972 4092 
Q 1497 4750 2381 4750 
Q 2619 4750 2861 4703 
Q 3103 4656 3366 4563 
z
" transform="scale(0.015625)"/>
      </defs>
      <use xlink:href="#DejaVuSans-4c"/>
      <use xlink:href="#DejaVuSans-ed" transform="translate(55.712891 0)"/>
      <use xlink:href="#DejaVuSans-6e" transform="translate(83.496094 0)"/>
      <use xlink:href="#DejaVuSans-65" transform="translate(146.875 0)"/>
      <use xlink:href="#DejaVuSans-61" transform="translate(208.398438 0)"/>
      <use xlink:href="#DejaVuSans-20" transform="translate(269.677734 0)"/>
      <use xlink:href="#DejaVuSans-62" transform="translate(301.464844 0)"/>
      <use xlink:href="#DejaVuSans-61" transform="translate(364.941406 0)"/>
      <use xlink:href="#DejaVuSans-73" transform="translate(426.220703 0)"/>
      <use xlink:href="#DejaVuSans-65" transform="translate(478.320312 0)"/>
      <use xlink:href="#DejaVuSans-20" transform="translate(539.84375 0)"/>
      <use xlink:href="#DejaVuSans-64" transform="translate(571.630859 0)"/>
      <use xlink:href="#DejaVuSans-65" transform="translate(635.107422 0)"/>
      <use xlink:href="#DejaVuSans-20" transform="translate(696.630859 0)"/>
      <use xlink:href="#DejaVuSans-70" transform="translate(728.417969 0)"/>
      <use xlink:href="#DejaVuSans-72" transform="translate(791.894531 0)"/>
      <use xlink:href="#DejaVuSans-6f" transform="translate(830.757812 0)"/>
      <use xlink:href="#DejaVuSans-64" transform="translate(891.939453 0)"/>
      <use xlink:href="#DejaVuSans-75" transform="translate(955.416016 0)"/>
      <use xlink:href="#DejaVuSans-63" transform="translate(1018.794922 0)"/>
      <use xlink:href="#DejaVuSans-63" transform="translate(1073.775391 0)"/>
      <use xlink:href="#DejaVuSans-69" transform="translate(1128.755859 0)"/>
      <use xlink:href="#DejaVuSans-f3" transform="translate(1156.539062 0)"/>
      <use xlink:href="#DejaVuSans-6e" transform="translate(1217.720703 0)"/>
      <use xlink:href="#DejaVuSans-3a" transform="translate(1281.099609 0)"/>
      <use xlink:href="#DejaVuSans-20" transform="translate(1314.791016 0)"/>
      <use xlink:href="#DejaVuSans-30" transform="translate(1346.578125 0)"/>
      <use xlink:href="#DejaVuSans-2e" transform="translate(1410.201172 0)"/>
      <use xlink:href="#DejaVuSans-32" transform="translate(1441.988281 0)"/>
      <use xlink:href="#DejaVuSans-37" transform="translate(1505.611328 0)"/>
      <use xlink:href="#DejaVuSans-36" transform="translate(1569.234375 0)"/>
     </g>
    </g>
    <g id="line2d_65">
     <path d="M 648.936 110.740818 
L 658.936 110.740818 
L 668.936 110.740818 
" style="fill: none; stroke-dasharray: 12.8,3.2,2,3.2; stroke-dashoffset: 0; stroke: #008000; stroke-opacity: 0.7; stroke-width: 2"/>
    </g>
    <g id="text_29">
     <!-- Mejor: 0.334 -->
     <g transform="translate(676.936 101.864099) scale(0.1 -0.1)">
      <use xlink:href="#DejaVuSans-4d"/>
      <use xlink:href="#DejaVuSans-65" transform="translate(86.279297 0)"/>
      <use xlink:href="#DejaVuSans-6a" transform="translate(147.802734 0)"/>
      <use xlink:href="#DejaVuSans-6f" transform="translate(175.585938 0)"/>
      <use xlink:href="#DejaVuSans-72" transform="translate(236.767578 0)"/>
      <use xlink:href="#DejaVuSans-3a" transform="translate(276.130859 0)"/>
      <use xlink:href="#DejaVuSans-20" transform="translate(309.822266 0)"/>
      <use xlink:href="#DejaVuSans-30" transform="translate(341.609375 0)"/>
      <use xlink:href="#DejaVuSans-2e" transform="translate(405.232422 0)"/>
      <use xlink:href="#DejaVuSans-33" transform="translate(437.019531 0)"/>
      <use xlink:href="#DejaVuSans-33" transform="translate(500.642578 0)"/>
      <use xlink:href="#DejaVuSans-34" transform="translate(564.265625 0)"/>
     </g>
     <!-- gpt-4.1-2025-04-14 -->
     <g transform="translate(676.936 113.061912) scale(0.1 -0.1)">
      <use xlink:href="#DejaVuSans-67"/>
      <use xlink:href="#DejaVuSans-70" transform="translate(63.476562 0)"/>
      <use xlink:href="#DejaVuSans-74" transform="translate(126.953125 0)"/>
      <use xlink:href="#DejaVuSans-2d" transform="translate(166.162109 0)"/>
      <use xlink:href="#DejaVuSans-34" transform="translate(202.246094 0)"/>
      <use xlink:href="#DejaVuSans-2e" transform="translate(265.869141 0)"/>
      <use xlink:href="#DejaVuSans-31" transform="translate(297.65625 0)"/>
      <use xlink:href="#DejaVuSans-2d" transform="translate(361.279297 0)"/>
      <use xlink:href="#DejaVuSans-32" transform="translate(397.363281 0)"/>
      <use xlink:href="#DejaVuSans-30" transform="translate(460.986328 0)"/>
      <use xlink:href="#DejaVuSans-32" transform="translate(524.609375 0)"/>
      <use xlink:href="#DejaVuSans-35" transform="translate(588.232422 0)"/>
      <use xlink:href="#DejaVuSans-2d" transform="translate(651.855469 0)"/>
      <use xlink:href="#DejaVuSans-30" transform="translate(687.939453 0)"/>
      <use xlink:href="#DejaVuSans-34" transform="translate(751.5625 0)"/>
      <use xlink:href="#DejaVuSans-2d" transform="translate(815.185547 0)"/>
      <use xlink:href="#DejaVuSans-31" transform="translate(851.269531 0)"/>
      <use xlink:href="#DejaVuSans-34" transform="translate(914.892578 0)"/>
     </g>
     <!-- toxicity_10_prod.jinja2 -->
     <g transform="translate(676.936 124.259724) scale(0.1 -0.1)">
      <use xlink:href="#DejaVuSans-74"/>
      <use xlink:href="#DejaVuSans-6f" transform="translate(39.208984 0)"/>
      <use xlink:href="#DejaVuSans-78" transform="translate(97.265625 0)"/>
      <use xlink:href="#DejaVuSans-69" transform="translate(156.445312 0)"/>
      <use xlink:href="#DejaVuSans-63" transform="translate(184.228516 0)"/>
      <use xlink:href="#DejaVuSans-69" transform="translate(239.208984 0)"/>
      <use xlink:href="#DejaVuSans-74" transform="translate(266.992188 0)"/>
      <use xlink:href="#DejaVuSans-79" transform="translate(306.201172 0)"/>
      <use xlink:href="#DejaVuSans-5f" transform="translate(365.380859 0)"/>
      <use xlink:href="#DejaVuSans-31" transform="translate(415.380859 0)"/>
      <use xlink:href="#DejaVuSans-30" transform="translate(479.003906 0)"/>
      <use xlink:href="#DejaVuSans-5f" transform="translate(542.626953 0)"/>
      <use xlink:href="#DejaVuSans-70" transform="translate(592.626953 0)"/>
      <use xlink:href="#DejaVuSans-72" transform="translate(656.103516 0)"/>
      <use xlink:href="#DejaVuSans-6f" transform="translate(694.966797 0)"/>
      <use xlink:href="#DejaVuSans-64" transform="translate(756.148438 0)"/>
      <use xlink:href="#DejaVuSans-2e" transform="translate(819.625 0)"/>
      <use xlink:href="#DejaVuSans-6a" transform="translate(851.412109 0)"/>
      <use xlink:href="#DejaVuSans-69" transform="translate(879.195312 0)"/>
      <use xlink:href="#DejaVuSans-6e" transform="translate(906.978516 0)"/>
      <use xlink:href="#DejaVuSans-6a" transform="translate(970.357422 0)"/>
      <use xlink:href="#DejaVuSans-61" transform="translate(998.140625 0)"/>
      <use xlink:href="#DejaVuSans-32" transform="translate(1059.419922 0)"/>
     </g>
    </g>
    <g id="line2d_66"/>
    <g id="text_30">
     <!-- Mejora: +0.057 (+20.7%) -->
     <g transform="translate(676.936 139.215974) scale(0.1 -0.1)">
      <defs>
       <path id="DejaVuSans-2b" d="M 2944 4013 
L 2944 2272 
L 4684 2272 
L 4684 1741 
L 2944 1741 
L 2944 0 
L 2419 0 
L 2419 1741 
L 678 1741 
L 678 2272 
L 2419 2272 
L 2419 4013 
L 2944 4013 
z
" transform="scale(0.015625)"/>
       <path id="DejaVuSans-28" d="M 1984 4856 
Q 1566 4138 1362 3434 
Q 1159 2731 1159 2009 
Q 1159 1288 1364 580 
Q 1569 -128 1984 -844 
L 1484 -844 
Q 1016 -109 783 600 
Q 550 1309 550 2009 
Q 550 2706 781 3412 
Q 1013 4119 1484 4856 
L 1984 4856 
z
" transform="scale(0.015625)"/>
       <path id="DejaVuSans-25" d="M 4653 2053 
Q 4381 2053 4226 1822 
Q 4072 1591 4072 1178 
Q 4072 772 4226 539 
Q 4381 306 4653 306 
Q 4919 306 5073 539 
Q 5228 772 5228 1178 
Q 5228 1588 5073 1820 
Q 4919 2053 4653 2053 
z
M 4653 2450 
Q 5147 2450 5437 2106 
Q 5728 1763 5728 1178 
Q 5728 594 5436 251 
Q 5144 -91 4653 -91 
Q 4153 -91 3862 251 
Q 3572 594 3572 1178 
Q 3572 1766 3864 2108 
Q 4156 2450 4653 2450 
z
M 1428 4353 
Q 1159 4353 1004 4120 
Q 850 3888 850 3481 
Q 850 3069 1003 2837 
Q 1156 2606 1428 2606 
Q 1700 2606 1854 2837 
Q 2009 3069 2009 3481 
Q 2009 3884 1853 4118 
Q 1697 4353 1428 4353 
z
M 4250 4750 
L 4750 4750 
L 1831 -91 
L 1331 -91 
L 4250 4750 
z
M 1428 4750 
Q 1922 4750 2215 4408 
Q 2509 4066 2509 3481 
Q 2509 2891 2217 2550 
Q 1925 2209 1428 2209 
Q 931 2209 642 2551 
Q 353 2894 353 3481 
Q 353 4063 643 4406 
Q 934 4750 1428 4750 
z
" transform="scale(0.015625)"/>
       <path id="DejaVuSans-29" d="M 513 4856 
L 1013 4856 
Q 1481 4119 1714 3412 
Q 1947 2706 1947 2009 
Q 1947 1309 1714 600 
Q 1481 -109 1013 -844 
L 513 -844 
Q 928 -128 1133 580 
Q 1338 1288 1338 2009 
Q 1338 2731 1133 3434 
Q 928 4138 513 4856 
z
" transform="scale(0.015625)"/>
      </defs>
      <use xlink:href="#DejaVuSans-4d"/>
      <use xlink:href="#DejaVuSans-65" transform="translate(86.279297 0)"/>
      <use xlink:href="#DejaVuSans-6a" transform="translate(147.802734 0)"/>
      <use xlink:href="#DejaVuSans-6f" transform="translate(175.585938 0)"/>
      <use xlink:href="#DejaVuSans-72" transform="translate(236.767578 0)"/>
      <use xlink:href="#DejaVuSans-61" transform="translate(277.880859 0)"/>
      <use xlink:href="#DejaVuSans-3a" transform="translate(339.160156 0)"/>
      <use xlink:href="#DejaVuSans-20" transform="translate(372.851562 0)"/>
      <use xlink:href="#DejaVuSans-2b" transform="translate(404.638672 0)"/>
      <use xlink:href="#DejaVuSans-30" transform="translate(488.427734 0)"/>
      <use xlink:href="#DejaVuSans-2e" transform="translate(552.050781 0)"/>
      <use xlink:href="#DejaVuSans-30" transform="translate(583.837891 0)"/>
      <use xlink:href="#DejaVuSans-35" transform="translate(647.460938 0)"/>
      <use xlink:href="#DejaVuSans-37" transform="translate(711.083984 0)"/>
      <use xlink:href="#DejaVuSans-20" transform="translate(774.707031 0)"/>
      <use xlink:href="#DejaVuSans-28" transform="translate(806.494141 0)"/>
      <use xlink:href="#DejaVuSans-2b" transform="translate(845.507812 0)"/>
      <use xlink:href="#DejaVuSans-32" transform="translate(929.296875 0)"/>
      <use xlink:href="#DejaVuSans-30" transform="translate(992.919922 0)"/>
      <use xlink:href="#DejaVuSans-2e" transform="translate(1056.542969 0)"/>
      <use xlink:href="#DejaVuSans-37" transform="translate(1088.330078 0)"/>
      <use xlink:href="#DejaVuSans-25" transform="translate(1151.953125 0)"/>
      <use xlink:href="#DejaVuSans-29" transform="translate(1246.972656 0)"/>
     </g>
    </g>
   </g>
  </g>
 </g>
 <defs>
  <clipPath id="pae9ed95e9f">
   <rect x="54.015" y="10.640662" width="558.02" height="257.930715"/>
  </clipPath>
 </defs>
</svg>
