<?xml version="1.0" encoding="utf-8" standalone="no"?>
<!DOCTYPE svg PUBLIC "-//W3C//DTD SVG 1.1//EN"
  "http://www.w3.org/Graphics/SVG/1.1/DTD/svg11.dtd">
<svg xmlns:xlink="http://www.w3.org/1999/xlink" width="856.985937pt" height="497.154081pt" viewBox="0 0 856.985937 497.154081" xmlns="http://www.w3.org/2000/svg" version="1.1">
 <metadata>
  <rdf:RDF xmlns:dc="http://purl.org/dc/elements/1.1/" xmlns:cc="http://creativecommons.org/ns#" xmlns:rdf="http://www.w3.org/1999/02/22-rdf-syntax-ns#">
   <cc:Work>
    <dc:type rdf:resource="http://purl.org/dc/dcmitype/StillImage"/>
    <dc:date>2026-03-23T19:09:21.582035</dc:date>
    <dc:format>image/svg+xml</dc:format>
    <dc:creator>
     <cc:Agent>
      <dc:title>Matplotlib v3.10.3, https://matplotlib.org/</dc:title>
     </cc:Agent>
    </dc:creator>
   </cc:Work>
  </rdf:RDF>
 </metadata>
 <defs>
  <style type="text/css">*{stroke-linejoin: round; stroke-linecap: butt}</style>
 </defs>
 <g id="figure_1">
  <g id="patch_1">
   <path d="M 0 497.154081 
L 856.985937 497.154081 
L 856.985937 0 
L 0 0 
z
" style="fill: #ffffff"/>
  </g>
  <g id="axes_1">
   <g id="patch_2">
    <path d="M 72.134375 455.057206 
L 841.834375 455.057206 
L 841.834375 30.697206 
L 72.134375 30.697206 
z
" style="fill: #ffffff"/>
   </g>
   <g id="matplotlib.axis_1">
    <g id="xtick_1">
     <g id="line2d_1">
      <path d="M 72.134375 455.057206 
L 72.134375 30.697206 
" clip-path="url(#p39f54c524f)" style="fill: none; stroke-dasharray: 2.96,1.28; stroke-dashoffset: 0; stroke: #b0b0b0; stroke-opacity: 0.3; stroke-width: 0.8"/>
     </g>
     <g id="line2d_2">
      <defs>
       <path id="m593899d299" d="M 0 0 
L 0 3.5 
" style="stroke: #000000; stroke-width: 0.8"/>
      </defs>
      <g>
       <use xlink:href="#m593899d299" x="72.134375" y="455.057206" style="stroke: #000000; stroke-width: 0.8"/>
      </g>
     </g>
     <g id="text_1">
      <!-- 0.0 -->
      <g transform="translate(64.182813 469.655644) scale(0.1 -0.1)">
       <defs>
        <path id="DejaVuSans-30" d="M 2034 4250 
Q 1547 4250 1301 3770 
Q 1056 3291 1056 2328 
Q 1056 1369 1301 889 
Q 1547 409 2034 409 
Q 2525 409 2770 889 
Q 3016 1369 3016 2328 
Q 3016 3291 2770 3770 
Q 2525 4250 2034 4250 
z
M 2034 4750 
Q 2819 4750 3233 4129 
Q 3647 3509 3647 2328 
Q 3647 1150 3233 529 
Q 2819 -91 2034 -91 
Q 1250 -91 836 529 
Q 422 1150 422 2328 
Q 422 3509 836 4129 
Q 1250 4750 2034 4750 
z
" transform="scale(0.015625)"/>
        <path id="DejaVuSans-2e" d="M 684 794 
L 1344 794 
L 1344 0 
L 684 0 
L 684 794 
z
" transform="scale(0.015625)"/>
       </defs>
       <use xlink:href="#DejaVuSans-30"/>
       <use xlink:href="#DejaVuSans-2e" transform="translate(63.623047 0)"/>
       <use xlink:href="#DejaVuSans-30" transform="translate(95.410156 0)"/>
      </g>
     </g>
    </g>
    <g id="xtick_2">
     <g id="line2d_3">
      <path d="M 226.074375 455.057206 
L 226.074375 30.697206 
" clip-path="url(#p39f54c524f)" style="fill: none; stroke-dasharray: 2.96,1.28; stroke-dashoffset: 0; stroke: #b0b0b0; stroke-opacity: 0.3; stroke-width: 0.8"/>
     </g>
     <g id="line2d_4">
      <g>
       <use xlink:href="#m593899d299" x="226.074375" y="455.057206" style="stroke: #000000; stroke-width: 0.8"/>
      </g>
     </g>
     <g id="text_2">
      <!-- 0.2 -->
      <g transform="translate(218.122813 469.655644) scale(0.1 -0.1)">
       <defs>
        <path id="DejaVuSans-32" d="M 1228 531 
L 3431 531 
L 3431 0 
L 469 0 
L 469 531 
Q 828 903 1448 1529 
Q 2069 2156 2228 2338 
Q 2531 2678 2651 2914 
Q 2772 3150 2772 3378 
Q 2772 3750 2511 3984 
Q 2250 4219 1831 4219 
Q 1534 4219 1204 4116 
Q 875 4013 500 3803 
L 500 4441 
Q 881 4594 1212 4672 
Q 1544 4750 1819 4750 
Q 2544 4750 2975 4387 
Q 3406 4025 3406 3419 
Q 3406 3131 3298 2873 
Q 3191 2616 2906 2266 
Q 2828 2175 2409 1742 
Q 1991 1309 1228 531 
z
" transform="scale(0.015625)"/>
       </defs>
       <use xlink:href="#DejaVuSans-30"/>
       <use xlink:href="#DejaVuSans-2e" transform="translate(63.623047 0)"/>
       <use xlink:href="#DejaVuSans-32" transform="translate(95.410156 0)"/>
      </g>
     </g>
    </g>
    <g id="xtick_3">
     <g id="line2d_5">
      <path d="M 380.014375 455.057206 
L 380.014375 30.697206 
" clip-path="url(#p39f54c524f)" style="fill: none; stroke-dasharray: 2.96,1.28; stroke-dashoffset: 0; stroke: #b0b0b0; stroke-opacity: 0.3; stroke-width: 0.8"/>
     </g>
     <g id="line2d_6">
      <g>
       <use xlink:href="#m593899d299" x="380.014375" y="455.057206" style="stroke: #000000; stroke-width: 0.8"/>
      </g>
     </g>
     <g id="text_3">
      <!-- 0.4 -->
      <g transform="translate(372.062813 469.655644) scale(0.1 -0.1)">
       <defs>
        <path id="DejaVuSans-34" d="M 2419 4116 
L 825 1625 
L 2419 1625 
L 2419 4116 
z
M 2253 4666 
L 3047 4666 
L 3047 1625 
L 3713 1625 
L 3713 1100 
L 3047 1100 
L 3047 0 
L 2419 0 
L 2419 1100 
L 313 1100 
L 313 1709 
L 2253 4666 
z
" transform="scale(0.015625)"/>
       </defs>
       <use xlink:href="#DejaVuSans-30"/>
       <use xlink:href="#DejaVuSans-2e" transform="translate(63.623047 0)"/>
       <use xlink:href="#DejaVuSans-34" transform="translate(95.410156 0)"/>
      </g>
     </g>
    </g>
    <g id="xtick_4">
     <g id="line2d_7">
      <path d="M 533.954375 455.057206 
L 533.954375 30.697206 
" clip-path="url(#p39f54c524f)" style="fill: none; stroke-dasharray: 2.96,1.28; stroke-dashoffset: 0; stroke: #b0b0b0; stroke-opacity: 0.3; stroke-width: 0.8"/>
     </g>
     <g id="line2d_8">
      <g>
       <use xlink:href="#m593899d299" x="533.954375" y="455.057206" style="stroke: #000000; stroke-width: 0.8"/>
      </g>
     </g>
     <g id="text_4">
      <!-- 0.6 -->
      <g transform="translate(526.002813 469.655644) scale(0.1 -0.1)">
       <defs>
        <path id="DejaVuSans-36" d="M 2113 2584 
Q 1688 2584 1439 2293 
Q 1191 2003 1191 1497 
Q 1191 994 1439 701 
Q 1688 409 2113 409 
Q 2538 409 2786 701 
Q 3034 994 3034 1497 
Q 3034 2003 2786 2293 
Q 2538 2584 2113 2584 
z
M 3366 4563 
L 3366 3988 
Q 3128 4100 2886 4159 
Q 2644 4219 2406 4219 
Q 1781 4219 1451 3797 
Q 1122 3375 1075 2522 
Q 1259 2794 1537 2939 
Q 1816 3084 2150 3084 
Q 2853 3084 3261 2657 
Q 3669 2231 3669 1497 
Q 3669 778 3244 343 
Q 2819 -91 2113 -91 
Q 1303 -91 875 529 
Q 447 1150 447 2328 
Q 447 3434 972 4092 
Q 1497 4750 2381 4750 
Q 2619 4750 2861 4703 
Q 3103 4656 3366 4563 
z
" transform="scale(0.015625)"/>
       </defs>
       <use xlink:href="#DejaVuSans-30"/>
       <use xlink:href="#DejaVuSans-2e" transform="translate(63.623047 0)"/>
       <use xlink:href="#DejaVuSans-36" transform="translate(95.410156 0)"/>
      </g>
     </g>
    </g>
    <g id="xtick_5">
     <g id="line2d_9">
      <path d="M 687.894375 455.057206 
L 687.894375 30.697206 
" clip-path="url(#p39f54c524f)" style="fill: none; stroke-dasharray: 2.96,1.28; stroke-dashoffset: 0; stroke: #b0b0b0; stroke-opacity: 0.3; stroke-width: 0.8"/>
     </g>
     <g id="line2d_10">
      <g>
       <use xlink:href="#m593899d299" x="687.894375" y="455.057206" style="stroke: #000000; stroke-width: 0.8"/>
      </g>
     </g>
     <g id="text_5">
      <!-- 0.8 -->
      <g transform="translate(679.942813 469.655644) scale(0.1 -0.1)">
       <defs>
        <path id="DejaVuSans-38" d="M 2034 2216 
Q 1584 2216 1326 1975 
Q 1069 1734 1069 1313 
Q 1069 891 1326 650 
Q 1584 409 2034 409 
Q 2484 409 2743 651 
Q 3003 894 3003 1313 
Q 3003 1734 2745 1975 
Q 2488 2216 2034 2216 
z
M 1403 2484 
Q 997 2584 770 2862 
Q 544 3141 544 3541 
Q 544 4100 942 4425 
Q 1341 4750 2034 4750 
Q 2731 4750 3128 4425 
Q 3525 4100 3525 3541 
Q 3525 3141 3298 2862 
Q 3072 2584 2669 2484 
Q 3125 2378 3379 2068 
Q 3634 1759 3634 1313 
Q 3634 634 3220 271 
Q 2806 -91 2034 -91 
Q 1263 -91 848 271 
Q 434 634 434 1313 
Q 434 1759 690 2068 
Q 947 2378 1403 2484 
z
M 1172 3481 
Q 1172 3119 1398 2916 
Q 1625 2713 2034 2713 
Q 2441 2713 2670 2916 
Q 2900 3119 2900 3481 
Q 2900 3844 2670 4047 
Q 2441 4250 2034 4250 
Q 1625 4250 1398 4047 
Q 1172 3844 1172 3481 
z
" transform="scale(0.015625)"/>
       </defs>
       <use xlink:href="#DejaVuSans-30"/>
       <use xlink:href="#DejaVuSans-2e" transform="translate(63.623047 0)"/>
       <use xlink:href="#DejaVuSans-38" transform="translate(95.410156 0)"/>
      </g>
     </g>
    </g>
    <g id="xtick_6">
     <g id="line2d_11">
      <path d="M 841.834375 455.057206 
L 841.834375 30.697206 
" clip-path="url(#p39f54c524f)" style="fill: none; stroke-dasharray: 2.96,1.28; stroke-dashoffset: 0; stroke: #b0b0b0; stroke-opacity: 0.3; stroke-width: 0.8"/>
     </g>
     <g id="line2d_12">
      <g>
       <use xlink:href="#m593899d299" x="841.834375" y="455.057206" style="stroke: #000000; stroke-width: 0.8"/>
      </g>
     </g>
     <g id="text_6">
      <!-- 1.0 -->
      <g transform="translate(833.882813 469.655644) scale(0.1 -0.1)">
       <defs>
        <path id="DejaVuSans-31" d="M 794 531 
L 1825 531 
L 1825 4091 
L 703 3866 
L 703 4441 
L 1819 4666 
L 2450 4666 
L 2450 531 
L 3481 531 
L 3481 0 
L 794 0 
L 794 531 
z
" transform="scale(0.015625)"/>
       </defs>
       <use xlink:href="#DejaVuSans-31"/>
       <use xlink:href="#DejaVuSans-2e" transform="translate(63.623047 0)"/>
       <use xlink:href="#DejaVuSans-30" transform="translate(95.410156 0)"/>
      </g>
     </g>
    </g>
    <g id="text_7">
     <!-- Puntaje F1 (Clasificación Binaria) -->
     <g transform="translate(325.804375 486.933144) scale(0.14 -0.14)">
      <defs>
       <path id="DejaVuSans-Bold-50" d="M 588 4666 
L 2584 4666 
Q 3475 4666 3951 4270 
Q 4428 3875 4428 3144 
Q 4428 2409 3951 2014 
Q 3475 1619 2584 1619 
L 1791 1619 
L 1791 0 
L 588 0 
L 588 4666 
z
M 1791 3794 
L 1791 2491 
L 2456 2491 
Q 2806 2491 2997 2661 
Q 3188 2831 3188 3144 
Q 3188 3456 2997 3625 
Q 2806 3794 2456 3794 
L 1791 3794 
z
" transform="scale(0.015625)"/>
       <path id="DejaVuSans-Bold-75" d="M 500 1363 
L 500 3500 
L 1625 3500 
L 1625 3150 
Q 1625 2866 1622 2436 
Q 1619 2006 1619 1863 
Q 1619 1441 1641 1255 
Q 1663 1069 1716 984 
Q 1784 875 1895 815 
Q 2006 756 2150 756 
Q 2500 756 2700 1025 
Q 2900 1294 2900 1772 
L 2900 3500 
L 4019 3500 
L 4019 0 
L 2900 0 
L 2900 506 
Q 2647 200 2364 54 
Q 2081 -91 1741 -91 
Q 1134 -91 817 281 
Q 500 653 500 1363 
z
" transform="scale(0.015625)"/>
       <path id="DejaVuSans-Bold-6e" d="M 4056 2131 
L 4056 0 
L 2931 0 
L 2931 347 
L 2931 1631 
Q 2931 2084 2911 2256 
Q 2891 2428 2841 2509 
Q 2775 2619 2662 2680 
Q 2550 2741 2406 2741 
Q 2056 2741 1856 2470 
Q 1656 2200 1656 1722 
L 1656 0 
L 538 0 
L 538 3500 
L 1656 3500 
L 1656 2988 
Q 1909 3294 2193 3439 
Q 2478 3584 2822 3584 
Q 3428 3584 3742 3212 
Q 4056 2841 4056 2131 
z
" transform="scale(0.015625)"/>
       <path id="DejaVuSans-Bold-74" d="M 1759 4494 
L 1759 3500 
L 2913 3500 
L 2913 2700 
L 1759 2700 
L 1759 1216 
Q 1759 972 1856 886 
Q 1953 800 2241 800 
L 2816 800 
L 2816 0 
L 1856 0 
Q 1194 0 917 276 
Q 641 553 641 1216 
L 641 2700 
L 84 2700 
L 84 3500 
L 641 3500 
L 641 4494 
L 1759 4494 
z
" transform="scale(0.015625)"/>
       <path id="DejaVuSans-Bold-61" d="M 2106 1575 
Q 1756 1575 1579 1456 
Q 1403 1338 1403 1106 
Q 1403 894 1545 773 
Q 1688 653 1941 653 
Q 2256 653 2472 879 
Q 2688 1106 2688 1447 
L 2688 1575 
L 2106 1575 
z
M 3816 1997 
L 3816 0 
L 2688 0 
L 2688 519 
Q 2463 200 2181 54 
Q 1900 -91 1497 -91 
Q 953 -91 614 226 
Q 275 544 275 1050 
Q 275 1666 698 1953 
Q 1122 2241 2028 2241 
L 2688 2241 
L 2688 2328 
Q 2688 2594 2478 2717 
Q 2269 2841 1825 2841 
Q 1466 2841 1156 2769 
Q 847 2697 581 2553 
L 581 3406 
Q 941 3494 1303 3539 
Q 1666 3584 2028 3584 
Q 2975 3584 3395 3211 
Q 3816 2838 3816 1997 
z
" transform="scale(0.015625)"/>
       <path id="DejaVuSans-Bold-6a" d="M 538 3500 
L 1656 3500 
L 1656 63 
Q 1656 -641 1318 -1011 
Q 981 -1381 341 -1381 
L -213 -1381 
L -213 -647 
L -19 -647 
Q 300 -647 419 -503 
Q 538 -359 538 63 
L 538 3500 
z
M 538 4863 
L 1656 4863 
L 1656 3950 
L 538 3950 
L 538 4863 
z
" transform="scale(0.015625)"/>
       <path id="DejaVuSans-Bold-65" d="M 4031 1759 
L 4031 1441 
L 1416 1441 
Q 1456 1047 1700 850 
Q 1944 653 2381 653 
Q 2734 653 3104 758 
Q 3475 863 3866 1075 
L 3866 213 
Q 3469 63 3072 -14 
Q 2675 -91 2278 -91 
Q 1328 -91 801 392 
Q 275 875 275 1747 
Q 275 2603 792 3093 
Q 1309 3584 2216 3584 
Q 3041 3584 3536 3087 
Q 4031 2591 4031 1759 
z
M 2881 2131 
Q 2881 2450 2695 2645 
Q 2509 2841 2209 2841 
Q 1884 2841 1681 2658 
Q 1478 2475 1428 2131 
L 2881 2131 
z
" transform="scale(0.015625)"/>
       <path id="DejaVuSans-Bold-20" transform="scale(0.015625)"/>
       <path id="DejaVuSans-Bold-46" d="M 588 4666 
L 3834 4666 
L 3834 3756 
L 1791 3756 
L 1791 2888 
L 3713 2888 
L 3713 1978 
L 1791 1978 
L 1791 0 
L 588 0 
L 588 4666 
z
" transform="scale(0.015625)"/>
       <path id="DejaVuSans-Bold-31" d="M 750 831 
L 1813 831 
L 1813 3847 
L 722 3622 
L 722 4441 
L 1806 4666 
L 2950 4666 
L 2950 831 
L 4013 831 
L 4013 0 
L 750 0 
L 750 831 
z
" transform="scale(0.015625)"/>
       <path id="DejaVuSans-Bold-28" d="M 2413 -844 
L 1484 -844 
Q 1006 -72 778 623 
Q 550 1319 550 2003 
Q 550 2688 779 3389 
Q 1009 4091 1484 4856 
L 2413 4856 
Q 2013 4116 1813 3408 
Q 1613 2700 1613 2009 
Q 1613 1319 1811 609 
Q 2009 -100 2413 -844 
z
" transform="scale(0.015625)"/>
       <path id="DejaVuSans-Bold-43" d="M 4288 256 
Q 3956 84 3597 -3 
Q 3238 -91 2847 -91 
Q 1681 -91 1000 561 
Q 319 1213 319 2328 
Q 319 3447 1000 4098 
Q 1681 4750 2847 4750 
Q 3238 4750 3597 4662 
Q 3956 4575 4288 4403 
L 4288 3438 
Q 3953 3666 3628 3772 
Q 3303 3878 2944 3878 
Q 2300 3878 1931 3465 
Q 1563 3053 1563 2328 
Q 1563 1606 1931 1193 
Q 2300 781 2944 781 
Q 3303 781 3628 887 
Q 3953 994 4288 1222 
L 4288 256 
z
" transform="scale(0.015625)"/>
       <path id="DejaVuSans-Bold-6c" d="M 538 4863 
L 1656 4863 
L 1656 0 
L 538 0 
L 538 4863 
z
" transform="scale(0.015625)"/>
       <path id="DejaVuSans-Bold-73" d="M 3272 3391 
L 3272 2541 
Q 2913 2691 2578 2766 
Q 2244 2841 1947 2841 
Q 1628 2841 1473 2761 
Q 1319 2681 1319 2516 
Q 1319 2381 1436 2309 
Q 1553 2238 1856 2203 
L 2053 2175 
Q 2913 2066 3209 1816 
Q 3506 1566 3506 1031 
Q 3506 472 3093 190 
Q 2681 -91 1863 -91 
Q 1516 -91 1145 -36 
Q 775 19 384 128 
L 384 978 
Q 719 816 1070 734 
Q 1422 653 1784 653 
Q 2113 653 2278 743 
Q 2444 834 2444 1013 
Q 2444 1163 2330 1236 
Q 2216 1309 1875 1350 
L 1678 1375 
Q 931 1469 631 1722 
Q 331 1975 331 2491 
Q 331 3047 712 3315 
Q 1094 3584 1881 3584 
Q 2191 3584 2531 3537 
Q 2872 3491 3272 3391 
z
" transform="scale(0.015625)"/>
       <path id="DejaVuSans-Bold-69" d="M 538 3500 
L 1656 3500 
L 1656 0 
L 538 0 
L 538 3500 
z
M 538 4863 
L 1656 4863 
L 1656 3950 
L 538 3950 
L 538 4863 
z
" transform="scale(0.015625)"/>
       <path id="DejaVuSans-Bold-66" d="M 2841 4863 
L 2841 4128 
L 2222 4128 
Q 1984 4128 1890 4042 
Q 1797 3956 1797 3744 
L 1797 3500 
L 2753 3500 
L 2753 2700 
L 1797 2700 
L 1797 0 
L 678 0 
L 678 2700 
L 122 2700 
L 122 3500 
L 678 3500 
L 678 3744 
Q 678 4316 997 4589 
Q 1316 4863 1984 4863 
L 2841 4863 
z
" transform="scale(0.015625)"/>
       <path id="DejaVuSans-Bold-63" d="M 3366 3391 
L 3366 2478 
Q 3138 2634 2908 2709 
Q 2678 2784 2431 2784 
Q 1963 2784 1702 2511 
Q 1441 2238 1441 1747 
Q 1441 1256 1702 982 
Q 1963 709 2431 709 
Q 2694 709 2930 787 
Q 3166 866 3366 1019 
L 3366 103 
Q 3103 6 2833 -42 
Q 2563 -91 2291 -91 
Q 1344 -91 809 395 
Q 275 881 275 1747 
Q 275 2613 809 3098 
Q 1344 3584 2291 3584 
Q 2566 3584 2833 3536 
Q 3100 3488 3366 3391 
z
" transform="scale(0.015625)"/>
       <path id="DejaVuSans-Bold-f3" d="M 2203 2784 
Q 1831 2784 1636 2517 
Q 1441 2250 1441 1747 
Q 1441 1244 1636 976 
Q 1831 709 2203 709 
Q 2569 709 2762 976 
Q 2956 1244 2956 1747 
Q 2956 2250 2762 2517 
Q 2569 2784 2203 2784 
z
M 2203 3584 
Q 3106 3584 3614 3096 
Q 4122 2609 4122 1747 
Q 4122 884 3614 396 
Q 3106 -91 2203 -91 
Q 1297 -91 786 396 
Q 275 884 275 1747 
Q 275 2609 786 3096 
Q 1297 3584 2203 3584 
z
M 2694 5119 
L 3578 5119 
L 2425 3944 
L 1813 3944 
L 2694 5119 
z
" transform="scale(0.015625)"/>
       <path id="DejaVuSans-Bold-42" d="M 2456 2859 
Q 2741 2859 2887 2984 
Q 3034 3109 3034 3353 
Q 3034 3594 2887 3720 
Q 2741 3847 2456 3847 
L 1791 3847 
L 1791 2859 
L 2456 2859 
z
M 2497 819 
Q 2859 819 3042 972 
Q 3225 1125 3225 1434 
Q 3225 1738 3044 1889 
Q 2863 2041 2497 2041 
L 1791 2041 
L 1791 819 
L 2497 819 
z
M 3616 2497 
Q 4003 2384 4215 2081 
Q 4428 1778 4428 1338 
Q 4428 663 3972 331 
Q 3516 0 2584 0 
L 588 0 
L 588 4666 
L 2394 4666 
Q 3366 4666 3802 4372 
Q 4238 4078 4238 3431 
Q 4238 3091 4078 2852 
Q 3919 2613 3616 2497 
z
" transform="scale(0.015625)"/>
       <path id="DejaVuSans-Bold-72" d="M 3138 2547 
Q 2991 2616 2845 2648 
Q 2700 2681 2553 2681 
Q 2122 2681 1889 2404 
Q 1656 2128 1656 1613 
L 1656 0 
L 538 0 
L 538 3500 
L 1656 3500 
L 1656 2925 
Q 1872 3269 2151 3426 
Q 2431 3584 2822 3584 
Q 2878 3584 2943 3579 
Q 3009 3575 3134 3559 
L 3138 2547 
z
" transform="scale(0.015625)"/>
       <path id="DejaVuSans-Bold-29" d="M 513 -844 
Q 913 -100 1113 609 
Q 1313 1319 1313 2009 
Q 1313 2700 1113 3408 
Q 913 4116 513 4856 
L 1441 4856 
Q 1916 4091 2145 3389 
Q 2375 2688 2375 2003 
Q 2375 1319 2147 623 
Q 1919 -72 1441 -844 
L 513 -844 
z
" transform="scale(0.015625)"/>
      </defs>
      <use xlink:href="#DejaVuSans-Bold-50"/>
      <use xlink:href="#DejaVuSans-Bold-75" transform="translate(73.291016 0)"/>
      <use xlink:href="#DejaVuSans-Bold-6e" transform="translate(144.482422 0)"/>
      <use xlink:href="#DejaVuSans-Bold-74" transform="translate(215.673828 0)"/>
      <use xlink:href="#DejaVuSans-Bold-61" transform="translate(263.476562 0)"/>
      <use xlink:href="#DejaVuSans-Bold-6a" transform="translate(330.957031 0)"/>
      <use xlink:href="#DejaVuSans-Bold-65" transform="translate(365.234375 0)"/>
      <use xlink:href="#DejaVuSans-Bold-20" transform="translate(433.056641 0)"/>
      <use xlink:href="#DejaVuSans-Bold-46" transform="translate(467.871094 0)"/>
      <use xlink:href="#DejaVuSans-Bold-31" transform="translate(536.181641 0)"/>
      <use xlink:href="#DejaVuSans-Bold-20" transform="translate(605.761719 0)"/>
      <use xlink:href="#DejaVuSans-Bold-28" transform="translate(640.576172 0)"/>
      <use xlink:href="#DejaVuSans-Bold-43" transform="translate(686.279297 0)"/>
      <use xlink:href="#DejaVuSans-Bold-6c" transform="translate(759.667969 0)"/>
      <use xlink:href="#DejaVuSans-Bold-61" transform="translate(793.945312 0)"/>
      <use xlink:href="#DejaVuSans-Bold-73" transform="translate(861.425781 0)"/>
      <use xlink:href="#DejaVuSans-Bold-69" transform="translate(920.947266 0)"/>
      <use xlink:href="#DejaVuSans-Bold-66" transform="translate(955.224609 0)"/>
      <use xlink:href="#DejaVuSans-Bold-69" transform="translate(998.730469 0)"/>
      <use xlink:href="#DejaVuSans-Bold-63" transform="translate(1033.007812 0)"/>
      <use xlink:href="#DejaVuSans-Bold-61" transform="translate(1092.285156 0)"/>
      <use xlink:href="#DejaVuSans-Bold-63" transform="translate(1159.765625 0)"/>
      <use xlink:href="#DejaVuSans-Bold-69" transform="translate(1219.042969 0)"/>
      <use xlink:href="#DejaVuSans-Bold-f3" transform="translate(1253.320312 0)"/>
      <use xlink:href="#DejaVuSans-Bold-6e" transform="translate(1322.021484 0)"/>
      <use xlink:href="#DejaVuSans-Bold-20" transform="translate(1393.212891 0)"/>
      <use xlink:href="#DejaVuSans-Bold-42" transform="translate(1428.027344 0)"/>
      <use xlink:href="#DejaVuSans-Bold-69" transform="translate(1504.248047 0)"/>
      <use xlink:href="#DejaVuSans-Bold-6e" transform="translate(1538.525391 0)"/>
      <use xlink:href="#DejaVuSans-Bold-61" transform="translate(1609.716797 0)"/>
      <use xlink:href="#DejaVuSans-Bold-72" transform="translate(1677.197266 0)"/>
      <use xlink:href="#DejaVuSans-Bold-69" transform="translate(1726.513672 0)"/>
      <use xlink:href="#DejaVuSans-Bold-61" transform="translate(1760.791016 0)"/>
      <use xlink:href="#DejaVuSans-Bold-29" transform="translate(1828.271484 0)"/>
     </g>
    </g>
   </g>
   <g id="matplotlib.axis_2">
    <g id="ytick_1">
     <g id="line2d_13">
      <defs>
       <path id="m32f5cc61c5" d="M 0 0 
L -3.5 0 
" style="stroke: #000000; stroke-width: 0.8"/>
      </defs>
      <g>
       <use xlink:href="#m32f5cc61c5" x="72.134375" y="350.038823" style="stroke: #000000; stroke-width: 0.8"/>
      </g>
     </g>
     <g id="text_8">
      <!-- Escala 0-3 -->
      <g transform="translate(13.5625 353.838041) scale(0.1 -0.1)">
       <defs>
        <path id="DejaVuSans-45" d="M 628 4666 
L 3578 4666 
L 3578 4134 
L 1259 4134 
L 1259 2753 
L 3481 2753 
L 3481 2222 
L 1259 2222 
L 1259 531 
L 3634 531 
L 3634 0 
L 628 0 
L 628 4666 
z
" transform="scale(0.015625)"/>
        <path id="DejaVuSans-73" d="M 2834 3397 
L 2834 2853 
Q 2591 2978 2328 3040 
Q 2066 3103 1784 3103 
Q 1356 3103 1142 2972 
Q 928 2841 928 2578 
Q 928 2378 1081 2264 
Q 1234 2150 1697 2047 
L 1894 2003 
Q 2506 1872 2764 1633 
Q 3022 1394 3022 966 
Q 3022 478 2636 193 
Q 2250 -91 1575 -91 
Q 1294 -91 989 -36 
Q 684 19 347 128 
L 347 722 
Q 666 556 975 473 
Q 1284 391 1588 391 
Q 1994 391 2212 530 
Q 2431 669 2431 922 
Q 2431 1156 2273 1281 
Q 2116 1406 1581 1522 
L 1381 1569 
Q 847 1681 609 1914 
Q 372 2147 372 2553 
Q 372 3047 722 3315 
Q 1072 3584 1716 3584 
Q 2034 3584 2315 3537 
Q 2597 3491 2834 3397 
z
" transform="scale(0.015625)"/>
        <path id="DejaVuSans-63" d="M 3122 3366 
L 3122 2828 
Q 2878 2963 2633 3030 
Q 2388 3097 2138 3097 
Q 1578 3097 1268 2742 
Q 959 2388 959 1747 
Q 959 1106 1268 751 
Q 1578 397 2138 397 
Q 2388 397 2633 464 
Q 2878 531 3122 666 
L 3122 134 
Q 2881 22 2623 -34 
Q 2366 -91 2075 -91 
Q 1284 -91 818 406 
Q 353 903 353 1747 
Q 353 2603 823 3093 
Q 1294 3584 2113 3584 
Q 2378 3584 2631 3529 
Q 2884 3475 3122 3366 
z
" transform="scale(0.015625)"/>
        <path id="DejaVuSans-61" d="M 2194 1759 
Q 1497 1759 1228 1600 
Q 959 1441 959 1056 
Q 959 750 1161 570 
Q 1363 391 1709 391 
Q 2188 391 2477 730 
Q 2766 1069 2766 1631 
L 2766 1759 
L 2194 1759 
z
M 3341 1997 
L 3341 0 
L 2766 0 
L 2766 531 
Q 2569 213 2275 61 
Q 1981 -91 1556 -91 
Q 1019 -91 701 211 
Q 384 513 384 1019 
Q 384 1609 779 1909 
Q 1175 2209 1959 2209 
L 2766 2209 
L 2766 2266 
Q 2766 2663 2505 2880 
Q 2244 3097 1772 3097 
Q 1472 3097 1187 3025 
Q 903 2953 641 2809 
L 641 3341 
Q 956 3463 1253 3523 
Q 1550 3584 1831 3584 
Q 2591 3584 2966 3190 
Q 3341 2797 3341 1997 
z
" transform="scale(0.015625)"/>
        <path id="DejaVuSans-6c" d="M 603 4863 
L 1178 4863 
L 1178 0 
L 603 0 
L 603 4863 
z
" transform="scale(0.015625)"/>
        <path id="DejaVuSans-20" transform="scale(0.015625)"/>
        <path id="DejaVuSans-2d" d="M 313 2009 
L 1997 2009 
L 1997 1497 
L 313 1497 
L 313 2009 
z
" transform="scale(0.015625)"/>
        <path id="DejaVuSans-33" d="M 2597 2516 
Q 3050 2419 3304 2112 
Q 3559 1806 3559 1356 
Q 3559 666 3084 287 
Q 2609 -91 1734 -91 
Q 1441 -91 1130 -33 
Q 819 25 488 141 
L 488 750 
Q 750 597 1062 519 
Q 1375 441 1716 441 
Q 2309 441 2620 675 
Q 2931 909 2931 1356 
Q 2931 1769 2642 2001 
Q 2353 2234 1838 2234 
L 1294 2234 
L 1294 2753 
L 1863 2753 
Q 2328 2753 2575 2939 
Q 2822 3125 2822 3475 
Q 2822 3834 2567 4026 
Q 2313 4219 1838 4219 
Q 1578 4219 1281 4162 
Q 984 4106 628 3988 
L 628 4550 
Q 988 4650 1302 4700 
Q 1616 4750 1894 4750 
Q 2613 4750 3031 4423 
Q 3450 4097 3450 3541 
Q 3450 3153 3228 2886 
Q 3006 2619 2597 2516 
z
" transform="scale(0.015625)"/>
       </defs>
       <use xlink:href="#DejaVuSans-45"/>
       <use xlink:href="#DejaVuSans-73" transform="translate(63.183594 0)"/>
       <use xlink:href="#DejaVuSans-63" transform="translate(115.283203 0)"/>
       <use xlink:href="#DejaVuSans-61" transform="translate(170.263672 0)"/>
       <use xlink:href="#DejaVuSans-6c" transform="translate(231.542969 0)"/>
       <use xlink:href="#DejaVuSans-61" transform="translate(259.326172 0)"/>
       <use xlink:href="#DejaVuSans-20" transform="translate(320.605469 0)"/>
       <use xlink:href="#DejaVuSans-30" transform="translate(352.392578 0)"/>
       <use xlink:href="#DejaVuSans-2d" transform="translate(416.015625 0)"/>
       <use xlink:href="#DejaVuSans-33" transform="translate(452.099609 0)"/>
      </g>
     </g>
    </g>
    <g id="ytick_2">
     <g id="line2d_14">
      <g>
       <use xlink:href="#m32f5cc61c5" x="72.134375" y="135.71559" style="stroke: #000000; stroke-width: 0.8"/>
      </g>
     </g>
     <g id="text_9">
      <!-- Escala 0-10 -->
      <g transform="translate(7.2 139.514809) scale(0.1 -0.1)">
       <use xlink:href="#DejaVuSans-45"/>
       <use xlink:href="#DejaVuSans-73" transform="translate(63.183594 0)"/>
       <use xlink:href="#DejaVuSans-63" transform="translate(115.283203 0)"/>
       <use xlink:href="#DejaVuSans-61" transform="translate(170.263672 0)"/>
       <use xlink:href="#DejaVuSans-6c" transform="translate(231.542969 0)"/>
       <use xlink:href="#DejaVuSans-61" transform="translate(259.326172 0)"/>
       <use xlink:href="#DejaVuSans-20" transform="translate(320.605469 0)"/>
       <use xlink:href="#DejaVuSans-30" transform="translate(352.392578 0)"/>
       <use xlink:href="#DejaVuSans-2d" transform="translate(416.015625 0)"/>
       <use xlink:href="#DejaVuSans-31" transform="translate(452.099609 0)"/>
       <use xlink:href="#DejaVuSans-30" transform="translate(515.722656 0)"/>
      </g>
     </g>
    </g>
   </g>
   <g id="patch_3">
    <path d="M 72.134375 435.768116 
L 559.935064 435.768116 
L 559.935064 264.30953 
L 72.134375 264.30953 
z
" clip-path="url(#p39f54c524f)" style="fill: #3498db; opacity: 0.7; stroke: #000000; stroke-width: 1.5; stroke-linejoin: miter"/>
   </g>
   <g id="patch_4">
    <path d="M 72.134375 221.444883 
L 479.129709 221.444883 
L 479.129709 49.986297 
L 72.134375 49.986297 
z
" clip-path="url(#p39f54c524f)" style="fill: #e74c3c; opacity: 0.7; stroke: #000000; stroke-width: 1.5; stroke-linejoin: miter"/>
   </g>
   <g id="patch_5">
    <path d="M 72.134375 455.057206 
L 72.134375 30.697206 
" style="fill: none; stroke: #000000; stroke-width: 0.8; stroke-linejoin: miter; stroke-linecap: square"/>
   </g>
   <g id="patch_6">
    <path d="M 841.834375 455.057206 
L 841.834375 30.697206 
" style="fill: none; stroke: #000000; stroke-width: 0.8; stroke-linejoin: miter; stroke-linecap: square"/>
   </g>
   <g id="patch_7">
    <path d="M 72.134375 455.057206 
L 841.834375 455.057206 
" style="fill: none; stroke: #000000; stroke-width: 0.8; stroke-linejoin: miter; stroke-linecap: square"/>
   </g>
   <g id="patch_8">
    <path d="M 72.134375 30.697206 
L 841.834375 30.697206 
" style="fill: none; stroke: #000000; stroke-width: 0.8; stroke-linejoin: miter; stroke-linecap: square"/>
   </g>
   <g id="text_10">
    <!-- 0.6338 -->
    <g transform="translate(567.632064 354.177885) scale(0.15 -0.15)">
     <defs>
      <path id="DejaVuSans-Bold-30" d="M 2944 2338 
Q 2944 3213 2780 3570 
Q 2616 3928 2228 3928 
Q 1841 3928 1675 3570 
Q 1509 3213 1509 2338 
Q 1509 1453 1675 1090 
Q 1841 728 2228 728 
Q 2613 728 2778 1090 
Q 2944 1453 2944 2338 
z
M 4147 2328 
Q 4147 1169 3647 539 
Q 3147 -91 2228 -91 
Q 1306 -91 806 539 
Q 306 1169 306 2328 
Q 306 3491 806 4120 
Q 1306 4750 2228 4750 
Q 3147 4750 3647 4120 
Q 4147 3491 4147 2328 
z
" transform="scale(0.015625)"/>
      <path id="DejaVuSans-Bold-2e" d="M 653 1209 
L 1778 1209 
L 1778 0 
L 653 0 
L 653 1209 
z
" transform="scale(0.015625)"/>
      <path id="DejaVuSans-Bold-36" d="M 2316 2303 
Q 2000 2303 1842 2098 
Q 1684 1894 1684 1484 
Q 1684 1075 1842 870 
Q 2000 666 2316 666 
Q 2634 666 2792 870 
Q 2950 1075 2950 1484 
Q 2950 1894 2792 2098 
Q 2634 2303 2316 2303 
z
M 3803 4544 
L 3803 3681 
Q 3506 3822 3243 3889 
Q 2981 3956 2731 3956 
Q 2194 3956 1894 3657 
Q 1594 3359 1544 2772 
Q 1750 2925 1990 3001 
Q 2231 3078 2516 3078 
Q 3231 3078 3670 2659 
Q 4109 2241 4109 1563 
Q 4109 813 3618 361 
Q 3128 -91 2303 -91 
Q 1394 -91 895 523 
Q 397 1138 397 2266 
Q 397 3422 980 4083 
Q 1563 4744 2578 4744 
Q 2900 4744 3203 4694 
Q 3506 4644 3803 4544 
z
" transform="scale(0.015625)"/>
      <path id="DejaVuSans-Bold-33" d="M 2981 2516 
Q 3453 2394 3698 2092 
Q 3944 1791 3944 1325 
Q 3944 631 3412 270 
Q 2881 -91 1863 -91 
Q 1503 -91 1142 -33 
Q 781 25 428 141 
L 428 1069 
Q 766 900 1098 814 
Q 1431 728 1753 728 
Q 2231 728 2486 893 
Q 2741 1059 2741 1369 
Q 2741 1688 2480 1852 
Q 2219 2016 1709 2016 
L 1228 2016 
L 1228 2791 
L 1734 2791 
Q 2188 2791 2409 2933 
Q 2631 3075 2631 3366 
Q 2631 3634 2415 3781 
Q 2200 3928 1806 3928 
Q 1516 3928 1219 3862 
Q 922 3797 628 3669 
L 628 4550 
Q 984 4650 1334 4700 
Q 1684 4750 2022 4750 
Q 2931 4750 3382 4451 
Q 3834 4153 3834 3553 
Q 3834 3144 3618 2883 
Q 3403 2622 2981 2516 
z
" transform="scale(0.015625)"/>
      <path id="DejaVuSans-Bold-38" d="M 2228 2088 
Q 1891 2088 1709 1903 
Q 1528 1719 1528 1375 
Q 1528 1031 1709 848 
Q 1891 666 2228 666 
Q 2563 666 2741 848 
Q 2919 1031 2919 1375 
Q 2919 1722 2741 1905 
Q 2563 2088 2228 2088 
z
M 1350 2484 
Q 925 2613 709 2878 
Q 494 3144 494 3541 
Q 494 4131 934 4440 
Q 1375 4750 2228 4750 
Q 3075 4750 3515 4442 
Q 3956 4134 3956 3541 
Q 3956 3144 3739 2878 
Q 3522 2613 3097 2484 
Q 3572 2353 3814 2058 
Q 4056 1763 4056 1313 
Q 4056 619 3595 264 
Q 3134 -91 2228 -91 
Q 1319 -91 855 264 
Q 391 619 391 1313 
Q 391 1763 633 2058 
Q 875 2353 1350 2484 
z
M 1631 3419 
Q 1631 3141 1786 2991 
Q 1941 2841 2228 2841 
Q 2509 2841 2662 2991 
Q 2816 3141 2816 3419 
Q 2816 3697 2662 3845 
Q 2509 3994 2228 3994 
Q 1941 3994 1786 3844 
Q 1631 3694 1631 3419 
z
" transform="scale(0.015625)"/>
     </defs>
     <use xlink:href="#DejaVuSans-Bold-30"/>
     <use xlink:href="#DejaVuSans-Bold-2e" transform="translate(69.580078 0)"/>
     <use xlink:href="#DejaVuSans-Bold-36" transform="translate(107.568359 0)"/>
     <use xlink:href="#DejaVuSans-Bold-33" transform="translate(177.148438 0)"/>
     <use xlink:href="#DejaVuSans-Bold-33" transform="translate(246.728516 0)"/>
     <use xlink:href="#DejaVuSans-Bold-38" transform="translate(316.308594 0)"/>
    </g>
   </g>
   <g id="text_11">
    <!-- 0.5288 -->
    <g transform="translate(486.826709 139.854653) scale(0.15 -0.15)">
     <defs>
      <path id="DejaVuSans-Bold-35" d="M 678 4666 
L 3669 4666 
L 3669 3781 
L 1638 3781 
L 1638 3059 
Q 1775 3097 1914 3117 
Q 2053 3138 2203 3138 
Q 3056 3138 3531 2711 
Q 4006 2284 4006 1522 
Q 4006 766 3489 337 
Q 2972 -91 2053 -91 
Q 1656 -91 1267 -14 
Q 878 63 494 219 
L 494 1166 
Q 875 947 1217 837 
Q 1559 728 1863 728 
Q 2300 728 2551 942 
Q 2803 1156 2803 1522 
Q 2803 1891 2551 2103 
Q 2300 2316 1863 2316 
Q 1603 2316 1309 2248 
Q 1016 2181 678 2041 
L 678 4666 
z
" transform="scale(0.015625)"/>
      <path id="DejaVuSans-Bold-32" d="M 1844 884 
L 3897 884 
L 3897 0 
L 506 0 
L 506 884 
L 2209 2388 
Q 2438 2594 2547 2791 
Q 2656 2988 2656 3200 
Q 2656 3528 2436 3728 
Q 2216 3928 1850 3928 
Q 1569 3928 1234 3808 
Q 900 3688 519 3450 
L 519 4475 
Q 925 4609 1322 4679 
Q 1719 4750 2100 4750 
Q 2938 4750 3402 4381 
Q 3866 4013 3866 3353 
Q 3866 2972 3669 2642 
Q 3472 2313 2841 1759 
L 1844 884 
z
" transform="scale(0.015625)"/>
     </defs>
     <use xlink:href="#DejaVuSans-Bold-30"/>
     <use xlink:href="#DejaVuSans-Bold-2e" transform="translate(69.580078 0)"/>
     <use xlink:href="#DejaVuSans-Bold-35" transform="translate(107.568359 0)"/>
     <use xlink:href="#DejaVuSans-Bold-32" transform="translate(177.148438 0)"/>
     <use xlink:href="#DejaVuSans-Bold-38" transform="translate(246.728516 0)"/>
     <use xlink:href="#DejaVuSans-Bold-38" transform="translate(316.308594 0)"/>
    </g>
   </g>
   <g id="text_12">
    <!-- Modelo: grok-4-fast-non-reasoning -->
    <g style="fill: #2c3e50" transform="translate(87.528375 385.774495) scale(0.13 -0.13)">
     <defs>
      <path id="DejaVuSans-Oblique-4d" d="M 1081 4666 
L 2028 4666 
L 2572 1522 
L 4378 4666 
L 5350 4666 
L 4441 0 
L 3828 0 
L 4622 4091 
L 2791 897 
L 2175 897 
L 1581 4103 
L 788 0 
L 172 0 
L 1081 4666 
z
" transform="scale(0.015625)"/>
      <path id="DejaVuSans-Oblique-6f" d="M 1625 -91 
Q 1009 -91 651 289 
Q 294 669 294 1325 
Q 294 1706 417 2101 
Q 541 2497 738 2766 
Q 1047 3184 1428 3384 
Q 1809 3584 2291 3584 
Q 2888 3584 3255 3212 
Q 3622 2841 3622 2241 
Q 3622 1825 3500 1412 
Q 3378 1000 3181 728 
Q 2875 309 2494 109 
Q 2113 -91 1625 -91 
z
M 891 1344 
Q 891 869 1089 633 
Q 1288 397 1691 397 
Q 2269 397 2648 901 
Q 3028 1406 3028 2181 
Q 3028 2634 2825 2865 
Q 2622 3097 2228 3097 
Q 1903 3097 1650 2945 
Q 1397 2794 1197 2484 
Q 1050 2253 970 1956 
Q 891 1659 891 1344 
z
" transform="scale(0.015625)"/>
      <path id="DejaVuSans-Oblique-64" d="M 2675 525 
Q 2444 222 2128 65 
Q 1813 -91 1428 -91 
Q 903 -91 598 267 
Q 294 625 294 1247 
Q 294 1766 478 2236 
Q 663 2706 1013 3078 
Q 1244 3325 1534 3454 
Q 1825 3584 2144 3584 
Q 2481 3584 2739 3421 
Q 2997 3259 3138 2956 
L 3513 4863 
L 4091 4863 
L 3144 0 
L 2566 0 
L 2675 525 
z
M 891 1350 
Q 891 897 1095 644 
Q 1300 391 1663 391 
Q 1931 391 2161 520 
Q 2391 650 2566 903 
Q 2750 1166 2856 1509 
Q 2963 1853 2963 2188 
Q 2963 2622 2758 2865 
Q 2553 3109 2194 3109 
Q 1922 3109 1687 2981 
Q 1453 2853 1288 2613 
Q 1106 2353 998 2009 
Q 891 1666 891 1350 
z
" transform="scale(0.015625)"/>
      <path id="DejaVuSans-Oblique-65" d="M 3078 2063 
Q 3088 2113 3092 2166 
Q 3097 2219 3097 2272 
Q 3097 2653 2873 2875 
Q 2650 3097 2266 3097 
Q 1838 3097 1509 2826 
Q 1181 2556 1013 2059 
L 3078 2063 
z
M 3578 1613 
L 903 1613 
Q 884 1494 878 1425 
Q 872 1356 872 1306 
Q 872 872 1139 634 
Q 1406 397 1894 397 
Q 2269 397 2603 481 
Q 2938 566 3225 728 
L 3116 159 
Q 2806 34 2476 -28 
Q 2147 -91 1806 -91 
Q 1078 -91 686 257 
Q 294 606 294 1247 
Q 294 1794 489 2264 
Q 684 2734 1063 3103 
Q 1306 3334 1642 3459 
Q 1978 3584 2356 3584 
Q 2950 3584 3301 3228 
Q 3653 2872 3653 2272 
Q 3653 2128 3634 1964 
Q 3616 1800 3578 1613 
z
" transform="scale(0.015625)"/>
      <path id="DejaVuSans-Oblique-6c" d="M 1172 4863 
L 1747 4863 
L 800 0 
L 225 0 
L 1172 4863 
z
" transform="scale(0.015625)"/>
      <path id="DejaVuSans-Oblique-3a" d="M 978 3309 
L 1638 3309 
L 1484 2516 
L 825 2516 
L 978 3309 
z
M 488 794 
L 1147 794 
L 991 0 
L 331 0 
L 488 794 
z
" transform="scale(0.015625)"/>
      <path id="DejaVuSans-Oblique-20" transform="scale(0.015625)"/>
      <path id="DejaVuSans-Oblique-67" d="M 3816 3500 
L 3219 434 
Q 3047 -456 2561 -893 
Q 2075 -1331 1253 -1331 
Q 950 -1331 690 -1286 
Q 431 -1241 206 -1147 
L 313 -588 
Q 525 -725 762 -790 
Q 1000 -856 1269 -856 
Q 1816 -856 2167 -557 
Q 2519 -259 2631 300 
L 2681 563 
Q 2441 288 2122 144 
Q 1803 0 1434 0 
Q 903 0 598 351 
Q 294 703 294 1319 
Q 294 1803 478 2267 
Q 663 2731 997 3091 
Q 1219 3328 1514 3456 
Q 1809 3584 2131 3584 
Q 2484 3584 2746 3420 
Q 3009 3256 3138 2956 
L 3238 3500 
L 3816 3500 
z
M 2950 2216 
Q 2950 2641 2750 2872 
Q 2550 3103 2181 3103 
Q 1953 3103 1747 3012 
Q 1541 2922 1394 2759 
Q 1156 2491 1023 2127 
Q 891 1763 891 1375 
Q 891 944 1092 712 
Q 1294 481 1672 481 
Q 2219 481 2584 976 
Q 2950 1472 2950 2216 
z
" transform="scale(0.015625)"/>
      <path id="DejaVuSans-Oblique-72" d="M 2853 2969 
Q 2766 3016 2653 3041 
Q 2541 3066 2413 3066 
Q 1953 3066 1609 2717 
Q 1266 2369 1153 1784 
L 800 0 
L 225 0 
L 909 3500 
L 1484 3500 
L 1375 2956 
Q 1603 3259 1920 3421 
Q 2238 3584 2597 3584 
Q 2691 3584 2781 3573 
Q 2872 3563 2963 3538 
L 2853 2969 
z
" transform="scale(0.015625)"/>
      <path id="DejaVuSans-Oblique-6b" d="M 1172 4863 
L 1747 4863 
L 1197 2028 
L 3169 3500 
L 3916 3500 
L 1716 1825 
L 3322 0 
L 2625 0 
L 1131 1709 
L 800 0 
L 225 0 
L 1172 4863 
z
" transform="scale(0.015625)"/>
      <path id="DejaVuSans-Oblique-2d" d="M 391 2009 
L 2075 2009 
L 1978 1497 
L 288 1497 
L 391 2009 
z
" transform="scale(0.015625)"/>
      <path id="DejaVuSans-Oblique-34" d="M 2753 4666 
L 3547 4666 
L 2950 1625 
L 3616 1625 
L 3513 1100 
L 2847 1100 
L 2638 0 
L 2009 0 
L 2222 1100 
L 116 1100 
L 238 1709 
L 2753 4666 
z
M 2809 4116 
L 728 1625 
L 2322 1625 
L 2809 4116 
z
" transform="scale(0.015625)"/>
      <path id="DejaVuSans-Oblique-66" d="M 3059 4863 
L 2969 4384 
L 2419 4384 
Q 2106 4384 1964 4261 
Q 1822 4138 1753 3809 
L 1691 3500 
L 2638 3500 
L 2553 3053 
L 1606 3053 
L 1013 0 
L 434 0 
L 1031 3053 
L 481 3053 
L 563 3500 
L 1113 3500 
L 1159 3744 
Q 1278 4363 1576 4613 
Q 1875 4863 2516 4863 
L 3059 4863 
z
" transform="scale(0.015625)"/>
      <path id="DejaVuSans-Oblique-61" d="M 3438 1997 
L 3047 0 
L 2472 0 
L 2578 531 
Q 2325 219 2001 64 
Q 1678 -91 1281 -91 
Q 834 -91 548 182 
Q 263 456 263 884 
Q 263 1497 752 1853 
Q 1241 2209 2100 2209 
L 2900 2209 
L 2931 2363 
Q 2938 2388 2941 2417 
Q 2944 2447 2944 2509 
Q 2944 2788 2717 2942 
Q 2491 3097 2081 3097 
Q 1800 3097 1504 3025 
Q 1209 2953 897 2809 
L 997 3341 
Q 1322 3463 1633 3523 
Q 1944 3584 2234 3584 
Q 2853 3584 3176 3315 
Q 3500 3047 3500 2534 
Q 3500 2431 3484 2292 
Q 3469 2153 3438 1997 
z
M 2816 1759 
L 2241 1759 
Q 1534 1759 1195 1570 
Q 856 1381 856 984 
Q 856 709 1029 553 
Q 1203 397 1509 397 
Q 1978 397 2328 733 
Q 2678 1069 2791 1631 
L 2816 1759 
z
" transform="scale(0.015625)"/>
      <path id="DejaVuSans-Oblique-73" d="M 3200 3397 
L 3091 2853 
Q 2863 2978 2609 3040 
Q 2356 3103 2088 3103 
Q 1634 3103 1373 2948 
Q 1113 2794 1113 2528 
Q 1113 2219 1719 2053 
Q 1766 2041 1788 2034 
L 1972 1978 
Q 2547 1819 2739 1644 
Q 2931 1469 2931 1166 
Q 2931 609 2489 259 
Q 2047 -91 1331 -91 
Q 1053 -91 747 -37 
Q 441 16 72 128 
L 184 722 
Q 500 559 806 475 
Q 1113 391 1394 391 
Q 1816 391 2080 572 
Q 2344 753 2344 1031 
Q 2344 1331 1650 1516 
L 1591 1531 
L 1394 1581 
Q 956 1697 753 1886 
Q 550 2075 550 2369 
Q 550 2928 970 3256 
Q 1391 3584 2113 3584 
Q 2397 3584 2667 3537 
Q 2938 3491 3200 3397 
z
" transform="scale(0.015625)"/>
      <path id="DejaVuSans-Oblique-74" d="M 2706 3500 
L 2619 3053 
L 1472 3053 
L 1100 1153 
Q 1081 1047 1072 975 
Q 1063 903 1063 863 
Q 1063 663 1183 572 
Q 1303 481 1569 481 
L 2150 481 
L 2053 0 
L 1503 0 
Q 991 0 739 200 
Q 488 400 488 806 
Q 488 878 497 964 
Q 506 1050 525 1153 
L 897 3053 
L 409 3053 
L 500 3500 
L 978 3500 
L 1172 4494 
L 1747 4494 
L 1556 3500 
L 2706 3500 
z
" transform="scale(0.015625)"/>
      <path id="DejaVuSans-Oblique-6e" d="M 3566 2113 
L 3156 0 
L 2578 0 
L 2988 2091 
Q 3016 2238 3031 2350 
Q 3047 2463 3047 2528 
Q 3047 2791 2881 2937 
Q 2716 3084 2419 3084 
Q 1956 3084 1622 2776 
Q 1288 2469 1184 1941 
L 800 0 
L 225 0 
L 903 3500 
L 1478 3500 
L 1363 2950 
Q 1603 3253 1940 3418 
Q 2278 3584 2650 3584 
Q 3113 3584 3367 3334 
Q 3622 3084 3622 2631 
Q 3622 2519 3608 2391 
Q 3594 2263 3566 2113 
z
" transform="scale(0.015625)"/>
      <path id="DejaVuSans-Oblique-69" d="M 1172 4863 
L 1747 4863 
L 1606 4134 
L 1031 4134 
L 1172 4863 
z
M 909 3500 
L 1484 3500 
L 800 0 
L 225 0 
L 909 3500 
z
" transform="scale(0.015625)"/>
     </defs>
     <use xlink:href="#DejaVuSans-Oblique-4d"/>
     <use xlink:href="#DejaVuSans-Oblique-6f" transform="translate(86.279297 0)"/>
     <use xlink:href="#DejaVuSans-Oblique-64" transform="translate(147.460938 0)"/>
     <use xlink:href="#DejaVuSans-Oblique-65" transform="translate(210.9375 0)"/>
     <use xlink:href="#DejaVuSans-Oblique-6c" transform="translate(272.460938 0)"/>
     <use xlink:href="#DejaVuSans-Oblique-6f" transform="translate(300.244141 0)"/>
     <use xlink:href="#DejaVuSans-Oblique-3a" transform="translate(361.425781 0)"/>
     <use xlink:href="#DejaVuSans-Oblique-20" transform="translate(395.117188 0)"/>
     <use xlink:href="#DejaVuSans-Oblique-67" transform="translate(426.904297 0)"/>
     <use xlink:href="#DejaVuSans-Oblique-72" transform="translate(490.380859 0)"/>
     <use xlink:href="#DejaVuSans-Oblique-6f" transform="translate(531.494141 0)"/>
     <use xlink:href="#DejaVuSans-Oblique-6b" transform="translate(592.675781 0)"/>
     <use xlink:href="#DejaVuSans-Oblique-2d" transform="translate(650.585938 0)"/>
     <use xlink:href="#DejaVuSans-Oblique-34" transform="translate(686.669922 0)"/>
     <use xlink:href="#DejaVuSans-Oblique-2d" transform="translate(750.292969 0)"/>
     <use xlink:href="#DejaVuSans-Oblique-66" transform="translate(786.376953 0)"/>
     <use xlink:href="#DejaVuSans-Oblique-61" transform="translate(821.582031 0)"/>
     <use xlink:href="#DejaVuSans-Oblique-73" transform="translate(882.861328 0)"/>
     <use xlink:href="#DejaVuSans-Oblique-74" transform="translate(934.960938 0)"/>
     <use xlink:href="#DejaVuSans-Oblique-2d" transform="translate(974.169922 0)"/>
     <use xlink:href="#DejaVuSans-Oblique-6e" transform="translate(1010.253906 0)"/>
     <use xlink:href="#DejaVuSans-Oblique-6f" transform="translate(1073.632812 0)"/>
     <use xlink:href="#DejaVuSans-Oblique-6e" transform="translate(1134.814453 0)"/>
     <use xlink:href="#DejaVuSans-Oblique-2d" transform="translate(1198.193359 0)"/>
     <use xlink:href="#DejaVuSans-Oblique-72" transform="translate(1234.277344 0)"/>
     <use xlink:href="#DejaVuSans-Oblique-65" transform="translate(1275.390625 0)"/>
     <use xlink:href="#DejaVuSans-Oblique-61" transform="translate(1336.914062 0)"/>
     <use xlink:href="#DejaVuSans-Oblique-73" transform="translate(1398.193359 0)"/>
     <use xlink:href="#DejaVuSans-Oblique-6f" transform="translate(1450.292969 0)"/>
     <use xlink:href="#DejaVuSans-Oblique-6e" transform="translate(1511.474609 0)"/>
     <use xlink:href="#DejaVuSans-Oblique-69" transform="translate(1574.853516 0)"/>
     <use xlink:href="#DejaVuSans-Oblique-6e" transform="translate(1602.636719 0)"/>
     <use xlink:href="#DejaVuSans-Oblique-67" transform="translate(1666.015625 0)"/>
    </g>
   </g>
   <g id="text_13">
    <!-- Prompt: toxicity_3_prod.jinja2 -->
    <g style="fill: #2c3e50" transform="translate(87.528375 417.742199) scale(0.13 -0.13)">
     <defs>
      <path id="DejaVuSans-Oblique-50" d="M 1081 4666 
L 2541 4666 
Q 3178 4666 3512 4369 
Q 3847 4072 3847 3500 
Q 3847 2731 3353 2303 
Q 2859 1875 1966 1875 
L 1172 1875 
L 806 0 
L 172 0 
L 1081 4666 
z
M 1613 4147 
L 1275 2394 
L 2069 2394 
Q 2606 2394 2893 2669 
Q 3181 2944 3181 3456 
Q 3181 3784 2986 3965 
Q 2791 4147 2438 4147 
L 1613 4147 
z
" transform="scale(0.015625)"/>
      <path id="DejaVuSans-Oblique-6d" d="M 5747 2113 
L 5338 0 
L 4763 0 
L 5166 2094 
Q 5191 2228 5203 2325 
Q 5216 2422 5216 2491 
Q 5216 2772 5059 2928 
Q 4903 3084 4622 3084 
Q 4203 3084 3875 2770 
Q 3547 2456 3450 1953 
L 3066 0 
L 2491 0 
L 2900 2094 
Q 2925 2209 2937 2307 
Q 2950 2406 2950 2484 
Q 2950 2769 2794 2926 
Q 2638 3084 2363 3084 
Q 1938 3084 1609 2770 
Q 1281 2456 1184 1953 
L 800 0 
L 225 0 
L 909 3500 
L 1484 3500 
L 1375 2956 
Q 1609 3263 1923 3423 
Q 2238 3584 2597 3584 
Q 2978 3584 3223 3384 
Q 3469 3184 3519 2828 
Q 3781 3197 4126 3390 
Q 4472 3584 4856 3584 
Q 5306 3584 5551 3325 
Q 5797 3066 5797 2591 
Q 5797 2488 5784 2364 
Q 5772 2241 5747 2113 
z
" transform="scale(0.015625)"/>
      <path id="DejaVuSans-Oblique-70" d="M 3175 2156 
Q 3175 2616 2975 2859 
Q 2775 3103 2400 3103 
Q 2144 3103 1911 2972 
Q 1678 2841 1497 2591 
Q 1319 2344 1212 1994 
Q 1106 1644 1106 1300 
Q 1106 863 1306 627 
Q 1506 391 1875 391 
Q 2147 391 2380 519 
Q 2613 647 2778 891 
Q 2956 1147 3065 1494 
Q 3175 1841 3175 2156 
z
M 1394 2969 
Q 1625 3272 1939 3428 
Q 2253 3584 2638 3584 
Q 3175 3584 3472 3232 
Q 3769 2881 3769 2247 
Q 3769 1728 3584 1258 
Q 3400 788 3053 416 
Q 2822 169 2531 39 
Q 2241 -91 1919 -91 
Q 1547 -91 1294 64 
Q 1041 219 916 525 
L 556 -1331 
L -19 -1331 
L 922 3500 
L 1497 3500 
L 1394 2969 
z
" transform="scale(0.015625)"/>
      <path id="DejaVuSans-Oblique-78" d="M 3841 3500 
L 2234 1784 
L 3219 0 
L 2559 0 
L 1819 1388 
L 531 0 
L -166 0 
L 1556 1844 
L 641 3500 
L 1300 3500 
L 1972 2234 
L 3144 3500 
L 3841 3500 
z
" transform="scale(0.015625)"/>
      <path id="DejaVuSans-Oblique-63" d="M 3431 3366 
L 3316 2797 
Q 3109 2947 2876 3022 
Q 2644 3097 2394 3097 
Q 2119 3097 1870 3000 
Q 1622 2903 1453 2725 
Q 1184 2453 1037 2087 
Q 891 1722 891 1331 
Q 891 859 1127 628 
Q 1363 397 1844 397 
Q 2081 397 2348 469 
Q 2616 541 2906 684 
L 2797 116 
Q 2547 13 2283 -39 
Q 2019 -91 1741 -91 
Q 1044 -91 669 257 
Q 294 606 294 1253 
Q 294 1797 489 2255 
Q 684 2713 1069 3078 
Q 1331 3328 1684 3456 
Q 2038 3584 2456 3584 
Q 2700 3584 2940 3529 
Q 3181 3475 3431 3366 
z
" transform="scale(0.015625)"/>
      <path id="DejaVuSans-Oblique-79" d="M 1588 -325 
Q 1188 -997 936 -1164 
Q 684 -1331 294 -1331 
L -159 -1331 
L -63 -850 
L 269 -850 
Q 509 -850 678 -719 
Q 847 -588 1056 -206 
L 1234 128 
L 459 3500 
L 1069 3500 
L 1650 819 
L 3256 3500 
L 3859 3500 
L 1588 -325 
z
" transform="scale(0.015625)"/>
      <path id="DejaVuSans-Oblique-5f" d="M 3263 -1063 
L 3263 -1509 
L -63 -1509 
L -63 -1063 
L 3263 -1063 
z
" transform="scale(0.015625)"/>
      <path id="DejaVuSans-Oblique-33" d="M 1013 4550 
Q 1356 4650 1679 4700 
Q 2003 4750 2316 4750 
Q 2934 4750 3296 4475 
Q 3659 4200 3659 3738 
Q 3659 3284 3373 2959 
Q 3088 2634 2584 2516 
Q 2978 2403 3162 2165 
Q 3347 1928 3347 1538 
Q 3347 1163 3167 834 
Q 2988 506 2650 269 
Q 2394 88 2037 -1 
Q 1681 -91 1216 -91 
Q 922 -91 622 -33 
Q 322 25 13 141 
L 128 738 
Q 422 575 720 495 
Q 1019 416 1331 416 
Q 1947 416 2330 733 
Q 2713 1050 2713 1556 
Q 2713 1881 2469 2057 
Q 2225 2234 1772 2234 
L 1228 2234 
L 1325 2747 
L 1900 2747 
Q 2419 2747 2717 2984 
Q 3016 3222 3016 3628 
Q 3016 3922 2797 4083 
Q 2578 4244 2181 4244 
Q 1881 4244 1567 4180 
Q 1253 4116 916 3988 
L 1013 4550 
z
" transform="scale(0.015625)"/>
      <path id="DejaVuSans-Oblique-2e" d="M 525 794 
L 1184 794 
L 1031 0 
L 372 0 
L 525 794 
z
" transform="scale(0.015625)"/>
      <path id="DejaVuSans-Oblique-6a" d="M 928 3500 
L 1503 3500 
L 813 -63 
L 809 -78 
Q 694 -675 544 -897 
Q 403 -1106 132 -1218 
Q -138 -1331 -506 -1331 
L -722 -1331 
L -628 -844 
L -481 -844 
Q -144 -844 -1 -703 
Q 141 -563 238 -63 
L 928 3500 
z
M 1197 4863 
L 1772 4863 
L 1631 4134 
L 1056 4134 
L 1197 4863 
z
" transform="scale(0.015625)"/>
      <path id="DejaVuSans-Oblique-32" d="M 2950 2253 
L 934 525 
L 3163 525 
L 3053 0 
L 25 0 
L 128 531 
L 2234 2338 
Q 2656 2703 2832 2979 
Q 3009 3256 3009 3547 
Q 3009 3850 2796 4040 
Q 2584 4231 2241 4231 
Q 1944 4231 1581 4125 
Q 1219 4019 806 3816 
L 922 4441 
Q 1309 4594 1662 4672 
Q 2016 4750 2316 4750 
Q 2928 4750 3301 4425 
Q 3675 4100 3675 3572 
Q 3675 3216 3497 2892 
Q 3319 2569 2950 2253 
z
" transform="scale(0.015625)"/>
     </defs>
     <use xlink:href="#DejaVuSans-Oblique-50"/>
     <use xlink:href="#DejaVuSans-Oblique-72" transform="translate(60.302734 0)"/>
     <use xlink:href="#DejaVuSans-Oblique-6f" transform="translate(101.416016 0)"/>
     <use xlink:href="#DejaVuSans-Oblique-6d" transform="translate(162.597656 0)"/>
     <use xlink:href="#DejaVuSans-Oblique-70" transform="translate(260.009766 0)"/>
     <use xlink:href="#DejaVuSans-Oblique-74" transform="translate(323.486328 0)"/>
     <use xlink:href="#DejaVuSans-Oblique-3a" transform="translate(362.695312 0)"/>
     <use xlink:href="#DejaVuSans-Oblique-20" transform="translate(396.386719 0)"/>
     <use xlink:href="#DejaVuSans-Oblique-74" transform="translate(428.173828 0)"/>
     <use xlink:href="#DejaVuSans-Oblique-6f" transform="translate(467.382812 0)"/>
     <use xlink:href="#DejaVuSans-Oblique-78" transform="translate(528.564453 0)"/>
     <use xlink:href="#DejaVuSans-Oblique-69" transform="translate(587.744141 0)"/>
     <use xlink:href="#DejaVuSans-Oblique-63" transform="translate(615.527344 0)"/>
     <use xlink:href="#DejaVuSans-Oblique-69" transform="translate(670.507812 0)"/>
     <use xlink:href="#DejaVuSans-Oblique-74" transform="translate(698.291016 0)"/>
     <use xlink:href="#DejaVuSans-Oblique-79" transform="translate(737.5 0)"/>
     <use xlink:href="#DejaVuSans-Oblique-5f" transform="translate(796.679688 0)"/>
     <use xlink:href="#DejaVuSans-Oblique-33" transform="translate(846.679688 0)"/>
     <use xlink:href="#DejaVuSans-Oblique-5f" transform="translate(910.302734 0)"/>
     <use xlink:href="#DejaVuSans-Oblique-70" transform="translate(960.302734 0)"/>
     <use xlink:href="#DejaVuSans-Oblique-72" transform="translate(1023.779297 0)"/>
     <use xlink:href="#DejaVuSans-Oblique-6f" transform="translate(1064.892578 0)"/>
     <use xlink:href="#DejaVuSans-Oblique-64" transform="translate(1126.074219 0)"/>
     <use xlink:href="#DejaVuSans-Oblique-2e" transform="translate(1189.550781 0)"/>
     <use xlink:href="#DejaVuSans-Oblique-6a" transform="translate(1221.337891 0)"/>
     <use xlink:href="#DejaVuSans-Oblique-69" transform="translate(1249.121094 0)"/>
     <use xlink:href="#DejaVuSans-Oblique-6e" transform="translate(1276.904297 0)"/>
     <use xlink:href="#DejaVuSans-Oblique-6a" transform="translate(1340.283203 0)"/>
     <use xlink:href="#DejaVuSans-Oblique-61" transform="translate(1368.066406 0)"/>
     <use xlink:href="#DejaVuSans-Oblique-32" transform="translate(1429.345703 0)"/>
    </g>
   </g>
   <g id="text_14">
    <!-- Modelo: gemini-2.5-flash -->
    <g style="fill: #2c3e50" transform="translate(87.528375 171.451263) scale(0.13 -0.13)">
     <defs>
      <path id="DejaVuSans-Oblique-35" d="M 3719 4666 
L 3622 4141 
L 1691 4141 
L 1466 2988 
Q 1609 3034 1757 3056 
Q 1906 3078 2059 3078 
Q 2706 3078 3081 2731 
Q 3456 2384 3456 1791 
Q 3456 1375 3264 994 
Q 3072 613 2719 325 
Q 2469 125 2108 17 
Q 1747 -91 1319 -91 
Q 1038 -91 744 -41 
Q 450 9 128 109 
L 244 697 
Q 531 556 820 486 
Q 1109 416 1403 416 
Q 2013 416 2411 781 
Q 2809 1147 2809 1697 
Q 2809 2103 2548 2328 
Q 2288 2553 1819 2553 
Q 1572 2553 1305 2495 
Q 1038 2438 756 2322 
L 1209 4666 
L 3719 4666 
z
" transform="scale(0.015625)"/>
      <path id="DejaVuSans-Oblique-68" d="M 3566 2113 
L 3156 0 
L 2578 0 
L 2988 2091 
Q 3016 2238 3031 2350 
Q 3047 2463 3047 2528 
Q 3047 2791 2881 2937 
Q 2716 3084 2419 3084 
Q 1956 3084 1617 2771 
Q 1278 2459 1178 1941 
L 800 0 
L 225 0 
L 1172 4863 
L 1747 4863 
L 1375 2950 
Q 1594 3244 1934 3414 
Q 2275 3584 2650 3584 
Q 3113 3584 3367 3334 
Q 3622 3084 3622 2631 
Q 3622 2519 3608 2391 
Q 3594 2263 3566 2113 
z
" transform="scale(0.015625)"/>
     </defs>
     <use xlink:href="#DejaVuSans-Oblique-4d"/>
     <use xlink:href="#DejaVuSans-Oblique-6f" transform="translate(86.279297 0)"/>
     <use xlink:href="#DejaVuSans-Oblique-64" transform="translate(147.460938 0)"/>
     <use xlink:href="#DejaVuSans-Oblique-65" transform="translate(210.9375 0)"/>
     <use xlink:href="#DejaVuSans-Oblique-6c" transform="translate(272.460938 0)"/>
     <use xlink:href="#DejaVuSans-Oblique-6f" transform="translate(300.244141 0)"/>
     <use xlink:href="#DejaVuSans-Oblique-3a" transform="translate(361.425781 0)"/>
     <use xlink:href="#DejaVuSans-Oblique-20" transform="translate(395.117188 0)"/>
     <use xlink:href="#DejaVuSans-Oblique-67" transform="translate(426.904297 0)"/>
     <use xlink:href="#DejaVuSans-Oblique-65" transform="translate(490.380859 0)"/>
     <use xlink:href="#DejaVuSans-Oblique-6d" transform="translate(551.904297 0)"/>
     <use xlink:href="#DejaVuSans-Oblique-69" transform="translate(649.316406 0)"/>
     <use xlink:href="#DejaVuSans-Oblique-6e" transform="translate(677.099609 0)"/>
     <use xlink:href="#DejaVuSans-Oblique-69" transform="translate(740.478516 0)"/>
     <use xlink:href="#DejaVuSans-Oblique-2d" transform="translate(768.261719 0)"/>
     <use xlink:href="#DejaVuSans-Oblique-32" transform="translate(804.345703 0)"/>
     <use xlink:href="#DejaVuSans-Oblique-2e" transform="translate(867.96875 0)"/>
     <use xlink:href="#DejaVuSans-Oblique-35" transform="translate(899.755859 0)"/>
     <use xlink:href="#DejaVuSans-Oblique-2d" transform="translate(963.378906 0)"/>
     <use xlink:href="#DejaVuSans-Oblique-66" transform="translate(999.462891 0)"/>
     <use xlink:href="#DejaVuSans-Oblique-6c" transform="translate(1034.667969 0)"/>
     <use xlink:href="#DejaVuSans-Oblique-61" transform="translate(1062.451172 0)"/>
     <use xlink:href="#DejaVuSans-Oblique-73" transform="translate(1123.730469 0)"/>
     <use xlink:href="#DejaVuSans-Oblique-68" transform="translate(1175.830078 0)"/>
    </g>
   </g>
   <g id="text_15">
    <!-- Prompt: toxicity_10_prod.jinja2 -->
    <g style="fill: #2c3e50" transform="translate(87.528375 203.418966) scale(0.13 -0.13)">
     <defs>
      <path id="DejaVuSans-Oblique-31" d="M 416 531 
L 1447 531 
L 2144 4122 
L 978 3897 
L 1088 4441 
L 2247 4666 
L 2881 4666 
L 2075 531 
L 3103 531 
L 3003 0 
L 313 0 
L 416 531 
z
" transform="scale(0.015625)"/>
      <path id="DejaVuSans-Oblique-30" d="M 2444 4750 
Q 3078 4750 3414 4328 
Q 3750 3906 3750 3116 
Q 3750 2516 3592 1923 
Q 3434 1331 3150 863 
Q 2859 394 2467 151 
Q 2075 -91 1600 -91 
Q 988 -91 653 334 
Q 319 759 319 1544 
Q 319 2138 480 2733 
Q 641 3328 928 3794 
Q 1216 4263 1602 4506 
Q 1988 4750 2444 4750 
z
M 2406 4250 
Q 2169 4250 1955 4123 
Q 1741 3997 1569 3750 
Q 1281 3338 1111 2720 
Q 941 2103 941 1453 
Q 941 938 1123 673 
Q 1306 409 1663 409 
Q 1913 409 2125 536 
Q 2338 663 2509 909 
Q 2794 1319 2961 1936 
Q 3128 2553 3128 3206 
Q 3128 3722 2945 3986 
Q 2763 4250 2406 4250 
z
" transform="scale(0.015625)"/>
     </defs>
     <use xlink:href="#DejaVuSans-Oblique-50"/>
     <use xlink:href="#DejaVuSans-Oblique-72" transform="translate(60.302734 0)"/>
     <use xlink:href="#DejaVuSans-Oblique-6f" transform="translate(101.416016 0)"/>
     <use xlink:href="#DejaVuSans-Oblique-6d" transform="translate(162.597656 0)"/>
     <use xlink:href="#DejaVuSans-Oblique-70" transform="translate(260.009766 0)"/>
     <use xlink:href="#DejaVuSans-Oblique-74" transform="translate(323.486328 0)"/>
     <use xlink:href="#DejaVuSans-Oblique-3a" transform="translate(362.695312 0)"/>
     <use xlink:href="#DejaVuSans-Oblique-20" transform="translate(396.386719 0)"/>
     <use xlink:href="#DejaVuSans-Oblique-74" transform="translate(428.173828 0)"/>
     <use xlink:href="#DejaVuSans-Oblique-6f" transform="translate(467.382812 0)"/>
     <use xlink:href="#DejaVuSans-Oblique-78" transform="translate(528.564453 0)"/>
     <use xlink:href="#DejaVuSans-Oblique-69" transform="translate(587.744141 0)"/>
     <use xlink:href="#DejaVuSans-Oblique-63" transform="translate(615.527344 0)"/>
     <use xlink:href="#DejaVuSans-Oblique-69" transform="translate(670.507812 0)"/>
     <use xlink:href="#DejaVuSans-Oblique-74" transform="translate(698.291016 0)"/>
     <use xlink:href="#DejaVuSans-Oblique-79" transform="translate(737.5 0)"/>
     <use xlink:href="#DejaVuSans-Oblique-5f" transform="translate(796.679688 0)"/>
     <use xlink:href="#DejaVuSans-Oblique-31" transform="translate(846.679688 0)"/>
     <use xlink:href="#DejaVuSans-Oblique-30" transform="translate(910.302734 0)"/>
     <use xlink:href="#DejaVuSans-Oblique-5f" transform="translate(973.925781 0)"/>
     <use xlink:href="#DejaVuSans-Oblique-70" transform="translate(1023.925781 0)"/>
     <use xlink:href="#DejaVuSans-Oblique-72" transform="translate(1087.402344 0)"/>
     <use xlink:href="#DejaVuSans-Oblique-6f" transform="translate(1128.515625 0)"/>
     <use xlink:href="#DejaVuSans-Oblique-64" transform="translate(1189.697266 0)"/>
     <use xlink:href="#DejaVuSans-Oblique-2e" transform="translate(1253.173828 0)"/>
     <use xlink:href="#DejaVuSans-Oblique-6a" transform="translate(1284.960938 0)"/>
     <use xlink:href="#DejaVuSans-Oblique-69" transform="translate(1312.744141 0)"/>
     <use xlink:href="#DejaVuSans-Oblique-6e" transform="translate(1340.527344 0)"/>
     <use xlink:href="#DejaVuSans-Oblique-6a" transform="translate(1403.90625 0)"/>
     <use xlink:href="#DejaVuSans-Oblique-61" transform="translate(1431.689453 0)"/>
     <use xlink:href="#DejaVuSans-Oblique-32" transform="translate(1492.96875 0)"/>
    </g>
   </g>
   <g id="text_16">
    <g id="patch_9">
     <path d="M 261.436094 24.949375 
L 652.532656 24.949375 
Q 656.732656 24.949375 656.732656 20.749375 
L 656.732656 7.2 
Q 656.732656 3 652.532656 3 
L 261.436094 3 
Q 257.236094 3 257.236094 7.2 
L 257.236094 20.749375 
Q 257.236094 24.949375 261.436094 24.949375 
z
" style="fill: #ffffe0; opacity: 0.8; stroke: #000000; stroke-linejoin: miter"/>
    </g>
    <!-- Diferencia: 0.1050 (16.57%) a favor de Escala 0-3 -->
    <g transform="translate(261.436094 17.837813) scale(0.14 -0.14)">
     <defs>
      <path id="DejaVuSans-Bold-44" d="M 1791 3756 
L 1791 909 
L 2222 909 
Q 2959 909 3348 1275 
Q 3738 1641 3738 2338 
Q 3738 3031 3350 3393 
Q 2963 3756 2222 3756 
L 1791 3756 
z
M 588 4666 
L 1856 4666 
Q 2919 4666 3439 4514 
Q 3959 4363 4331 4000 
Q 4659 3684 4818 3271 
Q 4978 2859 4978 2338 
Q 4978 1809 4818 1395 
Q 4659 981 4331 666 
Q 3956 303 3431 151 
Q 2906 0 1856 0 
L 588 0 
L 588 4666 
z
" transform="scale(0.015625)"/>
      <path id="DejaVuSans-Bold-3a" d="M 716 3500 
L 1844 3500 
L 1844 2291 
L 716 2291 
L 716 3500 
z
M 716 1209 
L 1844 1209 
L 1844 0 
L 716 0 
L 716 1209 
z
" transform="scale(0.015625)"/>
      <path id="DejaVuSans-Bold-37" d="M 428 4666 
L 3944 4666 
L 3944 3988 
L 2125 0 
L 953 0 
L 2675 3781 
L 428 3781 
L 428 4666 
z
" transform="scale(0.015625)"/>
      <path id="DejaVuSans-Bold-25" d="M 4959 1925 
Q 4738 1925 4616 1733 
Q 4494 1541 4494 1184 
Q 4494 825 4614 633 
Q 4734 441 4959 441 
Q 5184 441 5303 633 
Q 5422 825 5422 1184 
Q 5422 1541 5301 1733 
Q 5181 1925 4959 1925 
z
M 4959 2450 
Q 5541 2450 5875 2112 
Q 6209 1775 6209 1184 
Q 6209 594 5875 251 
Q 5541 -91 4959 -91 
Q 4378 -91 4042 251 
Q 3706 594 3706 1184 
Q 3706 1772 4042 2111 
Q 4378 2450 4959 2450 
z
M 2094 -91 
L 1403 -91 
L 4319 4750 
L 5013 4750 
L 2094 -91 
z
M 1453 4750 
Q 2034 4750 2367 4411 
Q 2700 4072 2700 3481 
Q 2700 2891 2367 2550 
Q 2034 2209 1453 2209 
Q 872 2209 539 2550 
Q 206 2891 206 3481 
Q 206 4072 539 4411 
Q 872 4750 1453 4750 
z
M 1453 4225 
Q 1228 4225 1106 4031 
Q 984 3838 984 3481 
Q 984 3122 1106 2926 
Q 1228 2731 1453 2731 
Q 1678 2731 1798 2926 
Q 1919 3122 1919 3481 
Q 1919 3838 1797 4031 
Q 1675 4225 1453 4225 
z
" transform="scale(0.015625)"/>
      <path id="DejaVuSans-Bold-76" d="M 97 3500 
L 1216 3500 
L 2088 1081 
L 2956 3500 
L 4078 3500 
L 2700 0 
L 1472 0 
L 97 3500 
z
" transform="scale(0.015625)"/>
      <path id="DejaVuSans-Bold-6f" d="M 2203 2784 
Q 1831 2784 1636 2517 
Q 1441 2250 1441 1747 
Q 1441 1244 1636 976 
Q 1831 709 2203 709 
Q 2569 709 2762 976 
Q 2956 1244 2956 1747 
Q 2956 2250 2762 2517 
Q 2569 2784 2203 2784 
z
M 2203 3584 
Q 3106 3584 3614 3096 
Q 4122 2609 4122 1747 
Q 4122 884 3614 396 
Q 3106 -91 2203 -91 
Q 1297 -91 786 396 
Q 275 884 275 1747 
Q 275 2609 786 3096 
Q 1297 3584 2203 3584 
z
" transform="scale(0.015625)"/>
      <path id="DejaVuSans-Bold-64" d="M 2919 2988 
L 2919 4863 
L 4044 4863 
L 4044 0 
L 2919 0 
L 2919 506 
Q 2688 197 2409 53 
Q 2131 -91 1766 -91 
Q 1119 -91 703 423 
Q 288 938 288 1747 
Q 288 2556 703 3070 
Q 1119 3584 1766 3584 
Q 2128 3584 2408 3439 
Q 2688 3294 2919 2988 
z
M 2181 722 
Q 2541 722 2730 984 
Q 2919 1247 2919 1747 
Q 2919 2247 2730 2509 
Q 2541 2772 2181 2772 
Q 1825 2772 1636 2509 
Q 1447 2247 1447 1747 
Q 1447 1247 1636 984 
Q 1825 722 2181 722 
z
" transform="scale(0.015625)"/>
      <path id="DejaVuSans-Bold-45" d="M 588 4666 
L 3834 4666 
L 3834 3756 
L 1791 3756 
L 1791 2888 
L 3713 2888 
L 3713 1978 
L 1791 1978 
L 1791 909 
L 3903 909 
L 3903 0 
L 588 0 
L 588 4666 
z
" transform="scale(0.015625)"/>
      <path id="DejaVuSans-Bold-2d" d="M 347 2297 
L 2309 2297 
L 2309 1388 
L 347 1388 
L 347 2297 
z
" transform="scale(0.015625)"/>
     </defs>
     <use xlink:href="#DejaVuSans-Bold-44"/>
     <use xlink:href="#DejaVuSans-Bold-69" transform="translate(83.007812 0)"/>
     <use xlink:href="#DejaVuSans-Bold-66" transform="translate(117.285156 0)"/>
     <use xlink:href="#DejaVuSans-Bold-65" transform="translate(160.791016 0)"/>
     <use xlink:href="#DejaVuSans-Bold-72" transform="translate(228.613281 0)"/>
     <use xlink:href="#DejaVuSans-Bold-65" transform="translate(277.929688 0)"/>
     <use xlink:href="#DejaVuSans-Bold-6e" transform="translate(345.751953 0)"/>
     <use xlink:href="#DejaVuSans-Bold-63" transform="translate(416.943359 0)"/>
     <use xlink:href="#DejaVuSans-Bold-69" transform="translate(476.220703 0)"/>
     <use xlink:href="#DejaVuSans-Bold-61" transform="translate(510.498047 0)"/>
     <use xlink:href="#DejaVuSans-Bold-3a" transform="translate(577.978516 0)"/>
     <use xlink:href="#DejaVuSans-Bold-20" transform="translate(617.96875 0)"/>
     <use xlink:href="#DejaVuSans-Bold-30" transform="translate(652.783203 0)"/>
     <use xlink:href="#DejaVuSans-Bold-2e" transform="translate(722.363281 0)"/>
     <use xlink:href="#DejaVuSans-Bold-31" transform="translate(760.351562 0)"/>
     <use xlink:href="#DejaVuSans-Bold-30" transform="translate(829.931641 0)"/>
     <use xlink:href="#DejaVuSans-Bold-35" transform="translate(899.511719 0)"/>
     <use xlink:href="#DejaVuSans-Bold-30" transform="translate(969.091797 0)"/>
     <use xlink:href="#DejaVuSans-Bold-20" transform="translate(1038.671875 0)"/>
     <use xlink:href="#DejaVuSans-Bold-28" transform="translate(1073.486328 0)"/>
     <use xlink:href="#DejaVuSans-Bold-31" transform="translate(1119.189453 0)"/>
     <use xlink:href="#DejaVuSans-Bold-36" transform="translate(1188.769531 0)"/>
     <use xlink:href="#DejaVuSans-Bold-2e" transform="translate(1258.349609 0)"/>
     <use xlink:href="#DejaVuSans-Bold-35" transform="translate(1296.337891 0)"/>
     <use xlink:href="#DejaVuSans-Bold-37" transform="translate(1365.917969 0)"/>
     <use xlink:href="#DejaVuSans-Bold-25" transform="translate(1435.498047 0)"/>
     <use xlink:href="#DejaVuSans-Bold-29" transform="translate(1535.693359 0)"/>
     <use xlink:href="#DejaVuSans-Bold-20" transform="translate(1581.396484 0)"/>
     <use xlink:href="#DejaVuSans-Bold-61" transform="translate(1616.210938 0)"/>
     <use xlink:href="#DejaVuSans-Bold-20" transform="translate(1683.691406 0)"/>
     <use xlink:href="#DejaVuSans-Bold-66" transform="translate(1718.505859 0)"/>
     <use xlink:href="#DejaVuSans-Bold-61" transform="translate(1762.011719 0)"/>
     <use xlink:href="#DejaVuSans-Bold-76" transform="translate(1829.492188 0)"/>
     <use xlink:href="#DejaVuSans-Bold-6f" transform="translate(1894.677734 0)"/>
     <use xlink:href="#DejaVuSans-Bold-72" transform="translate(1963.378906 0)"/>
     <use xlink:href="#DejaVuSans-Bold-20" transform="translate(2012.695312 0)"/>
     <use xlink:href="#DejaVuSans-Bold-64" transform="translate(2047.509766 0)"/>
     <use xlink:href="#DejaVuSans-Bold-65" transform="translate(2119.091797 0)"/>
     <use xlink:href="#DejaVuSans-Bold-20" transform="translate(2186.914062 0)"/>
     <use xlink:href="#DejaVuSans-Bold-45" transform="translate(2221.728516 0)"/>
     <use xlink:href="#DejaVuSans-Bold-73" transform="translate(2290.039062 0)"/>
     <use xlink:href="#DejaVuSans-Bold-63" transform="translate(2349.560547 0)"/>
     <use xlink:href="#DejaVuSans-Bold-61" transform="translate(2408.837891 0)"/>
     <use xlink:href="#DejaVuSans-Bold-6c" transform="translate(2476.318359 0)"/>
     <use xlink:href="#DejaVuSans-Bold-61" transform="translate(2510.595703 0)"/>
     <use xlink:href="#DejaVuSans-Bold-20" transform="translate(2578.076172 0)"/>
     <use xlink:href="#DejaVuSans-Bold-30" transform="translate(2612.890625 0)"/>
     <use xlink:href="#DejaVuSans-Bold-2d" transform="translate(2682.470703 0)"/>
     <use xlink:href="#DejaVuSans-Bold-33" transform="translate(2723.974609 0)"/>
    </g>
   </g>
   <g id="line2d_15">
    <path d="M 455.094768 455.057206 
L 455.094768 30.697206 
" clip-path="url(#p39f54c524f)" style="fill: none; stroke-dasharray: 7.4,3.2; stroke-dashoffset: 0; stroke: #ff0000; stroke-opacity: 0.7; stroke-width: 2"/>
   </g>
   <g id="legend_1">
    <g id="patch_10">
     <path d="M 550.714844 447.557206 
L 831.334375 447.557206 
Q 834.334375 447.557206 834.334375 444.557206 
L 834.334375 423.440019 
Q 834.334375 420.440019 831.334375 420.440019 
L 550.714844 420.440019 
Q 547.714844 420.440019 547.714844 423.440019 
L 547.714844 444.557206 
Q 547.714844 447.557206 550.714844 447.557206 
z
" style="fill: #ffffff; opacity: 0.9; stroke: #cccccc; stroke-linejoin: miter"/>
    </g>
    <g id="line2d_16">
     <path d="M 553.714844 433.187675 
L 568.714844 433.187675 
L 583.714844 433.187675 
" style="fill: none; stroke-dasharray: 7.4,3.2; stroke-dashoffset: 0; stroke: #ff0000; stroke-opacity: 0.7; stroke-width: 2"/>
    </g>
    <g id="text_17">
     <!-- Línea base (0-10 prod): 0.4975 -->
     <g transform="translate(595.714844 438.437675) scale(0.15 -0.15)">
      <defs>
       <path id="DejaVuSans-4c" d="M 628 4666 
L 1259 4666 
L 1259 531 
L 3531 531 
L 3531 0 
L 628 0 
L 628 4666 
z
" transform="scale(0.015625)"/>
       <path id="DejaVuSans-ed" d="M 1322 5119 
L 1944 5119 
L 926 3944 
L 447 3944 
L 1322 5119 
z
M 603 3500 
L 1178 3500 
L 1178 0 
L 603 0 
L 603 3500 
z
M 891 3584 
L 891 3584 
z
" transform="scale(0.015625)"/>
       <path id="DejaVuSans-6e" d="M 3513 2113 
L 3513 0 
L 2938 0 
L 2938 2094 
Q 2938 2591 2744 2837 
Q 2550 3084 2163 3084 
Q 1697 3084 1428 2787 
Q 1159 2491 1159 1978 
L 1159 0 
L 581 0 
L 581 3500 
L 1159 3500 
L 1159 2956 
Q 1366 3272 1645 3428 
Q 1925 3584 2291 3584 
Q 2894 3584 3203 3211 
Q 3513 2838 3513 2113 
z
" transform="scale(0.015625)"/>
       <path id="DejaVuSans-65" d="M 3597 1894 
L 3597 1613 
L 953 1613 
Q 991 1019 1311 708 
Q 1631 397 2203 397 
Q 2534 397 2845 478 
Q 3156 559 3463 722 
L 3463 178 
Q 3153 47 2828 -22 
Q 2503 -91 2169 -91 
Q 1331 -91 842 396 
Q 353 884 353 1716 
Q 353 2575 817 3079 
Q 1281 3584 2069 3584 
Q 2775 3584 3186 3129 
Q 3597 2675 3597 1894 
z
M 3022 2063 
Q 3016 2534 2758 2815 
Q 2500 3097 2075 3097 
Q 1594 3097 1305 2825 
Q 1016 2553 972 2059 
L 3022 2063 
z
" transform="scale(0.015625)"/>
       <path id="DejaVuSans-62" d="M 3116 1747 
Q 3116 2381 2855 2742 
Q 2594 3103 2138 3103 
Q 1681 3103 1420 2742 
Q 1159 2381 1159 1747 
Q 1159 1113 1420 752 
Q 1681 391 2138 391 
Q 2594 391 2855 752 
Q 3116 1113 3116 1747 
z
M 1159 2969 
Q 1341 3281 1617 3432 
Q 1894 3584 2278 3584 
Q 2916 3584 3314 3078 
Q 3713 2572 3713 1747 
Q 3713 922 3314 415 
Q 2916 -91 2278 -91 
Q 1894 -91 1617 61 
Q 1341 213 1159 525 
L 1159 0 
L 581 0 
L 581 4863 
L 1159 4863 
L 1159 2969 
z
" transform="scale(0.015625)"/>
       <path id="DejaVuSans-28" d="M 1984 4856 
Q 1566 4138 1362 3434 
Q 1159 2731 1159 2009 
Q 1159 1288 1364 580 
Q 1569 -128 1984 -844 
L 1484 -844 
Q 1016 -109 783 600 
Q 550 1309 550 2009 
Q 550 2706 781 3412 
Q 1013 4119 1484 4856 
L 1984 4856 
z
" transform="scale(0.015625)"/>
       <path id="DejaVuSans-70" d="M 1159 525 
L 1159 -1331 
L 581 -1331 
L 581 3500 
L 1159 3500 
L 1159 2969 
Q 1341 3281 1617 3432 
Q 1894 3584 2278 3584 
Q 2916 3584 3314 3078 
Q 3713 2572 3713 1747 
Q 3713 922 3314 415 
Q 2916 -91 2278 -91 
Q 1894 -91 1617 61 
Q 1341 213 1159 525 
z
M 3116 1747 
Q 3116 2381 2855 2742 
Q 2594 3103 2138 3103 
Q 1681 3103 1420 2742 
Q 1159 2381 1159 1747 
Q 1159 1113 1420 752 
Q 1681 391 2138 391 
Q 2594 391 2855 752 
Q 3116 1113 3116 1747 
z
" transform="scale(0.015625)"/>
       <path id="DejaVuSans-72" d="M 2631 2963 
Q 2534 3019 2420 3045 
Q 2306 3072 2169 3072 
Q 1681 3072 1420 2755 
Q 1159 2438 1159 1844 
L 1159 0 
L 581 0 
L 581 3500 
L 1159 3500 
L 1159 2956 
Q 1341 3275 1631 3429 
Q 1922 3584 2338 3584 
Q 2397 3584 2469 3576 
Q 2541 3569 2628 3553 
L 2631 2963 
z
" transform="scale(0.015625)"/>
       <path id="DejaVuSans-6f" d="M 1959 3097 
Q 1497 3097 1228 2736 
Q 959 2375 959 1747 
Q 959 1119 1226 758 
Q 1494 397 1959 397 
Q 2419 397 2687 759 
Q 2956 1122 2956 1747 
Q 2956 2369 2687 2733 
Q 2419 3097 1959 3097 
z
M 1959 3584 
Q 2709 3584 3137 3096 
Q 3566 2609 3566 1747 
Q 3566 888 3137 398 
Q 2709 -91 1959 -91 
Q 1206 -91 779 398 
Q 353 888 353 1747 
Q 353 2609 779 3096 
Q 1206 3584 1959 3584 
z
" transform="scale(0.015625)"/>
       <path id="DejaVuSans-64" d="M 2906 2969 
L 2906 4863 
L 3481 4863 
L 3481 0 
L 2906 0 
L 2906 525 
Q 2725 213 2448 61 
Q 2172 -91 1784 -91 
Q 1150 -91 751 415 
Q 353 922 353 1747 
Q 353 2572 751 3078 
Q 1150 3584 1784 3584 
Q 2172 3584 2448 3432 
Q 2725 3281 2906 2969 
z
M 947 1747 
Q 947 1113 1208 752 
Q 1469 391 1925 391 
Q 2381 391 2643 752 
Q 2906 1113 2906 1747 
Q 2906 2381 2643 2742 
Q 2381 3103 1925 3103 
Q 1469 3103 1208 2742 
Q 947 2381 947 1747 
z
" transform="scale(0.015625)"/>
       <path id="DejaVuSans-29" d="M 513 4856 
L 1013 4856 
Q 1481 4119 1714 3412 
Q 1947 2706 1947 2009 
Q 1947 1309 1714 600 
Q 1481 -109 1013 -844 
L 513 -844 
Q 928 -128 1133 580 
Q 1338 1288 1338 2009 
Q 1338 2731 1133 3434 
Q 928 4138 513 4856 
z
" transform="scale(0.015625)"/>
       <path id="DejaVuSans-3a" d="M 750 794 
L 1409 794 
L 1409 0 
L 750 0 
L 750 794 
z
M 750 3309 
L 1409 3309 
L 1409 2516 
L 750 2516 
L 750 3309 
z
" transform="scale(0.015625)"/>
       <path id="DejaVuSans-39" d="M 703 97 
L 703 672 
Q 941 559 1184 500 
Q 1428 441 1663 441 
Q 2288 441 2617 861 
Q 2947 1281 2994 2138 
Q 2813 1869 2534 1725 
Q 2256 1581 1919 1581 
Q 1219 1581 811 2004 
Q 403 2428 403 3163 
Q 403 3881 828 4315 
Q 1253 4750 1959 4750 
Q 2769 4750 3195 4129 
Q 3622 3509 3622 2328 
Q 3622 1225 3098 567 
Q 2575 -91 1691 -91 
Q 1453 -91 1209 -44 
Q 966 3 703 97 
z
M 1959 2075 
Q 2384 2075 2632 2365 
Q 2881 2656 2881 3163 
Q 2881 3666 2632 3958 
Q 2384 4250 1959 4250 
Q 1534 4250 1286 3958 
Q 1038 3666 1038 3163 
Q 1038 2656 1286 2365 
Q 1534 2075 1959 2075 
z
" transform="scale(0.015625)"/>
       <path id="DejaVuSans-37" d="M 525 4666 
L 3525 4666 
L 3525 4397 
L 1831 0 
L 1172 0 
L 2766 4134 
L 525 4134 
L 525 4666 
z
" transform="scale(0.015625)"/>
       <path id="DejaVuSans-35" d="M 691 4666 
L 3169 4666 
L 3169 4134 
L 1269 4134 
L 1269 2991 
Q 1406 3038 1543 3061 
Q 1681 3084 1819 3084 
Q 2600 3084 3056 2656 
Q 3513 2228 3513 1497 
Q 3513 744 3044 326 
Q 2575 -91 1722 -91 
Q 1428 -91 1123 -41 
Q 819 9 494 109 
L 494 744 
Q 775 591 1075 516 
Q 1375 441 1709 441 
Q 2250 441 2565 725 
Q 2881 1009 2881 1497 
Q 2881 1984 2565 2268 
Q 2250 2553 1709 2553 
Q 1456 2553 1204 2497 
Q 953 2441 691 2322 
L 691 4666 
z
" transform="scale(0.015625)"/>
      </defs>
      <use xlink:href="#DejaVuSans-4c"/>
      <use xlink:href="#DejaVuSans-ed" transform="translate(55.712891 0)"/>
      <use xlink:href="#DejaVuSans-6e" transform="translate(83.496094 0)"/>
      <use xlink:href="#DejaVuSans-65" transform="translate(146.875 0)"/>
      <use xlink:href="#DejaVuSans-61" transform="translate(208.398438 0)"/>
      <use xlink:href="#DejaVuSans-20" transform="translate(269.677734 0)"/>
      <use xlink:href="#DejaVuSans-62" transform="translate(301.464844 0)"/>
      <use xlink:href="#DejaVuSans-61" transform="translate(364.941406 0)"/>
      <use xlink:href="#DejaVuSans-73" transform="translate(426.220703 0)"/>
      <use xlink:href="#DejaVuSans-65" transform="translate(478.320312 0)"/>
      <use xlink:href="#DejaVuSans-20" transform="translate(539.84375 0)"/>
      <use xlink:href="#DejaVuSans-28" transform="translate(571.630859 0)"/>
      <use xlink:href="#DejaVuSans-30" transform="translate(610.644531 0)"/>
      <use xlink:href="#DejaVuSans-2d" transform="translate(674.267578 0)"/>
      <use xlink:href="#DejaVuSans-31" transform="translate(710.351562 0)"/>
      <use xlink:href="#DejaVuSans-30" transform="translate(773.974609 0)"/>
      <use xlink:href="#DejaVuSans-20" transform="translate(837.597656 0)"/>
      <use xlink:href="#DejaVuSans-70" transform="translate(869.384766 0)"/>
      <use xlink:href="#DejaVuSans-72" transform="translate(932.861328 0)"/>
      <use xlink:href="#DejaVuSans-6f" transform="translate(971.724609 0)"/>
      <use xlink:href="#DejaVuSans-64" transform="translate(1032.90625 0)"/>
      <use xlink:href="#DejaVuSans-29" transform="translate(1096.382812 0)"/>
      <use xlink:href="#DejaVuSans-3a" transform="translate(1135.396484 0)"/>
      <use xlink:href="#DejaVuSans-20" transform="translate(1169.087891 0)"/>
      <use xlink:href="#DejaVuSans-30" transform="translate(1200.875 0)"/>
      <use xlink:href="#DejaVuSans-2e" transform="translate(1264.498047 0)"/>
      <use xlink:href="#DejaVuSans-34" transform="translate(1296.285156 0)"/>
      <use xlink:href="#DejaVuSans-39" transform="translate(1359.908203 0)"/>
      <use xlink:href="#DejaVuSans-37" transform="translate(1423.53125 0)"/>
      <use xlink:href="#DejaVuSans-35" transform="translate(1487.154297 0)"/>
     </g>
    </g>
   </g>
  </g>
 </g>
 <defs>
  <clipPath id="p39f54c524f">
   <rect x="72.134375" y="30.697206" width="769.7" height="424.36"/>
  </clipPath>
 </defs>
</svg>
